<?xml version="1.0" standalone="no"?>
<!DOCTYPE svg PUBLIC "-//W3C//DTD SVG 1.1//EN" "http://www.w3.org/Graphics/SVG/1.1/DTD/svg11.dtd" >
<svg xmlns="http://www.w3.org/2000/svg" xmlns:xlink="http://www.w3.org/1999/xlink" version="1.1">
<metadata></metadata>
<defs>
<font id="bigcity_grotesque_promedium" horiz-adv-x="1239" >
<font-face units-per-em="2048" ascent="1536" descent="-512" />
<missing-glyph horiz-adv-x="448" />
<glyph unicode="fi" horiz-adv-x="1198" d="M53 854v186h150v189q0 162 85 260t249 98q45 0 83.5 -4.5t53.5 -8.5l16 -5v-178q-40 8 -106 8q-140 0 -140 -166v-193h611v-1040h-242v858h-369v-858h-241v854h-150zM793 1386q0 64 35.5 103t101.5 39q67 0 104 -38.5t37 -100.5q0 -63 -37.5 -103.5t-105.5 -40.5 q-64 0 -99.5 40t-35.5 101z" />
<glyph unicode="fl" horiz-adv-x="1226" d="M53 854v186h150v168q0 162 85.5 261.5t260.5 99.5h491v-1268q0 -74 24.5 -103.5t80.5 -29.5h20v-168q-51 -18 -133 -18q-233 0 -233 272v1132h-209q-146 0 -146 -178v-168h193v-182h-193v-858h-241v854h-150z" />
<glyph unicode=" "  horiz-adv-x="448" />
<glyph unicode="&#x09;" horiz-adv-x="448" />
<glyph unicode="&#xa0;" horiz-adv-x="448" />
<glyph unicode="!" horiz-adv-x="544" d="M123 135q0 65 41 108.5t108 43.5t108.5 -43.5t41.5 -108.5q0 -68 -41 -113t-109 -45q-67 0 -108 45t-41 113zM150 1466h245l-26 -1017h-195z" />
<glyph unicode="&#x22;" horiz-adv-x="776" d="M115 1466h227l-49 -489h-162zM453 1466h227l-49 -489h-162z" />
<glyph unicode="#" horiz-adv-x="1363" d="M100 414v188h217l56 279h-273v188h312l82 397h215l-82 -397h264l82 397h213l-80 -397h158v-188h-199l-55 -279h254v-188h-293l-86 -414h-213l84 414h-264l-84 -414h-215l83 414h-176zM530 602h265l57 279h-264z" />
<glyph unicode="$" horiz-adv-x="1046" d="M94 1083q0 152 91.5 258t260.5 136v225h209v-215q69 -4 132.5 -16.5t92.5 -22.5l29 -10v-213q-166 51 -313 51q-122 0 -188 -47.5t-66 -134.5q0 -82 65 -137t203 -111q85 -35 145.5 -70.5t114.5 -85.5t81.5 -118.5t27.5 -153.5q0 -152 -85.5 -263.5t-256.5 -154.5v-264 h-209v241q-30 0 -59 2t-53 5t-47.5 7t-42 8t-36.5 9t-30.5 9t-24.5 8.5t-18.5 7.5t-12.5 5l-6 3v213q18 -7 49 -17.5t121 -28.5t172 -18q147 0 220 55.5t73 151.5q0 48 -20 87t-63 71t-86.5 55t-114.5 54q-63 28 -108 52t-95 61.5t-80.5 78.5t-51 99.5t-20.5 127.5z" />
<glyph unicode="%" horiz-adv-x="1931" d="M63 1081q0 186 104.5 297t289.5 111q184 0 287.5 -110.5t103.5 -297.5t-103.5 -298t-287.5 -111q-185 0 -289.5 111t-104.5 298zM297 1081q0 -229 160 -229q157 0 157 229q0 228 -157 228q-160 0 -160 -228zM389 -6l932 1479h223l-934 -1479h-221zM1081 387 q0 187 104.5 298.5t289.5 111.5t289 -111.5t104 -298.5q0 -186 -104 -296.5t-289 -110.5t-289.5 110.5t-104.5 296.5zM1317 387q0 -227 158 -227q157 0 157 227q0 229 -157 229q-158 0 -158 -229z" />
<glyph unicode="&#x26;" horiz-adv-x="1361" d="M86 328q0 124 68.5 219.5t212.5 197.5q-93 109 -142 197t-49 193q0 92 44 172.5t135 133t212 52.5q180 0 281.5 -98.5t101.5 -243.5q0 -124 -73 -222.5t-211 -201.5q226 -270 266 -315q107 147 135 350h209q-38 -286 -201 -500q57 -58 90 -75t76 -17q15 0 28 1.5t19 2.5 l6 2v-182q-36 -17 -106 -17q-79 0 -131.5 31t-132.5 109q-183 -140 -414 -140q-188 0 -306 96.5t-118 254.5zM322 338q0 -78 55.5 -124t148.5 -46q143 0 265 92q-47 47 -295 340q-95 -70 -134.5 -126.5t-39.5 -135.5zM399 1137q0 -67 35 -127.5t105 -139.5 q91 66 139.5 128.5t48.5 140.5q0 70 -43 115.5t-123 45.5q-71 0 -116.5 -45.5t-45.5 -117.5z" />
<glyph unicode="'" horiz-adv-x="440" d="M115 1466h227l-49 -489h-162z" />
<glyph unicode="(" horiz-adv-x="667" d="M88 618q0 136 21.5 266.5t56.5 230.5t76.5 190t83.5 152.5t77 109t57 68.5l21 22l146 -105q-299 -406 -299 -934q0 -274 69.5 -498t225.5 -433l-138 -119q-8 7 -22.5 21.5t-55.5 64.5t-78.5 107t-83.5 150t-79 193t-55.5 235.5t-22.5 278.5z" />
<glyph unicode=")" horiz-adv-x="667" d="M41 1552l145 105q8 -8 22 -23t55 -67t78 -110t82 -151t77.5 -191.5t55 -229.5t22.5 -267q0 -143 -22 -278t-57 -237t-77 -191.5t-84 -151t-77 -106t-57 -65.5l-22 -21l-137 119q155 209 224 433t69 498q0 531 -297 934z" />
<glyph unicode="*" horiz-adv-x="956" d="M97.5 904q1.5 28 26.5 54.5t69 40.5l206 66l-213 63q-59 17 -82 63t2 87q14 26 39 38t60 4t69 -40l166 -147l-51 210q-17 64 9 107t77 43q48 0 74.5 -37.5t9.5 -109.5l-47 -213l164 151q46 45 96 43.5t74 -45.5q11 -19 12.5 -41t-6.5 -44t-32.5 -40.5t-61.5 -28.5 l-199 -59l203 -61q63 -18 87.5 -65t-1.5 -89q-16 -25 -40.5 -37.5t-60.5 -4t-73 43.5l-162 145l53 -215q17 -64 -9 -105.5t-77 -41.5q-48 0 -74.5 37.5t-9.5 109.5l45 218l-166 -160q-43 -43 -92 -40.5t-73 46.5q-13 26 -11.5 54z" />
<glyph unicode="+" horiz-adv-x="989" d="M82 500v186h313v338h199v-338h311v-186h-311v-338h-199v338h-313z" />
<glyph unicode="," horiz-adv-x="495" d="M96 131q0 63 41 109.5t113 46.5q68 0 105.5 -46t37.5 -124q0 -49 -29.5 -130.5t-56.5 -137t-80 -158.5l-114 45l102 241q-55 12 -87 54t-32 100z" />
<glyph unicode="-" horiz-adv-x="819" d="M125 526v189h569v-189h-569z" />
<glyph unicode="." horiz-adv-x="489" d="M96 135q0 65 40.5 108.5t107.5 43.5q68 0 108.5 -43.5t40.5 -108.5q0 -68 -40 -113t-109 -45q-67 0 -107.5 45t-40.5 113z" />
<glyph unicode="/" horiz-adv-x="1105" d="M43 -295l784 1788h240l-784 -1788h-240z" />
<glyph unicode="0" horiz-adv-x="1222" d="M104 737q0 374 130 565t376 191q247 0 377.5 -191t130.5 -567q0 -377 -130.5 -567.5t-377.5 -190.5q-246 0 -376 191.5t-130 568.5zM360 737q0 -286 58.5 -416.5t191.5 -130.5t192.5 130.5t59.5 416.5q0 283 -59.5 412t-192.5 129t-191.5 -129t-58.5 -412z" />
<glyph unicode="1" horiz-adv-x="749" d="M45 1155v188l348 138h191v-1481h-246v1253z" />
<glyph unicode="2" horiz-adv-x="1011" d="M88 0v209l342 444q106 134 154.5 228t48.5 186q0 95 -58.5 153t-168.5 58q-76 0 -151 -27t-112 -53l-37 -27v211q5 5 14.5 12t42.5 26.5t71 34t99 26.5t126 12q202 0 310 -110t108 -285q0 -131 -62.5 -256.5t-181.5 -276.5l-271 -356h570v-209h-844z" />
<glyph unicode="3" horiz-adv-x="1040" d="M96 57v211q16 -9 44 -23t113.5 -37.5t168.5 -23.5q128 0 205.5 65.5t77.5 182.5q0 111 -73 176.5t-208 65.5h-127v198h123q94 0 157.5 64.5t63.5 159.5q0 81 -53 134.5t-164 53.5q-76 0 -154.5 -27.5t-119.5 -54.5l-41 -28v208q6 5 16 12t45.5 26.5t75 34t100.5 26.5 t125 12q195 0 304.5 -103.5t109.5 -261.5q0 -106 -53.5 -191t-131.5 -130q119 -45 183.5 -146.5t64.5 -234.5q0 -201 -139 -325t-367 -124q-65 0 -124.5 8t-98 20t-68 24t-42.5 20z" />
<glyph unicode="4" horiz-adv-x="1155" d="M47 301v184l658 1004h208v-997h168v-191h-168v-324h-245v324h-621zM260 492h410v620z" />
<glyph unicode="5" horiz-adv-x="1030" d="M100 57v211q6 -3 16 -9t43 -20.5t67 -25.5t84.5 -20t99.5 -9q128 0 208 65.5t80 192.5q0 123 -82 200t-254 77q-139 0 -210 -14v761h720v-209h-499v-344q283 12 429 -108.5t146 -347.5q0 -215 -138.5 -347.5t-367.5 -132.5q-65 0 -124 8t-97 20t-66.5 24t-41.5 20z" />
<glyph unicode="6" horiz-adv-x="1167" d="M102 682q0 183 33.5 327.5t102 253t181.5 166.5t265 58q89 0 167.5 -20t112.5 -40l33 -20v-211q-15 9 -42 22.5t-107 36.5t-156 23q-162 0 -247.5 -107.5t-98.5 -339.5q45 53 125.5 86t181.5 33q197 0 313.5 -120.5t116.5 -333.5q0 -235 -133 -377t-348 -142 q-130 0 -226.5 49t-156 142t-88.5 221t-29 293zM362 502q0 -151 66 -235.5t180 -84.5q104 0 170 80t66 217q0 131 -64 205t-174 74q-105 0 -174.5 -73.5t-69.5 -182.5z" />
<glyph unicode="7" horiz-adv-x="946" d="M51 1257v209h842v-209l-475 -1257h-244l471 1257h-594z" />
<glyph unicode="8" horiz-adv-x="1161" d="M94 375q0 245 268 389q-219 130 -219 344q0 77 30 146.5t85 122.5t139.5 84.5t186.5 31.5q204 0 316 -104t112 -259q0 -117 -65 -208t-167 -144q151 -80 220 -172.5t69 -224.5q0 -175 -138.5 -289.5t-357.5 -114.5q-211 0 -345 108t-134 290zM334 389q0 -98 73 -155.5 t175 -57.5q105 0 174 59t69 156q0 170 -278 279q-104 -47 -158.5 -119.5t-54.5 -161.5zM377 1106q0 -81 54.5 -135.5t164.5 -104.5q188 92 188 246q0 77 -54.5 128.5t-145.5 51.5q-93 0 -150 -52t-57 -134z" />
<glyph unicode="9" horiz-adv-x="1167" d="M84 969q0 234 133 376t348 142q172 0 285.5 -87.5t164 -242.5t50.5 -377q0 -182 -33.5 -326.5t-102 -252.5t-181.5 -166t-265 -58q-89 0 -167.5 20t-111.5 40l-34 20v209q15 -9 42 -22.5t107 -36.5t156 -23q162 0 247.5 108.5t98.5 340.5q-45 -53 -125 -86t-182 -33 q-197 0 -313.5 121t-116.5 334zM324 985q0 -131 63.5 -204.5t173.5 -73.5q105 0 174.5 73.5t69.5 182.5q0 150 -66.5 234.5t-179.5 84.5q-103 0 -169 -80.5t-66 -216.5z" />
<glyph unicode=":" horiz-adv-x="540" d="M121 893q0 66 41 110t108 44q68 0 109 -44t41 -110t-41.5 -111t-108.5 -45t-108 45t-41 111zM123 135q0 65 40.5 108.5t108.5 43.5q67 0 107.5 -43.5t40.5 -108.5q0 -68 -40.5 -113t-107.5 -45q-69 0 -109 45t-40 113z" />
<glyph unicode=";" horiz-adv-x="542" d="M121 893q0 66 41 110t108 44q68 0 109 -44t41 -110t-41.5 -111t-108.5 -45t-108 45t-41 111zM123 131q0 65 40 110.5t109 45.5q68 0 107 -46.5t39 -123.5q0 -49 -29.5 -130.5t-56.5 -137t-80 -158.5l-115 45l103 241q-54 12 -85.5 54.5t-31.5 99.5z" />
<glyph unicode="&#x3c;" horiz-adv-x="854" d="M70 487v148l663 383v-225l-420 -234l420 -248v-225z" />
<glyph unicode="=" horiz-adv-x="1046" d="M131 301v188h784v-188h-784zM131 692v189h784v-189h-784z" />
<glyph unicode="&#x3e;" horiz-adv-x="854" d="M121 86v225l418 248l-418 234v225l663 -383v-148z" />
<glyph unicode="?" horiz-adv-x="874" d="M70 1192v199q4 4 13 11t39.5 24.5t65.5 31t91.5 24.5t117.5 11q200 0 306 -109.5t106 -273.5q0 -160 -91.5 -270.5t-248.5 -147.5l-4 -241h-191l-4 364q122 0 208.5 69t86.5 193q0 103 -63 161t-164 58q-46 0 -90.5 -10.5t-75 -26t-55 -31t-35.5 -26.5zM221 135 q0 65 41.5 108.5t108.5 43.5t108 -43.5t41 -108.5q0 -68 -41 -113t-108 -45q-68 0 -109 45t-41 113z" />
<glyph unicode="@" horiz-adv-x="1966" d="M92 442q0 201 63 371.5t178.5 294t287 193t378.5 69.5q404 0 635.5 -222.5t231.5 -606.5q0 -261 -112.5 -409t-297.5 -148q-211 0 -270 149q-10 -15 -28 -34t-53 -47t-89 -46t-115 -18q-184 0 -283.5 130t-99.5 355q0 101 24.5 190.5t72.5 162t128.5 115t182.5 42.5 q152 0 243 -94l11 69h204v-675q0 -113 103 -113q71 0 111 86t40 262q0 317 -166 487.5t-477 170.5q-306 0 -491 -196t-185 -521q0 -158 46.5 -282t130.5 -202t196.5 -118.5t249.5 -40.5q89 0 166.5 9t109.5 19l33 9v-185q-13 -5 -38 -12t-107 -19t-170 -12 q-387 0 -615.5 216t-228.5 601zM762 479q0 -140 53 -218.5t148 -78.5q34 0 65 10t53 25.5t37.5 30t25.5 27t11 12.5v446l-6 5q-6 5 -12.5 10t-17 12t-24 12.5t-30 11t-38 8.5t-44.5 3q-106 0 -163.5 -86.5t-57.5 -229.5z" />
<glyph unicode="A" horiz-adv-x="1241" d="M20 0l484 1473h235l482 -1473h-248l-103 322h-516l-102 -322h-232zM416 530h391l-201 613z" />
<glyph unicode="B" horiz-adv-x="1230" d="M168 0v1466h407q256 0 380 -101t124 -284q0 -104 -49 -184t-135 -125q124 -37 187 -129t63 -215q0 -212 -140.5 -320t-388.5 -108h-448zM410 201h208q133 0 204 60t71 169q0 113 -64 169t-204 56h-215v-454zM410 854h186q240 0 240 217q0 97 -66.5 146t-189.5 49h-170 v-412z" />
<glyph unicode="C" horiz-adv-x="1138" d="M96 698q0 177 40 321t118.5 249.5t202.5 163t284 57.5q96 0 173.5 -13.5t107.5 -26.5l29 -13v-215q-12 6 -35 15t-99 24.5t-159 15.5q-107 0 -186 -41.5t-126 -119.5t-69.5 -180.5t-22.5 -232.5q0 -512 402 -512q88 0 162.5 16.5t105.5 33.5l31 16v-215q-4 -3 -12 -7 t-37.5 -15t-63 -19.5t-89 -15.5t-116.5 -7q-301 0 -471 185t-170 536z" />
<glyph unicode="D" horiz-adv-x="1372" d="M168 0v1466h418q335 0 512.5 -192.5t177.5 -540.5q0 -347 -178 -540t-512 -193h-418zM412 221h182q201 0 313.5 128t112.5 384t-112.5 384t-313.5 128h-182v-1024z" />
<glyph unicode="E" horiz-adv-x="1095" d="M168 0v1466h829v-217h-585v-399h485v-213h-485v-420h585v-217h-829z" />
<glyph unicode="F" horiz-adv-x="1048" d="M168 0v1466h823v-217h-579v-409h487v-219h-487v-621h-244z" />
<glyph unicode="G" horiz-adv-x="1300" d="M94 725q0 166 42.5 303.5t127 241.5t220.5 161.5t313 57.5q103 0 192.5 -14.5t127.5 -29.5l38 -15v-209q-16 6 -45 15t-117 24.5t-176 15.5q-240 0 -353.5 -144t-113.5 -405q0 -256 114 -396.5t345 -140.5q85 0 149 15v413h-299v211h521v-798q-18 -6 -50.5 -16t-128 -26 t-184.5 -16q-190 0 -331 55t-225.5 157t-125.5 236.5t-41 303.5z" />
<glyph unicode="H" horiz-adv-x="1411" d="M168 0v1466h244v-612h587v612h244v-1466h-244v633h-587v-633h-244z" />
<glyph unicode="I" horiz-adv-x="579" d="M168 0v1466h244v-1466h-244z" />
<glyph unicode="J" horiz-adv-x="727" d="M35 12v205q71 -29 145 -29q76 0 111 47t35 146v1085h245v-1087q0 -198 -91.5 -300t-264.5 -102q-46 0 -91 8.5t-67 17.5z" />
<glyph unicode="K" horiz-adv-x="1220" d="M168 0v1466h244v-616h88l424 616h256l-484 -704l516 -762h-278l-434 637h-88v-637h-244z" />
<glyph unicode="L" horiz-adv-x="1015" d="M168 0v1466h244v-1245h577v-221h-821z" />
<glyph unicode="M" horiz-adv-x="1693" d="M133 0l70 1466h276l373 -1017l369 1017h270l68 -1466h-232l-41 1120l-362 -1022h-176l-359 1026l-45 -1124h-211z" />
<glyph unicode="N" horiz-adv-x="1419" d="M168 0v1466h221l641 -1040v1040h223v-1466h-223l-641 1040v-1040h-221z" />
<glyph unicode="O" horiz-adv-x="1398" d="M98 733q0 362 154 559t446 197q294 0 448 -195.5t154 -560.5t-156 -560.5t-446 -195.5t-445 195.5t-155 560.5zM354 733q0 -274 83 -408.5t263 -134.5q176 0 260 135.5t84 407.5q0 273 -82 408t-262 135q-178 0 -262 -135.5t-84 -407.5z" />
<glyph unicode="P" horiz-adv-x="1169" d="M168 0v1466h405q258 0 397.5 -119t139.5 -331q0 -224 -149 -349.5t-388 -125.5h-161v-541h-244zM412 750h163q127 0 206 67.5t79 196.5q0 118 -73.5 180.5t-215.5 62.5h-159v-507z" />
<glyph unicode="Q" horiz-adv-x="1402" d="M100 733q0 371 151.5 563.5t448.5 192.5t450 -192t153 -564q0 -309 -106 -493t-310 -238q76 -71 154.5 -106t189.5 -35l-19 -207q-99 0 -182.5 23.5t-150 69t-118.5 100.5t-102 130q-273 15 -416 206.5t-143 549.5zM356 733q0 -276 80 -409.5t264 -133.5q183 0 265 134.5 t82 408.5t-81 408.5t-266 134.5q-183 0 -263.5 -134t-80.5 -409z" />
<glyph unicode="R" horiz-adv-x="1210" d="M168 0v1466h426q241 0 371.5 -111.5t130.5 -305.5q0 -134 -64.5 -245t-191.5 -175l336 -629h-267l-303 563h-194v-563h-244zM412 774h172q113 0 187.5 70.5t74.5 193.5q0 102 -66 160.5t-192 58.5h-176v-483z" />
<glyph unicode="S" horiz-adv-x="1062" d="M100 1083q0 182 130 294t362 112q88 0 168.5 -12.5t117.5 -25.5l37 -13v-213q-166 51 -313 51q-122 0 -188 -47.5t-66 -134.5q0 -82 65 -137t203 -111q67 -27 118.5 -54t100.5 -65t80.5 -81t50.5 -101t19 -127q0 -93 -32.5 -171.5t-96.5 -139.5t-170.5 -95.5 t-245.5 -34.5q-90 0 -174 16t-123 32l-39 16v213q18 -7 49 -17.5t121 -28.5t172 -18q147 0 220 55.5t73 151.5q0 48 -20 87t-63 71t-86.5 55t-114.5 54q-63 28 -108 52t-95 61.5t-80.5 78.5t-51 99.5t-20.5 127.5z" />
<glyph unicode="T" horiz-adv-x="1097" d="M27 1245v221h1044v-221h-399v-1245h-246v1245h-399z" />
<glyph unicode="U" horiz-adv-x="1390" d="M154 522v944h243v-944q0 -171 74.5 -251.5t224.5 -80.5q143 0 217.5 80.5t77.5 251.5v944h246v-944q0 -271 -145 -408t-396 -137q-121 0 -219.5 33t-171 98.5t-112 170.5t-39.5 243z" />
<glyph unicode="V" horiz-adv-x="1241" d="M20 1466h248l363 -1124l354 1124h236l-484 -1474h-235z" />
<glyph unicode="W" horiz-adv-x="1773" d="M37 1466h244l258 -1091l262 1098h205l260 -1094l260 1087h217l-363 -1474h-235l-258 1050l-266 -1050h-236z" />
<glyph unicode="X" horiz-adv-x="1185" d="M25 0l428 737l-418 729h262l307 -532l303 532h242l-414 -721l428 -745h-260l-317 547l-320 -547h-241z" />
<glyph unicode="Y" horiz-adv-x="1208" d="M14 1466h256l344 -645l344 645h234l-465 -872v-594h-246v594z" />
<glyph unicode="Z" horiz-adv-x="1097" d="M86 0v215l664 1036h-664v215h926v-215l-656 -1036h656v-215h-926z" />
<glyph unicode="[" horiz-adv-x="720" d="M160 -406v2036h497v-198h-258v-1639h258v-199h-497z" />
<glyph unicode="\" horiz-adv-x="1105" d="M41 1493h238l784 -1788h-238z" />
<glyph unicode="]" horiz-adv-x="720" d="M63 -207h259v1639h-259v198h498v-2036h-498v199z" />
<glyph unicode="^" horiz-adv-x="1103" d="M76 868l383 613h190l381 -613h-223l-256 420l-258 -420h-217z" />
<glyph unicode="_" horiz-adv-x="974" d="M0 -168h975v-186h-975v186z" />
<glyph unicode="`" horiz-adv-x="587" d="M51 1432l107 165l379 -297l-82 -120z" />
<glyph unicode="a" horiz-adv-x="1073" d="M51 281q0 161 116 245t327 92l174 7v34q0 110 -47 160.5t-168 50.5q-72 0 -150.5 -12t-120.5 -24l-43 -11v183q16 6 44.5 15t117.5 24.5t178 15.5q221 0 326.5 -88t105.5 -273v-456q0 -48 26 -67t81 -19h16v-158q-51 -18 -139 -18q-84 0 -130.5 35.5t-66.5 121.5 q-129 -157 -315 -157q-153 0 -242.5 81t-89.5 218zM295 299q0 -63 39 -98t104 -35q43 0 82.5 10.5t65.5 25.5t45 30t28 26l9 10v201l-121 -4q-135 -6 -193.5 -47t-58.5 -119z" />
<glyph unicode="b" horiz-adv-x="1171" d="M25 1407v158q53 22 155 22q203 0 203 -190v-469q3 5 10 14t32.5 32t55 40.5t79.5 32t106 14.5q107 0 189 -40.5t131.5 -112.5t74 -164t24.5 -201q0 -258 -120 -409.5t-328 -151.5q-89 0 -154.5 29t-124.5 85l-32 -96h-185v1323q0 47 -25 65.5t-77 18.5h-14zM383 242 q9 -7 24.5 -17.5t66.5 -28.5t104 -18q130 0 193 94.5t63 262.5q0 155 -60.5 238t-185.5 83q-38 0 -73 -11t-58 -27t-40.5 -32t-25.5 -27l-8 -11v-506z" />
<glyph unicode="c" horiz-adv-x="927" d="M84 520q0 251 135 396t375 145q71 0 133.5 -11.5t89.5 -23.5l27 -12v-183q-102 46 -217 46q-143 0 -218 -92.5t-75 -260.5q0 -172 73 -266t220 -94q55 0 109 11t81 21l27 11v-180q-10 -5 -29.5 -12.5t-86 -20t-140.5 -12.5q-237 0 -370.5 140.5t-133.5 397.5z" />
<glyph unicode="d" horiz-adv-x="1210" d="M86 506q0 85 15.5 163t50 150.5t86 125.5t129 84.5t172.5 31.5q147 0 249 -86v348q0 47 -25 65.5t-77 18.5h-14v158q59 22 155 22q203 0 203 -190v-1153q0 -47 27 -64.5t82 -19.5h14v-160q-55 -18 -135 -18q-166 0 -199 153q-13 -18 -30.5 -36t-55.5 -48.5t-95.5 -49.5 t-123.5 -19q-111 0 -195 40.5t-134 113t-74.5 165.5t-24.5 205zM338 514q0 -160 62.5 -245t179.5 -85q37 0 72 11.5t59 27.5t42 32.5t27 28.5l8 11v502q-8 8 -23 19t-66 29.5t-107 18.5q-122 0 -188 -93t-66 -257z" />
<glyph unicode="e" horiz-adv-x="1064" d="M84 506q0 260 127.5 407.5t349.5 147.5q112 0 196 -37t132.5 -101t72 -142t23.5 -169q0 -44 -2.5 -82t-4.5 -54l-3 -15h-647q10 -149 90.5 -222t234.5 -73q68 0 138.5 13t107.5 25l37 13v-178q-14 -6 -39.5 -15.5t-111 -25.5t-177.5 -16q-254 0 -389 141t-135 383z M332 621h422v14q0 117 -48 181q-50 68 -147 67q-200 0 -227 -262z" />
<glyph unicode="f" horiz-adv-x="696" d="M53 854v186h150v185q0 164 86.5 263t253.5 99q47 0 87.5 -4.5t57.5 -8.5l17 -5v-178q-41 8 -113 8q-148 0 -148 -172v-187h215v-186h-215v-854h-241v854h-150z" />
<glyph unicode="g" horiz-adv-x="1081" d="M68 -174q0 83 46 143.5t119 93.5q-90 54 -90 162q0 51 35 98.5t86 79.5q-84 46 -130 123.5t-46 173.5q0 152 112 256.5t308 104.5q122 0 211 -39l313 25v-162h-158q54 -80 54 -187q0 -150 -116.5 -251t-301.5 -101q-61 0 -113 12q-47 -30 -47 -73q0 -39 39 -57.5 t117 -26.5q163 -18 223 -31q50 -10 89 -22.5t78 -35t64.5 -52t41.5 -75t16 -102.5q0 -106 -66.5 -188t-177.5 -125t-246 -43q-122 0 -213 24t-143.5 66.5t-78 94.5t-25.5 114zM272 -135q0 -80 67.5 -127t207.5 -47q108 0 179 44t71 118q0 40 -16.5 68t-50.5 43.5t-72.5 23.5 t-94.5 12q-164 16 -190 20q-101 -50 -101 -155zM315 700q0 -93 53 -148.5t140 -55.5q86 0 139 55.5t53 148.5q0 97 -51 153t-141 56q-94 0 -143.5 -56t-49.5 -153z" />
<glyph unicode="h" horiz-adv-x="1181" d="M25 1407v158q57 22 155 22q203 0 203 -190v-473q4 6 12 15t37 32.5t62 41.5t87.5 33t114.5 15q184 0 269.5 -114.5t85.5 -311.5v-635h-242v623q0 231 -205 231q-41 0 -78.5 -10t-62.5 -24t-44 -28t-27 -24l-9 -10v-758h-242v1323q0 45 -24 63.5t-74 20.5h-18z" />
<glyph unicode="i" horiz-adv-x="561" d="M57 883v157q60 21 156 21q211 0 211 -207v-854h-244v799q0 44 -24.5 63t-75.5 21h-23zM147 1386q0 63 37 102.5t103 39.5q67 0 103 -38.5t36 -100.5q0 -63 -36.5 -103.5t-104.5 -40.5q-64 0 -101 40t-37 101z" />
<glyph unicode="j" horiz-adv-x="540" d="M-47 -262q29 -8 70 -8q135 0 135 137v1173h241v-1171q0 -166 -78.5 -253t-232.5 -87q-34 0 -67.5 4t-50.5 8l-17 4v193zM141 1386q0 63 36 102.5t102 39.5q67 0 104 -38.5t37 -100.5q0 -63 -38 -103.5t-106 -40.5q-64 0 -99.5 40t-35.5 101z" />
<glyph unicode="k" horiz-adv-x="1054" d="M25 1407v158q55 22 155 22q203 0 203 -190v-774h82l303 417h256l-356 -489q36 -46 132.5 -184t175.5 -253l79 -114h-281l-309 436h-82v-436h-242v1323q0 46 -25.5 65t-78.5 19h-12z" />
<glyph unicode="l" horiz-adv-x="571" d="M27 1407v158q57 22 153 22q205 0 205 -190v-1096q0 -74 24 -103.5t80 -29.5h21v-168q-51 -18 -133 -18q-236 0 -236 272v1069q0 43 -20.5 62t-63.5 22h-30z" />
<glyph unicode="m" horiz-adv-x="1755" d="M53 883v157q52 21 142 21q88 0 136 -38.5t60 -117.5q46 70 120 113t169 43q210 0 293 -170q4 7 11.5 18.5t35.5 40.5t60 51.5t85 41t111 18.5q173 0 260.5 -105t87.5 -286v-670h-242v637q0 217 -168 217q-38 0 -72.5 -11.5t-57 -28t-40 -32.5t-24.5 -28l-8 -11 q10 -44 10 -110v-633h-242v635q0 102 -37.5 160.5t-132.5 58.5q-51 0 -98.5 -23t-69.5 -46l-22 -23v-762h-244v799q0 44 -23.5 63t-72.5 21h-27z" />
<glyph unicode="n" horiz-adv-x="1216" d="M53 883v157q52 21 142 21q88 0 136 -38.5t60 -117.5q7 14 30.5 36.5t63.5 51t103 48.5t133 20q188 0 277 -111t89 -311v-639h-243v633q0 105 -50.5 163t-148.5 58q-43 0 -81.5 -10t-63.5 -24t-44 -28t-28 -24l-8 -10v-758h-244v799q0 46 -24.5 64t-77.5 20h-21z" />
<glyph unicode="o" horiz-adv-x="1161" d="M84 524q0 251 134.5 394t361.5 143q230 0 363.5 -142.5t133.5 -394.5q0 -253 -134.5 -397.5t-362.5 -144.5q-230 0 -363 144t-133 398zM334 526q0 -176 62 -271t186 -95q120 0 182.5 95.5t62.5 270.5q0 173 -62 265t-183 92q-124 0 -186 -91.5t-62 -265.5z" />
<glyph unicode="p" horiz-adv-x="1208" d="M53 883v157q52 21 142 21q88 0 136 -38.5t60 -117.5q8 15 27 36.5t55 50.5t94 49t125 20q114 0 199 -41t134 -114.5t72 -165t23 -203.5q0 -92 -16 -173.5t-50.5 -152t-85.5 -121t-124.5 -79.5t-163.5 -29q-156 0 -260 88v-529h-244v1258q0 47 -25.5 64.5t-82.5 19.5h-15z M420 242q103 -64 201 -64q119 0 183 91t64 261q0 326 -241 326q-40 0 -76 -11.5t-59 -28t-40 -32.5t-24 -28l-8 -11v-503z" />
<glyph unicode="q" horiz-adv-x="1171" d="M88 506q0 248 117 401.5t330 153.5q179 0 282 -115l17 94h198v-1499h-244v574q-9 -13 -24.5 -29.5t-49 -43t-87 -43.5t-115.5 -17q-88 0 -159 26.5t-120 73.5t-82 113t-48 143.5t-15 167.5zM340 514q0 -160 60.5 -245t177.5 -85q39 0 75.5 11.5t60 28t41 33.5t25.5 29 l8 11v500q-3 3 -8 7.5t-23 16t-39.5 20.5t-56.5 16t-73 7q-121 0 -184.5 -91.5t-63.5 -258.5z" />
<glyph unicode="r" horiz-adv-x="778" d="M53 883v157q52 21 142 21q81 0 130.5 -34t67.5 -120q49 74 118 114t134 40q29 0 53.5 -5.5t34.5 -10.5l10 -5v-206q-44 12 -112 12q-71 0 -125.5 -27.5t-85.5 -68.5v-750h-244v799q0 48 -26 66t-84 18h-13z" />
<glyph unicode="s" horiz-adv-x="907" d="M88 754q0 147 113.5 227t310.5 80q73 0 138.5 -9.5t94.5 -18.5l29 -9v-188q-1 0 -23.5 6t-44 11t-53 11t-69 9.5t-74.5 3.5q-97 0 -144 -30t-47 -83q0 -50 43.5 -81.5t137.5 -55.5q181 -45 259.5 -120.5t78.5 -197.5q0 -155 -122 -241t-321 -86q-81 0 -155.5 13 t-109.5 27l-34 13v182q16 -5 43 -13.5t105 -22t147 -13.5q101 0 157 32t56 91q0 52 -41 82.5t-155 62.5q-72 20 -124 43.5t-99.5 60t-72 90.5t-24.5 124z" />
<glyph unicode="t" horiz-adv-x="733" d="M47 854v186h150v258l241 33v-291h230v-186h-230v-524q0 -81 34 -119.5t108 -38.5q20 0 41 2t32 4l11 2v-180q-62 -18 -160 -18q-307 0 -307 346v526h-150z" />
<glyph unicode="u" horiz-adv-x="1204" d="M131 401v639h242v-632q0 -105 48.5 -163.5t143.5 -58.5q41 0 78 10t61.5 24.5t42.5 28.5t27 24l8 10v757h244v-798q0 -47 25.5 -64.5t81.5 -19.5h16v-158q-51 -18 -141 -18q-173 0 -197 153q-7 -14 -30 -36t-62 -50t-100.5 -47.5t-129.5 -19.5q-185 0 -271.5 110 t-86.5 309z" />
<glyph unicode="v" horiz-adv-x="1038" d="M37 1040h246l249 -747l250 747h222l-365 -1040h-242z" />
<glyph unicode="w" horiz-adv-x="1521" d="M43 1040h231l209 -731l183 731h204l191 -729l207 729h211l-297 -1040h-234l-192 723l-183 -723h-233z" />
<glyph unicode="x" horiz-adv-x="1015" d="M25 0l348 526l-332 514h266l217 -338l221 338h232l-332 -501l344 -539h-264l-233 362l-236 -362h-231z" />
<glyph unicode="y" horiz-adv-x="1048" d="M37 1040h246l258 -729l250 729h225l-539 -1499h-225l164 461z" />
<glyph unicode="z" horiz-adv-x="899" d="M82 0v178l477 680h-477v182h735v-178l-479 -680h479v-182h-735z" />
<glyph unicode="{" horiz-adv-x="808" d="M45 518v193q101 0 144.5 81t43.5 246q0 29 -3 98.5t-3 108.5q0 203 85 299t276 96q46 0 157 -12v-198q-102 10 -122 10q-84 0 -119 -48t-35 -165q0 -24 2 -93.5t2 -107.5q0 -163 -41 -268t-139 -144q99 -38 139.5 -141.5t40.5 -267.5q0 -37 -2 -109t-2 -96 q0 -117 35 -165t119 -48q19 0 122 10v-198q-120 -13 -157 -13q-191 0 -276 96.5t-85 299.5q0 40 3 109.5t3 98.5q0 166 -43.5 247t-144.5 81z" />
<glyph unicode="|" horiz-adv-x="552" d="M160 -299v1868h233v-1868h-233z" />
<glyph unicode="}" horiz-adv-x="808" d="M61 -203q107 -10 125 -10q82 0 117 48.5t35 164.5q0 24 -1 94t-1 107q0 165 40.5 269.5t139.5 143.5q-99 38 -139.5 141.5t-40.5 268.5q0 37 1 108t1 95q0 116 -35 164.5t-117 48.5q-18 0 -125 -10v198q117 12 160 12q190 0 275.5 -96.5t85.5 -298.5q0 -39 -3.5 -108.5 t-3.5 -98.5q0 -165 44 -246t145 -81v-195q-101 0 -145 -80.5t-44 -245.5q0 -29 3.5 -98.5t3.5 -109.5q0 -202 -86 -299t-275 -97q-33 0 -160 13v198z" />
<glyph unicode="~" horiz-adv-x="1062" d="M122 481.5q-1 24.5 7 55t18 62.5t31 62.5t47 54t65 38t85 14.5q45 0 83.5 -13t64.5 -31t49.5 -36.5t50 -31.5t53.5 -13t46.5 13t28.5 31.5t14.5 37.5t6.5 32v13h174q2 -19 -0.5 -47.5t-10 -66.5t-25.5 -75t-43.5 -68.5t-67.5 -51t-94 -19.5q-43 0 -79.5 13t-62.5 31 t-50.5 36.5t-53 31.5t-58.5 13q-44 0 -69 -31.5t-28 -62.5l-3 -31h-178q0 15 -1 39.5z" />
<glyph unicode="&#xa1;" horiz-adv-x="522" d="M111 897q0 68 41 113t108 45q68 0 109 -45t41 -113q0 -65 -41.5 -108.5t-108.5 -43.5t-108 43.5t-41 108.5zM139 -434l25 1018h194l27 -1018h-246z" />
<glyph unicode="&#xa2;" horiz-adv-x="956" d="M90 520q0 213 97.5 351t275.5 176v217h201v-205q54 -4 100.5 -15.5t65.5 -20.5l20 -9v-183q-100 46 -217 46q-143 0 -217 -92.5t-74 -260.5q0 -172 72 -266t219 -94q55 0 109 11t81 21l27 11v-180q-65 -33 -186 -43v-213h-201v225q-178 34 -275.5 169t-97.5 355z" />
<glyph unicode="&#xa3;" horiz-adv-x="1099" d="M94 0v184q156 56 156 361v90h-156v199h156v172q0 229 119.5 358t337.5 129q96 0 174.5 -16t107.5 -35v-211q-34 19 -107.5 35t-146.5 16q-129 0 -189.5 -69t-60.5 -209v-170h377v-199h-377v-88q0 -129 -26 -218t-68 -130h619v-199h-916z" />
<glyph unicode="&#xa4;" horiz-adv-x="1105" d="M94 279l162 157q-47 71 -47 162q0 93 47 164l-162 160l123 139l170 -162q77 49 168 49t168 -49l166 162l123 -139l-158 -156q49 -77 49 -168q0 -87 -47 -166l156 -153l-123 -140l-164 158q-74 -47 -170 -47t-172 49l-166 -160zM389 594q0 -73 47.5 -123.5t118.5 -50.5 q69 0 118.5 51t49.5 123t-49.5 123t-118.5 51q-71 0 -118.5 -50.5t-47.5 -123.5z" />
<glyph unicode="&#xa5;" horiz-adv-x="1277" d="M47 1466h258l344 -645l344 645h234l-439 -817h263v-166h-824v166h260zM227 207v164h824v-164h-289v-207h-246v207h-289z" />
<glyph unicode="&#xa6;" horiz-adv-x="548" d="M158 -299v774h233v-774h-233zM158 795v774h233v-774h-233z" />
<glyph unicode="&#xa7;" horiz-adv-x="1001" d="M102 666q0 163 138 278q-109 82 -109 232q0 148 112.5 232.5t307.5 84.5q80 0 154.5 -11.5t108.5 -23.5l34 -12v-193q-152 50 -287 50q-93 0 -144.5 -33t-51.5 -92q0 -35 14.5 -61t46 -45.5t61 -31.5t78.5 -28q65 -22 113 -43.5t93 -52.5t73 -67t44.5 -85.5t16.5 -110.5 q0 -167 -133 -274q119 -85 119 -223q0 -151 -119 -240.5t-317 -89.5q-90 0 -171.5 15t-117.5 29l-37 15v195q18 -7 48.5 -18t114.5 -29.5t154 -18.5q95 0 152 32.5t57 92.5q0 46 -34 79.5t-68 47.5t-117 42q-13 5 -20 7q-154 51 -234 132t-80 219zM324 700q0 -71 38 -113 t113 -73q23 -10 65.5 -27t59.5 -24q84 61 84 160q0 72 -44 113.5t-132 76.5q-18 9 -54 23.5t-51 21.5q-79 -62 -79 -158z" />
<glyph unicode="&#xa8;" horiz-adv-x="784" d="M51 1391q0 61 36 99t101 38q67 0 103.5 -38t36.5 -97q0 -63 -37.5 -102.5t-104.5 -39.5q-64 0 -99.5 39t-35.5 101zM455 1391q0 60 36.5 98.5t102.5 38.5q65 0 102 -38t37 -97q0 -63 -37 -102.5t-104 -39.5q-64 0 -100.5 39t-36.5 101z" />
<glyph unicode="&#xa9;" horiz-adv-x="1722" d="M94 735q0 244 98 422.5t271.5 270.5t402.5 92q169 0 310 -54.5t241 -154.5t155.5 -247.5t55.5 -328.5q0 -246 -99 -425.5t-270 -270t-393 -90.5q-228 0 -402 93t-272 272t-98 421zM309 733q0 -154 45.5 -272t124 -188.5t177 -106t212.5 -35.5q88 0 167 21.5t148.5 68.5 t120 116t80 171t29.5 227q0 123 -29 223.5t-79.5 170t-120.5 117t-149.5 69.5t-168.5 22q-115 0 -213.5 -35.5t-176.5 -106.5t-122.5 -189.5t-44.5 -272.5zM512 727q0 175 103.5 284t285.5 109q56 0 105.5 -10t70.5 -20l21 -11v-174q-80 39 -162 39q-100 0 -154.5 -60 t-54.5 -153q0 -95 53.5 -155t157.5 -60q40 0 79.5 8.5t58.5 17.5l20 9v-178q-7 -4 -21.5 -10t-65.5 -16.5t-110 -10.5q-178 0 -282.5 106t-104.5 285z" />
<glyph unicode="&#xaa;" horiz-adv-x="907" d="M86 922q0 118 85.5 179.5t242.5 69.5l121 5v26q0 68 -37 100.5t-127 32.5q-50 0 -105.5 -8.5t-85.5 -17.5l-30 -9v140q11 5 32 11.5t87 18t134 11.5q165 0 244.5 -60.5t79.5 -185.5v-326q0 -63 80 -63h12v-127q-42 -14 -110 -14q-63 0 -100 24.5t-52 81.5 q-90 -106 -229 -106q-108 0 -175 59t-67 158zM279 936q0 -42 29 -66t73 -24q27 0 53 8t43.5 19t31 22t19.5 19l7 8v135l-82 -2q-88 -3 -131 -34.5t-43 -84.5z" />
<glyph unicode="&#xab;" horiz-adv-x="1187" d="M78 530v82l336 375h245l-362 -416l348 -417h-246zM526 530v82l336 375h246l-365 -416l349 -417h-246z" />
<glyph unicode="&#xac;" horiz-adv-x="1159" d="M123 537v188h899v-489h-205v301h-694z" />
<glyph unicode="&#xad;" horiz-adv-x="819" d="M125 526v189h569v-189h-569z" />
<glyph unicode="&#xae;" horiz-adv-x="1312" d="M100 952q0 256 154.5 406.5t402.5 150.5q247 0 401 -150.5t154 -406.5q0 -255 -154.5 -407t-400.5 -152q-248 0 -402.5 152t-154.5 407zM287 952q0 -109 30 -189.5t83 -125.5t117 -65.5t140 -20.5q81 0 145.5 21t116 67t79.5 125.5t28 189.5q0 107 -30 186t-83 124 t-116 66.5t-138 21.5q-77 0 -141 -21.5t-117.5 -66.5t-83.5 -125t-30 -187zM471 696v514h197q104 0 157.5 -43t53.5 -120q0 -48 -26 -88.5t-71 -57.5l109 -205h-158l-90 174h-22v-174h-150zM621 977h34q29 0 48.5 17.5t19.5 45.5q0 27 -18 43.5t-52 16.5h-32v-123z" />
<glyph unicode="&#xaf;" horiz-adv-x="671" d="M51 1303v182h572v-182h-572z" />
<glyph unicode="&#xb0;" horiz-adv-x="837" d="M82 1157q0 144 90.5 238t247.5 94q155 0 245.5 -94t90.5 -238t-90.5 -238t-245.5 -94q-157 0 -247.5 94t-90.5 238zM287 1155q0 -67 34 -106t99 -39q63 0 97 39t34 106q0 70 -34 110t-97 40q-65 0 -99 -40t-34 -110z" />
<glyph unicode="&#xb1;" horiz-adv-x="1038" d="M113 0v176h813v-176h-813zM113 559v178h307v310h198v-310h308v-178h-308v-303h-198v303h-307z" />
<glyph unicode="&#xb4;" horiz-adv-x="587" d="M51 1300l379 297l107 -165l-404 -252z" />
<glyph unicode="&#xb6;" horiz-adv-x="1380" d="M51 924q0 238 143.5 390t378.5 152h635v-1925h-219v1719h-139v-1719h-219v852h-60q-120 0 -220 43.5t-164.5 117t-100 169t-35.5 201.5zM283 926q0 -144 84.5 -236t212.5 -92h51v662h-51q-139 0 -218 -89t-79 -245z" />
<glyph unicode="&#xb7;" horiz-adv-x="516" d="M111 645q0 65 40 108.5t107 43.5q69 0 109.5 -43.5t40.5 -108.5q0 -68 -40.5 -113t-109.5 -45q-67 0 -107 45t-40 113z" />
<glyph unicode="&#xb8;" horiz-adv-x="567" d="M94 -348q89 -5 143 17t54 65q0 67 -156 67h-26l22 209h160l-8 -88q219 -12 219 -178q0 -78 -54 -133.5t-147 -77t-207 -6.5v125z" />
<glyph unicode="&#xba;" horiz-adv-x="894" d="M86 1087q0 183 98 288.5t262 105.5q168 0 266.5 -106t98.5 -288t-99.5 -289.5t-265.5 -107.5q-167 0 -263.5 107.5t-96.5 289.5zM287 1090q0 -117 41 -184.5t121 -67.5q75 0 117 68t42 184q0 114 -41 178.5t-118 64.5q-80 0 -121 -64t-41 -179z" />
<glyph unicode="&#xbb;" horiz-adv-x="1187" d="M80 987h246l336 -375v-82l-322 -376h-246l348 417zM528 987h246l334 -375v-82l-320 -376h-245l348 417z" />
<glyph unicode="&#xbc;" horiz-adv-x="2037" d="M53 1169v185l309 127h170v-996h-217v783zM401 0l881 1473h238l-881 -1473h-238zM1133 186v164l501 670h178v-670h164v-164h-164v-215h-210v215h-469zM1323 350h279v377z" />
<glyph unicode="&#xbd;" horiz-adv-x="2099" d="M53 1171v183l309 127h170v-996h-217v785zM401 0l881 1473h238l-881 -1473h-238zM1307 0v182l249 217q181 150 181 281q0 70 -40 112t-114 42q-42 0 -84 -11.5t-72.5 -28t-55 -32.5t-36.5 -28l-12 -11v190q4 4 12 11.5t37 26.5t62 33t86.5 26t111.5 12q160 0 249 -88.5 t89 -228.5q0 -61 -17 -115t-52 -102.5t-72 -87t-92 -85.5l-158 -133h455v-182h-727z" />
<glyph unicode="&#xbe;" horiz-adv-x="2197" d="M94 514v176q12 -7 33.5 -17t90 -27t138.5 -17q90 0 142.5 37t52.5 106q0 63 -46.5 97t-135.5 34h-127v154h118q67 0 105.5 34t38.5 91q0 55 -40 83.5t-114 28.5q-40 0 -80 -8t-68.5 -19t-51.5 -22.5t-34 -19.5l-12 -8v172q4 3 11.5 9t33.5 20.5t56 25.5t79.5 20t102.5 9 q164 0 252 -70.5t88 -177.5q0 -155 -141 -219q184 -65 184 -236q0 -146 -109.5 -231.5t-283.5 -85.5q-86 0 -156.5 15.5t-98.5 30.5zM561 0l881 1473h237l-880 -1473h-238zM1292 186v164l502 670h180v-670h164v-164h-164v-215h-211v215h-471zM1485 350h278v377z" />
<glyph unicode="&#xbf;" horiz-adv-x="860" d="M59 -78q0 160 91.5 270.5t248.5 147.5l4 242h191l4 -365q-122 0 -208.5 -69t-86.5 -193q0 -104 62.5 -161.5t164.5 -57.5q72 0 139 26t99 52l31 26v-198q-5 -4 -13.5 -11t-39.5 -25t-66 -31.5t-91.5 -24.5t-117.5 -11q-200 0 -306 109.5t-106 273.5zM348 897q0 68 41 113 t109 45q67 0 108 -45t41 -113q0 -65 -41 -108.5t-108 -43.5t-108.5 43.5t-41.5 108.5z" />
<glyph unicode="&#xc0;" horiz-adv-x="1241" d="M20 0l484 1473h235l482 -1473h-248l-103 322h-516l-102 -322h-232zM250 1757l84 195l444 -217l-59 -142zM416 530h391l-201 613z" />
<glyph unicode="&#xc1;" horiz-adv-x="1241" d="M20 0l484 1473h235l482 -1473h-248l-103 322h-516l-102 -322h-232zM416 530h391l-201 613zM463 1735l446 217l82 -195l-467 -164z" />
<glyph unicode="&#xc2;" horiz-adv-x="1241" d="M20 0l484 1473h235l482 -1473h-248l-103 322h-516l-102 -322h-232zM262 1700l289 248h139l289 -248l-76 -107l-282 176l-283 -176zM416 530h391l-201 613z" />
<glyph unicode="&#xc3;" horiz-adv-x="1241" d="M20 0l484 1473h235l482 -1473h-248l-103 322h-516l-102 -322h-232zM279 1647q2 22 7 49t20 69t37.5 74t62.5 56t90 24q13 0 26 -2t22 -3.5t21.5 -7t18.5 -7.5t19 -10t16.5 -10.5l17.5 -12.5t16 -11q11 -7 31 -21.5t29.5 -20.5t24 -11.5t28.5 -5.5q25 0 41.5 23t20.5 46 l3 23h148q-3 -26 -7 -49.5t-18.5 -66t-35.5 -72.5t-59.5 -53t-88.5 -23q-17 0 -33.5 3t-27 6t-26.5 11.5t-22 12t-23 15t-22 14.5l-30 21t-30 20t-26 12t-30 6q-29 0 -47.5 -24.5t-22.5 -48.5l-4 -25h-147zM416 530h391l-201 613z" />
<glyph unicode="&#xc4;" horiz-adv-x="1241" d="M20 0l484 1473h235l482 -1473h-248l-103 322h-516l-102 -322h-232zM285 1778q0 60 38 98.5t101 38.5t101 -38.5t38 -96.5q0 -60 -38.5 -100t-102.5 -40q-62 0 -99.5 39.5t-37.5 98.5zM416 530h391l-201 613zM676 1778q0 60 37 98.5t100 38.5t101 -38.5t38 -96.5 q0 -60 -38.5 -100t-102.5 -40q-60 0 -97.5 40t-37.5 98z" />
<glyph unicode="&#xc5;" horiz-adv-x="1241" d="M20 0l484 1473h235l482 -1473h-248l-103 322h-516l-102 -322h-232zM373 1776q0 87 67.5 141.5t175.5 54.5q110 0 179 -55t69 -141q0 -89 -67 -141t-181 -52q-110 0 -176.5 52t-66.5 141zM416 530h391l-201 613zM518 1780q0 -38 26.5 -59t71.5 -21q44 0 73.5 21.5 t29.5 58.5q0 33 -29.5 53t-73.5 20q-45 0 -71.5 -19.5t-26.5 -53.5z" />
<glyph unicode="&#xc6;" horiz-adv-x="1718" d="M2 0l649 1466h969v-217h-571v-399h469v-213h-469v-420h571v-217h-817v328h-422l-143 -328h-236zM473 532h330v723h-17z" />
<glyph unicode="&#xc7;" horiz-adv-x="1138" d="M96 698q0 177 40 321t118.5 249.5t202.5 163t284 57.5q96 0 173.5 -13.5t107.5 -26.5l29 -13v-215q-12 6 -35 15t-99 24.5t-159 15.5q-107 0 -186 -41.5t-126 -119.5t-69.5 -180.5t-22.5 -232.5q0 -512 402 -512q88 0 162.5 16.5t105.5 33.5l31 16v-215q-4 -3 -11.5 -7 t-35.5 -15t-60.5 -19.5t-85.5 -15.5t-112 -7l-7 -71q209 -15 209 -180q0 -77 -54.5 -132.5t-146 -77.5t-200.5 -8v121q85 -5 136.5 18.5t51.5 67.5q0 77 -178 74l21 203q-233 45 -359.5 224.5t-126.5 481.5z" />
<glyph unicode="&#xc8;" horiz-adv-x="1095" d="M168 0v1466h829v-217h-585v-399h485v-213h-485v-420h585v-217h-829zM266 1757l84 195l445 -217l-60 -142z" />
<glyph unicode="&#xc9;" horiz-adv-x="1095" d="M168 0v1466h829v-217h-585v-399h485v-213h-485v-420h585v-217h-829zM385 1735l446 217l82 -195l-467 -164z" />
<glyph unicode="&#xca;" horiz-adv-x="1095" d="M168 0v1466h829v-217h-585v-399h485v-213h-485v-420h585v-217h-829zM223 1700l289 248h139l289 -248l-76 -107l-282 176l-283 -176z" />
<glyph unicode="&#xcb;" horiz-adv-x="1095" d="M168 0v1466h829v-217h-585v-399h485v-213h-485v-420h585v-217h-829zM260 1778q0 60 38 98.5t101 38.5t101.5 -38.5t38.5 -96.5q0 -60 -39 -100t-103 -40q-62 0 -99.5 39.5t-37.5 98.5zM651 1778q0 60 37 98.5t100 38.5t101.5 -38.5t38.5 -96.5q0 -60 -39 -100t-103 -40 q-60 0 -97.5 40t-37.5 98z" />
<glyph unicode="&#xcc;" horiz-adv-x="579" d="M-74 1757l84 195l445 -217l-60 -142zM168 0v1466h244v-1466h-244z" />
<glyph unicode="&#xcd;" horiz-adv-x="579" d="M129 1735l446 217l82 -195l-467 -164zM168 0v1466h244v-1466h-244z" />
<glyph unicode="&#xce;" horiz-adv-x="579" d="M-74 1700l289 248h139l289 -248l-76 -107l-282 176l-283 -176zM168 0v1466h244v-1466h-244z" />
<glyph unicode="&#xcf;" horiz-adv-x="579" d="M-31 1778q0 60 38.5 98.5t101.5 38.5t101 -38.5t38 -96.5q0 -60 -39 -100t-103 -40q-62 0 -99.5 39.5t-37.5 98.5zM168 0v1466h244v-1466h-244zM344 1778q0 60 38 98.5t101 38.5t101.5 -38.5t38.5 -96.5q0 -60 -39 -100t-103 -40q-62 0 -99.5 39.5t-37.5 98.5z" />
<glyph unicode="&#xd0;" horiz-adv-x="1394" d="M27 653v191h163v622h418q335 0 512.5 -192.5t177.5 -540.5q0 -347 -178 -540t-512 -193h-418v653h-163zM434 221h182q201 0 313.5 128t112.5 384q0 255 -113 383.5t-313 128.5h-182v-401h230v-191h-230v-432z" />
<glyph unicode="&#xd1;" horiz-adv-x="1419" d="M168 0v1466h221l641 -1040v1040h223v-1466h-223l-641 1040v-1040h-221zM362 1647q2 22 7 49.5t20.5 69t38 74t62.5 56t90 23.5q13 0 26 -2t22 -3.5t21.5 -7t18.5 -7.5t19 -10t16.5 -10.5l17.5 -12.5t16 -11q11 -7 31 -21.5t29.5 -20.5t24 -11.5t28.5 -5.5q25 0 41.5 23 t20.5 46l3 23h148q-3 -26 -7 -49.5t-18.5 -66t-35.5 -72.5t-59.5 -53t-88.5 -23q-17 0 -33.5 3t-27 6t-26.5 11.5t-22 12t-23 15t-22 14.5l-30 21t-30 20t-26 12t-30 6q-29 0 -47.5 -24.5t-22.5 -48.5l-4 -25h-148z" />
<glyph unicode="&#xd2;" horiz-adv-x="1398" d="M98 733q0 362 154 559t446 197q294 0 448 -195.5t154 -560.5t-156 -560.5t-446 -195.5t-445 195.5t-155 560.5zM342 1757l84 195l444 -217l-59 -142zM354 733q0 -274 83 -408.5t263 -134.5q176 0 260 135.5t84 407.5q0 273 -82 408t-262 135q-178 0 -262 -135.5 t-84 -407.5z" />
<glyph unicode="&#xd3;" horiz-adv-x="1398" d="M98 733q0 362 154 559t446 197q294 0 448 -195.5t154 -560.5t-156 -560.5t-446 -195.5t-445 195.5t-155 560.5zM354 733q0 -274 83 -408.5t263 -134.5q176 0 260 135.5t84 407.5q0 273 -82 408t-262 135q-178 0 -262 -135.5t-84 -407.5zM567 1735l447 217l82 -195 l-467 -164z" />
<glyph unicode="&#xd4;" horiz-adv-x="1398" d="M98 733q0 362 154 559t446 197q294 0 448 -195.5t154 -560.5t-156 -560.5t-446 -195.5t-445 195.5t-155 560.5zM340 1700l289 248h139l289 -248l-76 -107l-283 176l-282 -176zM354 733q0 -274 83 -408.5t263 -134.5q176 0 260 135.5t84 407.5q0 273 -82 408t-262 135 q-178 0 -262 -135.5t-84 -407.5z" />
<glyph unicode="&#xd5;" horiz-adv-x="1398" d="M98 733q0 362 154 559t446 197q294 0 448 -195.5t154 -560.5t-156 -560.5t-446 -195.5t-445 195.5t-155 560.5zM350 1647q2 22 7 49t20 69t37.5 74t62.5 56t90 24q12 0 22.5 -1t21.5 -4t18.5 -4.5t18.5 -7t16 -7.5t16.5 -9.5t14.5 -9.5t15.5 -11t14.5 -10q11 -7 31 -21.5 t29.5 -20.5t24 -11.5t28.5 -5.5q25 0 41.5 23t20.5 46l3 23h148q-3 -26 -7 -49.5t-18.5 -66t-35.5 -72.5t-59.5 -53t-88.5 -23q-17 0 -33.5 3t-27 6t-26.5 11.5t-22 12t-23 15t-22 14.5q-10 6 -30.5 20.5t-30.5 20.5t-26 12t-30 6q-29 0 -47.5 -24.5t-21.5 -48.5l-4 -25 h-148zM354 733q0 -274 83 -408.5t263 -134.5q176 0 260 135.5t84 407.5q0 273 -82 408t-262 135q-178 0 -262 -135.5t-84 -407.5z" />
<glyph unicode="&#xd6;" horiz-adv-x="1398" d="M98 733q0 362 154 559t446 197q294 0 448 -195.5t154 -560.5t-156 -560.5t-446 -195.5t-445 195.5t-155 560.5zM354 733q0 -274 83 -408.5t263 -134.5q176 0 260 135.5t84 407.5q0 273 -82 408t-262 135q-178 0 -262 -135.5t-84 -407.5zM365 1778q0 60 38 98.5t101 38.5 t101 -38.5t38 -96.5q0 -60 -38.5 -100t-102.5 -40q-62 0 -99.5 39.5t-37.5 98.5zM756 1778q0 60 37 98.5t100 38.5t101 -38.5t38 -96.5q0 -60 -38.5 -100t-102.5 -40q-60 0 -97.5 40t-37.5 98z" />
<glyph unicode="&#xd7;" horiz-adv-x="1030" d="M98 311l285 281l-285 287l133 135l289 -289l279 289l133 -135l-279 -287l279 -281l-133 -135l-279 283l-289 -283z" />
<glyph unicode="&#xd8;" horiz-adv-x="1402" d="M100 -45l146 229q-144 198 -144 549q0 363 153 559.5t447 196.5q188 0 322 -84l68 106h200l-139 -221q152 -196 152 -557q0 -364 -157 -560t-446 -196q-190 0 -329 91l-72 -113h-201zM354 733q0 -201 45 -317l506 796q-77 68 -203 68q-178 0 -263 -137t-85 -410zM492 260 q83 -74 210 -74q178 0 263.5 137t85.5 410q0 198 -52 330z" />
<glyph unicode="&#xd9;" horiz-adv-x="1390" d="M154 522v944h243v-944q0 -171 74.5 -251.5t224.5 -80.5q143 0 217.5 80.5t77.5 251.5v944h246v-944q0 -271 -145 -408t-396 -137q-121 0 -219.5 33t-171 98.5t-112 170.5t-39.5 243zM369 1757l84 195l444 -217l-59 -142z" />
<glyph unicode="&#xda;" horiz-adv-x="1390" d="M154 522v944h243v-944q0 -171 74.5 -251.5t224.5 -80.5q143 0 217.5 80.5t77.5 251.5v944h246v-944q0 -271 -145 -408t-396 -137q-121 0 -219.5 33t-171 98.5t-112 170.5t-39.5 243zM551 1735l446 217l82 -195l-467 -164z" />
<glyph unicode="&#xdb;" horiz-adv-x="1390" d="M154 522v944h243v-944q0 -171 74.5 -251.5t224.5 -80.5q143 0 217.5 80.5t77.5 251.5v944h246v-944q0 -271 -145 -408t-396 -137q-121 0 -219.5 33t-171 98.5t-112 170.5t-39.5 243zM340 1700l289 248h139l289 -248l-76 -107l-283 176l-282 -176z" />
<glyph unicode="&#xdc;" horiz-adv-x="1390" d="M154 522v944h243v-944q0 -171 74.5 -251.5t224.5 -80.5q143 0 217.5 80.5t77.5 251.5v944h246v-944q0 -271 -145 -408t-396 -137q-121 0 -219.5 33t-171 98.5t-112 170.5t-39.5 243zM362 1778q0 60 38.5 98.5t101.5 38.5t101 -38.5t38 -96.5q0 -60 -38.5 -100t-102.5 -40 q-62 0 -100 40t-38 98zM754 1778q0 60 37 98.5t100 38.5t101 -38.5t38 -96.5q0 -60 -38.5 -100t-102.5 -40q-60 0 -97.5 40t-37.5 98z" />
<glyph unicode="&#xdd;" horiz-adv-x="1208" d="M14 1466h256l344 -645l344 645h234l-465 -872v-594h-246v594zM463 1735l446 217l82 -195l-467 -164z" />
<glyph unicode="&#xde;" horiz-adv-x="1173" d="M168 0v1466h244v-194h118q281 0 426.5 -134t145.5 -360q0 -235 -155.5 -374.5t-416.5 -139.5h-118v-264h-244zM412 471h125q143 0 230 78t87 227q0 139 -82 214t-240 75h-120v-594z" />
<glyph unicode="&#xdf;" horiz-adv-x="1294" d="M51 848v182h156v131q0 93 26 169t80 134.5t144.5 90.5t210.5 32q226 0 335 -92t109 -252q0 -70 -29.5 -129.5t-72 -100.5t-84.5 -77t-71.5 -75.5t-29.5 -80.5q0 -60 34 -93t116 -69q144 -59 206 -132.5t62 -190.5q0 -141 -105.5 -227t-291.5 -86q-70 0 -135 13t-95 27 l-30 13v184q14 -6 37.5 -14.5t90 -22.5t124.5 -14q87 0 131.5 31.5t44.5 87.5q0 48 -30 80.5t-99 64.5q-59 25 -93 41.5t-76.5 45.5t-65 58.5t-38.5 74.5t-16 100q0 71 28.5 129t69 98t81 76.5t69 82t28.5 97.5q0 73 -55 118.5t-145 45.5q-223 0 -223 -285v-1114h-242v848 h-156z" />
<glyph unicode="&#xe0;" horiz-adv-x="1073" d="M51 281q0 161 116 245t327 92l174 7v34q0 110 -47 160.5t-168 50.5q-72 0 -150.5 -12t-120.5 -24l-43 -11v183q16 6 44.5 15t117.5 24.5t178 15.5q221 0 326.5 -88t105.5 -273v-456q0 -48 26 -67t81 -19h16v-158q-51 -18 -139 -18q-84 0 -130.5 35.5t-66.5 121.5 q-129 -157 -315 -157q-153 0 -242.5 81t-89.5 218zM233 1432l107 165l379 -297l-82 -120zM295 299q0 -63 39 -98t104 -35q43 0 82.5 10.5t65.5 25.5t45 30t28 26l9 10v201l-121 -4q-135 -6 -193.5 -47t-58.5 -119z" />
<glyph unicode="&#xe1;" horiz-adv-x="1073" d="M51 281q0 161 116 245t327 92l174 7v34q0 110 -47 160.5t-168 50.5q-72 0 -150.5 -12t-120.5 -24l-43 -11v183q16 6 44.5 15t117.5 24.5t178 15.5q221 0 326.5 -88t105.5 -273v-456q0 -48 26 -67t81 -19h16v-158q-51 -18 -139 -18q-84 0 -130.5 35.5t-66.5 121.5 q-129 -157 -315 -157q-153 0 -242.5 81t-89.5 218zM295 299q0 -63 39 -98t104 -35q43 0 82.5 10.5t65.5 25.5t45 30t28 26l9 10v201l-121 -4q-135 -6 -193.5 -47t-58.5 -119zM311 1300l379 297l107 -165l-404 -252z" />
<glyph unicode="&#xe2;" horiz-adv-x="1073" d="M51 281q0 161 116 245t327 92l174 7v34q0 110 -47 160.5t-168 50.5q-72 0 -150.5 -12t-120.5 -24l-43 -11v183q16 6 44.5 15t117.5 24.5t178 15.5q221 0 326.5 -88t105.5 -273v-456q0 -48 26 -67t81 -19h16v-158q-51 -18 -139 -18q-84 0 -130.5 35.5t-66.5 121.5 q-129 -157 -315 -157q-153 0 -242.5 81t-89.5 218zM143 1298l299 287h113l299 -287l-88 -106l-268 209l-273 -209zM295 299q0 -63 39 -98t104 -35q43 0 82.5 10.5t65.5 25.5t45 30t28 26l9 10v201l-121 -4q-135 -6 -193.5 -47t-58.5 -119z" />
<glyph unicode="&#xe3;" horiz-adv-x="1073" d="M51 281q0 161 116 245t327 92l174 7v34q0 110 -47 160.5t-168 50.5q-72 0 -150.5 -12t-120.5 -24l-43 -11v183q16 6 44.5 15t117.5 24.5t178 15.5q221 0 326.5 -88t105.5 -273v-456q0 -48 26 -67t81 -19h16v-158q-51 -18 -139 -18q-84 0 -130.5 35.5t-66.5 121.5 q-129 -157 -315 -157q-153 0 -242.5 81t-89.5 218zM147 1270q1 17 5 40t12.5 56t25 64t39 58t58 43.5t78.5 16.5q15 0 29 -1.5t28 -6.5t22 -7.5t22.5 -11.5t18.5 -11t20.5 -14t18.5 -13q10 -7 31 -22t30.5 -20.5t25 -11.5t30.5 -6q51 0 70 93h143q-2 -21 -5.5 -40.5 t-12 -54.5t-23.5 -62.5t-36.5 -55t-55.5 -43t-76 -15.5q-21 0 -39 3.5t-35.5 11.5t-27.5 13.5t-29.5 18.5t-26.5 17q-11 7 -31 21t-30.5 21t-26.5 13t-30 6q-22 0 -38.5 -13t-25 -33.5t-11.5 -31.5t-5 -22h-142zM295 299q0 -63 39 -98t104 -35q43 0 82.5 10.5t65.5 25.5 t45 30t28 26l9 10v201l-121 -4q-135 -6 -193.5 -47t-58.5 -119z" />
<glyph unicode="&#xe4;" horiz-adv-x="1073" d="M51 281q0 161 116 245t327 92l174 7v34q0 110 -47 160.5t-168 50.5q-72 0 -150.5 -12t-120.5 -24l-43 -11v183q16 6 44.5 15t117.5 24.5t178 15.5q221 0 326.5 -88t105.5 -273v-456q0 -48 26 -67t81 -19h16v-158q-51 -18 -139 -18q-84 0 -130.5 35.5t-66.5 121.5 q-129 -157 -315 -157q-153 0 -242.5 81t-89.5 218zM172 1391q0 61 36 99t101 38q67 0 103.5 -38t36.5 -97q0 -63 -37.5 -102.5t-104.5 -39.5q-64 0 -99.5 39t-35.5 101zM295 299q0 -63 39 -98t104 -35q43 0 82.5 10.5t65.5 25.5t45 30t28 26l9 10v201l-121 -4 q-135 -6 -193.5 -47t-58.5 -119zM575 1391q0 60 37 98.5t103 38.5q65 0 102 -38t37 -97q0 -63 -37 -102.5t-104 -39.5q-64 0 -101 39t-37 101z" />
<glyph unicode="&#xe5;" horiz-adv-x="1073" d="M51 281q0 161 116 245t327 92l174 7v34q0 110 -47 160.5t-168 50.5q-72 0 -150.5 -12t-120.5 -24l-43 -11v183q16 6 44.5 15t117.5 24.5t178 15.5q221 0 326.5 -88t105.5 -273v-456q0 -48 26 -67t81 -19h16v-158q-51 -18 -139 -18q-84 0 -130.5 35.5t-66.5 121.5 q-129 -157 -315 -157q-153 0 -242.5 81t-89.5 218zM256 1395q0 94 68.5 153.5t175.5 59.5q108 0 178 -60t70 -153q0 -95 -68.5 -152t-179.5 -57q-108 0 -176 57.5t-68 151.5zM295 299q0 -63 39 -98t104 -35q43 0 82.5 10.5t65.5 25.5t45 30t28 26l9 10v201l-121 -4 q-135 -6 -193.5 -47t-58.5 -119zM403 1399q0 -41 26 -64.5t71 -23.5t72.5 23.5t27.5 64.5q0 37 -28.5 60.5t-71.5 23.5q-44 0 -70.5 -23.5t-26.5 -60.5z" />
<glyph unicode="&#xe6;" horiz-adv-x="1648" d="M51 281q0 162 117 245.5t336 91.5l164 7v39q0 107 -47.5 155.5t-169.5 48.5q-72 0 -150 -12t-120 -24l-42 -11v185q15 6 43.5 15t119 24.5t183.5 15.5q248 0 336 -133q55 64 139.5 98.5t184.5 34.5q112 0 196 -37t132.5 -101t72 -142t23.5 -169q0 -44 -2.5 -82t-4.5 -54 l-3 -15h-648q18 -295 326 -295q68 0 138.5 13t107.5 25l37 13v-178q-14 -6 -40 -15.5t-111.5 -25.5t-176.5 -16q-292 0 -426 188q-23 -33 -55 -63t-78 -59.5t-109.5 -47.5t-134.5 -18q-157 0 -247.5 80t-90.5 219zM295 299q0 -63 39 -98t104 -35q54 0 101 18.5t78.5 47.5 t47.5 48t27 37q-21 77 -24 152l-121 -4q-135 -6 -193.5 -47t-58.5 -119zM915 621h422q3 127 -47.5 194.5t-148.5 67.5t-156 -66t-70 -196z" />
<glyph unicode="&#xe7;" horiz-adv-x="927" d="M84 520q0 251 135 396t375 145q71 0 133.5 -11.5t89.5 -23.5l27 -12v-183q-102 46 -217 46q-143 0 -218 -92.5t-75 -260.5q0 -172 73 -266t220 -94q55 0 109 11t81 21l27 11v-180q-80 -39 -223 -45l-5 -60q220 -12 220 -178q0 -119 -117.5 -179.5t-292.5 -37.5v125 q90 -5 144.5 17t54.5 65q0 73 -185 67l23 193q-181 34 -280 169.5t-99 356.5z" />
<glyph unicode="&#xe8;" horiz-adv-x="1064" d="M84 506q0 260 127.5 407.5t349.5 147.5q112 0 196 -37t132.5 -101t72 -142t23.5 -169q0 -44 -2.5 -82t-4.5 -54l-3 -15h-647q10 -149 90.5 -222t234.5 -73q68 0 138.5 13t107.5 25l37 13v-178q-14 -6 -39.5 -15.5t-111 -25.5t-177.5 -16q-254 0 -389 141t-135 383z M231 1432l107 165l379 -297l-82 -120zM332 621h422q3 127 -47.5 194.5t-147.5 67.5q-200 0 -227 -262z" />
<glyph unicode="&#xe9;" horiz-adv-x="1064" d="M84 506q0 260 127.5 407.5t349.5 147.5q112 0 196 -37t132.5 -101t72 -142t23.5 -169q0 -44 -2.5 -82t-4.5 -54l-3 -15h-647q10 -149 90.5 -222t234.5 -73q68 0 138.5 13t107.5 25l37 13v-178q-14 -6 -39.5 -15.5t-111 -25.5t-177.5 -16q-254 0 -389 141t-135 383z M332 621h422q3 127 -47.5 194.5t-147.5 67.5q-200 0 -227 -262zM420 1300l379 297l106 -165l-403 -252z" />
<glyph unicode="&#xea;" horiz-adv-x="1064" d="M84 506q0 260 127.5 407.5t349.5 147.5q112 0 196 -37t132.5 -101t72 -142t23.5 -169q0 -44 -2.5 -82t-4.5 -54l-3 -15h-647q10 -149 90.5 -222t234.5 -73q68 0 138.5 13t107.5 25l37 13v-178q-14 -6 -39.5 -15.5t-111 -25.5t-177.5 -16q-254 0 -389 141t-135 383z M199 1298l299 287h112l299 -287l-88 -106l-268 209l-272 -209zM332 621h422q3 127 -47.5 194.5t-147.5 67.5q-200 0 -227 -262z" />
<glyph unicode="&#xeb;" horiz-adv-x="1064" d="M84 506q0 260 127.5 407.5t349.5 147.5q112 0 196 -37t132.5 -101t72 -142t23.5 -169q0 -44 -2.5 -82t-4.5 -54l-3 -15h-647q10 -149 90.5 -222t234.5 -73q68 0 138.5 13t107.5 25l37 13v-178q-14 -6 -39.5 -15.5t-111 -25.5t-177.5 -16q-254 0 -389 141t-135 383z M213 1391q0 61 36 99t101 38q67 0 103 -38t36 -97q0 -63 -37 -102.5t-104 -39.5q-64 0 -99.5 39t-35.5 101zM332 621h422q3 127 -47.5 194.5t-147.5 67.5q-200 0 -227 -262zM616 1391q0 60 37 98.5t103 38.5q65 0 102 -38t37 -97q0 -63 -37 -102.5t-104 -39.5q-64 0 -101 39 t-37 101z" />
<glyph unicode="&#xec;" horiz-adv-x="561" d="M-74 1432l107 165l379 -297l-82 -120zM57 883v157q60 21 156 21q211 0 211 -207v-854h-244v799q0 44 -24.5 63t-75.5 21h-23z" />
<glyph unicode="&#xed;" horiz-adv-x="561" d="M45 1300l379 297l106 -165l-403 -252zM57 883v157q60 21 156 21q211 0 211 -207v-854h-244v799q0 44 -24.5 63t-75.5 21h-23z" />
<glyph unicode="&#xee;" horiz-adv-x="561" d="M-92 1298l299 287h112l299 -287l-88 -106l-268 209l-272 -209zM57 883v157q60 21 156 21q211 0 211 -207v-854h-244v799q0 44 -24.5 63t-75.5 21h-23z" />
<glyph unicode="&#xef;" horiz-adv-x="561" d="M-78 1391q0 61 36 99t101 38q67 0 103.5 -38t36.5 -97q0 -63 -37.5 -102.5t-104.5 -39.5q-64 0 -99.5 39t-35.5 101zM57 883v157q60 21 156 21q211 0 211 -207v-854h-244v799q0 44 -24.5 63t-75.5 21h-23zM326 1391q0 60 36.5 98.5t102.5 38.5q65 0 102 -38t37 -97 q0 -63 -37 -102.5t-104 -39.5q-64 0 -100.5 39t-36.5 101z" />
<glyph unicode="&#xf0;" horiz-adv-x="1181" d="M84 518q0 249 134.5 391t361.5 142q147 0 235 -101q-54 181 -186 301l-310 -170v164l173 101q-119 64 -234 84v161q256 -30 436 -145l254 139v-166l-131 -73q260 -260 260 -734q0 -321 -129.5 -475.5t-367.5 -154.5q-230 0 -363 142.5t-133 393.5zM334 520 q0 -173 62 -266.5t186 -93.5q117 0 181 101t64 259q0 170 -62 260t-183 90q-248 0 -248 -350z" />
<glyph unicode="&#xf1;" horiz-adv-x="1216" d="M53 883v157q52 21 142 21q88 0 136 -38.5t60 -117.5q7 14 30.5 36.5t63.5 51t103 48.5t133 20q188 0 277 -111t89 -311v-639h-243v633q0 105 -50.5 163t-148.5 58q-43 0 -81.5 -10t-63.5 -24t-44 -28t-28 -24l-8 -10v-758h-244v799q0 46 -24.5 64t-77.5 20h-21zM250 1270 q1 21 6 50t20 71t37 75.5t62.5 57.5t91.5 24q14 0 27 -2t22.5 -3.5t22 -7t19 -8t19 -10.5t16.5 -10.5t17.5 -12t16.5 -11.5q11 -7 31.5 -21.5t30 -20.5t24.5 -12t30 -6q51 0 70 93h143q-2 -18 -4 -33.5t-9 -45t-16 -52.5t-25.5 -50.5t-36.5 -46t-50.5 -31t-66.5 -12.5 q-21 0 -39 3.5t-35.5 11.5t-27.5 13.5t-29.5 18.5t-26.5 17q-10 7 -30.5 21t-31 21t-27 13t-30.5 6q-22 0 -38.5 -13t-25 -33.5t-11.5 -31.5t-5 -22h-141z" />
<glyph unicode="&#xf2;" horiz-adv-x="1161" d="M84 524q0 251 134.5 394t361.5 143q230 0 363.5 -142.5t133.5 -394.5q0 -253 -134.5 -397.5t-362.5 -144.5q-230 0 -363 144t-133 398zM229 1432l107 165l379 -297l-82 -120zM334 526q0 -176 62 -271t186 -95q120 0 182.5 95.5t62.5 270.5q0 173 -62 265t-183 92 q-124 0 -186 -91.5t-62 -265.5z" />
<glyph unicode="&#xf3;" horiz-adv-x="1161" d="M84 524q0 251 134.5 394t361.5 143q230 0 363.5 -142.5t133.5 -394.5q0 -253 -134.5 -397.5t-362.5 -144.5q-230 0 -363 144t-133 398zM334 526q0 -176 62 -271t186 -95q120 0 182.5 95.5t62.5 270.5q0 173 -62 265t-183 92q-124 0 -186 -91.5t-62 -265.5zM449 1300 l378 297l107 -165l-404 -252z" />
<glyph unicode="&#xf4;" horiz-adv-x="1161" d="M84 524q0 251 134.5 394t361.5 143q230 0 363.5 -142.5t133.5 -394.5q0 -253 -134.5 -397.5t-362.5 -144.5q-230 0 -363 144t-133 398zM227 1298l299 287h113l299 -287l-88 -106l-268 209l-273 -209zM334 526q0 -176 62 -271t186 -95q120 0 182.5 95.5t62.5 270.5 q0 173 -62 265t-183 92q-124 0 -186 -91.5t-62 -265.5z" />
<glyph unicode="&#xf5;" horiz-adv-x="1161" d="M84 524q0 251 134.5 394t361.5 143q230 0 363.5 -142.5t133.5 -394.5q0 -253 -134.5 -397.5t-362.5 -144.5q-230 0 -363 144t-133 398zM236 1270q1 21 6 50t20 71t37 75.5t62.5 57.5t91.5 24q15 0 29 -1.5t28 -6.5t22 -7.5t22.5 -11.5t18.5 -11t20.5 -14t18.5 -13 q10 -7 31 -22t30.5 -20.5t25 -11.5t30.5 -6q51 0 70 93h143q-2 -21 -5.5 -40.5t-12 -54.5t-23.5 -62.5t-36.5 -55t-55.5 -43t-76 -15.5q-21 0 -39 3.5t-35.5 11.5t-27.5 13.5t-29.5 18.5t-26.5 17q-11 7 -31 21t-30.5 21t-26.5 13t-30 6q-22 0 -38.5 -13t-25 -33.5 t-11.5 -31.5t-5 -22h-141zM334 526q0 -176 62 -271t186 -95q120 0 182.5 95.5t62.5 270.5q0 173 -62 265t-183 92q-124 0 -186 -91.5t-62 -265.5z" />
<glyph unicode="&#xf6;" horiz-adv-x="1161" d="M84 524q0 251 134.5 394t361.5 143q230 0 363.5 -142.5t133.5 -394.5q0 -253 -134.5 -397.5t-362.5 -144.5q-230 0 -363 144t-133 398zM240 1391q0 61 36 99t101 38q67 0 103 -38t36 -97q0 -63 -37 -102.5t-104 -39.5q-64 0 -99.5 39t-35.5 101zM334 526q0 -176 62 -271 t186 -95q120 0 182.5 95.5t62.5 270.5q0 173 -62 265t-183 92q-124 0 -186 -91.5t-62 -265.5zM643 1391q0 60 36.5 98.5t102.5 38.5t103 -38t37 -97q0 -63 -37.5 -102.5t-104.5 -39.5q-64 0 -100.5 39t-36.5 101z" />
<glyph unicode="&#xf7;" horiz-adv-x="987" d="M94 500v186h801v-186h-801zM356 240q0 60 37.5 99.5t100.5 39.5q62 0 98.5 -39.5t36.5 -99.5q0 -62 -37 -103t-98 -41q-63 0 -100.5 41t-37.5 103zM356 950q0 60 37.5 100t100.5 40q61 0 98 -40t37 -100q0 -62 -36.5 -102.5t-98.5 -40.5q-63 0 -100.5 40.5t-37.5 102.5z " />
<glyph unicode="&#xf8;" horiz-adv-x="1165" d="M86 524q0 251 134.5 394t361.5 143q144 0 266 -66l57 76h185l-129 -172q116 -140 116 -375q0 -253 -134 -397.5t-361 -144.5q-145 0 -254 59l-49 -68h-185l119 160q-127 142 -127 391zM334 526q0 -125 33 -190l364 495q-57 54 -147 54q-124 0 -187 -92.5t-63 -266.5z M444 203q57 -45 140 -45q120 0 182.5 95.5t62.5 272.5q0 106 -24 170z" />
<glyph unicode="&#xf9;" horiz-adv-x="1204" d="M131 401v639h242v-632q0 -105 48.5 -163.5t143.5 -58.5q41 0 78 10t61.5 24.5t42.5 28.5t27 24l8 10v757h244v-798q0 -47 25.5 -64.5t81.5 -19.5h16v-158q-51 -18 -141 -18q-173 0 -197 153q-7 -14 -30 -36t-62 -50t-100.5 -47.5t-129.5 -19.5q-185 0 -271.5 110 t-86.5 309zM240 1432l106 165l379 -297l-82 -120z" />
<glyph unicode="&#xfa;" horiz-adv-x="1204" d="M131 401v639h242v-632q0 -105 48.5 -163.5t143.5 -58.5q41 0 78 10t61.5 24.5t42.5 28.5t27 24l8 10v757h244v-798q0 -47 25.5 -64.5t81.5 -19.5h16v-158q-51 -18 -141 -18q-173 0 -197 153q-7 -14 -30 -36t-62 -50t-100.5 -47.5t-129.5 -19.5q-185 0 -271.5 110 t-86.5 309zM442 1300l379 297l107 -165l-404 -252z" />
<glyph unicode="&#xfb;" horiz-adv-x="1204" d="M131 401v639h242v-632q0 -105 48.5 -163.5t143.5 -58.5q41 0 78 10t61.5 24.5t42.5 28.5t27 24l8 10v757h244v-798q0 -47 25.5 -64.5t81.5 -19.5h16v-158q-51 -18 -141 -18q-173 0 -197 153q-7 -14 -30 -36t-62 -50t-100.5 -47.5t-129.5 -19.5q-185 0 -271.5 110 t-86.5 309zM223 1298l299 287h113l299 -287l-88 -106l-268 209l-273 -209z" />
<glyph unicode="&#xfc;" horiz-adv-x="1204" d="M131 401v639h242v-632q0 -105 48.5 -163.5t143.5 -58.5q41 0 78 10t61.5 24.5t42.5 28.5t27 24l8 10v757h244v-798q0 -47 25.5 -64.5t81.5 -19.5h16v-158q-51 -18 -141 -18q-173 0 -197 153q-7 -14 -30 -36t-62 -50t-100.5 -47.5t-129.5 -19.5q-185 0 -271.5 110 t-86.5 309zM242 1391q0 61 36 99t101 38q67 0 103 -38t36 -97q0 -63 -37 -102.5t-104 -39.5q-64 0 -99.5 39t-35.5 101zM645 1391q0 60 36.5 98.5t102.5 38.5t103 -38t37 -97q0 -63 -37.5 -102.5t-104.5 -39.5q-64 0 -100.5 39t-36.5 101z" />
<glyph unicode="&#xfd;" horiz-adv-x="1048" d="M37 1040h246l258 -729l250 729h225l-539 -1499h-225l164 461zM420 1300l379 297l106 -165l-403 -252z" />
<glyph unicode="&#xfe;" horiz-adv-x="1171" d="M12 1411v158q62 20 162 20q102 0 155.5 -52.5t53.5 -172.5v-428q108 125 274 125q114 0 198.5 -41t133.5 -114t72.5 -165t23.5 -204q0 -116 -26.5 -214.5t-79 -175.5t-138.5 -121t-198 -44q-150 0 -260 86v-527h-242v1784q0 47 -26.5 65.5t-85.5 20.5h-17zM383 242 q98 -66 201 -66q119 0 184.5 91.5t65.5 262.5q0 157 -59.5 241.5t-182.5 84.5q-41 0 -77.5 -11.5t-59.5 -28t-40 -32.5t-25 -28l-7 -11v-503z" />
<glyph unicode="&#xff;" horiz-adv-x="1048" d="M37 1040h246l258 -729l250 729h225l-539 -1499h-225l164 461zM190 1391q0 61 36 99t102 38q67 0 103 -38t36 -97q0 -63 -37 -102.5t-104 -39.5q-64 0 -100 39t-36 101zM594 1391q0 60 36.5 98.5t102.5 38.5q65 0 102 -38t37 -97q0 -63 -37 -102.5t-104 -39.5 q-64 0 -100.5 39t-36.5 101z" />
<glyph unicode="&#x100;" horiz-adv-x="1241" d="M20 0l484 1473h235l482 -1473h-248l-103 322h-516l-102 -322h-232zM328 1677v185h577v-185h-577zM416 530h391l-201 613z" />
<glyph unicode="&#x101;" horiz-adv-x="1073" d="M51 281q0 161 116 245t327 92l174 7v34q0 110 -47 160.5t-168 50.5q-72 0 -150.5 -12t-120.5 -24l-43 -11v183q16 6 44.5 15t117.5 24.5t178 15.5q221 0 326.5 -88t105.5 -273v-456q0 -48 26 -67t81 -19h16v-158q-51 -18 -139 -18q-84 0 -130.5 35.5t-66.5 121.5 q-129 -157 -315 -157q-153 0 -242.5 81t-89.5 218zM225 1303v182h572v-182h-572zM295 299q0 -63 39 -98t104 -35q43 0 82.5 10.5t65.5 25.5t45 30t28 26l9 10v201l-121 -4q-135 -6 -193.5 -47t-58.5 -119z" />
<glyph unicode="&#x102;" horiz-adv-x="1241" d="M20 0l484 1473h235l482 -1473h-248l-103 322h-516l-102 -322h-232zM305 1919h176q0 -46 35.5 -90.5t104.5 -44.5q47 0 80.5 24.5t46 53.5t12.5 57h176q-4 -142 -91.5 -224.5t-223.5 -82.5t-224 82.5t-92 224.5zM416 530h391l-201 613z" />
<glyph unicode="&#x103;" horiz-adv-x="1073" d="M51 281q0 161 116 245t327 92l174 7v34q0 110 -47 160.5t-168 50.5q-72 0 -150.5 -12t-120.5 -24l-43 -11v183q16 6 44.5 15t117.5 24.5t178 15.5q221 0 326.5 -88t105.5 -273v-456q0 -48 26 -67t81 -19h16v-158q-51 -18 -139 -18q-84 0 -130.5 35.5t-66.5 121.5 q-129 -157 -315 -157q-153 0 -242.5 81t-89.5 218zM170 1544h182q0 -41 11.5 -75.5t46 -61.5t88.5 -27t88 27t45.5 61.5t11.5 75.5h182q0 -156 -92.5 -246t-234.5 -90t-235 90.5t-93 245.5zM295 299q0 -63 39 -98t104 -35q43 0 82.5 10.5t65.5 25.5t45 30t28 26l9 10v201 l-121 -4q-135 -6 -193.5 -47t-58.5 -119z" />
<glyph unicode="&#x104;" horiz-adv-x="1241" d="M20 0l484 1473h235l482 -1473q-179 -97 -179 -217q0 -88 97 -88q30 0 59 12.5t50 27.5l20 15v-137q-86 -74 -201 -74q-102 0 -164.5 57t-62.5 146q0 80 45 151t133 107h-45l-103 322h-516l-102 -322h-232zM416 530h391l-201 613z" />
<glyph unicode="&#x105;" horiz-adv-x="1073" d="M51 281q0 161 116 245t327 92l174 7v34q0 110 -47 160.5t-168 50.5q-72 0 -150.5 -12t-120.5 -24l-43 -11v183q16 6 44.5 15t117.5 24.5t178 15.5q221 0 326.5 -88t105.5 -273v-456q0 -48 26 -67t81 -19h16v-158q-99 -54 -143.5 -112.5t-44.5 -110.5q0 -80 92 -80 q20 0 40.5 5t37 13.5t28.5 15.5t22 15t11 8v-141l-6 -5q-6 -5 -10 -8t-13 -9t-17 -10l-20 -10t-23.5 -10.5t-26.5 -9t-30.5 -7.5t-33.5 -5t-37 -2q-101 0 -164 54.5t-63 144.5q0 77 45.5 146t134.5 110q-45 14 -72.5 48.5t-42.5 98.5q-129 -157 -315 -157q-153 0 -242.5 81 t-89.5 218zM295 299q0 -63 39 -98t104 -35q43 0 82.5 10.5t65.5 25.5t45 30t28 26l9 10v201l-121 -4q-135 -6 -193.5 -47t-58.5 -119z" />
<glyph unicode="&#x106;" horiz-adv-x="1138" d="M96 698q0 177 40 321t118.5 249.5t202.5 163t284 57.5q96 0 173.5 -13.5t107.5 -26.5l29 -13v-215q-12 6 -35 15t-99 24.5t-159 15.5q-107 0 -186 -41.5t-126 -119.5t-69.5 -180.5t-22.5 -232.5q0 -512 402 -512q88 0 162.5 16.5t105.5 33.5l31 16v-215q-4 -3 -12 -7 t-37.5 -15t-63 -19.5t-89 -15.5t-116.5 -7q-301 0 -471 185t-170 536zM520 1735l447 217l82 -195l-467 -164z" />
<glyph unicode="&#x107;" horiz-adv-x="927" d="M84 520q0 251 135 396t375 145q71 0 133.5 -11.5t89.5 -23.5l27 -12v-183q-102 46 -217 46q-143 0 -218 -92.5t-75 -260.5q0 -172 73 -266t220 -94q55 0 109 11t81 21l27 11v-180q-10 -5 -29.5 -12.5t-86 -20t-140.5 -12.5q-237 0 -370.5 140.5t-133.5 397.5zM373 1300 l379 297l106 -165l-403 -252z" />
<glyph unicode="&#x108;" horiz-adv-x="1138" d="M96 698q0 177 40 321t118.5 249.5t202.5 163t284 57.5q96 0 173.5 -13.5t107.5 -26.5l29 -13v-215q-12 6 -35 15t-99 24.5t-159 15.5q-107 0 -186 -41.5t-126 -119.5t-69.5 -180.5t-22.5 -232.5q0 -512 402 -512q88 0 162.5 16.5t105.5 33.5l31 16v-215q-4 -3 -12 -7 t-37.5 -15t-63 -19.5t-89 -15.5t-116.5 -7q-301 0 -471 185t-170 536zM330 1700l288 248h140l289 -248l-76 -107l-283 176l-282 -176z" />
<glyph unicode="&#x109;" horiz-adv-x="927" d="M84 520q0 251 135 396t375 145q71 0 133.5 -11.5t89.5 -23.5l27 -12v-183q-102 46 -217 46q-143 0 -218 -92.5t-75 -260.5q0 -172 73 -266t220 -94q55 0 109 11t81 21l27 11v-180q-10 -5 -29.5 -12.5t-86 -20t-140.5 -12.5q-237 0 -370.5 140.5t-133.5 397.5zM190 1298 l299 287h113l299 -287l-88 -106l-268 209l-273 -209z" />
<glyph unicode="&#x10a;" horiz-adv-x="1138" d="M96 698q0 177 40 321t118.5 249.5t202.5 163t284 57.5q96 0 173.5 -13.5t107.5 -26.5l29 -13v-215q-12 6 -35 15t-99 24.5t-159 15.5q-107 0 -186 -41.5t-126 -119.5t-69.5 -180.5t-22.5 -232.5q0 -512 402 -512q88 0 162.5 16.5t105.5 33.5l31 16v-215q-4 -3 -12 -7 t-37.5 -15t-63 -19.5t-89 -15.5t-116.5 -7q-301 0 -471 185t-170 536zM526 1782q0 62 38.5 100.5t105.5 38.5t105 -38.5t38 -98.5q0 -64 -38 -104t-107 -40q-65 0 -103.5 40.5t-38.5 101.5z" />
<glyph unicode="&#x10b;" horiz-adv-x="927" d="M84 520q0 251 135 396t375 145q71 0 133.5 -11.5t89.5 -23.5l27 -12v-183q-102 46 -217 46q-143 0 -218 -92.5t-75 -260.5q0 -172 73 -266t220 -94q55 0 109 11t81 21l27 11v-180q-10 -5 -29.5 -12.5t-86 -20t-140.5 -12.5q-237 0 -370.5 140.5t-133.5 397.5zM403 1386 q0 63 36 102.5t102 39.5q67 0 104 -38.5t37 -100.5q0 -63 -37.5 -103.5t-105.5 -40.5q-64 0 -100 40t-36 101z" />
<glyph unicode="&#x10c;" horiz-adv-x="1138" d="M96 698q0 177 40 321t118.5 249.5t202.5 163t284 57.5q96 0 173.5 -13.5t107.5 -26.5l29 -13v-215q-12 6 -35 15t-99 24.5t-159 15.5q-107 0 -186 -41.5t-126 -119.5t-69.5 -180.5t-22.5 -232.5q0 -512 402 -512q88 0 162.5 16.5t105.5 33.5l31 16v-215q-4 -3 -12 -7 t-37.5 -15t-63 -19.5t-89 -15.5t-116.5 -7q-301 0 -471 185t-170 536zM332 1841l76 107l282 -176l281 176l78 -107l-291 -248h-140z" />
<glyph unicode="&#x10d;" horiz-adv-x="927" d="M84 520q0 251 135 396t375 145q71 0 133.5 -11.5t89.5 -23.5l27 -12v-183q-102 46 -217 46q-143 0 -218 -92.5t-75 -260.5q0 -172 73 -266t220 -94q55 0 109 11t81 21l27 11v-180q-10 -5 -29.5 -12.5t-86 -20t-140.5 -12.5q-237 0 -370.5 140.5t-133.5 397.5zM176 1479 l82 106l274 -209l267 209l88 -106l-299 -287h-113z" />
<glyph unicode="&#x10e;" horiz-adv-x="1372" d="M168 0v1466h418q335 0 512.5 -192.5t177.5 -540.5q0 -347 -178 -540t-512 -193h-418zM279 1841l75 107l283 -176l281 176l77 -107l-290 -248h-140zM412 221h182q201 0 313.5 128t112.5 384t-112.5 384t-313.5 128h-182v-1024z" />
<glyph unicode="&#x10f;" horiz-adv-x="1333" d="M86 506q0 85 15.5 163t50 150.5t86 125.5t129 84.5t172.5 31.5q147 0 249 -86v348q0 47 -25 65.5t-77 18.5h-14v158q59 22 155 22q203 0 203 -190v-1153q0 -47 27 -64.5t82 -19.5h14v-160q-55 -18 -135 -18q-166 0 -199 153q-13 -18 -30.5 -36t-55.5 -48.5t-95.5 -49.5 t-123.5 -19q-111 0 -195 40.5t-134 113t-74.5 165.5t-24.5 205zM338 514q0 -160 62.5 -245t179.5 -85q37 0 72 11.5t59 27.5t42 32.5t27 28.5l8 11v502q-8 8 -23 19t-66 29.5t-107 18.5q-122 0 -188 -93t-66 -257zM1151 1442q0 60 39.5 102.5t107.5 42.5q67 0 105.5 -42.5 t38.5 -110.5q0 -66 -34 -150.5t-99 -204.5l-109 45l76 176q-60 10 -92.5 47.5t-32.5 94.5z" />
<glyph unicode="&#x110;" horiz-adv-x="1394" d="M27 653v191h163v622h418q335 0 512.5 -192.5t177.5 -540.5q0 -347 -178 -540t-512 -193h-418v653h-163zM434 221h182q201 0 313.5 128t112.5 384q0 255 -113 383.5t-313 128.5h-182v-401h230v-191h-230v-432z" />
<glyph unicode="&#x111;" horiz-adv-x="1210" d="M86 506q0 85 15.5 163t50 150.5t86 125.5t129 84.5t172.5 31.5q147 0 249 -86v223h-239v145h239v226h242v-226h172v-145h-172v-954q0 -47 27 -64.5t82 -19.5h14v-160q-55 -18 -135 -18q-166 0 -199 153q-13 -18 -30.5 -36t-55.5 -48.5t-95.5 -49.5t-123.5 -19 q-111 0 -195 40.5t-134 113t-74.5 165.5t-24.5 205zM338 514q0 -160 62.5 -245t179.5 -85q37 0 72 11.5t59 27.5t42 32.5t27 28.5l8 11v502q-8 8 -23 19t-66 29.5t-107 18.5q-122 0 -188 -93t-66 -257z" />
<glyph unicode="&#x112;" horiz-adv-x="1095" d="M168 0v1466h829v-217h-585v-399h485v-213h-485v-420h585v-217h-829zM303 1677v185h578v-185h-578z" />
<glyph unicode="&#x113;" horiz-adv-x="1064" d="M84 506q0 260 127.5 407.5t349.5 147.5q112 0 196 -37t132.5 -101t72 -142t23.5 -169q0 -44 -2.5 -82t-4.5 -54l-3 -15h-647q10 -149 90.5 -222t234.5 -73q68 0 138.5 13t107.5 25l37 13v-178q-14 -6 -39.5 -15.5t-111 -25.5t-177.5 -16q-254 0 -389 141t-135 383z M262 1303v182h572v-182h-572zM332 621h422q3 127 -47.5 194.5t-147.5 67.5q-200 0 -227 -262z" />
<glyph unicode="&#x114;" horiz-adv-x="1095" d="M168 0v1466h829v-217h-585v-399h485v-213h-485v-420h585v-217h-829zM276 1919h177q0 -28 12.5 -57t46 -53.5t80.5 -24.5t80.5 24.5t46 53.5t12.5 57h176q-4 -142 -91.5 -224.5t-223.5 -82.5t-224 82.5t-92 224.5z" />
<glyph unicode="&#x115;" horiz-adv-x="1064" d="M84 506q0 260 127.5 407.5t349.5 147.5q112 0 196 -37t132.5 -101t72 -142t23.5 -169q0 -44 -2.5 -82t-4.5 -54l-3 -15h-647q10 -149 90.5 -222t234.5 -73q68 0 138.5 13t107.5 25l37 13v-178q-14 -6 -39.5 -15.5t-111 -25.5t-177.5 -16q-254 0 -389 141t-135 383z M215 1544h182q0 -41 11.5 -75.5t46 -61.5t88.5 -27t88 27t45.5 61.5t11.5 75.5h182q0 -156 -92.5 -246t-234.5 -90t-235 90.5t-93 245.5zM332 621h422q3 127 -47.5 194.5t-147.5 67.5q-200 0 -227 -262z" />
<glyph unicode="&#x116;" horiz-adv-x="1095" d="M168 0v1466h829v-217h-585v-399h485v-213h-485v-420h585v-217h-829zM446 1782q0 62 38.5 100.5t105.5 38.5t105 -38.5t38 -98.5q0 -64 -38 -104t-107 -40q-65 0 -103.5 40.5t-38.5 101.5z" />
<glyph unicode="&#x117;" horiz-adv-x="1064" d="M84 506q0 260 127.5 407.5t349.5 147.5q112 0 196 -37t132.5 -101t72 -142t23.5 -169q0 -44 -2.5 -82t-4.5 -54l-3 -15h-647q10 -149 90.5 -222t234.5 -73q68 0 138.5 13t107.5 25l37 13v-178q-14 -6 -39.5 -15.5t-111 -25.5t-177.5 -16q-254 0 -389 141t-135 383z M332 621h422q3 127 -47.5 194.5t-147.5 67.5q-200 0 -227 -262zM412 1386q0 64 35.5 103t101.5 39q67 0 104 -38.5t37 -100.5q0 -63 -37.5 -103.5t-105.5 -40.5q-64 0 -99.5 40t-35.5 101z" />
<glyph unicode="&#x118;" horiz-adv-x="1095" d="M168 0v1466h829v-217h-585v-399h485v-213h-485v-420h585v-217q-176 -96 -176 -217q0 -88 97 -88q30 0 59 12.5t49 27.5l21 15v-137l-9 -7q-8 -6 -13 -10t-17.5 -11.5t-23 -13t-27.5 -12t-33 -10.5t-36.5 -7t-41.5 -3q-102 0 -165 57t-63 146q0 80 45 151t132 107h-627z " />
<glyph unicode="&#x119;" horiz-adv-x="1064" d="M84 506q0 260 127.5 407.5t349.5 147.5q112 0 196 -37t132.5 -101t72 -142t23.5 -169q0 -44 -2.5 -82t-4.5 -54l-3 -15h-647q10 -149 90.5 -222t234.5 -73q68 0 138.5 13t107.5 25l37 13v-178q-31 -13 -82 -31q-132 -48 -186 -109.5t-54 -121.5q0 -80 93 -80q20 0 40.5 5 t37 13.5t28.5 15.5t22 15t11 8v-141l-6 -5q-6 -5 -10 -8t-13 -9t-17 -10l-20 -10t-23.5 -10.5t-26.5 -9t-30.5 -7.5t-33.5 -5t-37 -2q-101 0 -164.5 54.5t-63.5 144.5q0 148 183 248q-244 6 -372 146.5t-128 375.5zM332 621h422q3 127 -47.5 194.5t-147.5 67.5 q-200 0 -227 -262z" />
<glyph unicode="&#x11a;" horiz-adv-x="1095" d="M168 0v1466h829v-217h-585v-399h485v-213h-485v-420h585v-217h-829zM244 1841l75 107l283 -176l281 176l78 -107l-291 -248h-140z" />
<glyph unicode="&#x11b;" horiz-adv-x="1064" d="M84 506q0 260 127.5 407.5t349.5 147.5q112 0 196 -37t132.5 -101t72 -142t23.5 -169q0 -44 -2.5 -82t-4.5 -54l-3 -15h-647q10 -149 90.5 -222t234.5 -73q68 0 138.5 13t107.5 25l37 13v-178q-14 -6 -39.5 -15.5t-111 -25.5t-177.5 -16q-254 0 -389 141t-135 383z M201 1479l82 106l274 -209l266 209l88 -106l-299 -287h-112zM332 621h422q3 127 -47.5 194.5t-147.5 67.5q-200 0 -227 -262z" />
<glyph unicode="&#x11c;" horiz-adv-x="1300" d="M94 725q0 166 42.5 303.5t127 241.5t220.5 161.5t313 57.5q103 0 192.5 -14.5t127.5 -29.5l38 -15v-209q-16 6 -45 15t-117 24.5t-176 15.5q-240 0 -353.5 -144t-113.5 -405q0 -256 114 -396.5t345 -140.5q85 0 149 15v413h-299v211h521v-798q-18 -6 -50.5 -16t-128 -26 t-184.5 -16q-190 0 -331 55t-225.5 157t-125.5 236.5t-41 303.5zM373 1700l289 248h139l289 -248l-76 -107l-283 176l-282 -176z" />
<glyph unicode="&#x11d;" horiz-adv-x="1081" d="M68 -174q0 83 46 143.5t119 93.5q-90 54 -90 162q0 51 35 98.5t86 79.5q-84 46 -130 123.5t-46 173.5q0 152 112 256.5t308 104.5q122 0 211 -39l313 25v-162h-158q54 -80 54 -187q0 -150 -116.5 -251t-301.5 -101q-61 0 -113 12q-47 -30 -47 -73q0 -39 39 -57.5 t117 -26.5q163 -18 223 -31q50 -10 89 -22.5t78 -35t64.5 -52t41.5 -75t16 -102.5q0 -106 -66.5 -188t-177.5 -125t-246 -43q-122 0 -213 24t-143.5 66.5t-78 94.5t-25.5 114zM156 1298l299 287h112l299 -287l-88 -106l-268 209l-272 -209zM272 -135q0 -80 67.5 -127 t207.5 -47q108 0 179 44t71 118q0 40 -16.5 68t-50.5 43.5t-72.5 23.5t-94.5 12q-164 16 -190 20q-101 -50 -101 -155zM315 700q0 -93 53 -148.5t140 -55.5q86 0 139 55.5t53 148.5q0 97 -51 153t-141 56q-94 0 -143.5 -56t-49.5 -153z" />
<glyph unicode="&#x11e;" horiz-adv-x="1300" d="M94 725q0 166 42.5 303.5t127 241.5t220.5 161.5t313 57.5q103 0 192.5 -14.5t127.5 -29.5l38 -15v-209q-16 6 -45 15t-117 24.5t-176 15.5q-240 0 -353.5 -144t-113.5 -405q0 -256 114 -396.5t345 -140.5q85 0 149 15v413h-299v211h521v-798q-18 -6 -50.5 -16t-128 -26 t-184.5 -16q-190 0 -331 55t-225.5 157t-125.5 236.5t-41 303.5zM385 1919h176q0 -28 12.5 -57t46 -53.5t80.5 -24.5q69 0 104.5 44.5t35.5 90.5h176q-4 -142 -92 -224.5t-224 -82.5t-223.5 82.5t-91.5 224.5z" />
<glyph unicode="&#x11f;" horiz-adv-x="1081" d="M68 -174q0 83 46 143.5t119 93.5q-90 54 -90 162q0 51 35 98.5t86 79.5q-84 46 -130 123.5t-46 173.5q0 152 112 256.5t308 104.5q122 0 211 -39l313 25v-162h-158q54 -80 54 -187q0 -150 -116.5 -251t-301.5 -101q-61 0 -113 12q-47 -30 -47 -73q0 -39 39 -57.5 t117 -26.5q163 -18 223 -31q50 -10 89 -22.5t78 -35t64.5 -52t41.5 -75t16 -102.5q0 -106 -66.5 -188t-177.5 -125t-246 -43q-122 0 -213 24t-143.5 66.5t-78 94.5t-25.5 114zM197 1544h182q0 -41 11.5 -75.5t45.5 -61.5t88 -27t88.5 27t46 61.5t11.5 75.5h182 q0 -155 -93 -245.5t-235 -90.5t-234.5 90t-92.5 246zM272 -135q0 -80 67.5 -127t207.5 -47q108 0 179 44t71 118q0 40 -16.5 68t-50.5 43.5t-72.5 23.5t-94.5 12q-164 16 -190 20q-101 -50 -101 -155zM315 700q0 -93 53 -148.5t140 -55.5q86 0 139 55.5t53 148.5 q0 97 -51 153t-141 56q-94 0 -143.5 -56t-49.5 -153z" />
<glyph unicode="&#x120;" horiz-adv-x="1300" d="M94 725q0 166 42.5 303.5t127 241.5t220.5 161.5t313 57.5q103 0 192.5 -14.5t127.5 -29.5l38 -15v-209q-16 6 -45 15t-117 24.5t-176 15.5q-240 0 -353.5 -144t-113.5 -405q0 -256 114 -396.5t345 -140.5q85 0 149 15v413h-299v211h521v-798q-18 -6 -50.5 -16t-128 -26 t-184.5 -16q-190 0 -331 55t-225.5 157t-125.5 236.5t-41 303.5zM575 1782q0 62 38.5 100.5t105.5 38.5t105 -38.5t38 -98.5q0 -64 -38 -104t-107 -40q-65 0 -103.5 40.5t-38.5 101.5z" />
<glyph unicode="&#x121;" horiz-adv-x="1081" d="M68 -174q0 83 46 143.5t119 93.5q-90 54 -90 162q0 51 35 98.5t86 79.5q-84 46 -130 123.5t-46 173.5q0 152 112 256.5t308 104.5q122 0 211 -39l313 25v-162h-158q54 -80 54 -187q0 -150 -116.5 -251t-301.5 -101q-61 0 -113 12q-47 -30 -47 -73q0 -39 39 -57.5 t117 -26.5q163 -18 223 -31q50 -10 89 -22.5t78 -35t64.5 -52t41.5 -75t16 -102.5q0 -106 -66.5 -188t-177.5 -125t-246 -43q-122 0 -213 24t-143.5 66.5t-78 94.5t-25.5 114zM272 -135q0 -80 67.5 -127t207.5 -47q108 0 179 44t71 118q0 40 -16.5 68t-50.5 43.5t-72.5 23.5 t-94.5 12q-164 16 -190 20q-101 -50 -101 -155zM315 700q0 -93 53 -148.5t140 -55.5q86 0 139 55.5t53 148.5q0 97 -51 153t-141 56q-94 0 -143.5 -56t-49.5 -153zM379 1386q0 64 35.5 103t101.5 39q67 0 104 -38.5t37 -100.5q0 -63 -37.5 -103.5t-105.5 -40.5 q-64 0 -99.5 40t-35.5 101z" />
<glyph unicode="&#x122;" horiz-adv-x="1300" d="M94 725q0 166 42.5 303.5t127 241.5t220.5 161.5t313 57.5q103 0 192.5 -14.5t127.5 -29.5l38 -15v-209q-16 6 -45 15t-117 24.5t-176 15.5q-240 0 -353.5 -144t-113.5 -405q0 -256 114 -396.5t345 -140.5q85 0 149 15v413h-299v211h521v-798q-18 -6 -50.5 -16t-128 -26 t-184.5 -16q-190 0 -331 55t-225.5 157t-125.5 236.5t-41 303.5zM598 -279q0 60 39.5 103t107.5 43q67 0 105.5 -43t38.5 -111q0 -66 -33.5 -150t-99.5 -204l-109 45l76 176q-60 10 -92.5 47t-32.5 94z" />
<glyph unicode="&#x123;" horiz-adv-x="1081" d="M68 -174q0 83 46 143.5t119 93.5q-90 54 -90 162q0 51 35 98.5t86 79.5q-84 46 -130 123.5t-46 173.5q0 152 112 256.5t308 104.5q122 0 211 -39l313 25v-162h-158q54 -80 54 -187q0 -150 -116.5 -251t-301.5 -101q-61 0 -113 12q-47 -30 -47 -73q0 -39 39 -57.5 t117 -26.5q163 -18 223 -31q50 -10 89 -22.5t78 -35t64.5 -52t41.5 -75t16 -102.5q0 -106 -66.5 -188t-177.5 -125t-246 -43q-122 0 -213 24t-143.5 66.5t-78 94.5t-25.5 114zM272 -135q0 -80 67.5 -127t207.5 -47q108 0 179 44t71 118q0 40 -16.5 68t-50.5 43.5t-72.5 23.5 t-94.5 12q-164 16 -190 20q-101 -50 -101 -155zM315 700q0 -93 53 -148.5t140 -55.5q86 0 139 55.5t53 148.5q0 97 -51 153t-141 56q-94 0 -143.5 -56t-49.5 -153zM350 1393q0 66 33.5 150t99.5 204l109 -45l-76 -176q60 -10 92.5 -47.5t32.5 -94.5q0 -60 -39.5 -102.5 t-107.5 -42.5q-67 0 -105.5 43t-38.5 111z" />
<glyph unicode="&#x124;" horiz-adv-x="1411" d="M168 0v1466h244v-612h587v612h244v-1466h-244v633h-587v-633h-244zM346 1700l289 248h139l289 -248l-76 -107l-282 176l-283 -176z" />
<glyph unicode="&#x125;" horiz-adv-x="1181" d="M25 1407v158q57 22 155 22q203 0 203 -190v-473q4 6 12 15t37 32.5t62 41.5t87.5 33t114.5 15q184 0 269.5 -114.5t85.5 -311.5v-635h-242v623q0 231 -205 231q-41 0 -78.5 -10t-62.5 -24t-44 -28t-27 -24l-9 -10v-758h-242v1323q0 45 -24 63.5t-74 20.5h-18zM252 1710 l289 248h139l289 -248l-76 -106l-283 176l-282 -176z" />
<glyph unicode="&#x126;" horiz-adv-x="1482" d="M27 1096v182h176v188h246v-188h585v188h246v-188h176v-182h-176v-1096h-246v633h-585v-633h-246v1096h-176zM449 854h585v242h-585v-242z" />
<glyph unicode="&#x127;" horiz-adv-x="1181" d="M-18 1198v145h159v226h242v-226h256v-145h-256v-289q4 6 12 15t37 33t62 42t87.5 33t114.5 15q184 0 269.5 -114.5t85.5 -311.5v-621h-242v608q0 232 -205 232q-41 0 -78.5 -10t-62.5 -24t-44 -28.5t-27 -24.5l-9 -10v-743h-242v1198h-159z" />
<glyph unicode="&#x128;" horiz-adv-x="579" d="M-70 1647q2 22 7 49t20 69t37.5 74t62.5 56t90 24q12 0 22.5 -1t21.5 -4t18.5 -4.5t18.5 -7t16 -7.5t16.5 -9.5t14.5 -9.5t15.5 -11t14.5 -10q11 -7 31 -21.5t29.5 -20.5t24 -11.5t28.5 -5.5q25 0 41.5 23t20.5 46l3 23h148q-3 -26 -7 -49.5t-18.5 -66t-35.5 -72.5 t-59.5 -53t-88.5 -23q-17 0 -33.5 3t-27 6t-26.5 11.5t-22 12t-23 15t-22 14.5l-30 21t-30 20t-26 12t-30 6q-29 0 -47.5 -24.5t-22.5 -48.5l-4 -25h-148zM168 0v1466h244v-1466h-244z" />
<glyph unicode="&#x129;" horiz-adv-x="561" d="M-70 1270q1 21 6 50t20 71t37 75.5t62.5 57.5t91.5 24q14 0 27 -2t22.5 -3.5t22 -7t19 -8t19 -10.5t16.5 -10.5t17.5 -12t16.5 -11.5q10 -7 31 -22t30.5 -20.5t25 -11.5t30.5 -6q51 0 70 93h143q-2 -21 -5.5 -40.5t-12 -54.5t-23.5 -62.5t-36.5 -55t-55.5 -43t-76 -15.5 q-21 0 -39 3.5t-35.5 11.5t-27.5 13.5t-29.5 18.5t-26.5 17q-11 7 -31 21t-30.5 21t-26.5 13t-30 6q-22 0 -38.5 -13t-25 -33.5t-11.5 -31.5t-5 -22h-142zM57 883v157q60 21 156 21q211 0 211 -207v-854h-244v799q0 44 -24.5 63t-75.5 21h-23z" />
<glyph unicode="&#x12a;" horiz-adv-x="579" d="M2 1677v185h578v-185h-578zM168 0v1466h244v-1466h-244z" />
<glyph unicode="&#x12b;" horiz-adv-x="561" d="M-35 1303v182h572v-182h-572zM57 883v157q60 21 156 21q211 0 211 -207v-854h-244v799q0 44 -24.5 63t-75.5 21h-23z" />
<glyph unicode="&#x12c;" horiz-adv-x="579" d="M-31 1919h176q0 -46 35.5 -90.5t104.5 -44.5q47 0 80.5 24.5t46 53.5t12.5 57h176q-4 -142 -91.5 -224.5t-223.5 -82.5t-224 82.5t-92 224.5zM168 0v1466h244v-1466h-244z" />
<glyph unicode="&#x12d;" horiz-adv-x="561" d="M-55 1544h182q0 -41 11.5 -75.5t45.5 -61.5t88 -27t88.5 27t46 61.5t11.5 75.5h182q0 -155 -93 -245.5t-235 -90.5t-234.5 90t-92.5 246zM57 883v157q60 21 156 21q211 0 211 -207v-854h-244v799q0 44 -24.5 63t-75.5 21h-23z" />
<glyph unicode="&#x12e;" horiz-adv-x="579" d="M33 -258q0 80 45 151t131 107h-41v1466h244v-1466q-176 -96 -176 -217q0 -88 96 -88q30 0 59 12.5t49 27.5l21 15v-137l-9 -7q-8 -6 -13 -10t-17.5 -11.5t-23 -13t-27.5 -12t-33 -10.5t-36.5 -7t-41.5 -3q-102 0 -164.5 57t-62.5 146z" />
<glyph unicode="&#x12f;" horiz-adv-x="561" d="M23 -264q0 80 50 151.5t148 112.5h-41v799q0 44 -24.5 63t-75.5 21h-23v157q60 21 156 21q211 0 211 -207v-854q-99 -54 -143.5 -112.5t-44.5 -110.5q0 -80 92 -80q20 0 40.5 5t37 13.5t28.5 15.5t22 15t11 8v-141l-6 -5q-6 -5 -10 -8t-13 -9t-17 -10l-20 -10 t-23.5 -10.5t-26.5 -9t-30.5 -7.5t-33.5 -5t-37 -2q-101 0 -164 54.5t-63 144.5zM147 1386q0 63 37 102.5t103 39.5q67 0 103 -38.5t36 -100.5q0 -63 -36.5 -103.5t-104.5 -40.5q-64 0 -101 40t-37 101z" />
<glyph unicode="&#x130;" horiz-adv-x="579" d="M143 1782q0 62 38.5 100.5t105.5 38.5t105 -38.5t38 -98.5q0 -64 -38 -104t-107 -40q-65 0 -103.5 40.5t-38.5 101.5zM168 0v1466h244v-1466h-244z" />
<glyph unicode="&#x131;" horiz-adv-x="561" d="M57 883v157q60 21 156 21q211 0 211 -207v-854h-244v799q0 44 -24.5 63t-75.5 21h-23z" />
<glyph unicode="&#x132;" horiz-adv-x="1269" d="M168 0v1466h244v-1466h-244zM575 12v205q72 -29 146 -29q76 0 110.5 47t34.5 146v1085h246v-1087q0 -198 -91.5 -300t-264.5 -102q-46 0 -91.5 8.5t-67.5 17.5z" />
<glyph unicode="&#x133;" horiz-adv-x="1146" d="M57 883v157q60 21 156 21q211 0 211 -207v-854h-244v799q0 44 -24.5 63t-75.5 21h-23zM147 1386q0 63 37 102.5t103 39.5q67 0 103 -38.5t36 -100.5q0 -63 -36.5 -103.5t-104.5 -40.5q-64 0 -101 40t-37 101zM559 -262q29 -8 70 -8q135 0 135 137v1173h242v-1171 q0 -165 -79 -252.5t-233 -87.5q-34 0 -67.5 4t-50.5 8l-17 4v193zM748 1386q0 64 35.5 103t101.5 39q67 0 104 -38.5t37 -100.5q0 -63 -37.5 -103.5t-105.5 -40.5q-64 0 -99.5 40t-35.5 101z" />
<glyph unicode="&#x134;" horiz-adv-x="727" d="M35 12v205q71 -29 145 -29q76 0 111 47t35 146v1085h245v-1087q0 -198 -91.5 -300t-264.5 -102q-46 0 -91 8.5t-67 17.5zM86 1700l289 248h139l289 -248l-76 -107l-283 176l-282 -176z" />
<glyph unicode="&#x135;" horiz-adv-x="540" d="M-84 1298l299 287h113l299 -287l-88 -106l-269 209l-272 -209zM-31 -268q21 -6 54 -6q135 0 135 129v1185h241v-1198q0 -152 -76 -232.5t-217 -80.5q-34 0 -68 4t-52 8l-17 4v187z" />
<glyph unicode="&#x136;" horiz-adv-x="1220" d="M168 0v1466h244v-616h88l424 616h256l-484 -704l516 -762h-278l-434 637h-88v-637h-244zM498 -279q0 60 39.5 103t107.5 43q67 0 105 -43t38 -111q0 -66 -33.5 -150t-99.5 -204l-108 45l76 176q-60 10 -92.5 47t-32.5 94z" />
<glyph unicode="&#x137;" horiz-adv-x="1054" d="M25 1407v158q55 22 155 22q203 0 203 -190v-774h82l303 417h256l-356 -489q36 -46 132.5 -184t175.5 -253l79 -114h-281l-309 436h-82v-436h-242v1323q0 46 -25.5 65t-78.5 19h-12zM436 -279q0 60 40 103t108 43q67 0 105 -43t38 -111q0 -66 -33.5 -150t-99.5 -204 l-109 45l76 176q-60 10 -92.5 47t-32.5 94z" />
<glyph unicode="&#x139;" horiz-adv-x="1015" d="M168 0v1466h244v-1245h577v-221h-821zM207 1735l446 217l82 -195l-467 -164z" />
<glyph unicode="&#x13a;" horiz-adv-x="571" d="M10 1776l447 217l82 -195l-467 -164zM27 1407v158q57 22 153 22q205 0 205 -190v-1096q0 -74 24 -103.5t80 -29.5h21v-168q-51 -18 -133 -18q-236 0 -236 272v1069q0 43 -20.5 62t-63.5 22h-30z" />
<glyph unicode="&#x13b;" horiz-adv-x="1015" d="M168 0v1466h244v-1245h577v-221h-821zM455 -279q0 60 39.5 103t107.5 43q67 0 105 -43t38 -111q0 -66 -33.5 -150t-99.5 -204l-108 45l76 176q-60 10 -92.5 47t-32.5 94z" />
<glyph unicode="&#x13c;" horiz-adv-x="571" d="M27 1407v158q57 22 153 22q205 0 205 -190v-1096q0 -74 24 -103.5t80 -29.5h21v-168q-51 -18 -133 -18q-236 0 -236 272v1069q0 43 -20.5 62t-63.5 22h-30zM180 -279q0 60 40 103t108 43q67 0 105 -43t38 -111q0 -66 -33.5 -150t-99.5 -204l-109 45l76 176 q-60 10 -92.5 47t-32.5 94z" />
<glyph unicode="&#x13d;" horiz-adv-x="1091" d="M168 0v1466h244v-1245h577v-221h-821zM729 1341q0 60 40 103t108 43q67 0 105 -43t38 -111q0 -66 -33.5 -150t-99.5 -204l-109 45l76 176q-60 10 -92.5 47t-32.5 94z" />
<glyph unicode="&#x13e;" horiz-adv-x="681" d="M27 1407v158q57 22 153 22q205 0 205 -190v-1096q0 -74 24 -103.5t80 -29.5h21v-168q-51 -18 -133 -18q-236 0 -236 272v1069q0 43 -20.5 62t-63.5 22h-30zM506 1442q0 60 39.5 102.5t107.5 42.5q67 0 105.5 -42.5t38.5 -110.5q0 -66 -34 -150.5t-99 -204.5l-109 45 l76 176q-60 10 -92.5 47.5t-32.5 94.5z" />
<glyph unicode="&#x13f;" horiz-adv-x="1048" d="M168 0v1466h244v-1245h577v-221h-821zM674 762q0 65 40 108t107 43q69 0 109.5 -43t40.5 -108q0 -68 -40.5 -113t-109.5 -45q-67 0 -107 45t-40 113z" />
<glyph unicode="&#x140;" horiz-adv-x="899" d="M27 1407v158q57 22 153 22q205 0 205 -190v-1096q0 -74 24 -103.5t80 -29.5h21v-168q-51 -18 -133 -18q-236 0 -236 272v1069q0 43 -20.5 62t-63.5 22h-30zM567 645q0 65 40.5 108.5t107.5 43.5q68 0 108.5 -43.5t40.5 -108.5q0 -68 -40 -113t-109 -45q-67 0 -107.5 45 t-40.5 113z" />
<glyph unicode="&#x141;" horiz-adv-x="1040" d="M41 539v211l152 79v637h245v-514l250 129v-211l-250 -129v-520h578v-221h-823v618z" />
<glyph unicode="&#x142;" horiz-adv-x="706" d="M70 571v191l163 82v479q0 47 -28 65.5t-80 18.5h-8v158q57 22 153 22q205 0 205 -190v-432l176 86v-191l-176 -86v-473q0 -74 25.5 -103.5t87.5 -29.5h12v-168q-51 -18 -133 -18q-234 0 -234 272v399z" />
<glyph unicode="&#x143;" horiz-adv-x="1419" d="M168 0v1466h221l641 -1040v1040h223v-1466h-223l-641 1040v-1040h-221zM561 1735l447 217l82 -195l-467 -164z" />
<glyph unicode="&#x144;" horiz-adv-x="1216" d="M53 883v157q52 21 142 21q88 0 136 -38.5t60 -117.5q7 14 30.5 36.5t63.5 51t103 48.5t133 20q188 0 277 -111t89 -311v-639h-243v633q0 105 -50.5 163t-148.5 58q-43 0 -81.5 -10t-63.5 -24t-44 -28t-28 -24l-8 -10v-758h-244v799q0 46 -24.5 64t-77.5 20h-21zM494 1300 l378 297l107 -165l-404 -252z" />
<glyph unicode="&#x145;" horiz-adv-x="1419" d="M168 0v1466h221l641 -1040v1040h223v-1466h-223l-641 1040v-1040h-221zM571 -279q0 60 40 103t108 43q67 0 105 -43t38 -111q0 -66 -33.5 -150t-99.5 -204l-108 45l75 176q-60 10 -92.5 47t-32.5 94z" />
<glyph unicode="&#x146;" horiz-adv-x="1216" d="M53 883v157q52 21 142 21q88 0 136 -38.5t60 -117.5q7 14 30.5 36.5t63.5 51t103 48.5t133 20q188 0 277 -111t89 -311v-639h-243v633q0 105 -50.5 163t-148.5 58q-43 0 -81.5 -10t-63.5 -24t-44 -28t-28 -24l-8 -10v-758h-244v799q0 46 -24.5 64t-77.5 20h-21zM489 -279 q0 60 40 103t108 43q67 0 105 -43t38 -111q0 -66 -33.5 -150t-99.5 -204l-108 45l75 176q-60 10 -92.5 47t-32.5 94z" />
<glyph unicode="&#x147;" horiz-adv-x="1419" d="M168 0v1466h221l641 -1040v1040h223v-1466h-223l-641 1040v-1040h-221zM369 1841l75 107l283 -176l281 176l77 -107l-290 -248h-140z" />
<glyph unicode="&#x148;" horiz-adv-x="1216" d="M53 883v157q52 21 142 21q88 0 136 -38.5t60 -117.5q7 14 30.5 36.5t63.5 51t103 48.5t133 20q188 0 277 -111t89 -311v-639h-243v633q0 105 -50.5 163t-148.5 58q-43 0 -81.5 -10t-63.5 -24t-44 -28t-28 -24l-8 -10v-758h-244v799q0 46 -24.5 64t-77.5 20h-21zM250 1479 l82 106l274 -209l266 209l89 -106l-299 -287h-113z" />
<glyph unicode="&#x149;" horiz-adv-x="1273" d="M-10 1108l33 461h247l-125 -461h-155zM111 883v157q51 21 141 21q173 0 197 -156q7 14 30 36.5t63 51t103 48.5t133 20q188 0 277.5 -111t89.5 -311v-639h-244v633q0 105 -50.5 163t-148.5 58q-43 0 -81.5 -10t-63.5 -24t-44 -28t-27 -24l-9 -10v-758h-244v799 q0 46 -24.5 64t-77.5 20h-20z" />
<glyph unicode="&#x14a;" horiz-adv-x="1419" d="M168 0v1466h221l641 -1040v1040h223v-1532q0 -197 -88.5 -299t-257.5 -102q-46 0 -90 8.5t-65 17.5l-21 9v207q72 -29 146 -29t110 40t39 128v94l-637 1032v-1040h-221z" />
<glyph unicode="&#x14b;" horiz-adv-x="1216" d="M53 883v157q52 21 142 21q88 0 136 -38.5t60 -117.5q7 14 30.5 36.5t63.5 51t103 48.5t133 20q188 0 277 -111t89 -311v-770q0 -166 -78.5 -253t-232.5 -87q-34 0 -67.5 4t-50.5 8l-17 4v193q27 -8 68 -8q135 0 135 137v766q0 105 -50.5 163t-148.5 58q-43 0 -81.5 -10 t-63.5 -24t-44 -28t-28 -24l-8 -10v-758h-244v799q0 46 -24.5 64t-77.5 20h-21z" />
<glyph unicode="&#x14c;" horiz-adv-x="1398" d="M98 733q0 362 154 559t446 197q294 0 448 -195.5t154 -560.5t-156 -560.5t-446 -195.5t-445 195.5t-155 560.5zM354 733q0 -274 83 -408.5t263 -134.5q176 0 260 135.5t84 407.5q0 273 -82 408t-262 135q-178 0 -262 -135.5t-84 -407.5zM412 1677v185h577v-185h-577z" />
<glyph unicode="&#x14d;" horiz-adv-x="1161" d="M84 524q0 251 134.5 394t361.5 143q230 0 363.5 -142.5t133.5 -394.5q0 -253 -134.5 -397.5t-362.5 -144.5q-230 0 -363 144t-133 398zM297 1303v182h571v-182h-571zM334 526q0 -176 62 -271t186 -95q120 0 182.5 95.5t62.5 270.5q0 173 -62 265t-183 92 q-124 0 -186 -91.5t-62 -265.5z" />
<glyph unicode="&#x14e;" horiz-adv-x="1398" d="M98 733q0 362 154 559t446 197q294 0 448 -195.5t154 -560.5t-156 -560.5t-446 -195.5t-445 195.5t-155 560.5zM354 733q0 -274 83 -408.5t263 -134.5q176 0 260 135.5t84 407.5q0 273 -82 408t-262 135q-178 0 -262 -135.5t-84 -407.5zM383 1919h176q0 -28 12.5 -57 t46 -53.5t80.5 -24.5q69 0 104.5 44.5t35.5 90.5h176q-4 -142 -92 -224.5t-224 -82.5t-223.5 82.5t-91.5 224.5z" />
<glyph unicode="&#x14f;" horiz-adv-x="1161" d="M84 524q0 251 134.5 394t361.5 143q230 0 363.5 -142.5t133.5 -394.5q0 -253 -134.5 -397.5t-362.5 -144.5q-230 0 -363 144t-133 398zM252 1544h182q0 -41 11.5 -75.5t46 -61.5t88.5 -27t88 27t45.5 61.5t11.5 75.5h182q0 -156 -92.5 -246t-234.5 -90t-235 90.5 t-93 245.5zM334 526q0 -176 62 -271t186 -95q120 0 182.5 95.5t62.5 270.5q0 173 -62 265t-183 92q-124 0 -186 -91.5t-62 -265.5z" />
<glyph unicode="&#x150;" horiz-adv-x="1398" d="M98 733q0 362 154 559t446 197q294 0 448 -195.5t154 -560.5t-156 -560.5t-446 -195.5t-445 195.5t-155 560.5zM354 733q0 -274 83 -408.5t263 -134.5q176 0 260 135.5t84 407.5q0 273 -82 408t-262 135q-178 0 -262 -135.5t-84 -407.5zM418 1677l254 336l157 -123 l-292 -297zM717 1720l416 226l86 -185l-443 -168z" />
<glyph unicode="&#x151;" horiz-adv-x="1161" d="M84 524q0 251 134.5 394t361.5 143q230 0 363.5 -142.5t133.5 -394.5q0 -253 -134.5 -397.5t-362.5 -144.5q-230 0 -363 144t-133 398zM299 1251l246 357l147 -125l-278 -326zM334 526q0 -176 62 -271t186 -95q120 0 182.5 95.5t62.5 270.5q0 173 -62 265t-183 92 q-124 0 -186 -91.5t-62 -265.5zM612 1276l326 305l119 -154l-352 -268z" />
<glyph unicode="&#x152;" horiz-adv-x="1871" d="M98 727q0 373 160.5 567.5t462.5 194.5q111 0 223 -23h830v-217h-586v-399h483v-213h-483v-420h586v-217h-832q-124 -23 -244 -23q-287 0 -443.5 191.5t-156.5 558.5zM354 729q0 -274 91 -410.5t296 -136.5q113 0 201 23v1059q-89 24 -207 24q-194 0 -287.5 -140 t-93.5 -419z" />
<glyph unicode="&#x153;" horiz-adv-x="1808" d="M84 524q0 251 134.5 394t361.5 143q247 0 372 -176q118 174 351 174q113 0 197 -36.5t132 -100.5t71 -142t23 -170q0 -44 -2 -82t-4 -54l-2 -15h-647q18 -295 326 -295q68 0 138.5 13t106.5 27l37 13v-180q-14 -6 -40 -15.5t-111 -25.5t-176 -16q-273 0 -402 178 q-125 -176 -370 -176q-230 0 -363 144t-133 398zM334 526q0 -176 62 -271t186 -95q120 0 182.5 95.5t62.5 270.5q0 173 -62 265t-183 92q-124 0 -186 -91.5t-62 -265.5zM1073 618h424q3 129 -48 197t-149 68q-97 0 -155.5 -67t-71.5 -198z" />
<glyph unicode="&#x154;" horiz-adv-x="1210" d="M168 0v1466h426q241 0 371.5 -111.5t130.5 -305.5q0 -134 -64.5 -245t-191.5 -175l336 -629h-267l-303 563h-194v-563h-244zM412 774h172q113 0 187.5 70.5t74.5 193.5q0 102 -66 160.5t-192 58.5h-176v-483zM416 1735l446 217l82 -195l-467 -164z" />
<glyph unicode="&#x155;" horiz-adv-x="778" d="M53 883v157q52 21 142 21q81 0 130.5 -34t67.5 -120q49 74 118 114t134 40q29 0 53.5 -5.5t34.5 -10.5l10 -5v-206q-44 12 -112 12q-71 0 -125.5 -27.5t-85.5 -68.5v-750h-244v799q0 48 -26 66t-84 18h-13zM307 1300l379 297l107 -165l-404 -252z" />
<glyph unicode="&#x156;" horiz-adv-x="1210" d="M168 0v1466h426q241 0 371.5 -111.5t130.5 -305.5q0 -134 -64.5 -245t-191.5 -175l336 -629h-267l-303 563h-194v-563h-244zM412 774h172q113 0 187.5 70.5t74.5 193.5q0 102 -66 160.5t-192 58.5h-176v-483zM520 -279q0 60 40 103t108 43q67 0 105 -43t38 -111 q0 -66 -33.5 -150t-99.5 -204l-109 45l76 176q-60 10 -92.5 47t-32.5 94z" />
<glyph unicode="&#x157;" horiz-adv-x="778" d="M53 883v157q52 21 142 21q81 0 130.5 -34t67.5 -120q49 74 118 114t134 40q29 0 53.5 -5.5t34.5 -10.5l10 -5v-206q-44 12 -112 12q-71 0 -125.5 -27.5t-85.5 -68.5v-750h-244v799q0 48 -26 66t-84 18h-13zM156 -279q0 60 39.5 103t107.5 43q67 0 105 -43t38 -111 q0 -66 -33.5 -150t-99.5 -204l-108 45l76 176q-60 10 -92.5 47t-32.5 94z" />
<glyph unicode="&#x158;" horiz-adv-x="1210" d="M168 0v1466h426q241 0 371.5 -111.5t130.5 -305.5q0 -134 -64.5 -245t-191.5 -175l336 -629h-267l-303 563h-194v-563h-244zM238 1841l75 107l283 -176l281 176l77 -107l-290 -248h-140zM412 774h172q113 0 187.5 70.5t74.5 193.5q0 102 -66 160.5t-192 58.5h-176v-483z " />
<glyph unicode="&#x159;" horiz-adv-x="778" d="M53 883v157q52 21 142 21q81 0 130.5 -34t67.5 -120q49 74 118 114t134 40q29 0 53.5 -5.5t34.5 -10.5l10 -5v-206q-44 12 -112 12q-71 0 -125.5 -27.5t-85.5 -68.5v-750h-244v799q0 48 -26 66t-84 18h-13zM55 1479l82 106l275 -209l266 209l88 -106l-299 -287h-113z" />
<glyph unicode="&#x15a;" horiz-adv-x="1062" d="M100 1083q0 182 130 294t362 112q88 0 168.5 -12.5t117.5 -25.5l37 -13v-213q-166 51 -313 51q-122 0 -188 -47.5t-66 -134.5q0 -82 65 -137t203 -111q67 -27 118.5 -54t100.5 -65t80.5 -81t50.5 -101t19 -127q0 -93 -32.5 -171.5t-96.5 -139.5t-170.5 -95.5 t-245.5 -34.5q-90 0 -174 16t-123 32l-39 16v213q18 -7 49 -17.5t121 -28.5t172 -18q147 0 220 55.5t73 151.5q0 48 -20 87t-63 71t-86.5 55t-114.5 54q-63 28 -108 52t-95 61.5t-80.5 78.5t-51 99.5t-20.5 127.5zM391 1735l447 217l82 -195l-467 -164z" />
<glyph unicode="&#x15b;" horiz-adv-x="907" d="M88 754q0 147 113.5 227t310.5 80q73 0 138.5 -9.5t94.5 -18.5l29 -9v-188q-1 0 -23.5 6t-44 11t-53 11t-69 9.5t-74.5 3.5q-97 0 -144 -30t-47 -83q0 -50 43.5 -81.5t137.5 -55.5q181 -45 259.5 -120.5t78.5 -197.5q0 -155 -122 -241t-321 -86q-81 0 -155.5 13 t-109.5 27l-34 13v182q16 -5 43 -13.5t105 -22t147 -13.5q101 0 157 32t56 91q0 52 -41 82.5t-155 62.5q-72 20 -124 43.5t-99.5 60t-72 90.5t-24.5 124zM332 1300l379 297l106 -165l-403 -252z" />
<glyph unicode="&#x15c;" horiz-adv-x="1062" d="M100 1083q0 182 130 294t362 112q88 0 168.5 -12.5t117.5 -25.5l37 -13v-213q-166 51 -313 51q-122 0 -188 -47.5t-66 -134.5q0 -82 65 -137t203 -111q67 -27 118.5 -54t100.5 -65t80.5 -81t50.5 -101t19 -127q0 -93 -32.5 -171.5t-96.5 -139.5t-170.5 -95.5 t-245.5 -34.5q-90 0 -174 16t-123 32l-39 16v213q18 -7 49 -17.5t121 -28.5t172 -18q147 0 220 55.5t73 151.5q0 48 -20 87t-63 71t-86.5 55t-114.5 54q-63 28 -108 52t-95 61.5t-80.5 78.5t-51 99.5t-20.5 127.5zM195 1700l288 248h140l288 -248l-75 -107l-283 176 l-283 -176z" />
<glyph unicode="&#x15d;" horiz-adv-x="907" d="M88 754q0 147 113.5 227t310.5 80q73 0 138.5 -9.5t94.5 -18.5l29 -9v-188q-1 0 -23.5 6t-44 11t-53 11t-69 9.5t-74.5 3.5q-97 0 -144 -30t-47 -83q0 -50 43.5 -81.5t137.5 -55.5q181 -45 259.5 -120.5t78.5 -197.5q0 -155 -122 -241t-321 -86q-81 0 -155.5 13 t-109.5 27l-34 13v182q16 -5 43 -13.5t105 -22t147 -13.5q101 0 157 32t56 91q0 52 -41 82.5t-155 62.5q-72 20 -124 43.5t-99.5 60t-72 90.5t-24.5 124zM106 1298l300 287h112l299 -287l-88 -106l-268 209l-273 -209z" />
<glyph unicode="&#x15e;" horiz-adv-x="1062" d="M100 1083q0 182 130 294t362 112q88 0 168.5 -12.5t117.5 -25.5l37 -13v-213q-166 51 -313 51q-122 0 -188 -47.5t-66 -134.5q0 -82 65 -137t203 -111q67 -27 118.5 -54t100.5 -65t80.5 -81t50.5 -101t19 -127q0 -80 -24 -149.5t-71.5 -127t-125.5 -97.5t-180 -56l-6 -82 q208 -15 208 -180q0 -77 -55 -132.5t-146.5 -77.5t-199.5 -8v121q85 -5 136.5 18.5t51.5 67.5q0 77 -178 74l19 188q-84 2 -161.5 18t-112.5 31l-36 15v213q18 -7 49 -17.5t121 -28.5t172 -18q147 0 220 55.5t73 151.5q0 48 -20 87t-63 71t-86.5 55t-114.5 54 q-63 28 -108 52t-95 61.5t-80.5 78.5t-51 99.5t-20.5 127.5z" />
<glyph unicode="&#x15f;" horiz-adv-x="907" d="M88 754q0 147 113.5 227t310.5 80q73 0 138.5 -9.5t94.5 -18.5l29 -9v-188q-1 0 -23.5 6t-44 11t-53 11t-69 9.5t-74.5 3.5q-97 0 -144 -30t-47 -83q0 -50 43.5 -81.5t137.5 -55.5q181 -45 259.5 -120.5t78.5 -197.5q0 -133 -92.5 -216.5t-249.5 -104.5l-7 -66 q220 -12 220 -178q0 -119 -117.5 -179.5t-292.5 -37.5v125q90 -5 144.5 17t54.5 65q0 73 -183 67l19 183q-64 4 -123.5 16.5t-86.5 23.5l-28 11v182q16 -5 43 -13.5t105 -22t147 -13.5q101 0 157 32t56 91q0 52 -41 82.5t-155 62.5q-72 20 -124 43.5t-99.5 60t-72 90.5 t-24.5 124z" />
<glyph unicode="&#x160;" horiz-adv-x="1062" d="M100 1083q0 182 130 294t362 112q88 0 168.5 -12.5t117.5 -25.5l37 -13v-213q-166 51 -313 51q-122 0 -188 -47.5t-66 -134.5q0 -82 65 -137t203 -111q67 -27 118.5 -54t100.5 -65t80.5 -81t50.5 -101t19 -127q0 -93 -32.5 -171.5t-96.5 -139.5t-170.5 -95.5 t-245.5 -34.5q-90 0 -174 16t-123 32l-39 16v213q18 -7 49 -17.5t121 -28.5t172 -18q147 0 220 55.5t73 151.5q0 48 -20 87t-63 71t-86.5 55t-114.5 54q-63 28 -108 52t-95 61.5t-80.5 78.5t-51 99.5t-20.5 127.5zM201 1841l75 107l283 -176l281 176l78 -107l-291 -248h-140 z" />
<glyph unicode="&#x161;" horiz-adv-x="907" d="M88 754q0 147 113.5 227t310.5 80q73 0 138.5 -9.5t94.5 -18.5l29 -9v-188q-1 0 -23.5 6t-44 11t-53 11t-69 9.5t-74.5 3.5q-97 0 -144 -30t-47 -83q0 -50 43.5 -81.5t137.5 -55.5q181 -45 259.5 -120.5t78.5 -197.5q0 -155 -122 -241t-321 -86q-81 0 -155.5 13 t-109.5 27l-34 13v182q16 -5 43 -13.5t105 -22t147 -13.5q101 0 157 32t56 91q0 52 -41 82.5t-155 62.5q-72 20 -124 43.5t-99.5 60t-72 90.5t-24.5 124zM100 1479l82 106l275 -209l266 209l88 -106l-299 -287h-113z" />
<glyph unicode="&#x162;" horiz-adv-x="1097" d="M27 1245v221h1044v-221h-399v-1245h-246v1245h-399zM401 -279q0 60 40 103t108 43q67 0 105 -43t38 -111q0 -66 -33.5 -150t-99.5 -204l-108 45l75 176q-60 10 -92.5 47t-32.5 94z" />
<glyph unicode="&#x163;" horiz-adv-x="733" d="M47 854v186h150v258l241 33v-291h230v-186h-230v-524q0 -81 34 -119.5t108 -38.5q20 0 41 2t32 4l11 2v-180q-62 -18 -160 -18q-307 0 -307 346v526h-150zM291 -279q0 60 39.5 103t107.5 43q67 0 105.5 -43t38.5 -111q0 -66 -33.5 -150t-99.5 -204l-109 45l76 176 q-60 10 -92.5 47t-32.5 94z" />
<glyph unicode="&#x164;" horiz-adv-x="1097" d="M27 1245v221h1044v-221h-399v-1245h-246v1245h-399zM193 1841l75 107l283 -176l280 176l78 -107l-291 -248h-139z" />
<glyph unicode="&#x165;" horiz-adv-x="733" d="M47 854v186h150v258l241 33v-291h230v-186h-230v-524q0 -81 34 -119.5t108 -38.5q20 0 41 2t32 4l11 2v-180q-62 -18 -160 -18q-307 0 -307 346v526h-150zM616 1470q0 57 38.5 97.5t101.5 40.5t99 -40.5t36 -103.5q0 -64 -31.5 -142.5t-93.5 -191.5l-102 44l71 163 q-57 10 -88 45t-31 88z" />
<glyph unicode="&#x166;" horiz-adv-x="1153" d="M55 1245v221h1043v-221h-398v-393h306v-190h-306v-662h-245v662h-305v190h305v393h-400z" />
<glyph unicode="&#x167;" horiz-adv-x="745" d="M55 532v146h150v176h-150v186h150v258l241 33v-291h230v-186h-230v-176h224v-146h-224v-202q0 -81 34 -119.5t108 -38.5q20 0 41 2t32 4l11 2v-180q-62 -18 -160 -18q-307 0 -307 346v204h-150z" />
<glyph unicode="&#x168;" horiz-adv-x="1390" d="M154 522v944h243v-944q0 -171 74.5 -251.5t224.5 -80.5q143 0 217.5 80.5t77.5 251.5v944h246v-944q0 -271 -145 -408t-396 -137q-121 0 -219.5 33t-171 98.5t-112 170.5t-39.5 243zM371 1647q2 22 7 49t20 69t37.5 74t62.5 56t90 24q13 0 26 -2t22 -3.5t21.5 -7 t18.5 -7.5t19 -10t16.5 -10.5l17.5 -12.5t16 -11q11 -7 31 -21.5t29.5 -20.5t24 -11.5t28.5 -5.5q25 0 41.5 23t20.5 46l4 23h147q-3 -26 -7 -49.5t-18.5 -66t-35.5 -72.5t-59.5 -53t-88.5 -23q-20 0 -37 2.5t-36 12t-25.5 12.5t-29.5 18.5t-25 16.5q-10 6 -30.5 20.5 t-30.5 20.5t-26 12t-30 6q-29 0 -47.5 -24.5t-22.5 -48.5l-4 -25h-147z" />
<glyph unicode="&#x169;" horiz-adv-x="1204" d="M131 401v639h242v-632q0 -105 48.5 -163.5t143.5 -58.5q41 0 78 10t61.5 24.5t42.5 28.5t27 24l8 10v757h244v-798q0 -47 25.5 -64.5t81.5 -19.5h16v-158q-51 -18 -141 -18q-173 0 -197 153q-7 -14 -30 -36t-62 -50t-100.5 -47.5t-129.5 -19.5q-185 0 -271.5 110 t-86.5 309zM244 1270q1 21 6 50t20 71t37 75.5t62.5 57.5t91.5 24q14 0 27 -2t22.5 -3.5t22 -7t19 -8t19 -10.5t16.5 -10.5t17.5 -12t16.5 -11.5q11 -7 31.5 -21.5t30 -20.5t24.5 -12t30 -6q51 0 70 93h143q-2 -21 -5.5 -40.5t-12 -54.5t-23.5 -62.5t-36.5 -55t-55.5 -43 t-76 -15.5q-21 0 -38.5 3.5t-35 11.5t-27.5 13.5t-29 18t-27 17.5q-10 7 -30.5 21t-31 21t-27 13t-30.5 6q-22 0 -38.5 -13t-25 -33.5t-11.5 -31.5t-5 -22h-141z" />
<glyph unicode="&#x16a;" horiz-adv-x="1390" d="M154 522v944h243v-944q0 -171 74.5 -251.5t224.5 -80.5q143 0 217.5 80.5t77.5 251.5v944h246v-944q0 -271 -145 -408t-396 -137q-121 0 -219.5 33t-171 98.5t-112 170.5t-39.5 243zM406 1677v185h577v-185h-577z" />
<glyph unicode="&#x16b;" horiz-adv-x="1204" d="M131 401v639h242v-632q0 -105 48.5 -163.5t143.5 -58.5q41 0 78 10t61.5 24.5t42.5 28.5t27 24l8 10v757h244v-798q0 -47 25.5 -64.5t81.5 -19.5h16v-158q-51 -18 -141 -18q-173 0 -197 153q-7 -14 -30 -36t-62 -50t-100.5 -47.5t-129.5 -19.5q-185 0 -271.5 110 t-86.5 309zM287 1303v182h571v-182h-571z" />
<glyph unicode="&#x16c;" horiz-adv-x="1390" d="M154 522v944h243v-944q0 -171 74.5 -251.5t224.5 -80.5q143 0 217.5 80.5t77.5 251.5v944h246v-944q0 -271 -145 -408t-396 -137q-121 0 -219.5 33t-171 98.5t-112 170.5t-39.5 243zM379 1919h176q0 -28 12.5 -57t46 -53.5t80.5 -24.5q69 0 104.5 44.5t35.5 90.5h176 q-4 -142 -92 -224.5t-224 -82.5t-223.5 82.5t-91.5 224.5z" />
<glyph unicode="&#x16d;" horiz-adv-x="1204" d="M131 401v639h242v-632q0 -105 48.5 -163.5t143.5 -58.5q41 0 78 10t61.5 24.5t42.5 28.5t27 24l8 10v757h244v-798q0 -47 25.5 -64.5t81.5 -19.5h16v-158q-51 -18 -141 -18q-173 0 -197 153q-7 -14 -30 -36t-62 -50t-100.5 -47.5t-129.5 -19.5q-185 0 -271.5 110 t-86.5 309zM256 1544h182q0 -41 11.5 -75.5t46 -61.5t88.5 -27t88 27t45.5 61.5t11.5 75.5h182q0 -156 -92.5 -246t-234.5 -90t-235 90.5t-93 245.5z" />
<glyph unicode="&#x16e;" horiz-adv-x="1390" d="M154 522v944h243v-944q0 -171 74.5 -251.5t224.5 -80.5q143 0 217.5 80.5t77.5 251.5v944h246v-944q0 -271 -145 -408t-396 -137q-121 0 -219.5 33t-171 98.5t-112 170.5t-39.5 243zM449 1776q0 87 67.5 141.5t175.5 54.5q110 0 179 -55t69 -141q0 -89 -67 -141t-181 -52 q-110 0 -176.5 52t-66.5 141zM594 1780q0 -38 26.5 -59t71.5 -21q44 0 73.5 21.5t29.5 58.5q0 33 -29.5 53t-73.5 20q-45 0 -71.5 -19.5t-26.5 -53.5z" />
<glyph unicode="&#x16f;" horiz-adv-x="1204" d="M131 401v639h242v-632q0 -105 48.5 -163.5t143.5 -58.5q41 0 78 10t61.5 24.5t42.5 28.5t27 24l8 10v757h244v-798q0 -47 25.5 -64.5t81.5 -19.5h16v-158q-51 -18 -141 -18q-173 0 -197 153q-7 -14 -30 -36t-62 -50t-100.5 -47.5t-129.5 -19.5q-185 0 -271.5 110 t-86.5 309zM330 1395q0 94 68 153.5t175 59.5q108 0 178 -60t70 -153q0 -95 -68.5 -152t-179.5 -57q-108 0 -175.5 57t-67.5 152zM477 1399q0 -41 26 -64.5t70 -23.5q45 0 73 23.5t28 64.5q0 36 -29 60t-72 24q-44 0 -70 -23.5t-26 -60.5z" />
<glyph unicode="&#x170;" horiz-adv-x="1390" d="M154 522v944h243v-944q0 -171 74.5 -251.5t224.5 -80.5q143 0 217.5 80.5t77.5 251.5v944h246v-944q0 -271 -145 -408t-396 -137q-121 0 -219.5 33t-171 98.5t-112 170.5t-39.5 243zM377 1677l254 336l157 -123l-292 -297zM676 1720l416 226l86 -185l-443 -168z" />
<glyph unicode="&#x171;" horiz-adv-x="1204" d="M131 401v639h242v-632q0 -105 48.5 -163.5t143.5 -58.5q41 0 78 10t61.5 24.5t42.5 28.5t27 24l8 10v757h244v-798q0 -47 25.5 -64.5t81.5 -19.5h16v-158q-51 -18 -141 -18q-173 0 -197 153q-7 -14 -30 -36t-62 -50t-100.5 -47.5t-129.5 -19.5q-185 0 -271.5 110 t-86.5 309zM319 1251l246 357l148 -125l-279 -326zM633 1276l325 305l119 -154l-352 -268z" />
<glyph unicode="&#x172;" horiz-adv-x="1390" d="M154 522v944h243v-944q0 -171 74.5 -251.5t224.5 -80.5q295 0 295 332v944h246v-944q0 -338 -262 -473q-129 -76 -188.5 -136.5t-59.5 -129.5q0 -88 94 -88q25 0 50 8t39.5 17.5t27.5 19.5t14 10v-137l-11 -9q-11 -8 -20 -14.5t-28 -17t-38 -17t-46.5 -11.5t-56.5 -5 q-100 0 -164 56.5t-64 146.5q0 64 32.5 127.5t98.5 110.5q-243 24 -372 158t-129 384z" />
<glyph unicode="&#x173;" horiz-adv-x="1204" d="M131 401v639h242v-632q0 -105 48.5 -163.5t143.5 -58.5q41 0 78 10t61.5 24.5t42.5 28.5t27 24l8 10v757h244v-798q0 -46 25.5 -64t83.5 -20h14v-158q-99 -54 -143.5 -112.5t-44.5 -110.5q0 -80 92 -80q25 0 51 8.5t42 17.5t31.5 19.5t16.5 11.5v-141q-1 -1 -10.5 -8 t-18.5 -12.5t-24 -14t-32 -15.5t-37 -13t-45.5 -9.5t-51.5 -3.5q-101 0 -164 54.5t-63 144.5q0 76 45 145t135 111q-99 27 -117 143q-7 -14 -30 -36t-62 -50t-100.5 -47.5t-129.5 -19.5q-185 0 -271.5 110t-86.5 309z" />
<glyph unicode="&#x174;" horiz-adv-x="1773" d="M37 1466h244l258 -1091l262 1098h205l260 -1094l260 1087h217l-363 -1474h-235l-258 1050l-266 -1050h-236zM545 1700l289 248h139l289 -248l-76 -107l-283 176l-282 -176z" />
<glyph unicode="&#x175;" horiz-adv-x="1521" d="M43 1040h231l209 -731l183 731h204l191 -729l207 729h211l-297 -1040h-234l-192 723l-183 -723h-233zM410 1298l299 287h112l299 -287l-88 -106l-268 209l-272 -209z" />
<glyph unicode="&#x176;" horiz-adv-x="1208" d="M14 1466h256l344 -645l344 645h234l-465 -872v-594h-246v594zM262 1700l289 248h139l289 -248l-76 -107l-282 176l-283 -176z" />
<glyph unicode="&#x177;" horiz-adv-x="1048" d="M37 1040h246l258 -729l250 729h225l-539 -1499h-225l164 461zM182 1298l299 287h113l299 -287l-88 -106l-268 209l-273 -209z" />
<glyph unicode="&#x178;" horiz-adv-x="1208" d="M14 1466h256l344 -645l344 645h234l-465 -872v-594h-246v594zM279 1778q0 60 38 98.5t101 38.5t101 -38.5t38 -96.5q0 -60 -38.5 -100t-102.5 -40q-62 0 -99.5 39.5t-37.5 98.5zM670 1778q0 60 37 98.5t100 38.5t101 -38.5t38 -96.5q0 -60 -38.5 -100t-102.5 -40 q-60 0 -97.5 40t-37.5 98z" />
<glyph unicode="&#x179;" horiz-adv-x="1097" d="M86 0v215l664 1036h-664v215h926v-215l-656 -1036h656v-215h-926zM383 1735l446 217l82 -195l-467 -164z" />
<glyph unicode="&#x17a;" horiz-adv-x="899" d="M82 0v178l477 680h-477v182h735v-178l-479 -680h479v-182h-735zM322 1300l378 297l107 -165l-404 -252z" />
<glyph unicode="&#x17b;" horiz-adv-x="1097" d="M86 0v215l664 1036h-664v215h926v-215l-656 -1036h656v-215h-926zM401 1782q0 62 38.5 100.5t105.5 38.5t105 -38.5t38 -98.5q0 -64 -38 -104t-107 -40q-65 0 -103.5 40.5t-38.5 101.5z" />
<glyph unicode="&#x17c;" horiz-adv-x="899" d="M82 0v178l477 680h-477v182h735v-178l-479 -680h479v-182h-735zM328 1386q0 64 35.5 103t101.5 39q67 0 104 -38.5t37 -100.5q0 -63 -37.5 -103.5t-105.5 -40.5q-64 0 -99.5 40t-35.5 101z" />
<glyph unicode="&#x17d;" horiz-adv-x="1097" d="M86 0v215l664 1036h-664v215h926v-215l-656 -1036h656v-215h-926zM193 1841l75 107l283 -176l280 176l78 -107l-291 -248h-139z" />
<glyph unicode="&#x17e;" horiz-adv-x="899" d="M82 0v178l477 680h-477v182h735v-178l-479 -680h479v-182h-735zM102 1479l82 106l275 -209l266 209l88 -106l-299 -287h-113z" />
<glyph unicode="&#x18f;" horiz-adv-x="1337" d="M80 662q0 46 3.5 88.5t6.5 61.5l4 19h889q-25 224 -129 334.5t-301 110.5q-94 0 -188.5 -18.5t-142.5 -37.5l-48 -18v211q6 3 17 8t49.5 18.5t81 23.5t109.5 18t138 8q139 0 250.5 -37t189 -103.5t130 -161.5t76.5 -208.5t24 -247.5q0 -229 -63 -396t-196 -262.5 t-325 -95.5q-121 0 -219 36.5t-163.5 99t-109.5 150t-63.5 187t-19.5 212.5zM328 608q7 -212 91 -318t236 -106t234.5 114.5t91.5 328.5h-653v-19z" />
<glyph unicode="&#x192;" horiz-adv-x="870" d="M-131 -457l22 195q45 -12 115 -12q149 0 164 168l100 954h-135l21 192h135l20 179q8 76 32.5 140t68.5 116.5t114.5 82t161.5 29.5q48 0 89.5 -4.5t58.5 -8.5l18 -5l-23 -195q-44 12 -116 12q-144 0 -162 -167l-18 -179h219l-21 -192h-221l-100 -954q-8 -77 -32.5 -140.5 t-68.5 -116.5t-114.5 -82.5t-161.5 -29.5q-48 0 -89.5 4.5t-59.5 8.5z" />
<glyph unicode="&#x1c4;" horiz-adv-x="2418" d="M168 0v1466h418q335 0 512.5 -192.5t177.5 -540.5q0 -347 -178 -540t-512 -193h-418zM412 221h182q201 0 313.5 128t112.5 384t-112.5 384t-313.5 128h-182v-1024zM1407 0v215l664 1036h-664v215h926v-215l-656 -1036h656v-215h-926zM1513 1841l76 107l283 -176l280 176 l78 -107l-291 -248h-139z" />
<glyph unicode="&#x1c5;" horiz-adv-x="2244" d="M168 0v1466h418q335 0 512.5 -192.5t177.5 -540.5q0 -347 -178 -540t-512 -193h-418zM412 221h182q201 0 313.5 128t112.5 384t-112.5 384t-313.5 128h-182v-1024zM1427 0v178l478 680h-478v182h736v-178l-480 -680h480v-182h-736zM1448 1479l82 106l274 -209l267 209 l88 -106l-299 -287h-113z" />
<glyph unicode="&#x1c6;" horiz-adv-x="2109" d="M86 506q0 85 15.5 163t50 150.5t86 125.5t129 84.5t172.5 31.5q147 0 249 -86v348q0 47 -25 65.5t-77 18.5h-14v158q59 22 155 22q203 0 203 -190v-1153q0 -47 27 -64.5t82 -19.5h14v-160q-55 -18 -135 -18q-166 0 -199 153q-13 -18 -30.5 -36t-55.5 -48.5t-95.5 -49.5 t-123.5 -19q-111 0 -195 40.5t-134 113t-74.5 165.5t-24.5 205zM338 514q0 -160 62.5 -245t179.5 -85q37 0 72 11.5t59 27.5t42 32.5t27 28.5l8 11v502q-8 8 -23 19t-66 29.5t-107 18.5q-122 0 -188 -93t-66 -257zM1292 0v178l477 680h-477v182h736v-178l-480 -680h480v-182 h-736zM1311 1479l82 106l274 -209l266 209l88 -106l-299 -287h-112z" />
<glyph unicode="&#x1c7;" horiz-adv-x="1777" d="M168 0v1466h244v-1245h577v-221h-821zM1085 12v205q72 -29 146 -29q76 0 110.5 47t34.5 146v1085h246v-1087q0 -198 -91.5 -300t-264.5 -102q-46 0 -91.5 8.5t-67.5 17.5z" />
<glyph unicode="&#x1c8;" horiz-adv-x="1572" d="M168 0v1466h244v-1245h577v-221h-821zM985 -262q29 -8 70 -8q135 0 135 137v1173h242v-1171q0 -165 -79 -252.5t-233 -87.5q-34 0 -67.5 4t-50.5 8l-17 4v193zM1174 1386q0 64 35.5 103t101.5 39q67 0 104 -38.5t37 -100.5q0 -63 -37.5 -103.5t-105.5 -40.5 q-64 0 -99.5 40t-35.5 101z" />
<glyph unicode="&#x1c9;" horiz-adv-x="1148" d="M27 1407v158q57 22 153 22q205 0 205 -190v-1096q0 -74 24 -103.5t80 -29.5h21v-168q-51 -18 -133 -18q-236 0 -236 272v1069q0 43 -20.5 62t-63.5 22h-30zM561 -262q29 -8 70 -8q135 0 135 137v1173h242v-1171q0 -165 -79 -252.5t-233 -87.5q-34 0 -67.5 4t-50.5 8 l-17 4v193zM750 1386q0 64 35.5 103t101.5 39q67 0 104 -38.5t37 -100.5q0 -63 -37.5 -103.5t-105.5 -40.5q-64 0 -99.5 40t-35.5 101z" />
<glyph unicode="&#x1ca;" horiz-adv-x="2095" d="M168 0v1466h221l641 -1040v1040h223v-1466h-223l-641 1040v-1040h-221zM1403 12v205q71 -29 145 -29q76 0 111 47t35 146v1085h245v-1087q0 -198 -91.5 -300t-264.5 -102q-46 0 -91 8.5t-67 17.5z" />
<glyph unicode="&#x1cb;" horiz-adv-x="1974" d="M168 0v1466h221l641 -1040v1040h223v-1466h-223l-641 1040v-1040h-221zM1386 -262q29 -8 70 -8q135 0 135 137v1173h242v-1171q0 -166 -78.5 -253t-232.5 -87q-34 0 -68 4t-51 8l-17 4v193zM1575 1386q0 64 35.5 103t101.5 39q67 0 104 -38.5t37 -100.5 q0 -63 -37.5 -103.5t-105.5 -40.5q-64 0 -99.5 40t-35.5 101z" />
<glyph unicode="&#x1cc;" horiz-adv-x="1818" d="M53 883v157q52 21 142 21q88 0 136 -38.5t60 -117.5q7 14 30.5 36.5t63.5 51t103 48.5t133 20q188 0 277 -111t89 -311v-639h-243v633q0 105 -50.5 163t-148.5 58q-43 0 -81.5 -10t-63.5 -24t-44 -28t-28 -24l-8 -10v-758h-244v799q0 46 -24.5 64t-77.5 20h-21z M1231 -262q28 -8 69 -8q64 0 100 33.5t36 103.5v1173h241v-1171q0 -166 -78.5 -253t-232.5 -87q-34 0 -67.5 4t-50.5 8l-17 4v193zM1419 1386q0 64 35.5 103t101.5 39q67 0 104.5 -38.5t37.5 -100.5q0 -63 -38 -103.5t-106 -40.5q-64 0 -99.5 40t-35.5 101z" />
<glyph unicode="&#x1d3;" horiz-adv-x="1390" d="M154 522v944h243v-944q0 -171 74.5 -251.5t224.5 -80.5q143 0 217.5 80.5t77.5 251.5v944h246v-944q0 -271 -145 -408t-396 -137q-121 0 -219.5 33t-171 98.5t-112 170.5t-39.5 243zM336 1841l76 107l282 -176l281 176l78 -107l-291 -248h-139z" />
<glyph unicode="&#x1d4;" horiz-adv-x="1204" d="M131 401v639h242v-632q0 -105 48.5 -163.5t143.5 -58.5q41 0 78 10t61.5 24.5t42.5 28.5t27 24l8 10v757h244v-798q0 -47 25.5 -64.5t81.5 -19.5h16v-158q-51 -18 -141 -18q-173 0 -197 153q-7 -14 -30 -36t-62 -50t-100.5 -47.5t-129.5 -19.5q-185 0 -271.5 110 t-86.5 309zM227 1479l82 106l275 -209l266 209l88 -106l-299 -287h-113z" />
<glyph unicode="&#x1e2;" horiz-adv-x="1718" d="M2 0l649 1466h969v-217h-571v-399h469v-213h-469v-420h571v-217h-817v328h-422l-143 -328h-236zM473 532h330v723h-17zM885 1677v185h577v-185h-577z" />
<glyph unicode="&#x1e3;" horiz-adv-x="1648" d="M51 281q0 162 117 245.5t336 91.5l164 7v39q0 107 -47.5 155.5t-169.5 48.5q-72 0 -150 -12t-120 -24l-42 -11v185q15 6 43.5 15t119 24.5t183.5 15.5q248 0 336 -133q55 64 139.5 98.5t184.5 34.5q112 0 196 -37t132.5 -101t72 -142t23.5 -169q0 -44 -2.5 -82t-4.5 -54 l-3 -15h-648q18 -295 326 -295q68 0 138.5 13t107.5 25l37 13v-178q-14 -6 -40 -15.5t-111.5 -25.5t-176.5 -16q-292 0 -426 188q-23 -33 -55 -63t-78 -59.5t-109.5 -47.5t-134.5 -18q-157 0 -247.5 80t-90.5 219zM295 299q0 -63 39 -98t104 -35q54 0 101 18.5t78.5 47.5 t47.5 48t27 37q-21 77 -24 152l-121 -4q-135 -6 -193.5 -47t-58.5 -119zM516 1303v182h571v-182h-571zM915 621h422q3 127 -47.5 194.5t-148.5 67.5t-156 -66t-70 -196z" />
<glyph unicode="&#x1f1;" horiz-adv-x="2418" d="M168 0v1466h418q335 0 512.5 -192.5t177.5 -540.5q0 -347 -178 -540t-512 -193h-418zM412 221h182q201 0 313.5 128t112.5 384t-112.5 384t-313.5 128h-182v-1024zM1407 0v215l664 1036h-664v215h926v-215l-656 -1036h656v-215h-926z" />
<glyph unicode="&#x1f2;" horiz-adv-x="2242" d="M168 0v1466h418q335 0 512.5 -192.5t177.5 -540.5q0 -347 -178 -540t-512 -193h-418zM412 221h182q201 0 313.5 128t112.5 384t-112.5 384t-313.5 128h-182v-1024zM1425 0v178l478 680h-478v182h736v-178l-480 -680h480v-182h-736z" />
<glyph unicode="&#x1f3;" horiz-adv-x="2109" d="M86 506q0 85 15.5 163t50 150.5t86 125.5t129 84.5t172.5 31.5q147 0 249 -86v348q0 47 -25 65.5t-77 18.5h-14v158q59 22 155 22q203 0 203 -190v-1153q0 -47 27 -64.5t82 -19.5h14v-160q-55 -18 -135 -18q-166 0 -199 153q-13 -18 -30.5 -36t-55.5 -48.5t-95.5 -49.5 t-123.5 -19q-111 0 -195 40.5t-134 113t-74.5 165.5t-24.5 205zM338 514q0 -160 62.5 -245t179.5 -85q37 0 72 11.5t59 27.5t42 32.5t27 28.5l8 11v502q-8 8 -23 19t-66 29.5t-107 18.5q-122 0 -188 -93t-66 -257zM1292 0v178l477 680h-477v182h736v-178l-480 -680h480v-182 h-736z" />
<glyph unicode="&#x1fa;" horiz-adv-x="1241" d="M20 0l484 1473h235l482 -1473h-248l-103 322h-516l-102 -322h-232zM373 1776q0 87 67.5 141.5t175.5 54.5q110 0 179 -55t69 -141q0 -89 -67 -141t-181 -52q-110 0 -176.5 52t-66.5 141zM416 530h391l-201 613zM487 2183l449 215l80 -192l-469 -160zM518 1780 q0 -38 26.5 -59t71.5 -21q44 0 73.5 21.5t29.5 58.5q0 33 -29.5 53t-73.5 20q-45 0 -71.5 -19.5t-26.5 -53.5z" />
<glyph unicode="&#x1fb;" horiz-adv-x="1073" d="M51 281q0 161 116 245t327 92l174 7v34q0 110 -47 160.5t-168 50.5q-72 0 -150.5 -12t-120.5 -24l-43 -11v183q16 6 44.5 15t117.5 24.5t178 15.5q221 0 326.5 -88t105.5 -273v-456q0 -48 26 -67t81 -19h16v-158q-51 -18 -139 -18q-84 0 -130.5 35.5t-66.5 121.5 q-129 -157 -315 -157q-153 0 -242.5 81t-89.5 218zM256 1395q0 94 68.5 153.5t175.5 59.5q108 0 178 -60t70 -153q0 -95 -68.5 -152t-179.5 -57q-108 0 -176 57.5t-68 151.5zM295 299q0 -63 39 -98t104 -35q43 0 82.5 10.5t65.5 25.5t45 30t28 26l9 10v201l-121 -4 q-135 -6 -193.5 -47t-58.5 -119zM369 1817l446 217l82 -195l-467 -164zM403 1399q0 -41 26 -64.5t71 -23.5t72.5 23.5t27.5 64.5q0 37 -28.5 60.5t-71.5 23.5q-44 0 -70.5 -23.5t-26.5 -60.5z" />
<glyph unicode="&#x1fc;" horiz-adv-x="1718" d="M2 0l649 1466h969v-217h-571v-399h469v-213h-469v-420h571v-217h-817v328h-422l-143 -328h-236zM473 532h330v723h-17zM946 1735l447 217l82 -195l-467 -164z" />
<glyph unicode="&#x1fd;" horiz-adv-x="1648" d="M51 281q0 162 117 245.5t336 91.5l164 7v39q0 107 -47.5 155.5t-169.5 48.5q-72 0 -150 -12t-120 -24l-42 -11v185q15 6 43.5 15t119 24.5t183.5 15.5q248 0 336 -133q55 64 139.5 98.5t184.5 34.5q112 0 196 -37t132.5 -101t72 -142t23.5 -169q0 -44 -2.5 -82t-4.5 -54 l-3 -15h-648q18 -295 326 -295q68 0 138.5 13t107.5 25l37 13v-178q-14 -6 -40 -15.5t-111.5 -25.5t-176.5 -16q-292 0 -426 188q-23 -33 -55 -63t-78 -59.5t-109.5 -47.5t-134.5 -18q-157 0 -247.5 80t-90.5 219zM295 299q0 -63 39 -98t104 -35q54 0 101 18.5t78.5 47.5 t47.5 48t27 37q-21 77 -24 152l-121 -4q-135 -6 -193.5 -47t-58.5 -119zM711 1300l379 297l106 -165l-403 -252zM915 621h422q3 127 -47.5 194.5t-148.5 67.5t-156 -66t-70 -196z" />
<glyph unicode="&#x1fe;" horiz-adv-x="1402" d="M100 -45l146 229q-144 198 -144 549q0 363 153 559.5t447 196.5q188 0 322 -84l68 106h200l-139 -221q152 -196 152 -557q0 -364 -157 -560t-446 -196q-190 0 -329 91l-72 -113h-201zM354 733q0 -201 45 -317l506 796q-77 68 -203 68q-178 0 -263 -137t-85 -410zM492 260 q83 -74 210 -74q178 0 263.5 137t85.5 410q0 198 -52 330zM555 1735l446 217l82 -193l-467 -164z" />
<glyph unicode="&#x1ff;" horiz-adv-x="1165" d="M86 524q0 251 134.5 394t361.5 143q144 0 266 -66l57 76h185l-129 -172q116 -140 116 -375q0 -253 -134 -397.5t-361 -144.5q-145 0 -254 59l-49 -68h-185l119 160q-127 142 -127 391zM334 526q0 -125 33 -190l364 495q-57 54 -147 54q-124 0 -187 -92.5t-63 -266.5z M426 1300l379 297l106 -165l-403 -252zM444 203q57 -45 140 -45q120 0 182.5 95.5t62.5 272.5q0 106 -24 170z" />
<glyph unicode="&#x218;" horiz-adv-x="1062" d="M100 1083q0 182 130 294t362 112q88 0 168.5 -12.5t117.5 -25.5l37 -13v-213q-166 51 -313 51q-122 0 -188 -47.5t-66 -134.5q0 -82 65 -137t203 -111q67 -27 118.5 -54t100.5 -65t80.5 -81t50.5 -101t19 -127q0 -93 -32.5 -171.5t-96.5 -139.5t-170.5 -95.5 t-245.5 -34.5q-90 0 -174 16t-123 32l-39 16v213q18 -7 49 -17.5t121 -28.5t172 -18q147 0 220 55.5t73 151.5q0 48 -20 87t-63 71t-86.5 55t-114.5 54q-63 28 -108 52t-95 61.5t-80.5 78.5t-51 99.5t-20.5 127.5zM389 -279q0 60 40 103t108 43q67 0 105 -43t38 -111 q0 -66 -33.5 -150t-99.5 -204l-109 45l76 176q-60 10 -92.5 47t-32.5 94z" />
<glyph unicode="&#x219;" horiz-adv-x="907" d="M88 754q0 147 113.5 227t310.5 80q73 0 138.5 -9.5t94.5 -18.5l29 -9v-188q-1 0 -23.5 6t-44 11t-53 11t-69 9.5t-74.5 3.5q-97 0 -144 -30t-47 -83q0 -50 43.5 -81.5t137.5 -55.5q181 -45 259.5 -120.5t78.5 -197.5q0 -155 -122 -241t-321 -86q-81 0 -155.5 13 t-109.5 27l-34 13v182q16 -5 43 -13.5t105 -22t147 -13.5q101 0 157 32t56 91q0 52 -41 82.5t-155 62.5q-72 20 -124 43.5t-99.5 60t-72 90.5t-24.5 124zM324 -279q0 60 39.5 103t107.5 43q67 0 105 -43t38 -111q0 -66 -33.5 -150t-99.5 -204l-108 45l76 176 q-60 10 -92.5 47t-32.5 94z" />
<glyph unicode="&#x21a;" horiz-adv-x="1097" d="M27 1245v221h1044v-221h-399v-1245h-246v1245h-399zM401 -279q0 60 40 103t108 43q67 0 105 -43t38 -111q0 -66 -33.5 -150t-99.5 -204l-108 45l75 176q-60 10 -92.5 47t-32.5 94z" />
<glyph unicode="&#x21b;" horiz-adv-x="733" d="M47 854v186h150v258l241 33v-291h230v-186h-230v-524q0 -81 34 -119.5t108 -38.5q20 0 41 2t32 4l11 2v-180q-62 -18 -160 -18q-307 0 -307 346v526h-150zM291 -279q0 60 39.5 103t107.5 43q67 0 105.5 -43t38.5 -111q0 -66 -33.5 -150t-99.5 -204l-109 45l76 176 q-60 10 -92.5 47t-32.5 94z" />
<glyph unicode="&#x232;" horiz-adv-x="1208" d="M14 1466h256l344 -645l344 645h234l-465 -872v-594h-246v594zM324 1677v185h577v-185h-577z" />
<glyph unicode="&#x233;" horiz-adv-x="1048" d="M37 1040h246l258 -729l250 729h225l-539 -1499h-225l164 461zM250 1303v182h571v-182h-571z" />
<glyph unicode="&#x237;" horiz-adv-x="540" d="M-31 -268q21 -6 54 -6q135 0 135 129v1185h241v-1198q0 -152 -76 -232.5t-217 -80.5q-34 0 -68 4t-52 8l-17 4v187z" />
<glyph unicode="&#x259;" horiz-adv-x="1064" d="M80 428q0 44 2.5 82t5.5 54l2 16h647q-10 149 -90.5 221.5t-234.5 72.5q-68 0 -138.5 -13t-107.5 -25l-37 -13v178q14 6 39.5 16t111 26t177.5 16q254 0 389 -141t135 -383q0 -260 -127.5 -407.5t-349.5 -147.5q-90 0 -162.5 24.5t-120.5 66t-80.5 99.5t-46.5 122 t-14 136zM311 420q-3 -127 47.5 -194.5t147.5 -67.5q200 0 227 262h-422z" />
<glyph unicode="&#x2bc;" horiz-adv-x="450" d="M76 1219q0 63 40.5 109t112.5 46q68 0 106 -46t38 -124q0 -49 -29.5 -130.5t-56.5 -137t-80 -158.5l-115 45l103 242q-55 12 -87 54t-32 100z" />
<glyph unicode="&#x2c6;" horiz-adv-x="811" d="M51 1298l299 287h113l299 -287l-88 -106l-268 209l-273 -209z" />
<glyph unicode="&#x2c7;" horiz-adv-x="811" d="M51 1479l82 106l275 -209l266 209l88 -106l-299 -287h-113z" />
<glyph unicode="&#x2d8;" horiz-adv-x="757" d="M51 1544h182q0 -41 11.5 -75.5t46 -61.5t88.5 -27t88 27t45.5 61.5t11.5 75.5h183q0 -155 -93 -245.5t-235 -90.5t-235 90.5t-93 245.5z" />
<glyph unicode="&#x2d9;" horiz-adv-x="378" d="M51 1386q0 64 35.5 103t101.5 39q67 0 104.5 -38.5t37.5 -100.5q0 -63 -38 -103.5t-106 -40.5q-64 0 -99.5 40t-35.5 101z" />
<glyph unicode="&#x2da;" horiz-adv-x="591" d="M51 1395q0 94 68.5 153.5t175.5 59.5q108 0 178 -60t70 -153q0 -95 -68.5 -152t-179.5 -57q-108 0 -176 57.5t-68 151.5zM199 1399q0 -41 26 -64.5t70 -23.5q45 0 72.5 23.5t27.5 64.5q0 37 -28.5 60.5t-71.5 23.5q-44 0 -70 -23.5t-26 -60.5z" />
<glyph unicode="&#x2db;" horiz-adv-x="589" d="M66 -264q0 80 49.5 151.5t148.5 112.5h203q-99 -54 -143.5 -112.5t-44.5 -110.5q0 -80 92 -80q20 0 40.5 5t37 13.5t28.5 15.5t22 15t11 8v-141l-6 -5q-6 -5 -10 -8t-13 -9t-17 -10l-20 -10t-23.5 -10.5t-26.5 -9t-30.5 -7.5t-33.5 -5t-37 -2q-101 0 -164 54.5t-63 144.5 z" />
<glyph unicode="&#x2dc;" horiz-adv-x="806" d="M51 1270q1 21 6 50t20 71t37 75.5t62.5 57.5t91.5 24q14 0 27 -2t22.5 -3.5t22 -7t19 -8t19 -10.5t16.5 -10.5t17.5 -12t16.5 -11.5q10 -7 31 -22t30.5 -20.5t25 -11.5t30.5 -6q50 0 69 93h144q-2 -21 -5.5 -40.5t-12 -54.5t-23.5 -62.5t-36.5 -55t-55.5 -43t-76 -15.5 q-21 0 -39 3.5t-35.5 11.5t-27.5 13.5t-29.5 18.5t-26.5 17q-10 7 -30.5 21t-31 21t-27 13t-30.5 6q-62 0 -79 -100h-142z" />
<glyph unicode="&#x2dd;" horiz-adv-x="860" d="M51 1251l246 357l147 -125l-278 -326zM365 1276l325 305l119 -154l-352 -268z" />
<glyph unicode="&#x323;" horiz-adv-x="454" d="M92 -268q0 59 35.5 97t99.5 38t99.5 -38t35.5 -97q0 -60 -36 -99t-101 -39q-62 0 -97.5 39.5t-35.5 98.5z" />
<glyph unicode="&#x394;" horiz-adv-x="1366" d="M47 0l45 166l492 1307h200l490 -1305l43 -168h-1270zM322 199h706l-352 944z" />
<glyph unicode="&#x3a3;" horiz-adv-x="1044" d="M86 0v205l446 543l-446 514v204h875v-204h-609l434 -498l-458 -559h633v-205h-875z" />
<glyph unicode="&#x3a9;" horiz-adv-x="1570" d="M78 0v209h293q-111 103 -174.5 249t-63.5 328q0 199 79.5 358t230.5 252t348 93q156 0 280 -52.5t204 -146t122.5 -220.5t42.5 -279q0 -183 -67 -330t-181 -252h297v-209h-567v209q31 21 61 48t68 77t65.5 108t46.5 145t19 185q0 228 -102 368t-289 140 q-189 0 -294.5 -142t-105.5 -366q0 -96 18.5 -181.5t46 -145t64 -109.5t69 -79t64.5 -48v-209h-575z" />
<glyph unicode="&#x3bc;" horiz-adv-x="1257" d="M154 -459v1499h243v-632q0 -105 48 -163.5t143 -58.5q41 0 79 10t62 24.5t42.5 28.5t26.5 24l9 10v757h242v-798q0 -47 25 -64.5t81 -19.5h16v-158q-49 -18 -139 -18q-175 0 -196 153q-9 -14 -30.5 -35t-60.5 -49.5t-99.5 -48t-127.5 -20.5q-72 0 -121 24v-465h-243z" />
<glyph unicode="&#x3c0;" horiz-adv-x="1265" d="M51 858v182h1123v-182h-150v-563q0 -64 22 -93.5t74 -29.5q14 0 30.5 2t25.5 4l10 2v-180q-45 -18 -133 -18q-271 0 -271 315v561h-338v-858h-241v858h-152z" />
<glyph unicode="&#x401;" horiz-adv-x="1095" d="M168 0v1466h829v-217h-585v-399h485v-213h-485v-420h585v-217h-829zM260 1778q0 60 38 98.5t101 38.5t101.5 -38.5t38.5 -96.5q0 -60 -39 -100t-103 -40q-62 0 -99.5 39.5t-37.5 98.5zM651 1778q0 60 37 98.5t100 38.5t101.5 -38.5t38.5 -96.5q0 -60 -39 -100t-103 -40 q-60 0 -97.5 40t-37.5 98z" />
<glyph unicode="&#x402;" horiz-adv-x="1478" d="M27 1245v221h1044v-221h-399v-411q13 7 36.5 18t97 29t148.5 18q225 0 345 -124t120 -335q0 -212 -106 -337.5t-293 -125.5q-37 0 -72 5.5t-51 11.5l-16 6v197q45 -17 100 -17q90 0 142.5 69.5t52.5 184.5q0 122 -71 188t-196 66q-67 0 -126 -15t-85 -31l-26 -15v-627 h-246v1245h-399z" />
<glyph unicode="&#x403;" horiz-adv-x="980" d="M168 0v1466h786v-221h-542v-1245h-244zM356 1735l447 217l82 -195l-467 -164z" />
<glyph unicode="&#x404;" horiz-adv-x="1140" d="M96 698q0 177 40 321t118.5 249.5t202.5 163t284 57.5q96 0 173.5 -13.5t107.5 -26.5l29 -13v-215q-12 6 -35 15t-99 24.5t-159 15.5q-349 0 -400 -422h492v-207h-496q18 -457 402 -457q88 0 162.5 16.5t105.5 33.5l31 16v-215q-4 -3 -12 -7t-37.5 -15t-63 -19.5 t-89 -15.5t-116.5 -7q-301 0 -471 185t-170 536z" />
<glyph unicode="&#x405;" horiz-adv-x="1062" d="M100 1083q0 182 130 294t362 112q88 0 168.5 -12.5t117.5 -25.5l37 -13v-213q-166 51 -313 51q-122 0 -188 -47.5t-66 -134.5q0 -82 65 -137t203 -111q67 -27 118.5 -54t100.5 -65t80.5 -81t50.5 -101t19 -127q0 -93 -32.5 -171.5t-96.5 -139.5t-170.5 -95.5 t-245.5 -34.5q-90 0 -174 16t-123 32l-39 16v213q18 -7 49 -17.5t121 -28.5t172 -18q147 0 220 55.5t73 151.5q0 48 -20 87t-63 71t-86.5 55t-114.5 54q-63 28 -108 52t-95 61.5t-80.5 78.5t-51 99.5t-20.5 127.5z" />
<glyph unicode="&#x406;" horiz-adv-x="579" d="M168 0v1466h244v-1466h-244z" />
<glyph unicode="&#x407;" horiz-adv-x="579" d="M-31 1778q0 60 38.5 98.5t101.5 38.5t101 -38.5t38 -96.5q0 -60 -39 -100t-103 -40q-62 0 -99.5 39.5t-37.5 98.5zM168 0v1466h244v-1466h-244zM344 1778q0 60 38 98.5t101 38.5t101.5 -38.5t38.5 -96.5q0 -60 -39 -100t-103 -40q-62 0 -99.5 39.5t-37.5 98.5z" />
<glyph unicode="&#x408;" horiz-adv-x="727" d="M35 12v205q71 -29 145 -29q76 0 111 47t35 146v1085h245v-1087q0 -198 -91.5 -300t-264.5 -102q-46 0 -91 8.5t-67 17.5z" />
<glyph unicode="&#x409;" horiz-adv-x="1925" d="M25 0v207q16 -6 45 -6q88 0 131 98t61 313q13 154 19.5 367.5t6.5 350.5l1 136h874v-522h174q250 0 389.5 -124t139.5 -331q0 -210 -148 -349.5t-381 -139.5h-419v1245h-408q0 -10 -1 -92t-2 -134.5t-3.5 -137.5t-7 -164t-11.5 -150q-24 -290 -111 -436.5t-263 -146.5 q-23 0 -44.5 4t-31.5 8zM1163 209h168q132 0 208.5 75t76.5 195q0 118 -71.5 187t-213.5 69h-168v-526z" />
<glyph unicode="&#x40a;" horiz-adv-x="2002" d="M168 0v1466h244v-589h587v589h244v-589h191q243 0 378.5 -114t135.5 -304q0 -198 -143.5 -328.5t-370.5 -130.5h-435v655h-587v-655h-244zM1243 209h184q126 0 198.5 66t72.5 171q0 101 -68.5 161.5t-202.5 60.5h-184v-459z" />
<glyph unicode="&#x40b;" horiz-adv-x="1501" d="M27 1245v221h1044v-221h-399v-416q13 8 38 19.5t102.5 31t156.5 19.5q214 0 332 -123t118 -340v-436h-241v414q0 134 -69.5 204t-193.5 70q-45 0 -86.5 -6.5t-68.5 -15t-48 -17.5t-30 -15l-10 -7v-627h-246v1245h-399z" />
<glyph unicode="&#x40c;" horiz-adv-x="1220" d="M168 0v1466h244v-616h88l424 616h256l-484 -704l516 -762h-278l-434 637h-88v-637h-244zM481 1735l447 217l82 -195l-467 -164z" />
<glyph unicode="&#x40e;" horiz-adv-x="1191" d="M37 1466h246l335 -813l332 813h224l-412 -1017q-33 -83 -58 -138.5t-57 -114t-63 -95t-69.5 -67t-84.5 -44t-100 -13.5q-48 0 -85.5 5.5t-50.5 11.5l-14 6v209q54 -21 109 -21q66 0 108.5 38t96.5 151zM274 1903h191q0 -57 34 -98.5t111 -41.5q78 0 113 41.5t35 98.5h190 q0 -134 -94 -212.5t-244 -78.5q-149 0 -242.5 78.5t-93.5 212.5z" />
<glyph unicode="&#x40f;" horiz-adv-x="1398" d="M168 0v1466h244v-1239h575v1239h246v-1466h-422v-301h-223v301h-420z" />
<glyph unicode="&#x410;" horiz-adv-x="1241" d="M20 0l484 1473h235l482 -1473h-248l-103 322h-516l-102 -322h-232zM416 530h391l-201 613z" />
<glyph unicode="&#x411;" horiz-adv-x="1198" d="M168 0v1466h856v-213h-612v-370h194q259 0 390.5 -110t131.5 -314q0 -215 -140 -337t-380 -122h-440zM412 207h194q123 0 198 62.5t75 185.5q0 102 -70.5 161.5t-204.5 59.5h-192v-469z" />
<glyph unicode="&#x412;" horiz-adv-x="1230" d="M168 0v1466h407q256 0 380 -101t124 -284q0 -104 -49 -184t-135 -125q124 -37 187 -129t63 -215q0 -212 -140.5 -320t-388.5 -108h-448zM410 201h208q133 0 204 60t71 169q0 113 -64 169t-204 56h-215v-454zM410 854h186q240 0 240 217q0 97 -66.5 146t-189.5 49h-170 v-412z" />
<glyph unicode="&#x413;" horiz-adv-x="980" d="M168 0v1466h786v-221h-542v-1245h-244z" />
<glyph unicode="&#x414;" horiz-adv-x="1447" d="M25 221h106q115 90 154 443q23 202 32 438t9 364h897v-1245h163v-522h-223v301h-915v-301h-223v522zM387 221h590v1032h-434q-12 -372 -39 -606q-33 -325 -117 -426z" />
<glyph unicode="&#x415;" horiz-adv-x="1095" d="M168 0v1466h829v-217h-585v-399h485v-213h-485v-420h585v-217h-829z" />
<glyph unicode="&#x416;" horiz-adv-x="1792" d="M12 0l482 752l-459 714h258l395 -616h86v616h240v-616h86l397 616h254l-457 -710l488 -756h-273l-409 639h-86v-639h-240v639h-88l-407 -639h-267z" />
<glyph unicode="&#x417;" horiz-adv-x="1062" d="M72 39v213q17 -8 48 -19t123.5 -30t180.5 -19q133 0 216 62t83 184q0 104 -70.5 165.5t-199.5 61.5h-181v207h146q105 0 175.5 61t70.5 160q0 93 -66.5 144t-189.5 51q-80 0 -154.5 -14t-108.5 -28l-34 -13v209q13 6 38.5 15t113.5 24.5t186 15.5q222 0 342 -104 t120 -271q0 -110 -55 -196t-133 -130q106 -31 178 -118t72 -226q0 -218 -148.5 -342.5t-390.5 -124.5q-103 0 -193.5 15.5t-129.5 31.5z" />
<glyph unicode="&#x418;" horiz-adv-x="1431" d="M168 0v1466h244v-1058l616 1058h238v-1466h-246v1055l-617 -1055h-235z" />
<glyph unicode="&#x419;" horiz-adv-x="1431" d="M168 0v1466h244v-1058l616 1058h238v-1466h-246v1055l-617 -1055h-235zM379 1903h190q0 -56 34.5 -98t111.5 -42q78 0 112.5 41.5t34.5 98.5h191q0 -134 -94 -212.5t-244 -78.5q-149 0 -242.5 78.5t-93.5 212.5z" />
<glyph unicode="&#x41a;" horiz-adv-x="1220" d="M168 0v1466h244v-616h88l424 616h256l-484 -704l516 -762h-278l-434 637h-88v-637h-244z" />
<glyph unicode="&#x41b;" horiz-adv-x="1335" d="M25 0v207q16 -6 45 -6q88 0 131 98t61 313q13 154 19.5 367.5t6.5 350.5l1 136h878v-1466h-243v1245h-414q0 -10 -1 -92t-2 -134.5t-3.5 -137.5t-7 -164t-11.5 -150q-24 -290 -111 -436.5t-263 -146.5q-23 0 -44.5 4t-31.5 8z" />
<glyph unicode="&#x41c;" horiz-adv-x="1693" d="M133 0l70 1466h276l373 -1017l369 1017h270l68 -1466h-232l-41 1120l-362 -1022h-176l-359 1026l-45 -1124h-211z" />
<glyph unicode="&#x41d;" horiz-adv-x="1411" d="M168 0v1466h244v-612h587v612h244v-1466h-244v633h-587v-633h-244z" />
<glyph unicode="&#x41e;" horiz-adv-x="1398" d="M98 733q0 362 154 559t446 197q294 0 448 -195.5t154 -560.5t-156 -560.5t-446 -195.5t-445 195.5t-155 560.5zM354 733q0 -274 83 -408.5t263 -134.5q176 0 260 135.5t84 407.5q0 273 -82 408t-262 135q-178 0 -262 -135.5t-84 -407.5z" />
<glyph unicode="&#x41f;" horiz-adv-x="1398" d="M168 0v1466h1065v-1466h-246v1245h-575v-1245h-244z" />
<glyph unicode="&#x420;" horiz-adv-x="1169" d="M168 0v1466h405q258 0 397.5 -119t139.5 -331q0 -224 -149 -349.5t-388 -125.5h-161v-541h-244zM412 750h163q127 0 206 67.5t79 196.5q0 118 -73.5 180.5t-215.5 62.5h-159v-507z" />
<glyph unicode="&#x421;" horiz-adv-x="1138" d="M96 698q0 177 40 321t118.5 249.5t202.5 163t284 57.5q96 0 173.5 -13.5t107.5 -26.5l29 -13v-215q-12 6 -35 15t-99 24.5t-159 15.5q-107 0 -186 -41.5t-126 -119.5t-69.5 -180.5t-22.5 -232.5q0 -512 402 -512q88 0 162.5 16.5t105.5 33.5l31 16v-215q-4 -3 -12 -7 t-37.5 -15t-63 -19.5t-89 -15.5t-116.5 -7q-301 0 -471 185t-170 536z" />
<glyph unicode="&#x422;" horiz-adv-x="1097" d="M27 1245v221h1044v-221h-399v-1245h-246v1245h-399z" />
<glyph unicode="&#x423;" horiz-adv-x="1191" d="M37 1466h246l335 -813l332 813h224l-412 -1017q-33 -83 -58 -138.5t-57 -114t-63 -95t-69.5 -67t-84.5 -44t-100 -13.5q-48 0 -85.5 5.5t-50.5 11.5l-14 6v209q54 -21 109 -21q66 0 108.5 38t96.5 151z" />
<glyph unicode="&#x424;" horiz-adv-x="1642" d="M72 723q0 274 170 442.5t460 180.5v141h238v-141q303 -10 467 -168.5t164 -415.5q0 -274 -170.5 -443.5t-460.5 -181.5v-157h-238v157q-304 12 -467 170t-163 416zM315 723q0 -78 22 -143t66.5 -118t120.5 -85t178 -37v805q-191 -10 -289 -118.5t-98 -303.5zM940 340 q191 10 289 118.5t98 303.5q0 77 -22 142t-66.5 117.5t-120.5 85t-178 38.5v-805z" />
<glyph unicode="&#x425;" horiz-adv-x="1185" d="M25 0l428 737l-418 729h262l307 -532l303 532h242l-414 -721l428 -745h-260l-317 547l-320 -547h-241z" />
<glyph unicode="&#x426;" horiz-adv-x="1458" d="M168 0v1466h244v-1245h575v1245h246v-1245h164v-522h-223v301h-1006z" />
<glyph unicode="&#x427;" horiz-adv-x="1284" d="M92 1055v411h244v-405q0 -287 278 -287q64 0 128 12t96 24l32 13v643h246v-1466h-246v616q-15 -6 -41 -15.5t-102.5 -25.5t-148.5 -16q-226 0 -356 121t-130 375z" />
<glyph unicode="&#x428;" horiz-adv-x="1933" d="M168 0v1466h242v-1245h436v1245h241v-1245h437v1245h241v-1466h-1597z" />
<glyph unicode="&#x429;" horiz-adv-x="1992" d="M168 0v1466h242v-1245h436v1245h241v-1245h437v1245h241v-1245h164v-522h-221v301h-1540z" />
<glyph unicode="&#x42a;" horiz-adv-x="1331" d="M33 1249v217h536v-522h174q250 0 389.5 -124t139.5 -331q0 -210 -148 -349.5t-381 -139.5h-419v1249h-291zM569 209h168q132 0 208.5 75t76.5 195q0 118 -71.5 187t-213.5 69h-168v-526z" />
<glyph unicode="&#x42b;" horiz-adv-x="1679" d="M168 0v1466h244v-522h176q250 0 389 -124t139 -331q0 -210 -147.5 -349.5t-380.5 -139.5h-420zM412 209h170q132 0 208 75t76 195q0 118 -71 187t-213 69h-170v-526zM1266 0v1466h245v-1466h-245z" />
<glyph unicode="&#x42c;" horiz-adv-x="1175" d="M168 0v1466h244v-522h176q250 0 389 -124t139 -331q0 -210 -147.5 -349.5t-380.5 -139.5h-420zM412 209h170q132 0 208 75t76 195q0 118 -71 187t-213 69h-170v-526z" />
<glyph unicode="&#x42d;" horiz-adv-x="1157" d="M80 41v215q16 -8 44 -19t108.5 -30t154.5 -19q186 0 295.5 116.5t124.5 342.5h-541v207h541q-18 196 -123 310t-293 114q-71 0 -144.5 -15t-110.5 -29l-38 -15v213q14 6 41 15.5t112 25.5t173 16q158 0 280.5 -54t200 -151.5t117 -229t39.5 -290.5q0 -192 -47.5 -342 t-134.5 -247t-207.5 -147.5t-268.5 -50.5q-88 0 -168.5 16t-117.5 32z" />
<glyph unicode="&#x42e;" horiz-adv-x="1886" d="M168 0v1466h244v-608h200q27 299 176 465t408 166q288 0 440 -200.5t152 -555.5q0 -365 -152.5 -560.5t-439.5 -195.5q-268 0 -417.5 171t-168.5 495h-198v-643h-244zM862 733q0 -268 78.5 -405.5t255.5 -137.5q176 0 256 138.5t80 404.5q0 543 -336 543 q-334 0 -334 -543z" />
<glyph unicode="&#x42f;" horiz-adv-x="1222" d="M29 0l360 604q-285 121 -285 410q0 197 136 324.5t389 127.5h426v-1466h-246v549h-191l-325 -549h-264zM354 1010q0 -121 79 -185.5t204 -64.5h172v497h-182q-135 0 -204 -68t-69 -179z" />
<glyph unicode="&#x430;" horiz-adv-x="1073" d="M51 281q0 161 116 245t327 92l174 7v34q0 110 -47 160.5t-168 50.5q-72 0 -150.5 -12t-120.5 -24l-43 -11v183q16 6 44.5 15t117.5 24.5t178 15.5q221 0 326.5 -88t105.5 -273v-456q0 -48 26 -67t81 -19h16v-158q-51 -18 -139 -18q-84 0 -130.5 35.5t-66.5 121.5 q-129 -157 -315 -157q-153 0 -242.5 81t-89.5 218zM295 299q0 -63 39 -98t104 -35q43 0 82.5 10.5t65.5 25.5t45 30t28 26l9 10v201l-121 -4q-135 -6 -193.5 -47t-58.5 -119z" />
<glyph unicode="&#x431;" horiz-adv-x="1191" d="M111 641q0 449 143 660.5t471 236.5l96 6q39 3 73 9t58.5 12.5t41 12t30.5 11t16 6.5v-206q-78 -39 -219 -50l-92 -8q-205 -17 -296.5 -125.5t-115.5 -331.5q50 86 138.5 133.5t201.5 47.5q204 0 327.5 -139t123.5 -392q0 -249 -135 -395.5t-367 -146.5 q-242 0 -368.5 165t-126.5 494zM362 520q0 -169 62.5 -264.5t189.5 -95.5q122 0 185 96.5t63 263.5t-63 259.5t-185 92.5q-127 0 -189.5 -91.5t-62.5 -260.5z" />
<glyph unicode="&#x432;" horiz-adv-x="1087" d="M141 0v1040h475q168 0 255 -70.5t87 -187.5q0 -73 -39 -132t-104 -89q90 -26 141.5 -90t51.5 -149q0 -150 -108 -236t-290 -86h-469zM381 166h217q73 0 118.5 40.5t45.5 110.5q0 65 -43 103.5t-123 38.5h-215v-293zM381 618h180q71 0 114.5 36.5t43.5 97.5q0 58 -38.5 90 t-113.5 32h-186v-256z" />
<glyph unicode="&#x433;" horiz-adv-x="845" d="M141 0v1040h670v-192h-428v-848h-242z" />
<glyph unicode="&#x434;" horiz-adv-x="1257" d="M53 193h99q70 74 100 272q8 57 19.5 201.5t19 259t8.5 114.5h754v-847h151v-463h-215v270h-719v-270h-217v463zM381 193h430v655h-309q-21 -272 -43 -408q-24 -179 -78 -247z" />
<glyph unicode="&#x435;" horiz-adv-x="1064" d="M84 506q0 260 127.5 407.5t349.5 147.5q112 0 196 -37t132.5 -101t72 -142t23.5 -169q0 -44 -2.5 -82t-4.5 -54l-3 -15h-647q10 -149 90.5 -222t234.5 -73q68 0 138.5 13t107.5 25l37 13v-178q-14 -6 -39.5 -15.5t-111 -25.5t-177.5 -16q-254 0 -389 141t-135 383z M332 621h422q3 127 -47.5 194.5t-147.5 67.5q-200 0 -227 -262z" />
<glyph unicode="&#x436;" horiz-adv-x="1523" d="M31 0l346 532l-338 508h264l277 -413h63v413h240v-413h61l281 413h258l-334 -495l348 -545h-266l-281 432h-67v-432h-240v432h-65l-285 -432h-262z" />
<glyph unicode="&#x437;" horiz-adv-x="923" d="M82 31v188q13 -6 37 -14.5t99 -22.5t151 -14q105 0 164 37.5t59 109.5q0 134 -199 134h-168v174h168q77 0 119.5 32.5t42.5 92.5q0 66 -50 96t-151 30q-63 0 -128.5 -9t-99.5 -18l-34 -9v182q123 39 318 39q186 0 286.5 -72t100.5 -205q0 -75 -41 -133.5t-105 -93.5 q90 -22 140.5 -83t50.5 -157q0 -151 -123 -242t-338 -91q-88 0 -163 12t-106 24z" />
<glyph unicode="&#x438;" horiz-adv-x="1198" d="M141 0v1040h242v-698l436 698h238v-1040h-242v694l-436 -694h-238z" />
<glyph unicode="&#x439;" horiz-adv-x="1198" d="M141 0v1040h242v-698l436 698h238v-1040h-242v694l-436 -694h-238zM262 1534h193q0 -40 11 -75.5t43 -63t81 -27.5q50 0 81.5 27.5t42.5 62.5t11 76h193q0 -149 -91 -233t-237 -84q-145 0 -236.5 84t-91.5 233z" />
<glyph unicode="&#x43a;" horiz-adv-x="1054" d="M141 0v1040h242v-413h82l303 413h256l-356 -489l387 -551h-281l-307 432h-84v-432h-242z" />
<glyph unicode="&#x43b;" horiz-adv-x="1124" d="M35 -2v188q14 -6 43 -6q106 0 135 213q9 64 18.5 226t14.5 291l6 130h731v-1040h-242v848h-280q-14 -314 -35 -486q-27 -196 -98 -287t-203 -91q-25 0 -47.5 3.5t-32.5 6.5z" />
<glyph unicode="&#x43c;" horiz-adv-x="1452" d="M123 0l39 1040h272l295 -702l289 702h272l39 -1040h-231l-25 715l-272 -662h-185l-270 645l-22 -698h-201z" />
<glyph unicode="&#x43d;" horiz-adv-x="1177" d="M141 0v1040h242v-405h410v405h243v-1040h-243v440h-410v-440h-242z" />
<glyph unicode="&#x43e;" horiz-adv-x="1161" d="M84 524q0 251 134.5 394t361.5 143q230 0 363.5 -142.5t133.5 -394.5q0 -253 -134.5 -397.5t-362.5 -144.5q-230 0 -363 144t-133 398zM334 526q0 -176 62 -271t186 -95q120 0 182.5 95.5t62.5 270.5q0 173 -62 265t-183 92q-124 0 -186 -91.5t-62 -265.5z" />
<glyph unicode="&#x43f;" horiz-adv-x="1173" d="M141 0v1040h891v-1040h-241v848h-408v-848h-242z" />
<glyph unicode="&#x440;" horiz-adv-x="1208" d="M53 883v157q52 21 142 21q88 0 136 -38.5t60 -117.5q8 15 27 36.5t55 50.5t94 49t125 20q114 0 199 -41t134 -114.5t72 -165t23 -203.5q0 -92 -16 -173.5t-50.5 -152t-85.5 -121t-124.5 -79.5t-163.5 -29q-156 0 -260 88v-529h-244v1258q0 47 -25.5 64.5t-82.5 19.5h-15z M420 242q103 -64 201 -64q119 0 183 91t64 261q0 326 -241 326q-40 0 -76 -11.5t-59 -28t-40 -32.5t-24 -28l-8 -11v-503z" />
<glyph unicode="&#x441;" horiz-adv-x="929" d="M86 522q0 251 135 396t375 145q71 0 133.5 -11.5t89.5 -23.5l27 -12v-182q-102 45 -217 45q-143 0 -218 -92.5t-75 -260.5q0 -172 73 -266t220 -94q55 0 109 11t81 21l27 11v-180q-10 -5 -29.5 -12.5t-86 -20t-140.5 -12.5q-237 0 -370.5 140.5t-133.5 397.5z" />
<glyph unicode="&#x442;" horiz-adv-x="919" d="M37 848v192h846v-192h-301v-848h-244v848h-301z" />
<glyph unicode="&#x443;" horiz-adv-x="1048" d="M37 1040h246l258 -729l250 729h225l-539 -1499h-225l164 461z" />
<glyph unicode="&#x444;" horiz-adv-x="1525" d="M82 524q0 247 158.5 389.5t404.5 147.5v217q0 45 -24 64.5t-72 19.5h-21v160q56 20 152 20q201 0 201 -188v-293q257 -5 410 -149t153 -394q0 -125 -43.5 -226t-119.5 -167.5t-178 -103.5t-222 -39v-441h-236v441q-258 5 -410.5 148t-152.5 394zM322 526 q0 -169 84.5 -266t238.5 -100v723q-150 -6 -236.5 -100t-86.5 -257zM881 160q150 5 236.5 99t86.5 257q0 168 -84.5 265.5t-238.5 101.5v-723z" />
<glyph unicode="&#x445;" horiz-adv-x="1015" d="M25 0l348 526l-332 514h266l217 -338l221 338h232l-332 -501l344 -539h-264l-233 362l-236 -362h-231z" />
<glyph unicode="&#x446;" horiz-adv-x="1234" d="M141 0v1040h242v-847h399v847h244v-847h158v-463h-215v270h-828z" />
<glyph unicode="&#x447;" horiz-adv-x="1081" d="M80 754v286h244v-280q0 -109 44.5 -160t139.5 -51q56 0 103.5 10.5t66.5 20.5l20 10v450h242v-1040h-242v408q-9 -5 -27 -13t-76.5 -21.5t-121.5 -13.5q-193 0 -293 100t-100 294z" />
<glyph unicode="&#x448;" horiz-adv-x="1652" d="M141 0v1040h240v-847h326v847h239v-847h324v847h241v-1040h-1370z" />
<glyph unicode="&#x449;" horiz-adv-x="1720" d="M141 0v1040h240v-847h326v847h239v-847h324v847h241v-847h158v-463h-215v270h-1313z" />
<glyph unicode="&#x44a;" horiz-adv-x="1177" d="M39 848v192h491v-335h199q188 0 287.5 -93.5t99.5 -244.5q0 -159 -108.5 -263t-305.5 -104h-413v848h-250zM530 176h136q95 0 148.5 49.5t53.5 143.5q0 74 -51.5 118.5t-150.5 44.5h-136v-356z" />
<glyph unicode="&#x44b;" horiz-adv-x="1480" d="M141 0v1040h242v-335h199q188 0 287.5 -93.5t99.5 -244.5q0 -159 -109.5 -263t-304.5 -104h-414zM383 176h135q95 0 149 49.5t54 143.5q0 74 -52 118.5t-151 44.5h-135v-356zM1098 0v1040h241v-1040h-241z" />
<glyph unicode="&#x44c;" horiz-adv-x="1030" d="M141 0v1040h242v-335h199q188 0 287.5 -93.5t99.5 -244.5q0 -159 -109.5 -263t-304.5 -104h-414zM383 176h135q95 0 149 49.5t54 143.5q0 74 -52 118.5t-151 44.5h-135v-356z" />
<glyph unicode="&#x44d;" horiz-adv-x="946" d="M80 31v180q11 -5 31.5 -13t79.5 -21t114 -13q132 0 210 70.5t93 205.5h-379v183h379q-19 124 -94 189t-195 65q-56 0 -113 -9.5t-86 -19.5l-30 -10v180q10 5 29 12t86 19t143 12q249 0 381.5 -146t132.5 -395t-138 -393.5t-382 -144.5q-76 0 -141.5 12t-92.5 24z" />
<glyph unicode="&#x44e;" horiz-adv-x="1581" d="M141 0v1040h242v-407h164q28 198 151.5 313t317.5 115q227 0 353 -141.5t126 -395.5q0 -247 -128.5 -394.5t-350.5 -147.5q-205 0 -327 119.5t-142 336.5h-164v-438h-242zM786 526q0 -175 59.5 -270.5t172.5 -95.5q108 0 167.5 96t59.5 270q0 172 -59 264.5t-168 92.5 q-113 0 -172.5 -92t-59.5 -265z" />
<glyph unicode="&#x44f;" horiz-adv-x="1073" d="M55 0l269 408q-107 35 -168.5 108.5t-61.5 183.5q0 152 104.5 246t299.5 94h434v-1040h-242v369h-133l-240 -369h-262zM340 705q0 -76 52.5 -120t146.5 -44h151v325h-168q-89 0 -135.5 -44t-46.5 -117z" />
<glyph unicode="&#x451;" horiz-adv-x="1064" d="M84 506q0 260 127.5 407.5t349.5 147.5q112 0 196 -37t132.5 -101t72 -142t23.5 -169q0 -44 -2.5 -82t-4.5 -54l-3 -15h-647q10 -149 90.5 -222t234.5 -73q68 0 138.5 13t107.5 25l37 13v-178q-14 -6 -39.5 -15.5t-111 -25.5t-177.5 -16q-254 0 -389 141t-135 383z M213 1391q0 61 36 99t101 38q67 0 103 -38t36 -97q0 -63 -37 -102.5t-104 -39.5q-64 0 -99.5 39t-35.5 101zM332 621h422q3 127 -47.5 194.5t-147.5 67.5q-200 0 -227 -262zM616 1391q0 60 37 98.5t103 38.5q65 0 102 -38t37 -97q0 -63 -37 -102.5t-104 -39.5q-64 0 -101 39 t-37 101z" />
<glyph unicode="&#x452;" horiz-adv-x="1181" d="M-18 1198v145h159v226h242v-226h256v-145h-256v-289q4 6 12 15t37 33t62 42t87.5 33t114.5 15q184 0 269.5 -114.5t85.5 -311.5v-752q0 -165 -79 -252.5t-233 -87.5q-34 0 -67.5 4t-50.5 8l-17 4v193q29 -8 68 -8q64 0 100.5 33.5t36.5 103.5v741q0 232 -205 232 q-41 0 -78.5 -10t-62.5 -24t-44 -28.5t-27 -24.5l-9 -10v-743h-242v1198h-159z" />
<glyph unicode="&#x453;" horiz-adv-x="839" d="M141 0v1040h670v-192h-428v-848h-242zM295 1300l379 297l106 -165l-403 -252z" />
<glyph unicode="&#x454;" horiz-adv-x="954" d="M84 520q0 250 137 395.5t393 145.5q73 0 137 -11.5t91 -23.5l28 -12v-183q-104 46 -223 46q-130 0 -207 -66.5t-96 -187.5h383v-183h-385q32 -276 305 -276q56 0 111.5 11t82.5 21l27 11v-180q-10 -5 -30 -12.5t-87.5 -20t-142.5 -12.5q-256 0 -390 141t-134 397z" />
<glyph unicode="&#x455;" horiz-adv-x="907" d="M88 754q0 147 113.5 227t310.5 80q73 0 138.5 -9.5t94.5 -18.5l29 -9v-188q-1 0 -23.5 6t-44 11t-53 11t-69 9.5t-74.5 3.5q-97 0 -144 -30t-47 -83q0 -50 43.5 -81.5t137.5 -55.5q181 -45 259.5 -120.5t78.5 -197.5q0 -155 -122 -241t-321 -86q-81 0 -155.5 13 t-109.5 27l-34 13v182q16 -5 43 -13.5t105 -22t147 -13.5q101 0 157 32t56 91q0 52 -41 82.5t-155 62.5q-72 20 -124 43.5t-99.5 60t-72 90.5t-24.5 124z" />
<glyph unicode="&#x456;" horiz-adv-x="555" d="M55 883v157q60 21 156 21q211 0 211 -207v-854h-244v799q0 44 -24.5 63t-75.5 21h-23zM145 1386q0 63 37 102.5t103 39.5q67 0 103 -38.5t36 -100.5q0 -63 -36.5 -103.5t-104.5 -40.5q-64 0 -101 40t-37 101z" />
<glyph unicode="&#x457;" horiz-adv-x="555" d="M-80 1391q0 61 36 99t101 38q67 0 103.5 -38t36.5 -97q0 -63 -37.5 -102.5t-104.5 -39.5q-64 0 -99.5 39t-35.5 101zM55 883v157q60 21 156 21q211 0 211 -207v-854h-244v799q0 44 -24.5 63t-75.5 21h-23zM324 1391q0 60 36.5 98.5t102.5 38.5q65 0 102 -38t37 -97 q0 -63 -37 -102.5t-104 -39.5q-64 0 -100.5 39t-36.5 101z" />
<glyph unicode="&#x458;" horiz-adv-x="540" d="M-47 -262q29 -8 70 -8q135 0 135 137v1173h241v-1171q0 -166 -78.5 -253t-232.5 -87q-34 0 -67.5 4t-50.5 8l-17 4v193zM141 1386q0 63 36 102.5t102 39.5q67 0 104 -38.5t37 -100.5q0 -63 -38 -103.5t-106 -40.5q-64 0 -99.5 40t-35.5 101z" />
<glyph unicode="&#x459;" horiz-adv-x="1613" d="M35 -2v188q14 -6 43 -6q106 0 135 213q9 64 18.5 226t14.5 291l6 130h717v-335h198q188 0 287.5 -93.5t99.5 -244.5q0 -159 -109 -263t-304 -104h-414v848h-266q-14 -314 -35 -486q-27 -196 -98 -287t-203 -91q-25 0 -47.5 3.5t-32.5 6.5zM969 176h135q95 0 149 49.5 t54 143.5q0 74 -52 118.5t-151 44.5h-135v-356z" />
<glyph unicode="&#x45a;" horiz-adv-x="1662" d="M141 0v1040h242v-383h399v383h242v-383h203q188 0 285.5 -87.5t97.5 -229.5q0 -147 -105.5 -243.5t-294.5 -96.5h-428v471h-399v-471h-242zM1024 174h156q86 0 134 42t48 122q0 61 -46.5 99t-135.5 38h-156v-301z" />
<glyph unicode="&#x45b;" horiz-adv-x="1181" d="M-18 1198v145h159v226h242v-226h256v-145h-256v-289q4 6 12 15t37 33t62 42t87.5 33t114.5 15q184 0 269.5 -114.5t85.5 -311.5v-621h-242v608q0 232 -205 232q-41 0 -78.5 -10t-62.5 -24t-44 -28.5t-27 -24.5l-9 -10v-743h-242v1198h-159z" />
<glyph unicode="&#x45c;" horiz-adv-x="1054" d="M141 0v1040h242v-413h82l303 413h256l-356 -489l387 -551h-281l-307 432h-84v-432h-242zM453 1300l378 297l107 -165l-403 -252z" />
<glyph unicode="&#x45e;" horiz-adv-x="1048" d="M37 1040h246l258 -729l250 729h225l-539 -1499h-225l164 461zM209 1534h192q0 -40 11.5 -75.5t43.5 -63t81 -27.5q50 0 81.5 27.5t42.5 62.5t11 76h192q0 -149 -90.5 -233t-236.5 -84q-145 0 -236.5 84t-91.5 233z" />
<glyph unicode="&#x45f;" horiz-adv-x="1175" d="M141 0v1040h242v-847h410v847h241v-1040h-338v-270h-215v270h-340z" />
<glyph unicode="&#x490;" horiz-adv-x="983" d="M168 0v1466h569v301h221v-516h-546v-1251h-244z" />
<glyph unicode="&#x491;" horiz-adv-x="835" d="M141 0v1040h455v271h213v-453h-426v-858h-242z" />
<glyph unicode="&#x492;" horiz-adv-x="1054" d="M31 635v188h202v643h789v-221h-543v-422h365v-188h-365v-635h-246v635h-202z" />
<glyph unicode="&#x493;" horiz-adv-x="886" d="M35 406v165h147v469h670v-192h-428v-277h264v-165h-264v-406h-242v406h-147z" />
<glyph unicode="&#x496;" horiz-adv-x="1869" d="M12 0l482 752l-459 714h258l395 -616h86v616h240v-616h86l397 616h254l-457 -710l353 -541h192v-516h-223v301h-107l-409 639h-86v-639h-240v639h-88l-407 -639h-267z" />
<glyph unicode="&#x497;" horiz-adv-x="1574" d="M31 0l346 532l-338 508h264l277 -413h63v413h240v-413h61l281 413h258l-334 -495l235 -352h146v-463h-215v270h-84l-281 432h-67v-432h-240v432h-65l-285 -432h-262z" />
<glyph unicode="&#x498;" horiz-adv-x="1062" d="M72 39v213q17 -8 48 -19t123.5 -30t180.5 -19q133 0 216 62t83 184q0 104 -70.5 165.5t-199.5 61.5h-181v207h146q105 0 175.5 61t70.5 160q0 93 -66.5 144t-189.5 51q-80 0 -154.5 -14t-108.5 -28l-34 -13v209q13 6 38.5 15t113.5 24.5t186 15.5q222 0 342 -104 t120 -271q0 -110 -55 -196t-133 -130q106 -31 178 -118t72 -226q0 -183 -105.5 -300.5t-287.5 -151.5v-293h-224v281q-80 4 -151 19t-102 27z" />
<glyph unicode="&#x499;" horiz-adv-x="923" d="M82 31v188q13 -6 37 -14.5t99 -22.5t151 -14q105 0 164 37.5t59 109.5q0 134 -199 134h-168v174h168q77 0 119.5 32.5t42.5 92.5q0 66 -50 96t-151 30q-63 0 -128.5 -9t-99.5 -18l-34 -9v182q123 39 318 39q186 0 286.5 -72t100.5 -205q0 -75 -41 -133.5t-105 -93.5 q90 -22 140.5 -83t50.5 -157q0 -124 -85 -209.5t-239 -113.5v-262h-215v254q-64 4 -119.5 16t-78.5 22z" />
<glyph unicode="&#x49a;" horiz-adv-x="1302" d="M168 0v1466h244v-616h88l424 616h256l-484 -704l369 -535h209v-528h-223v301h-117l-434 637h-88v-637h-244z" />
<glyph unicode="&#x49b;" horiz-adv-x="1118" d="M141 0v1040h242v-413h82l303 413h256l-356 -489l260 -358h166v-463h-215v270h-105l-307 432h-84v-432h-242z" />
<glyph unicode="&#x49c;" horiz-adv-x="1456" d="M168 0v1466h244v-1466h-244zM524 362v750h195v-260h49l397 614h256l-454 -698l475 -768h-277l-397 641h-49v-279h-195z" />
<glyph unicode="&#x49d;" horiz-adv-x="1236" d="M141 0v1040h232v-1040h-232zM479 199v626h166v-207h35l281 422h247l-331 -483l356 -557h-272l-279 438h-37v-239h-166z" />
<glyph unicode="&#x4a0;" horiz-adv-x="1554" d="M27 1251v215h721v-616h86l423 616h256l-483 -704l518 -762h-280l-434 637h-86v-637h-246v1251h-475z" />
<glyph unicode="&#x4a1;" horiz-adv-x="1286" d="M31 848v192h583v-413h82l303 413h256l-356 -489l387 -551h-280l-308 432h-84v-432h-241v848h-342z" />
<glyph unicode="&#x4a2;" horiz-adv-x="1476" d="M168 0v1466h244v-612h587v612h244v-1251h176v-516h-223v301h-197v633h-587v-633h-244z" />
<glyph unicode="&#x4a3;" horiz-adv-x="1245" d="M141 0v1040h242v-405h410v405h243v-847h158v-463h-215v270h-186v440h-410v-440h-242z" />
<glyph unicode="&#x4aa;" horiz-adv-x="1138" d="M96 698q0 177 40 321t118.5 249.5t202.5 163t284 57.5q96 0 173.5 -13.5t107.5 -26.5l29 -13v-215q-12 6 -35 15t-99 24.5t-159 15.5q-107 0 -186 -41.5t-126 -119.5t-69.5 -180.5t-22.5 -232.5q0 -512 402 -512q88 0 162.5 16.5t105.5 33.5l31 16v-215q-8 -5 -25 -13.5 t-78.5 -25t-134.5 -20.5v-283h-223v291q-238 40 -368 221t-130 487z" />
<glyph unicode="&#x4ab;" horiz-adv-x="929" d="M86 520q0 251 134.5 396t375.5 145q71 0 133.5 -11.5t89.5 -23.5l27 -12v-183q-102 46 -219 46q-141 0 -216 -92.5t-75 -260.5q0 -172 72.5 -266t218.5 -94q56 0 110 11t81 21l26 11v-180q-58 -29 -162 -41v-256h-215v266q-184 32 -282.5 167t-98.5 357z" />
<glyph unicode="&#x4ae;" horiz-adv-x="1208" d="M14 1466h256l344 -645l344 645h234l-465 -872v-594h-246v594z" />
<glyph unicode="&#x4af;" horiz-adv-x="1054" d="M39 1040h246l254 -786l256 786h221l-369 -1040v-459h-241v455z" />
<glyph unicode="&#x4b0;" horiz-adv-x="1208" d="M14 1466h258l344 -645l345 645h231l-453 -852h277v-188h-287v-426h-246v426h-288v188h276z" />
<glyph unicode="&#x4b1;" horiz-adv-x="1056" d="M39 1040h248l254 -786l256 786h221l-369 -1040h236v-152h-236v-307h-241v307h-238v152h236z" />
<glyph unicode="&#x4b2;" horiz-adv-x="1255" d="M25 0l428 737l-418 729h262l307 -532l303 532h242l-414 -721l307 -530h177v-516h-224v301h-92l-317 547l-320 -547h-241z" />
<glyph unicode="&#x4b3;" horiz-adv-x="1075" d="M25 0l348 526l-332 514h266l217 -338l221 338h232l-332 -501l223 -346h162v-463h-215v270h-90l-233 362l-236 -362h-231z" />
<glyph unicode="&#x4b6;" horiz-adv-x="1345" d="M92 1055v411h244v-405q0 -287 278 -287q64 0 128 12t96 24l32 13v643h246v-1251h170v-516h-223v301h-193v616q-15 -6 -41 -15.5t-102.5 -25.5t-148.5 -16q-226 0 -356 121t-130 375z" />
<glyph unicode="&#x4b7;" horiz-adv-x="1146" d="M80 754v286h242v-280q0 -108 45 -159.5t139 -51.5q56 0 103.5 10.5t66.5 20.5l20 10v450h244v-847h158v-463h-215v270h-187v408q-9 -5 -26.5 -13t-76 -21.5t-122.5 -13.5q-192 0 -291.5 99.5t-99.5 294.5z" />
<glyph unicode="&#x4b8;" horiz-adv-x="1306" d="M92 1055v411h244v-405q0 -240 190 -281v316h191v-320q44 5 88 16.5t66 19.5l22 9v645h246v-1466h-246v621q-72 -34 -176 -48v-266h-191v258q-206 14 -320 134t-114 356z" />
<glyph unicode="&#x4b9;" horiz-adv-x="1110" d="M76 762v278h243v-272q0 -92 30 -143t93 -68v217h164v-219q35 6 64.5 16.5t41.5 17.5l13 7v444h244v-1040h-244v418q-41 -27 -119 -41v-223h-164v211q-179 11 -272.5 111.5t-93.5 285.5z" />
<glyph unicode="&#x4ba;" horiz-adv-x="1284" d="M168 0v1466h246v-616q15 6 41 15.5t103 25.5t149 16q226 0 355.5 -120.5t129.5 -374.5v-412h-244v406q0 152 -72.5 219t-205.5 67q-64 0 -128 -12t-96 -24l-32 -13v-643h-246z" />
<glyph unicode="&#x4bb;" horiz-adv-x="1181" d="M25 1407v158q57 22 155 22q203 0 203 -190v-473q4 6 12 15t37 32.5t62 41.5t87.5 33t114.5 15q184 0 269.5 -114.5t85.5 -311.5v-635h-242v623q0 231 -205 231q-41 0 -78.5 -10t-62.5 -24t-44 -28t-27 -24l-9 -10v-758h-242v1323q0 45 -24 63.5t-74 20.5h-18z" />
<glyph unicode="&#x4c0;" horiz-adv-x="579" d="M168 0v1466h244v-1466h-244z" />
<glyph unicode="&#x4c1;" horiz-adv-x="1792" d="M12 0l482 752l-459 714h258l395 -616h86v616h240v-616h86l397 616h254l-457 -710l488 -756h-273l-409 639h-86v-639h-240v639h-88l-407 -639h-267zM561 1903h191q0 -57 34 -98.5t111 -41.5q78 0 112.5 41.5t34.5 98.5h191q0 -134 -94 -212.5t-244 -78.5 q-149 0 -242.5 78.5t-93.5 212.5z" />
<glyph unicode="&#x4c2;" horiz-adv-x="1523" d="M31 0l346 532l-338 508h264l277 -413h63v413h240v-413h61l281 413h258l-334 -495l348 -545h-266l-281 432h-67v-432h-240v432h-65l-285 -432h-262zM436 1534h193q0 -40 11 -75.5t43 -63t81 -27.5q50 0 81.5 27.5t42.5 62.5t11 76h193q0 -149 -91 -233t-237 -84 q-145 0 -236.5 84t-91.5 233z" />
<glyph unicode="&#x4cf;" horiz-adv-x="579" d="M168 0v1569h244v-1569h-244z" />
<glyph unicode="&#x4d0;" horiz-adv-x="1241" d="M20 0l484 1473h235l482 -1473h-248l-103 322h-516l-102 -322h-232zM262 1903h191q0 -57 34 -98.5t111 -41.5q78 0 112.5 41.5t34.5 98.5h191q0 -134 -94 -212.5t-244 -78.5q-149 0 -242.5 78.5t-93.5 212.5zM416 530h391l-201 613z" />
<glyph unicode="&#x4d1;" horiz-adv-x="1073" d="M51 281q0 161 116 245t327 92l174 7v34q0 110 -47 160.5t-168 50.5q-72 0 -150.5 -12t-120.5 -24l-43 -11v183q16 6 44.5 15t117.5 24.5t178 15.5q221 0 326.5 -88t105.5 -273v-456q0 -48 26 -67t81 -19h16v-158q-51 -18 -139 -18q-84 0 -130.5 35.5t-66.5 121.5 q-129 -157 -315 -157q-153 0 -242.5 81t-89.5 218zM188 1534h193q0 -40 11 -75.5t43 -63t81 -27.5q50 0 81.5 27.5t42.5 62.5t11 76h193q0 -149 -91 -233t-237 -84q-145 0 -236.5 84t-91.5 233zM295 299q0 -63 39 -98t104 -35q43 0 82.5 10.5t65.5 25.5t45 30t28 26l9 10 v201l-121 -4q-135 -6 -193.5 -47t-58.5 -119z" />
<glyph unicode="&#x4d6;" horiz-adv-x="1095" d="M168 0v1466h829v-217h-585v-399h485v-213h-485v-420h585v-217h-829zM250 1903h190q0 -56 34.5 -98t111.5 -42q78 0 112.5 41.5t34.5 98.5h191q0 -134 -94 -212.5t-244 -78.5q-149 0 -242.5 78.5t-93.5 212.5z" />
<glyph unicode="&#x4d7;" horiz-adv-x="1064" d="M84 506q0 260 127.5 407.5t349.5 147.5q112 0 196 -37t132.5 -101t72 -142t23.5 -169q0 -44 -2.5 -82t-4.5 -54l-3 -15h-647q10 -149 90.5 -222t234.5 -73q68 0 138.5 13t107.5 25l37 13v-178q-14 -6 -39.5 -15.5t-111 -25.5t-177.5 -16q-254 0 -389 141t-135 383z M225 1534h193q0 -40 11 -75.5t43 -63t81 -27.5q50 0 81.5 27.5t42.5 62.5t11 76h193q0 -149 -91 -233t-237 -84q-145 0 -236.5 84t-91.5 233zM332 621h422q3 127 -47.5 194.5t-147.5 67.5q-200 0 -227 -262z" />
<glyph unicode="&#x4d8;" horiz-adv-x="1337" d="M80 662q0 46 3.5 88.5t6.5 61.5l4 19h889q-25 224 -129 334.5t-301 110.5q-94 0 -188.5 -18.5t-142.5 -37.5l-48 -18v211q6 3 17 8t49.5 18.5t81 23.5t109.5 18t138 8q139 0 250.5 -37t189 -103.5t130 -161.5t76.5 -208.5t24 -247.5q0 -229 -63 -396t-196 -262.5 t-325 -95.5q-121 0 -219 36.5t-163.5 99t-109.5 150t-63.5 187t-19.5 212.5zM328 608q7 -212 91 -318t236 -106t234.5 114.5t91.5 328.5h-653v-19z" />
<glyph unicode="&#x4d9;" horiz-adv-x="1064" d="M80 428q0 44 2.5 82t5.5 54l2 16h647q-10 149 -90.5 221.5t-234.5 72.5q-68 0 -138.5 -13t-107.5 -25l-37 -13v178q14 6 39.5 16t111 26t177.5 16q254 0 389 -141t135 -383q0 -260 -127.5 -407.5t-349.5 -147.5q-90 0 -162.5 24.5t-120.5 66t-80.5 99.5t-46.5 122 t-14 136zM311 420q-3 -127 47.5 -194.5t147.5 -67.5q200 0 227 262h-422z" />
<glyph unicode="&#x4e2;" horiz-adv-x="1431" d="M168 0v1466h244v-1058l616 1058h238v-1466h-246v1055l-617 -1055h-235zM432 1665v184h578v-184h-578z" />
<glyph unicode="&#x4e3;" horiz-adv-x="1198" d="M141 0v1040h242v-698l436 698h238v-1040h-242v694l-436 -694h-238zM315 1303v182h572v-182h-572z" />
<glyph unicode="&#x4e6;" horiz-adv-x="1398" d="M98 733q0 362 154 559t446 197q294 0 448 -195.5t154 -560.5t-156 -560.5t-446 -195.5t-445 195.5t-155 560.5zM354 733q0 -274 83 -408.5t263 -134.5q176 0 260 135.5t84 407.5q0 273 -82 408t-262 135q-178 0 -262 -135.5t-84 -407.5zM369 1778q0 60 38 98.5t101 38.5 t101 -38.5t38 -96.5q0 -60 -38.5 -100t-102.5 -40q-62 0 -99.5 39.5t-37.5 98.5zM760 1778q0 60 37 98.5t100 38.5t101 -38.5t38 -96.5q0 -60 -38.5 -100t-102.5 -40q-60 0 -97.5 40t-37.5 98z" />
<glyph unicode="&#x4e7;" horiz-adv-x="1161" d="M84 524q0 251 134.5 394t361.5 143q230 0 363.5 -142.5t133.5 -394.5q0 -253 -134.5 -397.5t-362.5 -144.5q-230 0 -363 144t-133 398zM240 1391q0 61 36 99t101 38q67 0 103 -38t36 -97q0 -63 -37 -102.5t-104 -39.5q-64 0 -99.5 39t-35.5 101zM334 526q0 -176 62 -271 t186 -95q120 0 182.5 95.5t62.5 270.5q0 173 -62 265t-183 92q-124 0 -186 -91.5t-62 -265.5zM643 1391q0 60 36.5 98.5t102.5 38.5t103 -38t37 -97q0 -63 -37.5 -102.5t-104.5 -39.5q-64 0 -100.5 39t-36.5 101z" />
<glyph unicode="&#x4e8;" horiz-adv-x="1398" d="M98 733q0 362 154 559t446 197q294 0 448 -195.5t154 -560.5t-156 -560.5t-446 -195.5t-445 195.5t-155 560.5zM356 645q12 -230 95.5 -342.5t248.5 -112.5q162 0 245 112.5t97 342.5h-686zM360 852h680q-17 214 -100 319t-240 105t-240 -105t-100 -319z" />
<glyph unicode="&#x4e9;" horiz-adv-x="1161" d="M84 524q0 251 134.5 394t361.5 143q230 0 363.5 -142.5t133.5 -394.5q0 -253 -134.5 -397.5t-362.5 -144.5q-230 0 -363 144t-133 398zM338 442q12 -136 74 -210t170 -74q105 0 167 74.5t76 209.5h-487zM338 604h487q-12 135 -73.5 207t-169.5 72q-109 0 -170.5 -72 t-73.5 -207z" />
<glyph unicode="&#x4ee;" horiz-adv-x="1191" d="M37 1466h246l335 -813l332 813h224l-412 -1017q-33 -83 -58 -138.5t-57 -114t-63 -95t-69.5 -67t-84.5 -44t-100 -13.5q-48 0 -85.5 5.5t-50.5 11.5l-14 6v209q54 -21 109 -21q66 0 108.5 38t96.5 151zM330 1677v185h577v-185h-577z" />
<glyph unicode="&#x4ef;" horiz-adv-x="1048" d="M37 1040h246l258 -729l250 729h225l-539 -1499h-225l164 461zM246 1303v182h571v-182h-571z" />
<glyph unicode="&#x4f2;" horiz-adv-x="1191" d="M37 1466h246l335 -813l332 813h224l-412 -1017q-33 -83 -58 -138.5t-57 -114t-63 -95t-69.5 -67t-84.5 -44t-100 -13.5q-48 0 -85.5 5.5t-50.5 11.5l-14 6v209q54 -21 109 -21q66 0 108.5 38t96.5 151zM317 1677l254 336l158 -123l-293 -297zM616 1720l416 226l86 -185 l-442 -168z" />
<glyph unicode="&#x4f3;" horiz-adv-x="1048" d="M37 1040h246l258 -729l250 729h225l-539 -1499h-225l164 461zM285 1251l245 357l148 -125l-279 -326zM598 1276l326 305l118 -154l-352 -268z" />
<glyph unicode="&#xe3f;" horiz-adv-x="1331" d="M170 0v1466h373v228h215v-230q214 -17 317 -116t103 -267q0 -104 -49 -184t-136 -125q125 -37 188.5 -129t63.5 -215q0 -204 -129.5 -311.5t-357.5 -116.5v-256h-215v256h-373zM403 190h156v472h-156v-472zM403 848h156v428h-156v-428zM741 190q124 4 190 66.5t66 171.5 q0 113 -61 170.5t-195 60.5v-469zM741 850q100 9 149.5 66t49.5 155q0 179 -199 201v-422z" />
<glyph unicode="&#x1e46;" horiz-adv-x="1419" d="M168 0v1466h221l641 -1040v1040h223v-1466h-223l-641 1040v-1040h-221zM580 -268q0 59 35.5 97t99.5 38t99.5 -38t35.5 -97q0 -60 -36 -99t-101 -39q-62 0 -97.5 39.5t-35.5 98.5z" />
<glyph unicode="&#x1e47;" horiz-adv-x="1216" d="M53 883v157q52 21 142 21q88 0 136 -38.5t60 -117.5q7 14 30.5 36.5t63.5 51t103 48.5t133 20q188 0 277 -111t89 -311v-639h-243v633q0 105 -50.5 163t-148.5 58q-43 0 -81.5 -10t-63.5 -24t-44 -28t-28 -24l-8 -10v-758h-244v799q0 46 -24.5 64t-77.5 20h-21zM489 -268 q0 59 36 97t100 38t99.5 -38t35.5 -97q0 -60 -36 -99t-101 -39q-62 0 -98 39.5t-36 98.5z" />
<glyph unicode="&#x1e62;" horiz-adv-x="1062" d="M100 1083q0 182 130 294t362 112q88 0 168.5 -12.5t117.5 -25.5l37 -13v-213q-166 51 -313 51q-122 0 -188 -47.5t-66 -134.5q0 -82 65 -137t203 -111q67 -27 118.5 -54t100.5 -65t80.5 -81t50.5 -101t19 -127q0 -93 -32.5 -171.5t-96.5 -139.5t-170.5 -95.5 t-245.5 -34.5q-90 0 -174 16t-123 32l-39 16v213q18 -7 49 -17.5t121 -28.5t172 -18q147 0 220 55.5t73 151.5q0 48 -20 87t-63 71t-86.5 55t-114.5 54q-63 28 -108 52t-95 61.5t-80.5 78.5t-51 99.5t-20.5 127.5zM375 -268q0 59 35.5 97t99.5 38t99.5 -38t35.5 -97 q0 -60 -36 -99t-101 -39q-62 0 -97.5 39.5t-35.5 98.5z" />
<glyph unicode="&#x1e63;" horiz-adv-x="907" d="M88 754q0 147 113.5 227t310.5 80q73 0 138.5 -9.5t94.5 -18.5l29 -9v-188q-1 0 -23.5 6t-44 11t-53 11t-69 9.5t-74.5 3.5q-97 0 -144 -30t-47 -83q0 -50 43.5 -81.5t137.5 -55.5q181 -45 259.5 -120.5t78.5 -197.5q0 -155 -122 -241t-321 -86q-81 0 -155.5 13 t-109.5 27l-34 13v182q16 -5 43 -13.5t105 -22t147 -13.5q101 0 157 32t56 91q0 52 -41 82.5t-155 62.5q-72 20 -124 43.5t-99.5 60t-72 90.5t-24.5 124zM334 -252q0 53 31 86t88 33t88.5 -33t31.5 -86t-32 -87t-90 -34q-55 0 -86 34t-31 87z" />
<glyph unicode="&#x1e80;" horiz-adv-x="1773" d="M37 1466h244l258 -1091l262 1098h205l260 -1094l260 1087h217l-363 -1474h-235l-258 1050l-266 -1050h-236zM516 1757l84 195l444 -217l-59 -142z" />
<glyph unicode="&#x1e81;" horiz-adv-x="1521" d="M43 1040h231l209 -731l183 731h204l191 -729l207 729h211l-297 -1040h-234l-192 723l-183 -723h-233zM430 1432l107 165l378 -297l-81 -120z" />
<glyph unicode="&#x1e82;" horiz-adv-x="1773" d="M37 1466h244l258 -1091l262 1098h205l260 -1094l260 1087h217l-363 -1474h-235l-258 1050l-266 -1050h-236zM764 1735l446 217l82 -195l-467 -164z" />
<glyph unicode="&#x1e83;" horiz-adv-x="1521" d="M43 1040h231l209 -731l183 731h204l191 -729l207 729h211l-297 -1040h-234l-192 723l-183 -723h-233zM608 1300l379 297l107 -165l-404 -252z" />
<glyph unicode="&#x1e84;" horiz-adv-x="1773" d="M37 1466h244l258 -1091l262 1098h205l260 -1094l260 1087h217l-363 -1474h-235l-258 1050l-266 -1050h-236zM563 1778q0 60 38 98.5t101 38.5t101.5 -38.5t38.5 -96.5q0 -60 -39 -100t-103 -40q-62 0 -99.5 39.5t-37.5 98.5zM954 1778q0 60 37.5 98.5t100.5 38.5 t101 -38.5t38 -96.5q0 -60 -38.5 -100t-102.5 -40q-60 0 -98 40t-38 98z" />
<glyph unicode="&#x1e85;" horiz-adv-x="1521" d="M43 1040h231l209 -731l183 731h204l191 -729l207 729h211l-297 -1040h-234l-192 723l-183 -723h-233zM430 1391q0 61 36 99t101 38q67 0 103.5 -38t36.5 -97q0 -63 -37.5 -102.5t-104.5 -39.5q-64 0 -99.5 39t-35.5 101zM834 1391q0 60 36.5 98.5t102.5 38.5 q65 0 102 -38t37 -97q0 -63 -37 -102.5t-104 -39.5q-64 0 -100.5 39t-36.5 101z" />
<glyph unicode="&#x1ebc;" horiz-adv-x="1095" d="M168 0v1466h829v-217h-585v-399h485v-213h-485v-420h585v-217h-829zM252 1647q2 22 7 49t20 69t37.5 74t62.5 56t90 24q12 0 22.5 -1t21.5 -4t18.5 -4.5t18.5 -7t16 -7.5t16.5 -9.5t14.5 -9.5t15.5 -11t14.5 -10q12 -8 31 -22t28.5 -20t24 -11.5t28.5 -5.5q25 0 41.5 23 t20.5 46l4 23h147q-3 -26 -7 -49.5t-18.5 -66t-35.5 -72.5t-59.5 -53t-88.5 -23q-20 0 -37 2.5t-36 12t-25.5 12.5t-29.5 18.5t-25 16.5q-10 6 -30.5 20.5t-30.5 20.5t-26 12t-30 6q-29 0 -47.5 -24.5t-22.5 -48.5l-4 -25h-147z" />
<glyph unicode="&#x1ebd;" horiz-adv-x="1064" d="M84 506q0 260 127.5 407.5t349.5 147.5q112 0 196 -37t132.5 -101t72 -142t23.5 -169q0 -44 -2.5 -82t-4.5 -54l-3 -15h-647q10 -149 90.5 -222t234.5 -73q68 0 138.5 13t107.5 25l37 13v-178q-14 -6 -39.5 -15.5t-111 -25.5t-177.5 -16q-254 0 -389 141t-135 383z M219 1270q1 21 6 50t20 71t37 75.5t62.5 57.5t91.5 24q14 0 27 -2t22.5 -3.5t22 -7t19 -8t19 -10.5t16.5 -10.5t17.5 -12t16.5 -11.5q10 -7 31 -22t30.5 -20.5t25 -11.5t30.5 -6q50 0 69 93h144q-2 -21 -5.5 -40.5t-12 -54.5t-23.5 -62.5t-36.5 -55t-55.5 -43t-76 -15.5 q-21 0 -39 3.5t-35.5 11.5t-27.5 13.5t-29.5 18.5t-26.5 17q-10 7 -30.5 21t-31 21t-27 13t-30.5 6q-22 0 -38.5 -13t-25 -33.5t-11.5 -31.5t-5 -22h-141zM332 621h422q3 127 -47.5 194.5t-147.5 67.5q-200 0 -227 -262z" />
<glyph unicode="&#x1ef2;" horiz-adv-x="1208" d="M14 1466h256l344 -645l344 645h234l-465 -872v-594h-246v594zM242 1757l84 195l444 -217l-59 -142z" />
<glyph unicode="&#x1ef3;" horiz-adv-x="1048" d="M37 1040h246l258 -729l250 729h225l-539 -1499h-225l164 461zM162 1432l106 165l379 -297l-82 -120z" />
<glyph unicode="&#x2000;" horiz-adv-x="1024" />
<glyph unicode="&#x2001;" horiz-adv-x="2048" />
<glyph unicode="&#x2002;" horiz-adv-x="1024" />
<glyph unicode="&#x2003;" horiz-adv-x="2048" />
<glyph unicode="&#x2004;" horiz-adv-x="681" />
<glyph unicode="&#x2005;" horiz-adv-x="512" />
<glyph unicode="&#x2006;" horiz-adv-x="342" />
<glyph unicode="&#x2007;" />
<glyph unicode="&#x2008;" horiz-adv-x="489" />
<glyph unicode="&#x2009;" horiz-adv-x="409" />
<glyph unicode="&#x200a;" horiz-adv-x="86" />
<glyph unicode="&#x200b;" horiz-adv-x="0" />
<glyph unicode="&#x2010;" horiz-adv-x="819" d="M125 526v189h569v-189h-569z" />
<glyph unicode="&#x2011;" horiz-adv-x="819" d="M125 526v189h569v-189h-569z" />
<glyph unicode="&#x2012;" d="M133 526v189h975v-189h-975z" />
<glyph unicode="&#x2013;" horiz-adv-x="1075" d="M125 526v189h825v-189h-825z" />
<glyph unicode="&#x2014;" horiz-adv-x="1796" d="M125 526v189h1546v-189h-1546z" />
<glyph unicode="&#x2015;" horiz-adv-x="1796" d="M125 526v189h1546v-189h-1546z" />
<glyph unicode="&#x2018;" horiz-adv-x="477" d="M86 1065q0 49 29.5 130.5t56.5 137t80 158.5l115 -45l-103 -242q55 -12 87 -53.5t32 -99.5q0 -63 -41 -109.5t-113 -46.5q-68 0 -105.5 46t-37.5 124z" />
<glyph unicode="&#x2019;" horiz-adv-x="473" d="M96 1335q0 63 41 109.5t113 46.5q68 0 105.5 -46t37.5 -124q0 -49 -29.5 -130.5t-56.5 -137t-80 -158.5l-114 45l102 242q-55 12 -87 53.5t-32 99.5z" />
<glyph unicode="&#x201a;" horiz-adv-x="495" d="M96 131q0 63 41 109.5t113 46.5q68 0 105.5 -46t37.5 -124q0 -49 -29.5 -130.5t-56.5 -137t-80 -158.5l-114 45l102 241q-55 12 -87 54t-32 100z" />
<glyph unicode="&#x201c;" horiz-adv-x="878" d="M86 1065q0 49 29.5 130.5t56.5 137t80 158.5l115 -45l-103 -242q55 -12 87 -53.5t32 -99.5q0 -63 -41 -109.5t-113 -46.5q-68 0 -105.5 46t-37.5 124zM487 1065q0 49 29.5 130.5t56.5 137t80 158.5l115 -45l-102 -242q55 -12 86.5 -53.5t31.5 -99.5q0 -63 -40.5 -109.5 t-112.5 -46.5q-68 0 -106 46t-38 124z" />
<glyph unicode="&#x201d;" horiz-adv-x="874" d="M96 1335q0 63 41 109.5t113 46.5q68 0 105.5 -46t37.5 -124q0 -49 -29.5 -130.5t-56.5 -137t-80 -158.5l-114 45l102 242q-55 12 -87 53.5t-32 99.5zM500 1335q0 63 40.5 109.5t112.5 46.5q68 0 106 -46t38 -124q0 -49 -29.5 -130.5t-56.5 -137t-80 -158.5l-115 45 l102 242q-55 12 -86.5 53.5t-31.5 99.5z" />
<glyph unicode="&#x201e;" horiz-adv-x="897" d="M96 131q0 63 41 109.5t113 46.5q68 0 105.5 -46t37.5 -124q0 -49 -29.5 -130.5t-56.5 -137t-80 -158.5l-114 45l102 241q-55 12 -87 54t-32 100zM498 131q0 63 40.5 109.5t112.5 46.5q68 0 106 -46t38 -124q0 -49 -29.5 -130.5t-56.5 -137t-80 -158.5l-115 45l102 241 q-55 12 -86.5 54t-31.5 100z" />
<glyph unicode="&#x2020;" horiz-adv-x="909" d="M102 979v188h240v299h225v-299h240v-188h-240v-979h-225v979h-240z" />
<glyph unicode="&#x2021;" horiz-adv-x="909" d="M102 330v188h240v461h-240v188h240v299h225v-299h240v-188h-240v-461h240v-188h-240v-330h-225v330h-240z" />
<glyph unicode="&#x2022;" horiz-adv-x="686" d="M154 645q0 84 51 139.5t137 55.5t138 -55.5t52 -139.5q0 -85 -52 -142t-138 -57t-137 56.5t-51 142.5z" />
<glyph unicode="&#x2026;" horiz-adv-x="1368" d="M96 135q0 65 40.5 108.5t107.5 43.5q68 0 108.5 -43.5t40.5 -108.5q0 -68 -40 -113t-109 -45q-67 0 -107.5 45t-40.5 113zM535 135q0 65 41 108.5t108 43.5t108.5 -43.5t41.5 -108.5q0 -68 -41 -113t-109 -45q-67 0 -108 45t-41 113zM975 135q0 65 41 108.5t108 43.5 t108.5 -43.5t41.5 -108.5q0 -68 -41 -113t-109 -45q-67 0 -108 45t-41 113z" />
<glyph unicode="&#x202f;" horiz-adv-x="479" />
<glyph unicode="&#x2030;" horiz-adv-x="2799" d="M63 1081q0 186 104.5 297t289.5 111q184 0 287.5 -110.5t103.5 -297.5t-103.5 -298t-287.5 -111q-185 0 -289.5 111t-104.5 298zM297 1081q0 -229 160 -229q157 0 157 229q0 228 -157 228q-160 0 -160 -228zM389 -6l932 1479h223l-934 -1479h-221zM1081 387 q0 187 104.5 298.5t289.5 111.5t289 -111.5t104 -298.5q0 -186 -104 -296.5t-289 -110.5t-289.5 110.5t-104.5 296.5zM1317 387q0 -227 158 -227q157 0 157 227q0 229 -157 229q-158 0 -158 -229zM1954 387q0 187 103.5 298.5t287.5 111.5q185 0 289 -111.5t104 -298.5 q0 -186 -104 -296.5t-289 -110.5q-184 0 -287.5 110.5t-103.5 296.5zM2187 387q0 -227 158 -227q160 0 160 227q0 229 -160 229q-158 0 -158 -229z" />
<glyph unicode="&#x2032;" horiz-adv-x="495" d="M109 920l43 546h270l-113 -546h-200z" />
<glyph unicode="&#x2033;" horiz-adv-x="913" d="M109 920l43 546h270l-113 -546h-200zM526 920l43 546h271l-113 -546h-201z" />
<glyph unicode="&#x2039;" horiz-adv-x="739" d="M78 530v82l336 375h245l-362 -416l348 -417h-246z" />
<glyph unicode="&#x203a;" horiz-adv-x="739" d="M80 987h246l336 -375v-82l-322 -376h-246l348 417z" />
<glyph unicode="&#x203d;" horiz-adv-x="1474" d="M49 1303l223 102l385 -942l-174 -82zM553 135q0 65 40 108.5t107 43.5q69 0 109.5 -43.5t40.5 -108.5q0 -68 -40.5 -113t-109.5 -45q-67 0 -107 45t-40 113zM700 463l95 352q76 -18 146 -10.5t127 55t79 127.5q27 101 -17.5 173.5t-142.5 99.5q-80 19 -143.5 12.5 t-102.5 -24.5l-39 -17l62 188q5 3 15 7t44 12t71 11t94 -2.5t116 -23.5q97 -29 165.5 -81.5t99.5 -116t38 -137.5t-18 -146q-44 -152 -163.5 -233t-279.5 -72l-67 -231z" />
<glyph unicode="&#x2042;" horiz-adv-x="1654" d="M52 191q1 25 24 49t63 36l187 60l-193 57q-53 15 -74 56t2 79q21 35 61 39t91 -37l149 -133l-47 189q-15 59 8.5 97t69.5 38q43 0 67.5 -34t8.5 -99l-43 -191l147 135q42 41 87 39.5t67 -41.5q11 -24 11.5 -49.5t-23.5 -50.5t-68 -37l-178 -53l182 -55q57 -17 79 -59 t-1 -81q-15 -22 -37.5 -33t-55 -3.5t-65.5 38.5l-145 132l47 -193q15 -58 -8.5 -95.5t-67.5 -37.5t-67.5 33.5t-7.5 99.5l40 195l-149 -144q-40 -39 -84.5 -36.5t-65.5 42.5q-12 23 -11 48zM484.5 966q0.5 25 23.5 49t63 36l187 59l-193 57q-53 15 -73.5 56.5t2.5 79.5 q21 36 60.5 39.5t90.5 -37.5l150 -134l-47 189q-15 59 8.5 97t68.5 38q43 0 67.5 -34t8.5 -99l-43 -191l148 136q42 41 86.5 39.5t66.5 -41.5q11 -24 11.5 -49.5t-23.5 -51t-68 -37.5l-178 -53l182 -55q57 -17 79 -58.5t-1 -80.5q-15 -22 -37 -33t-54.5 -3.5t-65.5 38.5 l-146 131l47 -193q15 -58 -8.5 -95.5t-67.5 -37.5t-67.5 33.5t-7.5 99.5l41 195l-150 -144q-40 -39 -84 -36t-65 43q-12 23 -11.5 48zM917 191q1 25 24 49t63 36l186 60l-193 57q-53 15 -73.5 56t2.5 79q21 36 60.5 39.5t90.5 -37.5l150 -133l-47 189q-15 59 8.5 97t68.5 38 q43 0 67.5 -34t8.5 -99l-43 -191l148 135q42 41 86.5 39.5t66.5 -41.5q11 -24 11.5 -49.5t-23.5 -50.5t-68 -37l-178 -53l183 -55q57 -17 78.5 -59t-1.5 -81q-15 -22 -37 -33t-54.5 -3.5t-65.5 38.5l-146 132l47 -193q15 -58 -8 -95.5t-67 -37.5t-68 33.5t-8 99.5l41 195 l-150 -144q-40 -39 -84 -36.5t-65 42.5q-12 23 -11 48z" />
<glyph unicode="&#x2044;" horiz-adv-x="378" d="M-371 0l881 1473h238l-881 -1473h-238z" />
<glyph unicode="&#x205f;" horiz-adv-x="454" />
<glyph unicode="&#x2060;" horiz-adv-x="0" />
<glyph unicode="&#x20a1;" horiz-adv-x="1376" d="M139 694q0 179 42.5 323.5t125.5 250.5t215 163.5t303 57.5h17l43 100h170l-49 -112q51 -5 98 -19l55 131h170l-600 -1382q66 -17 129 -17q96 2 176.5 18.5t113.5 31.5l32 16v-215q-5 -3 -14 -7t-41.5 -15t-70.5 -19.5t-101 -15.5t-132 -7q-101 0 -174 23l-55 -123h-170 l76 168q-51 27 -82 51l-99 -219h-170l146 328q-154 188 -154 489zM387 698q0 -110 25 -202l340 768q-97 -13 -168 -59.5t-113.5 -121.5t-63 -170.5t-20.5 -214.5zM506 322q36 -39 76 -64l442 1004q-87 12 -100 12z" />
<glyph unicode="&#x20a2;" horiz-adv-x="1265" d="M98 688q0 181 42 327t124 252t211 164t297 58q99 0 179 -13.5t111 -26.5l30 -13v-215q-12 6 -36.5 15t-106 24.5t-171.5 15.5q-112 0 -195 -42t-133.5 -120t-75 -182.5t-24.5 -237.5q0 -222 78.5 -345t239.5 -152v395q0 46 -27.5 65t-89.5 21h-6v158q47 20 129 20 q78 0 125 -32t63 -115q49 72 112.5 109.5t123.5 37.5q25 0 46 -4t30 -8l8 -4v-209q-40 10 -99 10q-120 0 -200 -96v-355q64 6 117 21t74 27l22 12v-209q-4 -3 -12.5 -7t-38.5 -15t-65 -19.5t-92.5 -15.5t-119.5 -7q-312 0 -491 183.5t-179 527.5z" />
<glyph unicode="&#x20a3;" horiz-adv-x="1136" d="M72 162v155h170v1149h823v-217h-578v-409h486v-219h-486v-304h301v-155h-301v-162h-245v162h-170z" />
<glyph unicode="&#x20a4;" horiz-adv-x="1122" d="M111 0v184q86 31 120.5 106t34.5 210v8h-155v156h768v-156h-377v-8q0 -211 -94 -301h618v-199h-915zM111 774v156h155v94q0 215 120.5 342t336.5 127q96 0 175 -16t108 -35v-211q-34 19 -107.5 35t-150.5 16q-246 0 -246 -260v-92h377v-156h-768z" />
<glyph unicode="&#x20a5;" horiz-adv-x="1767" d="M74 883v157q51 21 141 21q173 0 197 -156q46 70 119.5 113t168.5 43q152 0 240 -94l158 338h188l-131 -277q64 33 141 33q173 0 261 -105t88 -286v-670h-242v643q0 215 -168 215q-39 0 -74.5 -11t-58.5 -27t-40.5 -32t-25.5 -27l-8 -11q8 -47 8 -113v-637h-211v313 l-243 -516h-189l406 862v58q-20 141 -168 141q-32 0 -63.5 -9.5t-53.5 -22.5t-39.5 -26t-26.5 -22l-8 -10v-768h-243v799q0 44 -24 63t-73 21h-26z" />
<glyph unicode="&#x20a6;" horiz-adv-x="1630" d="M82 518v156h641l-68 110h-573v156h190v526h224l319 -526h320v526h223v-526h190v-156h-639l68 -110h571v-156h-190v-518h-223l-318 518h-321v-518h-224v518h-190zM473 940h102l-102 174v-174zM1059 518l100 -168v168h-100z" />
<glyph unicode="&#x20a7;" horiz-adv-x="1382" d="M84 934v156h160v376h405q235 0 372 -98.5t161 -277.5h147v-156h-147q-27 -187 -171.5 -290t-361.5 -103h-160v-541h-245v934h-160zM483 739h168q110 0 185 49t98 146h-451v-195zM483 1090h451q-40 178 -287 178h-164v-178z" />
<glyph unicode="&#x20a8;" horiz-adv-x="2007" d="M168 0v1466h428q237 0 369.5 -110.5t132.5 -306.5q0 -133 -65.5 -245.5t-192.5 -176.5l90 -162q85 -160 221.5 -228.5t339.5 -68.5q101 0 155 31.5t54 91.5q0 51 -39.5 82.5t-151.5 62.5q-74 21 -127.5 45.5t-99 61.5t-69 90t-23.5 121q0 145 110 226t306 81 q153 0 264 -37v-188q-149 41 -264 41q-93 0 -139 -30.5t-46 -82.5q0 -50 40.5 -81.5t131.5 -55.5q181 -45 259.5 -120t78.5 -198q0 -153 -122 -240t-334 -87q-299 0 -478 96t-284 299l-103 186h-196v-563h-246zM414 774h172q113 0 187.5 70.5t74.5 193.5q0 103 -66 161 t-192 58h-176v-483z" />
<glyph unicode="&#x20a9;" horiz-adv-x="1945" d="M92 506v156h608l27 110h-635v156h164l-127 538h238l127 -538h268l125 545h205l127 -545h266l127 538h211l-133 -538h163v-156h-600l25 -110h575v-156h-268l-125 -514h-229l-117 514h-287l-120 -514h-230l-121 514h-264zM586 506l41 -164l39 164h-80zM862 662h217l-26 110 h-164zM924 928h94l-47 192zM1315 506l39 -158l39 158h-78z" />
<glyph unicode="&#x20aa;" horiz-adv-x="1695" d="M168 0v1466h436q205 0 322.5 -60t169 -189t51.5 -351v-430h-219v406q0 232 -76.5 320.5t-278.5 88.5h-186v-1251h-219zM549 600v430h219v-405q0 -232 76 -321t276 -89h189v1251h219v-1466h-436q-205 0 -322.5 60t-169 189t-51.5 351z" />
<glyph unicode="&#x20ab;" horiz-adv-x="1208" d="M98 662q0 69 14 132t46.5 121.5t80 102t119 69t160.5 25.5q126 0 227 -80v170h-260v148h260v116h226v-116h129v-148h-129v-731q0 -42 26.5 -59t79.5 -19h13v-139q-51 -16 -129 -16q-156 0 -189 139l-6 -7q-6 -8 -11 -13.5t-15.5 -16t-20.5 -19t-25 -19.5t-30 -19.5 t-35 -17.5t-40 -14.5t-44.5 -9t-50.5 -3.5q-103 0 -181 33t-124 92t-68.5 134t-22.5 165zM125 0v166h962v-166h-962zM336 666q0 -122 56 -187t163 -65q34 0 66.5 11t54 26.5t38 31t24.5 26.5l7 11v357q-7 7 -20.5 17.5t-60.5 28t-99 17.5q-111 0 -170 -72.5t-59 -201.5z" />
<glyph unicode="&#x20ac;" horiz-adv-x="1288" d="M84 518v166h809l-66 -166h-335q34 -163 133 -245.5t258 -82.5q81 0 155 16.5t108 33.5l34 16v-215q-5 -3 -13.5 -7t-38.5 -15t-64 -19.5t-88.5 -15.5t-111.5 -7q-259 0 -426 139t-211 402h-143zM84 797v166h158q52 250 209 390t407 140q97 0 180 -14.5t118 -29.5l34 -15 l-31 -209q-12 6 -35.5 15t-98.5 24.5t-153 15.5q-145 0 -238.5 -84t-129.5 -233h495l-63 -166h-852z" />
<glyph unicode="&#x20ad;" horiz-adv-x="1351" d="M84 653v189h162v624h243v-624h80l432 624h256l-430 -624h363v-189h-344l444 -653h-278l-445 649h-78v-649h-243v653h-162z" />
<glyph unicode="&#x20ae;" horiz-adv-x="1159" d="M61 1245v221h1043v-221h-399v-305l231 129v-178l-707 -391v178l230 129v438h-398zM229 182v178l707 394v-179l-231 -129v-446h-246v313z" />
<glyph unicode="&#x20b1;" horiz-adv-x="1415" d="M92 807v149h1247v-149h-165q-58 -133 -190.5 -205t-309.5 -72h-162v-530h-244v807h-176zM92 1040v150h176v276h406q196 0 325 -72t181 -204h159v-150h-1247zM506 717h170q151 0 229 90h-399v-90zM506 1190h409q-75 90 -243 90h-166v-90z" />
<glyph unicode="&#x20b2;" horiz-adv-x="1284" d="M72 725q0 198 56.5 352.5t180.5 261t307 138.5v225h209v-213q89 -3 166 -17.5t109 -27.5l33 -14v-209q-16 6 -45 15t-117 24.5t-176 15.5q-240 0 -353.5 -144t-113.5 -405q0 -256 114 -396.5t344 -140.5q86 0 150 15v413h-299v211h520v-798q-16 -6 -45.5 -14.5t-117 -24 t-171.5 -17.5v-239h-209v252q-143 24 -248.5 88t-169 161.5t-94 218.5t-30.5 269z" />
<glyph unicode="&#x20b3;" horiz-adv-x="1439" d="M88 332v153h1262v-153h-140l109 -332h-244l-108 332h-518l-103 -332h-225l108 332h-141zM88 598v154h279l235 721h236l235 -721h277v-154h-1262zM580 752h256l-131 401z" />
<glyph unicode="&#x20b4;" horiz-adv-x="1181" d="M98 514v166h977v-166h-596q-57 -46 -57 -141q0 -86 74.5 -141.5t199.5 -55.5q81 0 160.5 29t118.5 57l39 29v-199q-5 -5 -15 -12.5t-43.5 -27.5t-71 -35t-97.5 -27.5t-123 -12.5q-118 0 -214 29.5t-156.5 79t-93 112.5t-32.5 132q0 101 57 184h-127zM98 793v165h586 q84 58 84 162q0 78 -59 125t-164 47q-57 0 -111 -10.5t-91 -25t-66 -29t-43 -25.5l-13 -10v197q5 4 13.5 11t40.5 25t68.5 32t96.5 25t125 11q215 0 336 -96t121 -242q0 -122 -80 -197h133v-165h-977z" />
<glyph unicode="&#x20b5;" horiz-adv-x="1214" d="M76 698q0 210 56.5 372t177.5 269t298 138v225h209v-213q92 -4 165.5 -17t101.5 -24l28 -12v-215q-14 6 -40 15t-113.5 24.5t-182.5 15.5q-118 0 -205 -41.5t-138.5 -119.5t-76 -180.5t-24.5 -232.5q0 -512 444 -512q99 0 183.5 16.5t119.5 33.5l35 16v-215 q-11 -6 -32 -15.5t-98.5 -27t-168.5 -21.5v-241h-209v254q-254 40 -392 220.5t-138 487.5z" />
<glyph unicode="&#x20b8;" horiz-adv-x="1191" d="M74 979v205h1042v-205h-397v-979h-246v979h-399zM74 1300v166h1042v-166h-1042z" />
<glyph unicode="&#x20b9;" horiz-adv-x="1236" d="M106 569v199h351q97 0 167.5 44t96.5 128h-615v156h623q-28 172 -268 172h-355v198h1047v-153h-297q110 -75 131 -217h166v-156h-172q-21 -107 -87 -185.5t-167 -123.5l338 -631h-266l-307 569h-386z" />
<glyph unicode="&#x20ba;" horiz-adv-x="1310" d="M102 338v178l650 346v-178l-234 -123v-346h137q184 0 270.5 84.5t86.5 261.5h245q-2 -273 -150.5 -417t-451.5 -144h-381v430zM102 653v178l172 93v542h244v-411l234 125v-179z" />
<glyph unicode="&#x20bc;" horiz-adv-x="1513" d="M115 0v565q0 299 135.5 473t396.5 205v223h219v-223q262 -31 397.5 -204t135.5 -474v-565h-250v565q0 206 -69.5 319.5t-217.5 139.5v-819h-209v819q-148 -26 -218 -139.5t-70 -319.5v-565h-250z" />
<glyph unicode="&#x20bd;" horiz-adv-x="1245" d="M96 311v166h867v-166h-453v-311h-246v311h-168zM96 582v172h168v712h385q267 0 397 -113.5t130 -318.5q0 -216 -145 -334t-382 -118h-553zM510 782h143q122 0 198.5 64t76.5 186q0 110 -71 169t-206 59h-141v-478z" />
<glyph unicode="&#x2113;" horiz-adv-x="995" d="M66 436v215l153 94v443q0 177 93.5 288t277.5 111q170 0 264 -95.5t94 -252.5q0 -150 -109.5 -278.5t-340.5 -266.5l-39 -24v-316q0 -174 121 -174q46 0 72.5 28.5t35 74.5t8.5 120h230q0 -201 -86.5 -312t-270.5 -111q-342 0 -350 372v178zM459 889l39 24 q192 118 192 320q0 153 -112 153q-56 0 -87.5 -42t-31.5 -125v-330z" />
<glyph unicode="&#x2116;" horiz-adv-x="2260" d="M168 0v1466h221l641 -1040v1040h223v-1466h-223l-641 1040v-1040h-221zM1407 1096q0 181 105 285t280 104t280 -104t105 -285t-105.5 -288.5t-279.5 -107.5q-175 0 -280 106t-105 290zM1454 393v189h674v-189h-674zM1610 1098q0 -121 50.5 -179.5t131.5 -58.5 q80 0 131 57.5t51 180.5q0 119 -51 175t-131 56q-81 0 -131.5 -56t-50.5 -175z" />
<glyph unicode="&#x2117;" horiz-adv-x="1722" d="M94 735q0 244 98 422.5t271.5 270.5t402.5 92q169 0 310 -54.5t241 -154.5t155.5 -247.5t55.5 -328.5q0 -246 -99 -425.5t-270 -270t-393 -90.5q-228 0 -402 93t-272 272t-98 421zM309 733q0 -154 45.5 -272t124 -188.5t177 -106t212.5 -35.5q88 0 167 21.5t148.5 68.5 t120 116t80 171t29.5 227q0 123 -29 223.5t-79.5 170t-120.5 117t-149.5 69.5t-168.5 22q-115 0 -213.5 -35.5t-176.5 -106.5t-122.5 -189.5t-44.5 -272.5zM602 365v731h316q156 0 233.5 -63t77.5 -177q0 -123 -86 -189.5t-225 -66.5h-91v-235h-225zM827 739h74q49 0 80 29 t31 84q0 48 -29 74t-84 26h-72v-213z" />
<glyph unicode="&#x2120;" horiz-adv-x="1669" d="M119 1276q0 100 75.5 155.5t208.5 55.5q115 0 187 -29v-145q-97 35 -184 35q-109 0 -109 -60q0 -30 24.5 -46t77.5 -32q124 -32 176 -83t52 -136q0 -103 -81 -162t-216 -59q-54 0 -104 9.5t-72 18t-29 13.5v141q20 -11 79.5 -25t123.5 -14q121 0 121 68q0 27 -24.5 44 t-90.5 36q-48 14 -83.5 31t-67 41.5t-48 60.5t-16.5 82zM707 788l38 678h209l174 -401l168 401h211l35 -678h-182l-14 402l-156 -356h-146l-151 352l-14 -398h-172z" />
<glyph unicode="&#x2122;" horiz-adv-x="1624" d="M76 1286v180h542v-180h-169v-487h-199v487h-174zM664 799l38 667h211l172 -393l170 393h209l35 -667h-180l-14 395l-156 -350h-145l-152 346l-16 -391h-172z" />
<glyph unicode="&#x212e;" horiz-adv-x="1304" d="M92 496q0 156 66 279.5t195.5 196t303.5 72.5q136 0 244 -39t177.5 -109t106 -163t36.5 -203v-57h-883v-268q0 -61 103 -107.5t251 -46.5q286 0 432 199l58 -37q-73 -118 -209.5 -175.5t-302.5 -57.5q-160 0 -291 61.5t-209 180.5t-78 274zM338 545h637v243q0 81 -85 133 t-233 52q-161 0 -240 -48.5t-79 -127.5v-252z" />
<glyph unicode="&#x2139;" horiz-adv-x="567" d="M66 883v157q59 21 157 21q209 0 209 -207v-854h-244v799q0 45 -23.5 63.5t-74.5 20.5h-24zM156 1386q0 63 36.5 102.5t102.5 39.5q67 0 103 -38.5t36 -100.5q0 -63 -36.5 -103.5t-104.5 -40.5q-64 0 -100.5 40t-36.5 101z" />
<glyph unicode="&#x2153;" horiz-adv-x="2064" d="M53 1171v183l309 127h170v-996h-217v785zM401 0l881 1473h238l-881 -1473h-238zM1313 41v176q12 -7 34 -17t91.5 -27t140.5 -17q90 0 142.5 37.5t52.5 107.5q0 62 -47.5 95.5t-135.5 33.5h-127v156h119q66 0 104.5 33t38.5 90q0 114 -155 114q-64 0 -126 -20t-92 -40 l-30 -20v172q4 3 11 9t33.5 20.5t57 25.5t80 20t103.5 9q163 0 250.5 -70t87.5 -177q0 -78 -37 -134t-103 -86q92 -31 139.5 -91t47.5 -144q0 -146 -110.5 -231.5t-285.5 -85.5q-54 0 -103 6.5t-80.5 15t-55.5 17.5t-34 15z" />
<glyph unicode="&#x2154;" horiz-adv-x="2383" d="M94 408v182l252 217q86 75 132 142t46 138q0 70 -39.5 112t-113.5 42q-41 0 -83 -11.5t-72.5 -27.5t-55 -32.5t-36.5 -27.5l-13 -12v191q4 4 12 11.5t37 26.5t62 33t86.5 26t111.5 12q161 0 250.5 -88t89.5 -228q0 -61 -17.5 -115.5t-53.5 -103.5t-72.5 -86.5 t-92.5 -85.5l-155 -133h452v-182h-727zM674 -63l880 1472h238l-881 -1472h-237zM1634 41v176q12 -7 34 -17t92 -27t141 -17q90 0 142 37.5t52 107.5q0 62 -47 95.5t-135 33.5h-127v156h119q66 0 104.5 33t38.5 90q0 56 -40.5 85t-115.5 29q-64 0 -125.5 -20t-91.5 -40 l-30 -20v172q4 3 11 9t33.5 20.5t56.5 25.5t79.5 20t103.5 9q163 0 250.5 -70t87.5 -177q0 -157 -139 -220q92 -31 139 -91t47 -144q0 -147 -110 -232t-285 -85q-86 0 -157 15t-100 31z" />
<glyph unicode="&#x215b;" horiz-adv-x="2095" d="M53 1171v183l309 127h170v-996h-217v785zM401 0l881 1473h238l-881 -1473h-238zM1300 248q0 167 183 264q-148 97 -148 238q0 107 89 182.5t237 75.5q153 0 236 -70t83 -176q0 -79 -44.5 -140.5t-116.5 -97.5q106 -57 154 -119.5t48 -152.5q0 -121 -102 -200t-264 -79 q-158 0 -256.5 74.5t-98.5 200.5zM1509 254q0 -61 43.5 -96t106.5 -35q66 0 107.5 34.5t41.5 94.5q0 58 -44 101.5t-136 82.5q-119 -66 -119 -182zM1540 748q0 -51 32 -85t101 -67q105 59 105 156q0 46 -31.5 76t-85.5 30t-87.5 -31t-33.5 -79z" />
<glyph unicode="&#x215c;" horiz-adv-x="2252" d="M94 514v176q12 -7 33.5 -17t90 -27t138.5 -17q90 0 142.5 37t52.5 106q0 63 -46.5 97t-135.5 34h-127v154h118q67 0 105.5 34t38.5 91q0 55 -40 83.5t-114 28.5q-40 0 -80 -8t-68.5 -19t-51.5 -22.5t-34 -19.5l-12 -8v172q4 3 11.5 9t33.5 20.5t56 25.5t79.5 20t102.5 9 q164 0 252 -70.5t88 -177.5q0 -155 -141 -219q184 -65 184 -236q0 -146 -109.5 -231.5t-283.5 -85.5q-86 0 -156.5 15.5t-98.5 30.5zM561 0l881 1473h237l-880 -1473h-238zM1458 248q0 167 182 264q-147 96 -147 238q0 107 89 182.5t237 75.5q153 0 236 -70t83 -176 q0 -79 -45 -140.5t-117 -97.5q107 -57 155 -119.5t48 -152.5q0 -121 -102.5 -200t-264.5 -79q-157 0 -255.5 74.5t-98.5 200.5zM1667 254q0 -61 43.5 -96t106.5 -35q66 0 107.5 34.5t41.5 94.5q0 58 -44 101.5t-136 82.5q-119 -66 -119 -182zM1698 748q0 -51 32 -85t101 -67 q104 58 104 156q0 46 -31 76t-85 30t-87.5 -31t-33.5 -79z" />
<glyph unicode="&#x215d;" horiz-adv-x="2258" d="M94 526v179q11 -7 32 -17.5t83.5 -27.5t124.5 -17q93 0 147 40.5t54 109.5q0 145 -240 145q-88 0 -166 -8v536h578v-161h-371v-215q205 6 312.5 -67t107.5 -222q0 -151 -111.5 -242.5t-286.5 -91.5q-50 0 -96 6t-75 14.5t-51.5 17.5t-31.5 15zM569 0l881 1473h238 l-881 -1473h-238zM1464 248q0 167 183 264q-148 97 -148 238q0 107 89 182.5t237 75.5q153 0 236 -70t83 -176q0 -79 -45 -140.5t-117 -97.5q107 -57 155 -119.5t48 -152.5q0 -121 -102 -200t-264 -79q-158 0 -256.5 74.5t-98.5 200.5zM1673 254q0 -61 43.5 -96t106.5 -35 q66 0 107.5 34.5t41.5 94.5q0 110 -180 184q-119 -66 -119 -182zM1704 748q0 -51 32 -85t101 -67q105 59 105 156q0 46 -31.5 76t-85.5 30t-87.5 -31t-33.5 -79z" />
<glyph unicode="&#x215e;" horiz-adv-x="2123" d="M55 1290v176h678v-176l-338 -805h-217l338 805h-461zM428 0l881 1473h237l-880 -1473h-238zM1329 248q0 168 184 264q-147 96 -147 238q0 108 88 183t236 75q153 0 237 -70.5t84 -175.5q0 -79 -45.5 -140.5t-118.5 -97.5q107 -57 155 -119.5t48 -152.5 q0 -121 -102.5 -200t-264.5 -79q-156 0 -255 74.5t-99 200.5zM1538 254q0 -61 44 -96t108 -35q65 0 106 34.5t41 94.5q0 108 -178 184q-121 -67 -121 -182zM1569 748q0 -51 32 -85t101 -67q104 58 104 156q0 46 -31 76t-85 30t-87.5 -31t-33.5 -79z" />
<glyph unicode="&#x2190;" horiz-adv-x="1679" d="M70 600l522 428l82 -29l-152 -331h379l131 204h553l-158 -270l158 -270h-553l-129 203h-381l152 -332l-82 -29zM291 674h133l100 192zM1016 674h338l67 106h-334z" />
<glyph unicode="&#x2191;" horiz-adv-x="956" d="M51 942l426 522l428 -522l-28 -82l-332 152v-379l205 -131v-553l-271 157l-270 -157v553l203 129v381l-332 -152zM551 180l106 -67v333l-106 72v-338zM551 1110l192 -100l-192 233v-133z" />
<glyph unicode="&#x2192;" horiz-adv-x="1679" d="M94 332h553l129 203h381l-151 -332l81 -29l523 426l-523 428l-81 -29l151 -331h-379l-131 204h-553l158 -270zM258 780h334l72 -106h-338zM1155 866l234 -192h-134z" />
<glyph unicode="&#x2193;" horiz-adv-x="956" d="M51 461l426 -522l428 522l-28 82l-332 -152v379l205 131v553l-271 -158l-270 158v-553l203 -129v-381l-332 152zM551 160v133l192 100zM551 885v338l106 67v-334z" />
<glyph unicode="&#x2196;" horiz-adv-x="1400" d="M78 1300l672 -65l38 -80l-342 -127l269 -268l237 53l391 -391l-303 -80l-79 -303l-392 391l52 236l-269 268l-127 -342l-80 39zM287 1196l94 -94l207 65zM799 684l239 -240l123 29l-235 236z" />
<glyph unicode="&#x2197;" horiz-adv-x="1400" d="M57 422l303 -80l80 -303l391 391l-51 236l269 268l127 -342l79 39l68 669l-672 -65l-39 -80l342 -127l-268 -268l-237 53zM240 473l235 236l127 -25l-240 -240zM813 1167l301 29l-94 -94z" />
<glyph unicode="&#x2198;" horiz-adv-x="1394" d="M55 1016l391 -391l236 51l268 -268l-342 -127l39 -80l670 -68l-66 672l-80 39l-127 -342l-268 268l53 238l-391 391l-80 -303zM461 1094l28 123l236 -236l-25 -127zM1118 436l66 207l28 -301z" />
<glyph unicode="&#x2199;" horiz-adv-x="1394" d="M78 133l65 672l80 39l127 -342l268 268l-53 238l391 391l80 -303l303 -80l-391 -391l-235 51l-269 -268l342 -127l-38 -80zM182 342l94 94l-65 207zM670 981l24 -127l240 240l-29 123z" />
<glyph unicode="&#x2202;" horiz-adv-x="1189" d="M86 504q12 251 146 400t350 149q184 0 278 -123q-30 461 -418 461q-79 0 -163 -25l14 193q105 22 213 22q162 0 280.5 -60t189.5 -174t100.5 -274.5t17.5 -367.5q-19 -338 -168.5 -530.5t-405.5 -192.5q-208 0 -327 146t-107 376zM328 516q-10 -164 49.5 -258t169.5 -94 q119 0 197 98t90 281q8 140 -55.5 234.5t-178.5 94.5q-117 0 -190 -99t-82 -257z" />
<glyph unicode="&#x220f;" horiz-adv-x="1548" d="M57 1245v221h1434v-221h-184v-1532h-246v1532h-574v-1532h-245v1532h-185z" />
<glyph unicode="&#x2211;" horiz-adv-x="1036" d="M80 -82l448 686l-448 658v204h874v-204h-606l434 -641l-460 -703h632v-205h-874v205z" />
<glyph unicode="&#x2212;" horiz-adv-x="1069" d="M131 500v186h807v-186h-807z" />
<glyph unicode="&#x221a;" horiz-adv-x="1376" d="M37 1042h248l250 -766l387 1190h413v-194h-250l-444 -1272h-242z" />
<glyph unicode="&#x221e;" horiz-adv-x="1497" d="M96 672q0 146 84.5 244t233.5 98q97 0 173 -40.5t154 -133.5q0 -1 7.5 -9.5t7.5 -9.5q93 99 169 146t165 47q152 0 231.5 -92.5t79.5 -241.5q0 -146 -82.5 -244t-235.5 -98q-150 0 -282 135q-4 2 -17 15.5t-27.5 29.5t-15.5 17q-99 -107 -173 -152t-173 -45 q-134 0 -216.5 89t-82.5 245zM285 678q-1 -73 38 -116.5t97 -43.5q51 0 95 29t116 112q-2 2 -10 11t-9 10q-74 88 -116.5 117.5t-92.5 29.5q-55 0 -85.5 -41t-32.5 -108zM864 690l27 -33q70 -79 112.5 -107t88.5 -28q54 0 87 43t33 113q0 72 -37.5 114t-101.5 42 q-48 -1 -90 -30.5t-119 -113.5z" />
<glyph unicode="&#x222b;" horiz-adv-x="1009" d="M23 -352l22 194q43 -10 115 -10q146 0 164 168l122 1120q9 77 34 140.5t68 116.5t113.5 82.5t161.5 29.5q48 0 89.5 -4t59.5 -8l17 -4l-22 -195q-43 10 -115 10q-146 0 -164 -168l-123 -1120q-9 -77 -34 -140.5t-68 -116.5t-113.5 -82.5t-161.5 -29.5q-48 0 -89.5 4.5 t-58.5 8.5z" />
<glyph unicode="&#x2248;" horiz-adv-x="1073" d="M127 207q-3 23 0.5 60t19.5 83.5t42.5 86.5t76 67.5t113.5 27.5q55 0 101.5 -19.5t72.5 -42.5t60 -42.5t67 -19.5q27 0 46.5 13t28.5 31.5t14.5 37.5t6.5 32v13h174q2 -19 -0.5 -47.5t-10 -66.5t-25.5 -75t-43.5 -68.5t-67.5 -51t-94 -19.5q-43 0 -79.5 13t-62.5 31.5 t-50 36.5t-52.5 31t-58.5 13q-28 0 -48.5 -13t-30 -31t-15.5 -36.5t-6 -31.5l-1 -13h-178zM127 590q-3 23 0.5 60t19.5 83.5t42.5 86.5t76 67.5t113.5 27.5q55 0 101.5 -19.5t72.5 -42.5t60 -42.5t67 -19.5q27 0 46.5 13t28.5 31t14.5 36t6.5 31v13h174q2 -24 -1.5 -59.5 t-18 -83t-39.5 -87t-72.5 -67.5t-109.5 -28q-43 0 -79.5 13t-62.5 31t-50 36.5t-52.5 31.5t-58.5 13q-28 0 -48.5 -13t-30 -31.5t-15.5 -36.5t-6 -31l-1 -13h-178z" />
<glyph unicode="&#x2260;" horiz-adv-x="1046" d="M131 301v188h238l120 203h-358v189h457l96 168h197l-97 -168h131v-189h-231l-119 -203h350v-188h-450l-105 -180h-194l104 180h-139z" />
<glyph unicode="&#x2264;" horiz-adv-x="890" d="M104 0v176h666v-176h-666zM104 557v164l666 334v-207l-430 -209l430 -217v-209z" />
<glyph unicode="&#x2265;" horiz-adv-x="890" d="M119 0v176h665v-176h-665zM121 213v209l428 217l-428 209v207l663 -334v-164z" />
<glyph unicode="&#x24ca;" horiz-adv-x="1722" d="M94 735q0 244 98 422.5t271.5 270.5t402.5 92q169 0 310 -54.5t241 -154.5t155.5 -247.5t55.5 -328.5q0 -246 -99 -425.5t-270 -270t-393 -90.5q-228 0 -402 93t-272 272t-98 421zM309 733q0 -154 45.5 -272t124 -188.5t177 -106t212.5 -35.5q88 0 167 21.5t148.5 68.5 t120 116t80 171t29.5 227q0 123 -29 223.5t-79.5 170t-120.5 117t-149.5 69.5t-168.5 22q-115 0 -213.5 -35.5t-176.5 -106.5t-122.5 -189.5t-44.5 -272.5zM541 659v428h213v-428q0 -151 110 -151q107 0 107 151v428h213v-428q0 -156 -85 -237.5t-235 -81.5 q-151 0 -237 81.5t-86 237.5z" />
<glyph unicode="&#x25b2;" horiz-adv-x="1327" d="M111 51l553 938l553 -938h-1106z" />
<glyph unicode="&#x25b6;" horiz-adv-x="1234" d="M205 -41l938 553l-938 553v-1106z" />
<glyph unicode="&#x25b8;" horiz-adv-x="845" d="M205 -41v1106l528 -553z" />
<glyph unicode="&#x25ba;" horiz-adv-x="1828" d="M205 -41v1106l1552 -553z" />
<glyph unicode="&#x25bc;" horiz-adv-x="1327" d="M111 989l553 -938l553 938h-1106z" />
<glyph unicode="&#x25c0;" horiz-adv-x="1214" d="M72 512l938 553v-1106z" />
<glyph unicode="&#x25c2;" horiz-adv-x="845" d="M113 512l528 -553v1106z" />
<glyph unicode="&#x25c4;" horiz-adv-x="1828" d="M72 512l1552 -553v1106z" />
<glyph unicode="&#x25ca;" horiz-adv-x="1273" d="M43 639l563 827h58l567 -827l-567 -819h-58zM297 649l348 -522l330 504l-348 524z" />
<glyph unicode="&#x25fc;" horiz-adv-x="1044" d="M0 0v1044h1044v-1044h-1044z" />
<glyph unicode="&#x2610;" horiz-adv-x="1822" d="M205 0v1413h1413v-1413h-1413zM352 143h1123v1127h-1123v-1127z" />
<glyph unicode="&#x2611;" horiz-adv-x="1822" d="M205 0v1413h1413v-1413h-1413zM352 143h1123v1127h-1123v-1127zM465 858h166l254 -346l354 594h129l-485 -817z" />
<glyph unicode="&#x261a;" horiz-adv-x="1841" d="M146 658.5q32 -62.5 110 -62.5h113q-8 -46 11.5 -88t65.5 -55q-10 -13 -10 -33q0 -29 16 -53t44 -33q-21 -24 -21 -49q0 -49 33 -78t94 -25l215 17l146 -27l342 80v-92h125v-41h258v717h-258v-41h-125v-97l-144 60l-180 168h-262l-152 -113h-116l-3 -7q-4 -8 -4 -13h-288 q-42 -72 -10 -134.5z" />
<glyph unicode="&#x261b;" horiz-adv-x="1841" d="M154 119v717h258v-41h125v-97l143 60l180 168h262l152 -113h117q6 -18 6 -20h289q42 -72 9.5 -134.5t-110.5 -62.5h-112q8 -45 -12 -87.5t-66 -55.5q10 -13 10 -33q0 -29 -15.5 -53t-43.5 -33q20 -23 20 -49q0 -49 -33 -78t-94 -25l-215 17l-145 -27l-342 80v-92h-125 v-41h-258z" />
<glyph unicode="&#x261c;" horiz-adv-x="1841" d="M146 658q-34 68 12 141h282q0 4 6 22h123l148 111h266l182 -170l133 -55v94h125v41h271v-729h-271v41h-125v90l-335 -78l-146 27l-215 -17q-64 -4 -98.5 25.5t-34.5 81.5q0 28 20 51q-59 18 -59 86q0 17 8 33q-42 13 -62 52.5t-14 84.5h-100q-82 0 -116 68zM210 700 q-1 -17 14 -31t42 -14h189q-18 30 -21 76h-217q-6 -14 -7 -31zM438 557q0 -39 35 -49h297q13 9 15 28.5t-14 36.5t-48 17h-274q-11 -6 -11 -33zM506 420q0 -45 59 -45h193q12 6 12 24q0 47 -57 47h-197q-10 -3 -10 -26zM512 752q-9 -52 18 -84.5t82 -22.5l166 90l140 -12 q30 -194 190 -260v-74q-114 45 -168.5 110.5t-77.5 166.5l-65 6l-45 -25q52 -4 80 -33t28 -77q0 -45 -39 -76q25 -29 25 -66q0 -51 -41 -78q12 -14 12 -41l2 -12l144 -24l335 77v312l-174 69l-170 162h-206l-150 -108h-86zM547 287q0 -24 15.5 -37t41.5 -10l123 8 q10 10 10 26q0 19 -9 28t-34 9h-139q-8 -10 -8 -24zM1376 240h54v475h-54v-475zM1536 229q0 -16 12.5 -28.5t30.5 -12.5t29.5 12.5t11.5 28.5v62q0 18 -11.5 30.5t-29.5 12.5q-20 0 -31.5 -12.5t-11.5 -30.5v-62z" />
<glyph unicode="&#x261d;" horiz-adv-x="1134" d="M158 63h41v125h90l-78 336l27 146l-17 215q-4 64 25.5 98.5t81.5 34.5q26 0 51 -21q9 29 32 44.5t54 15.5q17 0 33 -8q13 42 52.5 61.5t84.5 13.5v101q0 53 32.5 89t79 39.5t97.5 -24.5v-282q1 0 22 -7v-122l111 -148v-266l-170 -182l-55 -134h94v-125h41v-270h-729v270z M233 -92q0 -18 12.5 -29.5t28.5 -11.5h62q18 0 30.5 11.5t12.5 29.5q0 20 -12.5 31.5t-30.5 11.5h-62q-16 0 -28.5 -12.5t-12.5 -30.5zM285 57h475v54h-475v-54zM285 524l77 -336h312l69 174l162 170v207l-108 150v86q-52 9 -84.5 -18.5t-22.5 -82.5l90 -165l-12 -140 q-194 -30 -260 -190h-74q45 114 110.5 168.5t166.5 77.5l6 65l-25 45q-4 -52 -33 -80t-77 -28q-45 0 -76 39q-29 -25 -66 -25q-51 0 -78 41q-14 -12 -40 -12l-13 -2zM285 883l8 -123q10 -10 26 -10q19 0 28 9t9 34v139q-10 8 -24 8q-24 0 -37 -15.5t-10 -41.5zM420 729 q6 -12 24 -12q48 0 48 57v197q-4 10 -27 10q-45 0 -45 -59v-193zM553 717q9 -13 28.5 -15t36.5 14t17 48v274q-6 11 -33 11q-38 0 -49 -35v-297zM700 1032q30 18 76 21v217q-14 6 -31 7t-31 -14t-14 -42v-189z" />
<glyph unicode="&#x261e;" horiz-adv-x="1841" d="M147 113v729h271v-41h125v-94l133 55l182 170h266l148 -111h123q6 -18 6 -22h282q46 -73 12 -141t-116 -68h-100q6 -45 -14 -84.5t-62 -52.5q8 -16 8 -33q0 -68 -59 -86q20 -23 20 -51q0 -52 -34.5 -81.5t-98.5 -25.5l-215 17l-145 -27l-336 78v-90h-125v-41h-271z M221 229q0 -16 11.5 -28.5t29.5 -12.5t30.5 12.5t12.5 28.5v62q0 18 -11.5 30.5t-31.5 12.5q-18 0 -29.5 -12.5t-11.5 -30.5v-62zM412 240h53v475h-53v-475zM543 317l336 -77l143 24q0 10 2 12q0 27 12 41q-41 27 -41 78q0 37 25 66q-39 31 -39 76q0 48 28.5 77t80.5 33 l-46 25l-65 -6q-23 -101 -77.5 -166.5t-168.5 -110.5v74q161 67 191 260l139 12l166 -90q55 -10 82 22.5t18 84.5h-86l-149 108h-207l-170 -162l-174 -69v-312zM1056 536.5q2 -19.5 15 -28.5h297q35 10 35 49q0 12 -2.5 20.5t-4.5 10.5l-3 2h-275q-32 0 -48 -17t-14 -36.5z M1071 399q0 -18 12 -24h193q59 0 59 45q0 10 -2.5 16.5t-4.5 7.5l-3 2h-197q-57 0 -57 -47zM1104 274q0 -16 10 -26l123 -8q26 -3 41.5 10t15.5 37q0 6 -2 12t-4 9l-2 3h-139q-25 0 -34 -9t-9 -28zM1386 655h189q27 0 42 14t14 31t-7 31h-217q-3 -46 -21 -76z" />
<glyph unicode="&#x261f;" horiz-adv-x="1134" d="M158 442v267l170 182l55 133h-94v125h-41v270h729v-270h-41v-125h-90l78 -336l-27 -145l16 -215q4 -64 -25.5 -98.5t-80.5 -34.5q-28 0 -51 20q-18 -59 -86 -59q-17 0 -33 8q-13 -42 -52.5 -62t-84.5 -14v-100q0 -82 -68 -116.5t-141 11.5v283q-5 0 -23 6v123zM229 473 l109 -149v-86q52 -9 84 18t22 82l-90 166l13 139q193 30 260 191h73q-45 -114 -110 -168.5t-166 -77.5l-6 -66l24 -45q4 52 33.5 80.5t77.5 28.5q45 0 76 -39q27 24 65 24q51 0 78 -41q16 13 41 13l12 2l25 143l-78 336h-311l-70 -174l-162 -170v-207zM358 -57q14 -6 31 -7 t31 14t14 42v188q-28 -17 -76 -20v-217zM375 1102h475v53h-475v-53zM500 174q5 -10 32 -10q40 0 50 35v297q-9 13 -28.5 15t-36.5 -14t-17 -48v-275zM643 242q4 -11 27 -11q45 0 45 60v192q-7 13 -25 13q-47 0 -47 -58v-196zM756 1305q0 -20 12.5 -31.5t30.5 -11.5h61 q16 0 28.5 12.5t12.5 30.5t-12.5 29.5t-28.5 11.5h-61q-18 0 -30.5 -11.5t-12.5 -29.5zM778 281q11 -9 25 -9q23 0 36.5 16t10.5 42l-8 123q-10 10 -27 10q-19 0 -28 -9t-9 -34v-139z" />
<glyph unicode="&#x267e;" horiz-adv-x="1722" d="M94 735q0 244 98 422.5t271.5 270.5t402.5 92q169 0 310 -54.5t241 -154.5t155.5 -247.5t55.5 -328.5q0 -246 -99 -425.5t-270 -270t-393 -90.5q-228 0 -402 93t-272 272t-98 421zM309 733q0 -154 45.5 -272t124 -188.5t177 -106t212.5 -35.5q88 0 167 21.5t148.5 68.5 t120 116t80 171t29.5 227q0 123 -29 223.5t-79.5 170t-120.5 117t-149.5 69.5t-168.5 22q-115 0 -213.5 -35.5t-176.5 -106.5t-122.5 -189.5t-44.5 -272.5zM358 711q0 120 65 198t181 78q81 0 141.5 -28.5t114.5 -96.5l8 -12q128 137 260 137q116 0 178 -72.5t62 -187.5 q0 -120 -63 -198t-183 -78q-134 0 -239 114l-25 27q-70 -76 -129.5 -108.5t-138.5 -32.5q-102 0 -167 70t-65 190zM516 719q0 -52 27.5 -81.5t68.5 -29.5q31 0 61.5 21t80.5 80l-9 8q-53 65 -83 87.5t-64 22.5q-37 0 -59.5 -31.5t-22.5 -76.5zM971 729l12 -14 q53 -63 82.5 -84t62.5 -21q38 0 61 31.5t23 79.5t-26.5 78.5t-71.5 29.5q-32 -1 -60.5 -21t-82.5 -79z" />
<glyph unicode="&#x2713;" horiz-adv-x="1312" d="M205 858h166l254 -346l354 594h129l-485 -817z" />
<glyph unicode="&#x27e8;" horiz-adv-x="919" d="M39 629l592 1001h233l-538 -1001l538 -1035h-233z" />
<glyph unicode="&#x27e9;" horiz-adv-x="919" d="M53 -406l539 1035l-539 1001h236l590 -1001l-590 -1035h-236z" />
<glyph unicode="&#x2e28;" horiz-adv-x="1085" d="M90 618q0 139 22.5 273t58.5 237t79.5 196t87 157.5t79.5 112.5t59 71l22 23l145 -107q-315 -420 -315 -963q0 -281 74 -511.5t237 -448.5l-137 -121q-9 8 -23.5 22.5t-57.5 66t-82 110.5t-86.5 154.5t-81.5 198.5t-57.5 242.5t-23.5 286.5zM563 618q0 89 11 177 t25.5 155.5t42.5 143.5t47 121.5t56 111.5t52 90.5t52.5 81t41.5 62.5l151 -95q-241 -419 -241 -848q0 -223 53.5 -417t165.5 -398l-150 -114q-6 10 -39.5 62t-49 78.5t-49 88.5t-52 108t-44 119.5t-39.5 141t-24 154.5t-10 177z" />
<glyph unicode="&#x2e29;" horiz-adv-x="1083" d="M43 1466l152 95q3 -4 41 -62.5t52.5 -81.5t52 -90t56 -111.5t47 -121.5t42.5 -144t25 -155t11 -177q0 -90 -10 -177t-23.5 -154t-39.5 -141t-44.5 -119.5t-52 -108t-49 -88.5t-49.5 -79t-39 -62l-149 114q112 203 165.5 398t53.5 417q0 422 -242 848zM442 1581l146 107 q9 -8 23.5 -23.5t56.5 -69.5t80.5 -114t85.5 -156t81 -197.5t57 -236t23 -273.5q0 -147 -22.5 -286t-59 -243.5t-80 -197t-87.5 -156t-80.5 -109.5t-59.5 -68l-22 -21l-138 121q163 218 237.5 449t74.5 511q0 542 -316 963z" />
<glyph unicode="&#x301a;" horiz-adv-x="1216" d="M160 -406v2036h993v-198h-258v-1639h258v-199h-993zM399 -207h254v1639h-254v-1639z" />
<glyph unicode="&#x301b;" horiz-adv-x="1216" d="M63 -207h259v1639h-259v198h994v-2036h-994v199zM561 -207h256v1639h-256v-1639z" />
<glyph unicode="&#xf50a;" horiz-adv-x="1062" d="M72 39v213q17 -8 48 -19t123.5 -30t180.5 -19q133 0 216 62t83 184q0 104 -70.5 165.5t-199.5 61.5h-181v207h146q105 0 175.5 61t70.5 160q0 93 -66.5 144t-189.5 51q-80 0 -154.5 -14t-108.5 -28l-34 -13v209q13 6 38.5 15t113.5 24.5t186 15.5q222 0 342 -104 t120 -271q0 -110 -55 -196t-133 -130q106 -31 178 -118t72 -226q0 -195 -121 -316.5t-324 -145.5l-6 -60q221 -12 221 -178q0 -117 -117 -178t-292 -39v125q90 -5 144 17t54 65q0 73 -184 67l19 176q-84 4 -157.5 19.5t-105.5 29.5z" />
<glyph unicode="&#xf50b;" horiz-adv-x="923" d="M82 31v188q13 -6 37 -14.5t99 -22.5t151 -14q105 0 164 37.5t59 109.5q0 134 -199 134h-168v174h168q77 0 119.5 32.5t42.5 92.5q0 66 -50 96t-151 30q-63 0 -128.5 -9t-99.5 -18l-34 -9v182q123 39 318 39q186 0 286.5 -72t100.5 -205q0 -75 -41 -133.5t-105 -93.5 q90 -22 140.5 -83t50.5 -157q0 -132 -96.5 -220.5t-266.5 -108.5l-6 -64q219 -12 219 -178q0 -119 -117 -179.5t-292 -37.5v125q90 -5 144 17t54 65q0 73 -182 67l18 183q-69 4 -128 15.5t-83 21.5z" />
<glyph unicode="&#xf50e;" horiz-adv-x="1241" d="M20 0l484 1473h235l482 -1473h-248l-103 322h-516l-102 -322h-232zM328 1677v185h577v-185h-577zM416 530h391l-201 613z" />
<glyph unicode="&#xf50f;" horiz-adv-x="1073" d="M51 281q0 161 116 245t327 92l174 7v34q0 110 -47 160.5t-168 50.5q-72 0 -150.5 -12t-120.5 -24l-43 -11v183q16 6 44.5 15t117.5 24.5t178 15.5q221 0 326.5 -88t105.5 -273v-456q0 -48 26 -67t81 -19h16v-158q-51 -18 -139 -18q-84 0 -130.5 35.5t-66.5 121.5 q-129 -157 -315 -157q-153 0 -242.5 81t-89.5 218zM225 1303v182h572v-182h-572zM295 299q0 -63 39 -98t104 -35q43 0 82.5 10.5t65.5 25.5t45 30t28 26l9 10v201l-121 -4q-135 -6 -193.5 -47t-58.5 -119z" />
<glyph unicode="&#xf510;" horiz-adv-x="1095" d="M168 0v1466h829v-217h-585v-399h485v-213h-485v-420h585v-217h-829zM303 1677v185h578v-185h-578z" />
<glyph unicode="&#xf511;" horiz-adv-x="1064" d="M84 506q0 260 127.5 407.5t349.5 147.5q112 0 196 -37t132.5 -101t72 -142t23.5 -169q0 -44 -2.5 -82t-4.5 -54l-3 -15h-647q10 -149 90.5 -222t234.5 -73q68 0 138.5 13t107.5 25l37 13v-178q-14 -6 -39.5 -15.5t-111 -25.5t-177.5 -16q-254 0 -389 141t-135 383z M262 1303v182h572v-182h-572zM332 621h422q3 127 -47.5 194.5t-147.5 67.5q-200 0 -227 -262z" />
<glyph unicode="&#xf518;" horiz-adv-x="1398" d="M98 733q0 362 154 559t446 197q294 0 448 -195.5t154 -560.5t-156 -560.5t-446 -195.5t-445 195.5t-155 560.5zM354 733q0 -274 83 -408.5t263 -134.5q176 0 260 135.5t84 407.5q0 273 -82 408t-262 135q-178 0 -262 -135.5t-84 -407.5zM412 1677v185h577v-185h-577z" />
<glyph unicode="&#xf519;" horiz-adv-x="1161" d="M84 524q0 251 134.5 394t361.5 143q230 0 363.5 -142.5t133.5 -394.5q0 -253 -134.5 -397.5t-362.5 -144.5q-230 0 -363 144t-133 398zM297 1303v182h571v-182h-571zM334 526q0 -176 62 -271t186 -95q120 0 182.5 95.5t62.5 270.5q0 173 -62 265t-183 92 q-124 0 -186 -91.5t-62 -265.5z" />
<glyph unicode="&#xf51a;" horiz-adv-x="1398" d="M98 733q0 362 154 559t446 197q294 0 448 -195.5t154 -560.5t-156 -560.5t-446 -195.5t-445 195.5t-155 560.5zM354 733q0 -274 83 -408.5t263 -134.5q176 0 260 135.5t84 407.5q0 273 -82 408t-262 135q-178 0 -262 -135.5t-84 -407.5zM362 1903h191q0 -57 34 -98.5 t111 -41.5q78 0 113 41.5t35 98.5h190q0 -134 -94 -212.5t-244 -78.5q-149 0 -242.5 78.5t-93.5 212.5z" />
<glyph unicode="&#xf51b;" horiz-adv-x="1161" d="M84 524q0 251 134.5 394t361.5 143q230 0 363.5 -142.5t133.5 -394.5q0 -253 -134.5 -397.5t-362.5 -144.5q-230 0 -363 144t-133 398zM248 1526h192q0 -40 11 -75.5t43 -63t81 -27.5q50 0 82 27.5t43 62.5t11 76h192q0 -149 -91 -233.5t-237 -84.5q-145 0 -236 84.5 t-91 233.5zM334 526q0 -176 62 -271t186 -95q120 0 182.5 95.5t62.5 270.5q0 173 -62 265t-183 92q-124 0 -186 -91.5t-62 -265.5z" />
<glyph unicode="&#xf522;" horiz-adv-x="1157" d="M80 41v215q16 -8 44 -19t108.5 -30t154.5 -19q186 0 295.5 116.5t124.5 342.5h-541v207h541q-18 196 -123 310t-293 114q-71 0 -144.5 -15t-110.5 -29l-38 -15v213q14 6 41 15.5t112 25.5t173 16q158 0 280.5 -54t200 -151.5t117 -229t39.5 -290.5q0 -192 -47.5 -342 t-134.5 -247t-207.5 -147.5t-268.5 -50.5q-88 0 -168.5 16t-117.5 32zM217 1677v185h578v-185h-578z" />
<glyph unicode="&#xf523;" horiz-adv-x="946" d="M80 31v180q11 -5 31.5 -13t79.5 -21t114 -13q132 0 210 70.5t93 205.5h-379v183h379q-19 124 -94 189t-195 65q-56 0 -113 -9.5t-86 -19.5l-30 -10v180q10 5 29 12t86 19t143 12q249 0 381.5 -146t132.5 -395t-138 -393.5t-382 -144.5q-76 0 -141.5 12t-92.5 24z M156 1305v182h571v-182h-571z" />
<glyph unicode="&#xf524;" horiz-adv-x="1157" d="M80 41v215q16 -8 44 -19t108.5 -30t154.5 -19q186 0 295.5 116.5t124.5 342.5h-541v207h541q-18 196 -123 310t-293 114q-71 0 -144.5 -15t-110.5 -29l-38 -15v213q14 6 41 15.5t112 25.5t173 16q158 0 280.5 -54t200 -151.5t117 -229t39.5 -290.5q0 -192 -47.5 -342 t-134.5 -247t-207.5 -147.5t-268.5 -50.5q-88 0 -168.5 16t-117.5 32zM158 1903h190q0 -56 34.5 -98t111.5 -42q78 0 112.5 41.5t34.5 98.5h190q0 -134 -93.5 -212.5t-243.5 -78.5q-149 0 -242.5 78.5t-93.5 212.5z" />
<glyph unicode="&#xf525;" horiz-adv-x="946" d="M80 31v180q11 -5 31.5 -13t79.5 -21t114 -13q132 0 210 70.5t93 205.5h-379v183h379q-19 124 -94 189t-195 65q-56 0 -113 -9.5t-86 -19.5l-30 -10v180q10 5 29 12t86 19t143 12q249 0 381.5 -146t132.5 -395t-138 -393.5t-382 -144.5q-76 0 -141.5 12t-92.5 24z M113 1534h192q0 -40 11 -75.5t43 -63t81 -27.5q50 0 81.5 27.5t42.5 62.5t11 76h193q0 -149 -91 -233t-237 -84q-145 0 -236 84t-91 233z" />
<glyph unicode="&#xf528;" horiz-adv-x="1222" d="M29 0l360 604q-285 121 -285 410q0 197 136 324.5t389 127.5h426v-1466h-246v549h-191l-325 -549h-264zM354 1010q0 -121 79 -185.5t204 -64.5h172v497h-182q-135 0 -204 -68t-69 -179zM369 1677v185h577v-185h-577z" />
<glyph unicode="&#xf529;" horiz-adv-x="1073" d="M55 0l269 408q-107 35 -168.5 108.5t-61.5 183.5q0 152 104.5 246t299.5 94h434v-1040h-242v369h-133l-240 -369h-262zM268 1303v182h572v-182h-572zM340 705q0 -76 52.5 -120t146.5 -44h151v325h-168q-89 0 -135.5 -44t-46.5 -117z" />
<glyph unicode="&#xf52c;" horiz-adv-x="1886" d="M168 0v1466h244v-608h200q27 299 176 465t408 166q288 0 440 -200.5t152 -555.5q0 -365 -152.5 -560.5t-439.5 -195.5q-268 0 -417.5 171t-168.5 495h-198v-643h-244zM631 1677v185h577v-185h-577zM862 733q0 -268 78.5 -405.5t255.5 -137.5q176 0 256 138.5t80 404.5 q0 543 -336 543q-334 0 -334 -543z" />
<glyph unicode="&#xf52d;" horiz-adv-x="1581" d="M141 0v1040h242v-407h164q28 198 151.5 313t317.5 115q227 0 353 -141.5t126 -395.5q0 -247 -128.5 -394.5t-350.5 -147.5q-205 0 -327 119.5t-142 336.5h-164v-438h-242zM461 1303v182h571v-182h-571zM786 526q0 -175 59.5 -270.5t172.5 -95.5q108 0 167.5 96t59.5 270 q0 172 -59 264.5t-168 92.5q-113 0 -172.5 -92t-59.5 -265z" />
<glyph unicode="&#xf536;" horiz-adv-x="1679" d="M168 0v1466h244v-522h176q250 0 389 -124t139 -331q0 -210 -147.5 -349.5t-380.5 -139.5h-420zM412 209h170q132 0 208 75t76 195q0 118 -71 187t-213 69h-170v-526zM504 1903h190q0 -56 34.5 -98t111.5 -42q78 0 112.5 41.5t34.5 98.5h191q0 -134 -94 -212.5t-244 -78.5 q-149 0 -242.5 78.5t-93.5 212.5zM1266 0v1466h245v-1466h-245z" />
<glyph unicode="&#xf537;" horiz-adv-x="1480" d="M141 0v1040h242v-335h199q188 0 287.5 -93.5t99.5 -244.5q0 -159 -109.5 -263t-304.5 -104h-414zM383 176h135q95 0 149 49.5t54 143.5q0 74 -52 118.5t-151 44.5h-135v-356zM412 1534h192q0 -40 11 -75.5t43 -63t81 -27.5q50 0 81.5 27.5t42.5 62.5t11 76h193 q0 -149 -91 -233t-237 -84q-145 0 -236 84t-91 233zM1098 0v1040h241v-1040h-241z" />
<glyph unicode="&#xf53c;" horiz-adv-x="948" d="M168 0v1466h823v-217h-579v-409h487v-219h-487v-621h-244z" />
<glyph unicode="&#xf53d;" horiz-adv-x="874" d="M141 0v1040h670v-192h-428v-277h377v-165h-377v-406h-242z" />
<glyph unicode="&#xf53e;" horiz-adv-x="1138" d="M96 698q0 177 40 321t118.5 249.5t202.5 163t284 57.5q96 0 173.5 -13.5t107.5 -26.5l29 -13v-215q-12 6 -35 15t-99 24.5t-159 15.5q-107 0 -186 -41.5t-126 -119.5t-69.5 -180.5t-22.5 -232.5q0 -512 402 -512q88 0 162.5 16.5t105.5 33.5l31 16v-215 q-11 -7 -32.5 -16.5t-100 -26.5t-170.5 -18h-2l-7 -74q209 -15 209 -180q0 -117 -118.5 -178.5t-282.5 -39.5v121q88 -3 138 19t50 67q0 74 -178 74l21 203q-233 45 -359.5 224.5t-126.5 481.5z" />
<glyph unicode="&#xf53f;" horiz-adv-x="929" d="M86 520q0 251 134.5 396t375.5 145q71 0 133.5 -11.5t89.5 -23.5l27 -12v-183q-102 46 -219 46q-141 0 -216 -92.5t-75 -260.5q0 -172 72.5 -266t218.5 -94q56 0 110 11t81 21l26 11v-180q-78 -39 -221 -45l-7 -60q222 -12 222 -178q0 -78 -54.5 -133.5t-148 -77 t-207.5 -6.5v125q89 -5 143 17t54 65q0 73 -183 67l21 193q-181 34 -279 169.5t-98 356.5z" />
<glyph unicode="&#xf8ff;" horiz-adv-x="3452" d="M113 483q0 255 115 405t337 150q68 0 122 -9t75 -19l20 -9v-151q-8 4 -24 10.5t-69 17.5t-111 11q-285 0 -285 -402q0 -360 282 -360q61 0 113 11.5t74 23.5l22 12v-151q-8 -5 -23.5 -12.5t-72.5 -20.5t-125 -13q-211 0 -330.5 130t-119.5 376zM891 754q0 128 91 206 t255 78q61 0 117.5 -8.5t83.5 -17.5l26 -8v-150q-117 35 -221 35q-86 0 -132 -33.5t-46 -93.5q0 -58 46 -96.5t142 -77.5q60 -24 103 -49t80.5 -60.5t57 -83.5t19.5 -108q0 -136 -96.5 -223t-286.5 -87q-64 0 -122.5 11.5t-85.5 23.5l-27 11v149q111 -45 240 -45 q102 0 153 39t51 106q0 65 -49.5 105.5t-148.5 81.5q-44 19 -76 36.5t-67 44t-57 55.5t-36 70t-14 89zM1546 868v156h733v-156h-280v-874h-172v874h-281zM2341 -6l47 1030h195l262 -715l258 715h190l47 -1030h-162l-28 786l-254 -717h-125l-252 719l-31 -788h-147z" />
<glyph unicode="&#xfb00;" horiz-adv-x="1335" d="M53 854v186h150v189q0 162 85 260t249 98q45 0 83.5 -4.5t53.5 -8.5l16 -5v-178q-40 8 -106 8q-140 0 -140 -166v-193h398v185q0 164 86.5 263t253.5 99q47 0 87.5 -4.5t56.5 -8.5l17 -5v-178q-42 8 -112 8q-148 0 -148 -172v-187h215v-186h-215v-854h-241v858h-398v-858 h-241v854h-150z" />
<glyph unicode="&#xfb06;" horiz-adv-x="1546" d="M88 754q0 146 111 225.5t303 81.5h18q-71 74 -71 166q0 116 92.5 186t249.5 70h458v-443h230v-186h-230v-524q0 -81 34 -119.5t108 -38.5q20 0 41 2t32 4l11 2v-180q-62 -18 -160 -18q-155 0 -229 86.5t-76 259.5v972h-209q-69 0 -106.5 -36t-37.5 -95q0 -102 117 -145 v-176q-121 29 -254 29q-201 0 -201 -113q0 -50 43.5 -81.5t137.5 -55.5q181 -45 259.5 -120.5t78.5 -197.5q0 -155 -122 -241t-321 -86q-81 0 -155.5 13t-109.5 27l-34 13v182q16 -5 43 -13.5t105 -22t147 -13.5q101 0 157 32t56 91q0 52 -41 82.5t-155 62.5 q-72 20 -124 43.5t-99.5 60t-72 90.5t-24.5 124z" />
<glyph unicode="&#xfeff;" horiz-adv-x="0" />
<glyph horiz-adv-x="1044" d="M27 0l381 1130h231l379 -1130h-230l-75 229h-402l-73 -229h-211zM369 414h286l-145 442z" />
<glyph horiz-adv-x="1452" d="M8 0l529 1126h823v-192h-459v-270h363v-185h-363v-286h459v-193h-688v236h-336l-111 -236h-217zM420 416h252v526h-15z" />
<glyph horiz-adv-x="1452" d="M8 0l529 1126h823v-192h-459v-270h363v-185h-363v-286h459v-193h-688v236h-336l-111 -236h-217zM420 416h252v526h-15zM815 1343l363 168l71 -163l-379 -123z" />
<glyph horiz-adv-x="2254" d="M16 0l482 1473h235l400 -1154l391 1154h235l482 -1473h-248l-105 322h-547l-108 -330h-229l-113 330h-549l-100 -322h-226zM406 530h417l-219 637zM1407 530h416l-205 633z" />
<glyph horiz-adv-x="1861" d="M23 0l380 1130h232l299 -845l293 845h231l379 -1130h-229l-76 229h-422l-78 -233h-225l-82 233h-422l-74 -229h-206zM360 414h308l-162 456zM1169 414h306l-152 454z" />
<glyph horiz-adv-x="2254" d="M16 0l482 1473h235l400 -1154l391 1154h235l482 -1473h-248l-105 322h-547l-108 -330h-229l-113 330h-549l-100 -322h-226zM406 530h417l-219 637zM1407 530h416l-205 633zM1481 1735l446 217l82 -195l-467 -164z" />
<glyph horiz-adv-x="1861" d="M23 0l380 1130h232l299 -845l293 845h231l379 -1130h-229l-76 229h-422l-78 -233h-225l-82 233h-422l-74 -229h-206zM360 414h308l-162 456zM1169 414h306l-152 454zM1198 1343l363 168l71 -163l-379 -125z" />
<glyph horiz-adv-x="2254" d="M16 0l482 1473h235l400 -1154l391 1154h235l482 -1473h-248l-105 322h-547l-108 -330h-229l-113 330h-549l-100 -322h-226zM406 530h417l-219 637zM1305 1778q0 60 38 98.5t101 38.5t101 -38.5t38 -96.5q0 -60 -38.5 -100t-102.5 -40q-62 0 -99.5 39.5t-37.5 98.5z M1407 530h416l-205 633zM1696 1778q0 60 37 98.5t100 38.5t101 -38.5t38 -96.5q0 -60 -38.5 -100t-102.5 -40q-60 0 -97.5 40t-37.5 98z" />
<glyph horiz-adv-x="1861" d="M23 0l380 1130h232l299 -845l293 845h231l379 -1130h-229l-76 229h-422l-78 -233h-225l-82 233h-422l-74 -229h-206zM360 414h308l-162 456zM1063 1372q0 48 31.5 79.5t87.5 31.5t88.5 -31.5t32.5 -77.5q0 -49 -33 -81.5t-88 -32.5q-56 0 -87.5 32t-31.5 80zM1169 414 h306l-152 454zM1382 1372q0 48 31.5 79.5t87.5 31.5t87.5 -31t31.5 -78q0 -50 -31.5 -82t-89.5 -32q-55 0 -86 32t-31 80z" />
<glyph horiz-adv-x="2254" d="M16 0l482 1473h235l400 -1154l391 1154h235l482 -1473h-248l-105 322h-547l-108 -330h-229l-113 330h-549l-100 -322h-226zM406 530h417l-219 637zM1270 1757l84 195l444 -217l-59 -142zM1407 530h416l-205 633z" />
<glyph horiz-adv-x="1861" d="M23 0l380 1130h232l299 -845l293 845h231l379 -1130h-229l-76 229h-422l-78 -233h-225l-82 233h-422l-74 -229h-206zM360 414h308l-162 456zM1051 1348l73 163l361 -168l-53 -118zM1169 414h306l-152 454z" />
<glyph horiz-adv-x="2254" d="M16 0l482 1473h235l400 -1154l391 1154h235l482 -1473h-248l-105 322h-547l-108 -330h-229l-113 330h-549l-100 -322h-226zM406 530h417l-219 637zM1348 1677v185h577v-185h-577zM1407 530h416l-205 633z" />
<glyph horiz-adv-x="1861" d="M23 0l380 1130h232l299 -845l293 845h231l379 -1130h-229l-76 229h-422l-78 -233h-225l-82 233h-422l-74 -229h-206zM360 414h308l-162 456zM1106 1288v154h467v-154h-467zM1169 414h306l-152 454z" />
</font>
</defs>
</svg>
