<?xml version="1.0" standalone="no"?>
<!DOCTYPE svg PUBLIC "-//W3C//DTD SVG 1.1//EN" "http://www.w3.org/Graphics/SVG/1.1/DTD/svg11.dtd" >
<svg xmlns="http://www.w3.org/2000/svg" xmlns:xlink="http://www.w3.org/1999/xlink" version="1.1">
<metadata></metadata>
<defs>
<font id="elektra_text_proitalic" horiz-adv-x="1277" >
<font-face units-per-em="2048" ascent="1638" descent="-410" />
<missing-glyph horiz-adv-x="565" />
<glyph unicode="&#xfb00;" horiz-adv-x="1386" d="M94 0l182 866h-178l37 172h178l15 70q20 93 60 161.5t87.5 107.5t113 62.5t125 30.5t134.5 7q155 0 301 -60q91 60 252 60q142 0 254 -39l-82 -158q-76 27 -187 27q-91 0 -146.5 -41.5t-78.5 -151.5l-16 -76h352l-37 -172h-352l-182 -866h-195l182 866h-444l-182 -866 h-193zM506 1038h444l19 82q18 93 53 152q-100 35 -213 35q-125 0 -194 -41.5t-95 -163.5z" />
<glyph unicode="&#xfb01;" horiz-adv-x="1175" d="M94 0l182 866h-178l37 172h178l15 70q19 89 57 155t85.5 106.5t112.5 65t130.5 33.5t146.5 9q201 0 354 -66l-84 -158q-128 54 -290 54q-54 0 -94 -4.5t-79.5 -17t-66.5 -35t-48 -59.5t-32 -89l-14 -64h639l-219 -1038h-195l182 866h-444l-182 -866h-193z" />
<glyph unicode="&#xfb02;" horiz-adv-x="1185" d="M94 0l182 866h-178l37 172h178l15 70q19 90 56.5 156t84.5 106.5t110.5 65t126.5 33t142 8.5q202 0 377 -66l-242 -1132q-16 -88 -7.5 -134t46.5 -100l-182 -90q-48 64 -61 130.5t9 184.5l213 1010q-89 27 -192 27q-46 0 -80.5 -4.5t-70 -17.5t-61 -35t-46 -59.5 t-31.5 -88.5l-14 -64h323l-36 -172h-324l-182 -866h-193z" />
<glyph unicode="&#xfb03;" horiz-adv-x="1812" d="M94 0l182 866h-178l37 172h178l15 70q19 89 56 156t83 107t107 64.5t119.5 33t129.5 8.5q187 0 342 -68q121 68 332 68q201 0 354 -66l-82 -158q-131 54 -292 54q-53 0 -92.5 -4.5t-79 -17t-66.5 -35t-48 -59.5t-32 -89l-14 -64h637l-219 -1038h-193l182 866h-444 l-182 -866h-195l182 866h-444l-182 -866h-193zM506 1038h444l15 70q19 90 63 160q-95 39 -219 39q-125 0 -194 -41.5t-95 -163.5z" />
<glyph unicode="&#xfb04;" horiz-adv-x="1824" d="M94 0l182 866h-178l37 172h178l15 70q19 89 56 156t83 107t107 64.5t119.5 33t129.5 8.5q189 0 340 -68q115 68 322 68q202 0 377 -66l-242 -1132q-16 -72 -7 -126t48 -108l-184 -90q-48 63 -60 130.5t10 184.5l213 1010q-89 27 -194 27q-118 0 -190.5 -44t-96.5 -161 l-14 -64h321l-36 -172h-322l-182 -866h-195l182 866h-444l-182 -866h-193zM506 1038h444l15 70q24 101 65 162q-109 37 -221 37q-137 0 -201.5 -49.5t-93.5 -186.5z" />
<glyph unicode="Th" horiz-adv-x="2168" d="M170 1249l39 178h1339l-94 -438q56 32 140.5 55t168.5 23q82 0 138.5 -12.5t98 -44t59.5 -85.5t15.5 -136.5t-26.5 -196.5l-125 -592h-194l118 567q21 101 22 164.5t-22 99t-62.5 48t-107.5 12.5q-101 0 -179.5 -32t-88.5 -87l-164 -772h-194l264 1249h-445l-264 -1249 h-211l264 1249h-489z" />
<glyph unicode="ffk" horiz-adv-x="2377" d="M94 0l182 866h-178l37 172h178l15 70q78 367 479 367q219 0 356 -66q115 68 322 68q214 -3 377 -66l-183 -862q132 87 547 489h236q-193 -189 -334.5 -312t-200.5 -159q40 -26 131.5 -172t218.5 -395h-235q-270 501 -363 547l-116 -547h-193l270 1280q-89 27 -194 27 q-57 0 -99 -8t-81.5 -29t-66.5 -63t-40 -105l-14 -64h321l-36 -172h-322l-182 -866h-195l182 866h-444l-182 -866h-193zM506 1038h444l15 70q24 101 65 162q-109 37 -221 37q-135 0 -201 -50t-94 -186z" />
<glyph unicode="fk" horiz-adv-x="1738" d="M94 0l182 866h-178l37 172h178l15 70q19 90 56.5 156t84.5 106.5t110.5 65t126.5 33t142 8.5q207 0 377 -66l-185 -862q131 85 549 489h236q-406 -393 -537 -471q86 -54 352 -567h-237q-274 506 -363 547l-114 -547h-195l270 1280q-89 27 -192 27q-57 0 -99 -8t-82 -29 t-67.5 -63t-40.5 -105l-14 -64h323l-36 -172h-324l-182 -866h-193z" />
<glyph unicode="fj" horiz-adv-x="1175" d="M94 0l182 866h-178l37 172h178l15 70q19 89 57 155t85.5 106.5t112.5 65t130.5 33.5t146.5 9q201 0 354 -66l-84 -158q-128 54 -290 54q-54 0 -94 -4.5t-79.5 -17t-66.5 -35t-48 -59.5t-32 -89l-14 -64h639l-227 -1077q-24 -113 -65 -188t-102 -116t-130 -57t-164 -16 l35 166q101 0 153.5 42.5t77.5 164.5l190 909h-444l-182 -866h-193z" />
<glyph horiz-adv-x="0" />
<glyph horiz-adv-x="682" />
<glyph unicode=" "  horiz-adv-x="565" />
<glyph unicode="&#x09;" horiz-adv-x="565" />
<glyph unicode="&#xa0;" horiz-adv-x="565" />
<glyph unicode="!" horiz-adv-x="679" d="M131 129q17 76 50 99.5t110 23.5q80 0 102.5 -23t5.5 -100q-18 -83 -50.5 -108t-112.5 -25q-77 0 -100 25t-5 108zM254 430l158 997h254l-269 -997h-143z" />
<glyph unicode="&#x22;" horiz-adv-x="690" d="M213 946l80 481h192l-141 -481h-131zM528 946l84 481h187l-142 -481h-129z" />
<glyph unicode="#" horiz-adv-x="1402" d="M35 393l45 156h270l103 362h-277l43 158h277l100 358h182l-98 -358h309l101 358h184l-100 -358h290l-43 -158h-291l-102 -362h297l-43 -156h-295l-106 -393h-185l107 393h-309l-109 -393h-182l106 393h-274zM535 549h311l100 362h-311z" />
<glyph unicode="$" horiz-adv-x="1275" d="M80 59l88 179q53 -20 150 -34t180 -14l94 445q-209 24 -291.5 105.5t-46.5 250.5q40 186 166 284t334 120l63 295h152l-62 -287q228 0 371 -47l-88 -180q-42 21 -135 34t-185 15l-90 -422q209 -30 291.5 -122.5t46.5 -264.5q-40 -187 -166 -282.5t-340 -117.5l-63 -297 h-152l64 291q-241 0 -381 49zM457 1008q-19 -89 18.5 -130.5t157.5 -56.5l84 396q-109 -14 -174 -64t-86 -145zM651 199q111 14 176 63t86 146q20 92 -16.5 139.5t-157.5 66.5z" />
<glyph unicode="%" horiz-adv-x="1865" d="M173 828.5q3 78.5 26 185.5q28 133 67 220t94 137.5t120.5 70.5t156.5 20q74 0 124.5 -12.5t87.5 -42.5t52.5 -81.5t13 -128.5t-25.5 -183q-28 -134 -67.5 -223.5t-95.5 -142.5t-123 -75t-159 -22q-72 0 -122.5 14t-86 46t-50.5 85.5t-12 132zM309 0l1145 1427h193 l-1145 -1427h-193zM357 758.5q23 -64.5 118 -64.5q98 0 147.5 65.5t90.5 252.5q20 98 24 156.5t-10 92.5t-42 45t-79 11q-66 0 -105 -22.5t-70.5 -88.5t-57.5 -194q-39 -189 -16 -253.5zM1052.5 248.5q3.5 78.5 26.5 185.5q28 133 67 220.5t94.5 138t121 70.5t156.5 20 q74 0 124.5 -12.5t87 -43t51 -82t12 -128t-25.5 -183.5q-39 -178 -98 -279.5t-140.5 -142.5t-203.5 -41q-72 0 -122.5 14t-86.5 46t-51.5 85.5t-12 132zM1226.5 238.5q4.5 -70.5 34 -97t93.5 -26.5q97 0 147.5 66t89.5 251q21 98 25.5 157t-9.5 93t-42 45.5t-78 11.5 q-49 0 -81.5 -11.5t-61.5 -45t-50.5 -93.5t-42.5 -157q-29 -123 -24.5 -193.5z" />
<glyph unicode="&#x26;" horiz-adv-x="1591" d="M75 254.5q1 53.5 15 120.5q36 164 149 265t308 110q-73 7 -121 28.5t-71 50t-29.5 74t-1.5 87t18 102.5q38 186 166.5 278t382.5 92q253 0 344.5 -85t52.5 -269q-15 -72 -40.5 -127t-69 -103.5t-113.5 -77.5t-164 -36q75 -8 145.5 -74t155.5 -223q137 163 176 348h205 q-27 -130 -104 -259t-191 -239q47 -86 148 -317h-236q-49 122 -80 182q-160 -115 -286 -163t-304 -48q-79 0 -141.5 6t-114.5 19.5t-89 35.5t-62.5 53.5t-37 73.5t-10.5 95.5zM319 403q-30 -145 22 -202.5t224 -57.5q150 0 251.5 40t232.5 145q-89 176 -171 261t-184 85 q-165 0 -254 -62.5t-121 -208.5zM549 1075q-26 -127 18.5 -181t177.5 -54q137 0 218 55t108 178q25 117 -24.5 165t-192.5 48t-211.5 -47t-93.5 -164z" />
<glyph unicode="'" horiz-adv-x="376" d="M213 946l80 481h192l-141 -481h-131z" />
<glyph unicode="(" horiz-adv-x="571" d="M143 510q181 843 654 1049l61 -150q-72 -28 -138.5 -88.5t-134.5 -163.5t-128.5 -268t-106.5 -379q-45 -214 -55 -379t13.5 -268t65 -163.5t101.5 -88.5l-123 -150q-387 204 -209 1049z" />
<glyph unicode=")" horiz-adv-x="571" d="M-274 -389q71 28 137 88t133.5 163t127.5 268.5t105 379.5q46 213 56 378t-13 268.5t-64.5 164t-101.5 88.5l123 150q388 -206 207 -1049q-178 -841 -649 -1049z" />
<glyph unicode="*" horiz-adv-x="935" d="M174 1020l35 158h268l-86 235l156 78l84 -234l182 234l125 -80l-186 -233h270l-35 -158h-270l86 -234l-156 -77l-84 229l-182 -229l-123 79l182 232h-266z" />
<glyph unicode="+" horiz-adv-x="1232" d="M154 645l39 182h401l86 404h184l-86 -404h404l-39 -182h-404l-84 -401h-184l84 401h-401z" />
<glyph unicode="," horiz-adv-x="552" d="M-137 -326l272 531h244l-342 -531h-174z" />
<glyph unicode="-" horiz-adv-x="593" d="M61 479l39 183h467l-39 -183h-467z" />
<glyph unicode="." horiz-adv-x="552" d="M68 129q17 77 48.5 100t108.5 23q81 0 103.5 -23t5.5 -100q-18 -84 -50.5 -108.5t-113.5 -24.5q-77 0 -98.5 25t-3.5 108z" />
<glyph unicode="/" horiz-adv-x="915" d="M-43 0l1030 1427h215l-1034 -1427h-211z" />
<glyph unicode="0" d="M126.5 428.5q6.5 129.5 43.5 304.5q46 215 107.5 357.5t147 224t185 114.5t236.5 33q109 0 184 -20.5t130 -70t77 -132.5t17 -208.5t-42 -297.5q-47 -218 -109.5 -366t-148 -235t-187 -124t-237.5 -37q-108 0 -183.5 23t-129 76.5t-75.5 141t-15.5 217zM337 330 q7 -67 37 -104t75.5 -52.5t117.5 -15.5q93 0 155 24t114.5 89.5t91 175t76.5 286.5q25 122 37 207.5t9 148t-17 100t-47 59t-74 29t-105 7.5q-61 0 -104.5 -7.5t-85.5 -29t-72 -59t-59.5 -99.5t-54.5 -148.5t-50 -207.5q-30 -141 -40.5 -238.5t-3.5 -164.5z" />
<glyph unicode="1" d="M371 1227l641 256l-314 -1483h-206l253 1204l-350 -145z" />
<glyph unicode="2" d="M10 0l35 166q232 155 371 250.5t254.5 182.5t169.5 135.5t95.5 105t55.5 95.5t27 103q29 135 -31 185.5t-231 50.5q-95 0 -206.5 -15.5t-170.5 -39.5l-8 182q228 61 438 61q108 0 186 -13t136.5 -42t87 -76.5t36.5 -116.5t-14 -161q-16 -76 -37.5 -132.5t-65 -120.5 t-104 -122t-161.5 -135t-230 -162.5t-317 -202.5h723l-37 -178h-1002z" />
<glyph unicode="3" d="M16 27l80 174q142 -45 375 -45q149 0 234 26t126.5 78.5t61.5 149.5q31 145 -28 202.5t-234 57.5h-182l36 174h181q159 0 239.5 52.5t106.5 174.5q16 78 -3 121t-88 64.5t-204 21.5q-95 0 -204.5 -13t-182.5 -34l-6 178q265 53 458 53q292 0 394 -84.5t61 -271.5 q-12 -57 -28.5 -102t-46 -88.5t-69 -74t-99 -51.5t-134.5 -28q97 -4 158 -34.5t85 -80t27 -115.5t-16 -143q-50 -231 -202 -324.5t-453 -93.5q-213 0 -443 56z" />
<glyph unicode="4" horiz-adv-x="1267" d="M35 391l12 60q161 213 399.5 495.5t430.5 480.5h299l-185 -862h197l-37 -174h-197l-82 -391h-202l82 391h-717zM334 565h454l150 699q-141 -139 -312.5 -341t-291.5 -358z" />
<glyph unicode="5" d="M47 27l82 174q136 -45 352 -45q110 0 181.5 12.5t118.5 44.5t71.5 78.5t40.5 122.5q26 104 9.5 166t-81.5 87t-203 25q-203 0 -368 -33l164 768h846l-39 -178h-648l-81 -389q102 10 202 10q291 0 385.5 -101t42.5 -339q-28 -132 -77 -220t-130 -141.5t-187.5 -75.5 t-258.5 -22q-200 0 -422 56z" />
<glyph unicode="6" d="M126 420q8 126 46 303q46 218 113 361.5t166.5 227t221.5 117t294 33.5q192 0 368 -57l-92 -184q-122 51 -317 51q-85 0 -146 -9.5t-120 -36.5t-101.5 -74.5t-78.5 -124t-62 -185.5q156 28 325 28q293 0 389 -101.5t44 -340.5q-54 -258 -194.5 -357.5t-426.5 -99.5 q-123 0 -205 22.5t-137 73.5t-75 139t-12 214zM346 447.5q-5 -89.5 7.5 -146.5t47 -89t79.5 -44t114 -12q125 0 196 26.5t105 79t55 150.5q24 101 11 163t-71 89t-179 28q-215 0 -334 -28q-26 -127 -31 -216.5z" />
<glyph unicode="7" d="M246 0q200 345 438.5 698t413.5 551h-774l38 178h1053l-14 -67q-206 -247 -476.5 -648.5t-441.5 -711.5h-237z" />
<glyph unicode="8" d="M96 389q17 83 44.5 144t74.5 113.5t121 82t174 33.5q-74 7 -124 28t-76 51t-35.5 74t-6.5 88.5t15 102.5q39 186 167 271t396 85q182 0 282 -40t129 -116t3 -200q-15 -74 -37.5 -127t-63.5 -102t-108.5 -78t-161.5 -37q97 -4 158 -34.5t84 -80t26 -115.5t-16 -143 q-49 -229 -191.5 -323.5t-419.5 -94.5q-276 0 -379.5 94.5t-54.5 323.5zM317 403q-30 -144 23 -202t225 -58t250.5 58.5t108.5 201.5q32 147 -24.5 209t-221.5 62q-164 0 -246.5 -61.5t-114.5 -209.5zM489 1075q-26 -125 27.5 -180t198.5 -55q146 0 221.5 54.5t101.5 180.5 q25 118 -25.5 165.5t-203.5 47.5t-224 -47.5t-96 -165.5z" />
<glyph unicode="9" d="M200 844.5q2 60.5 19 140.5q55 261 198.5 369t426.5 108q106 0 180.5 -9t131 -32t88 -59t45.5 -92.5t9 -129.5t-26 -173q-26 -121 -81.5 -238t-123.5 -212t-161.5 -192t-178 -170t-190.5 -155h-271q210 158 364.5 298.5t254.5 281.5q-129 -17 -230 -17q-100 0 -174 9 t-129.5 30.5t-88.5 53.5t-49 80t-14 108.5zM425.5 890.5q-0.5 -42.5 13 -73t49 -46.5t86.5 -23t133 -7q148 0 280 21q37 76 60 178q17 77 21.5 132t-5 93t-27 60.5t-54 34.5t-76 16t-101.5 4q-93 0 -157 -16.5t-105 -54t-64 -86.5t-39 -124q-14 -66 -14.5 -108.5z" />
<glyph unicode=":" horiz-adv-x="552" d="M68 129q17 77 48.5 100t108.5 23q81 0 103.5 -23t5.5 -100q-18 -84 -50.5 -108.5t-113.5 -24.5q-77 0 -98.5 25t-3.5 108zM236 922q17 77 48.5 99.5t108.5 22.5q81 0 103.5 -22.5t5.5 -99.5q-18 -84 -50.5 -109t-113.5 -25q-77 0 -98.5 25.5t-3.5 108.5z" />
<glyph unicode=";" horiz-adv-x="552" d="M-137 -326l272 531h244l-342 -531h-174zM236 922q17 77 48.5 99.5t108.5 22.5q81 0 103.5 -22.5t5.5 -99.5q-18 -84 -50.5 -109t-113.5 -25q-77 0 -98.5 25.5t-3.5 108.5z" />
<glyph unicode="&#x3c;" horiz-adv-x="1232" d="M244 686l20 98l873 588l77 -133l-708 -502l495 -506l-135 -135z" />
<glyph unicode="=" horiz-adv-x="1232" d="M102 397l39 183h989l-38 -183h-990zM205 883l39 182h989l-39 -182h-989z" />
<glyph unicode="&#x3e;" horiz-adv-x="1232" d="M147 231l709 502l-496 504l134 137l626 -590l-20 -98l-873 -588z" />
<glyph unicode="?" horiz-adv-x="980" d="M252 129q17 77 49 100t109 23q81 0 104 -23t6 -100q-18 -83 -51.5 -108t-114.5 -25q-77 0 -98.5 25t-3.5 108zM270 1411q66 21 173.5 36t183.5 15q261 0 354.5 -100.5t52.5 -300.5q-38 -176 -150 -320.5t-329 -318.5h-215q210 170 318 318.5t145 320.5q23 108 -26 159.5 t-202 51.5q-176 0 -294 -45z" />
<glyph unicode="@" horiz-adv-x="1914" d="M98 280.5q3 113.5 35 262.5q37 176 95.5 305t134.5 213.5t179.5 135.5t219 72t264.5 21q97 0 163 -7.5t124 -29.5t89 -60.5t47 -101t10 -151t-32 -209.5q-24 -116 -51 -199t-62.5 -143.5t-74.5 -97t-95.5 -58t-117.5 -29t-147 -7.5q-79 0 -136.5 6.5t-102.5 22.5 t-72 41.5t-40.5 64t-12 90.5t16.5 121q15 74 36 128t51 91.5t64.5 61t83.5 37t100.5 18t123.5 4.5q162 0 279 -23q29 153 -28 207.5t-236 54.5q-112 0 -190.5 -8.5t-149.5 -32.5t-119.5 -64t-91 -105.5t-73 -154.5t-56.5 -214q-26 -122 -32 -209.5t11 -154.5t54.5 -108.5 t107 -67.5t159 -36t218.5 -10q193 0 319.5 28.5t220.5 104.5t150 198t98 318q62 282 43 412h191q12 -147 -45 -418q-50 -235 -132 -392t-209 -250.5t-287.5 -132t-385.5 -38.5q-150 0 -261 14.5t-199.5 49.5t-142 91.5t-81.5 140.5t-25 197.5zM733 551q-26 -117 14.5 -157 t178.5 -40q136 0 197.5 53t93.5 207l22 103q-98 16 -227 16q-60 0 -97 -3.5t-70.5 -13.5t-53 -31t-34 -53t-24.5 -81z" />
<glyph unicode="A" horiz-adv-x="1382" d="M-100 0q391 723 831 1427h338q41 -366 101.5 -755.5t121.5 -671.5h-233q-52 271 -70 397h-661q-97 -177 -213 -397h-215zM424 575h541q-52 355 -82 680h-58q-192 -312 -401 -680z" />
<glyph unicode="B" horiz-adv-x="1433" d="M92 0l303 1427h727q83 0 141.5 -17t90.5 -46q31 -30 44 -74q11 -39 11 -80v-12q-2 -48 -16 -111q-15 -74 -35.5 -124t-59.5 -95.5t-103.5 -71.5t-158.5 -34q78 -4 131.5 -23.5t82.5 -50.5q28 -31 40 -78q9 -37 10 -76q0 -10 -1 -21q-3 -50 -17 -116q-86 -397 -446 -397 h-744zM336 176h506q90 0 142.5 61.5t78.5 178.5q12 55 12 99q-1 52 -17 89q-30 68 -120 68h-498zM477 842h490q152 0 200 209q10 48 10 84q0 41 -13 67q-24 49 -111 49h-490z" />
<glyph unicode="C" horiz-adv-x="1222" d="M170 727q47 218 116 361t172 225.5t228 115.5t301 33q97 0 206.5 -15t186.5 -38l-92 -186q-53 22 -144 35.5t-173 13.5q-91 0 -153 -7t-122.5 -28t-101 -58t-78.5 -98.5t-66.5 -148t-54.5 -207.5t-34 -208q-3 -36 -4 -67q-1 -46 7 -83q12 -63 37.5 -102t75.5 -62 t110.5 -31t149.5 -8q81 0 176.5 13t159.5 34l12 -186q-87 -24 -201 -39t-212 -15q-139 0 -237 23t-168.5 75.5t-102.5 140.5q-32 86 -32 211q0 130 38 306z" />
<glyph unicode="D" horiz-adv-x="1474" d="M92 0l303 1427h492q116 0 202.5 -14t156.5 -46.5t112 -86.5t63 -132q17 -63 17 -145q0 -19 -1 -39q-5 -106 -34 -245q-44 -206 -113 -345.5t-172 -221.5t-231 -117t-303 -35h-492zM336 178h272q133 0 221 22.5t158 83.5t115 164.5t80 268.5q20 87 28 155q7 57 7 105 q-1 9 -1 17q-2 54 -11 93t-32 68t-52 47t-74 28.5t-94.5 14.5t-116.5 4h-273z" />
<glyph unicode="E" horiz-adv-x="1259" d="M92 0l303 1427h1006l-39 -178h-799l-86 -405h567l-36 -176h-568l-104 -490h799l-37 -178h-1006z" />
<glyph unicode="F" horiz-adv-x="1181" d="M92 0l303 1427h987l-39 -178h-780l-100 -477h567l-39 -176h-567l-125 -596h-207z" />
<glyph unicode="G" horiz-adv-x="1411" d="M170 727q37 174 92 300.5t125 210.5t165.5 133.5t203.5 70t250 20.5q97 0 212.5 -15t192.5 -38l-90 -184q-54 22 -155.5 35.5t-186.5 13.5q-92 0 -155.5 -7t-124.5 -28.5t-102.5 -58.5t-80 -99t-67 -148.5t-54.5 -207.5t-34 -209q-3 -36 -3 -69q0 -45 6 -81 q11 -64 36.5 -103.5t75 -62.5t110 -31.5t149.5 -8.5q123 0 242 26l94 441h-342l37 174h553l-166 -776q-86 -25 -225 -39.5t-256 -14.5q-139 0 -237 23t-168.5 75.5t-102.5 140.5q-32 86 -32 211q0 130 38 306z" />
<glyph unicode="H" horiz-adv-x="1484" d="M92 0l303 1427h207l-123 -571h684l123 571h207l-303 -1427h-207l141 666h-684l-141 -666h-207z" />
<glyph unicode="I" horiz-adv-x="593" d="M92 0l303 1427h207l-303 -1427h-207z" />
<glyph unicode="J" horiz-adv-x="923" d="M-76 31l90 188q41 -22 105 -35.5t121 -13.5q212 0 264 242l217 1015h211l-221 -1034q-90 -422 -498 -422q-154 0 -289 60z" />
<glyph unicode="K" horiz-adv-x="1308" d="M92 0l303 1427h207l-303 -1427h-207zM461 754q95 54 305 236t455 437h262q-255 -253 -454.5 -428t-280.5 -227q65 -46 201 -251t278 -521h-264q-148 326 -288.5 525.5t-213.5 228.5z" />
<glyph unicode="L" horiz-adv-x="1122" d="M92 0l303 1427h207l-266 -1245h706l-36 -182h-914z" />
<glyph unicode="M" horiz-adv-x="1826" d="M92 0l303 1427h295q141 -531 221 -993q295 494 645 993h279l-303 -1427h-205l246 1163q-289 -432 -660 -1020h-159q-117 626 -215 1020l-246 -1163h-201z" />
<glyph unicode="N" horiz-adv-x="1540" d="M92 0l303 1427h277q214 -483 428 -1118l237 1118h209l-303 -1427h-254q-187 571 -442 1178l-250 -1178h-205z" />
<glyph unicode="O" horiz-adv-x="1564" d="M132 419q1 128 38 304q37 174 90 300.5t121.5 211t161.5 135t199.5 71.5t246.5 21t238 -21t170 -71.5t104.5 -135t32.5 -211t-37 -300.5q-37 -176 -90.5 -304t-122.5 -214.5t-162 -138t-200.5 -73.5t-247.5 -22q-139 0 -237 22t-169.5 73.5t-103.5 137.5q-32 84 -32 207 v8zM358 368q8 -64 31 -103.5t69.5 -64t106.5 -33.5t148 -9q89 0 153.5 9t121 33.5t97 64t76 103.5t62 148.5t51.5 202.5q26 122 36 208q5 44 4 82q0 35 -4 67q-9 64 -32 102t-71 61t-107.5 31t-149.5 8t-152 -8t-119.5 -31t-96 -61t-74.5 -101.5t-62.5 -149.5t-52.5 -208 q-25 -119 -34 -203q-5 -45 -5 -83q0 -35 4 -65z" />
<glyph unicode="P" horiz-adv-x="1353" d="M90 0l303 1427h690q319 0 319 -305q0 -76 -20 -172q-19 -91 -57.5 -169.5t-97.5 -143t-145 -102t-189 -37.5h-490l-104 -498h-209zM442 676h443q104 0 172 72t96 204q14 68 14 120q-1 60 -19 102q-36 77 -134 77h-451z" />
<glyph unicode="Q" horiz-adv-x="1605" d="M152 421q1 128 38 302t90 300.5t121.5 211t162 135t200 71.5t246.5 21t238 -21t170 -71.5t104.5 -135t32.5 -211t-37 -300.5q-75 -348 -213.5 -513t-370.5 -204q143 -29 346 -399h-254q-80 171 -172 263.5t-168 100.5q-137 1 -234 23t-167 74t-102 138q-31 84 -31 207v8z M376 482q-2 -27 -2 -52q0 -62 11 -108q15 -65 61.5 -100t113.5 -49.5t173 -14.5q89 0 153.5 9t121 33.5t97 64t76 103.5t62 148.5t51.5 202.5q26 122 36 208q5 45 5 85q0 35 -5 64q-8 64 -31 102t-71 61t-107.5 31t-149.5 8t-152.5 -8t-119.5 -31t-96.5 -61t-75 -101.5 t-62.5 -149.5t-53 -208q-30 -142 -36 -237z" />
<glyph unicode="R" horiz-adv-x="1415" d="M92 0l303 1427h690q328 0 328 -280q0 -61 -16 -135q-17 -79 -51 -144.5t-89.5 -120t-141 -86t-193.5 -32.5q68 -26 154 -179.5t202 -449.5h-260q-208 582 -363 582h-233l-123 -582h-207zM459 758h442q101 0 168 62t92 177q11 50 11 91q0 59 -23 98q-38 65 -135 65h-451z " />
<glyph unicode="S" horiz-adv-x="1275" d="M43 33l90 180q62 -22 163.5 -36.5t195.5 -14.5q192 0 297 51.5t133 181.5q7 27 7 51q0 18 -4 36q-9 40 -38.5 70.5t-94.5 52t-165 30.5q-250 21 -345 107q-67 61 -67 174q0 48 12 104q51 234 222.5 338t463.5 104q104 0 214.5 -16.5t187.5 -42.5l-88 -182 q-51 22 -153.5 36.5t-201.5 14.5q-188 0 -288.5 -52t-128.5 -182q-6 -28 -6 -51q0 -31 11 -55q19 -40 88 -68t200 -39q250 -23 344 -122q66 -69 66 -186q0 -51 -13 -111q-51 -232 -222 -333.5t-466 -101.5q-107 0 -221.5 17t-192.5 45z" />
<glyph unicode="T" horiz-adv-x="1204" d="M170 1249l39 178h1188l-39 -178h-488l-264 -1249h-211l264 1249h-489z" />
<glyph unicode="U" horiz-adv-x="1515" d="M146 308q2 68 20 155l205 964h211l-201 -944q-14 -65 -15 -114v-7q0 -45 12 -78q13 -36 37 -60t64.5 -38t90 -20t118.5 -6q102 0 172 13.5t127 49t93 99t57 161.5l200 944h209l-205 -964q-25 -119 -69.5 -205.5t-103 -141.5t-140.5 -87.5t-171.5 -45t-207.5 -12.5 q-83 0 -148.5 6t-124.5 21t-100.5 39.5t-72 62.5t-44.5 89q-13 46 -13 106v13z" />
<glyph unicode="V" horiz-adv-x="1318" d="M186 1427h234q128 -620 178 -1234q295 465 700 1234h218q-387 -725 -834 -1427h-270q-36 361 -97.5 752t-128.5 675z" />
<glyph unicode="W" horiz-adv-x="1925" d="M205 1427h229q67 -543 82 -1183q380 743 563 1183h201q40 -742 40 -1050v-15q0 -63 -1 -118q323 598 584 1183h213q-332 -720 -721 -1427h-267q2 81 2 180q0 347 -22 918q-147 -358 -524 -1098h-265q-47 952 -114 1427z" />
<glyph unicode="X" horiz-adv-x="1353" d="M-92 0q237 237 704 723q-234 433 -391 704h264q28 -51 86.5 -154.5t109.5 -195.5t97 -176q191 198 492 526h252q-313 -340 -654 -698q178 -338 373 -729h-258q-134 268 -281 553q-292 -303 -542 -553h-252z" />
<glyph unicode="Y" horiz-adv-x="1273" d="M156 1427h270q152 -259 303 -585q334 347 539 585h248q-347 -389 -734 -776l-137 -651h-209l137 651q-212 437 -417 776z" />
<glyph unicode="Z" horiz-adv-x="1259" d="M-63 0l12 61q588 599 1112 1188h-811l39 178h1128l-12 -57q-262 -302 -567.5 -630t-546.5 -562h833l-37 -178h-1150z" />
<glyph unicode="[" horiz-adv-x="620" d="M-37 -532l443 2078h481l-37 -170h-279l-368 -1741h278l-37 -167h-481z" />
<glyph unicode="\" horiz-adv-x="915" d="M121 1427h217l424 -1427h-213z" />
<glyph unicode="]" horiz-adv-x="620" d="M-256 -532l37 167h276l369 1741h-279l37 170h482l-443 -2078h-479z" />
<glyph unicode="^" horiz-adv-x="1026" d="M49 606l565 821h193l219 -821h-207l-153 619l-418 -619h-199z" />
<glyph unicode="_" horiz-adv-x="888" d="M-102 -301l36 182h762l-39 -182h-759z" />
<glyph unicode="`" horiz-adv-x="999" d="M399 1427h222l188 -264h-182z" />
<glyph unicode="a" horiz-adv-x="1187" d="M96 285q0 88 29 233q33 159 83.5 265.5t126 169t168.5 88.5t222 26q105 0 225 -22t195 -56l-148 -692q-10 -48 -10 -82q0 -81 62 -149l-170 -105q-31 17 -57 55.5t-31 71.5q-57 -53 -143.5 -84t-186.5 -31q-187 0 -276 70.5t-89 241.5zM303 328q0 -102 52 -142.5 t171 -40.5q103 0 183.5 37.5t93.5 98.5l121 581q-93 37 -236 37q-84 0 -136 -13.5t-95.5 -55.5t-72 -115t-54.5 -195q-27 -135 -27 -192z" />
<glyph unicode="b" horiz-adv-x="1187" d="M57 51l303 1428h193l-104 -488q123 76 292 76q94 0 160.5 -16.5t114.5 -54.5q46 -38 68 -101q20 -58 20 -140v-16q-2 -93 -29 -219q-34 -159 -84 -265.5t-125 -169t-167.5 -88.5t-221.5 -26q-106 0 -226 22t-194 58zM276 178q91 -39 236 -39q84 0 136.5 13.5t96.5 55.5 t72.5 115.5t54.5 196.5q24 114 26 184v10q0 64 -22 104q-24 44 -72 59.5t-130 15.5q-104 0 -181.5 -32.5t-89.5 -88.5z" />
<glyph unicode="c" horiz-adv-x="958" d="M100 336q2 84 25 188q33 156 89.5 263t138 168t176.5 86.5t219 25.5q72 0 157.5 -14t138.5 -35l-88 -172q-96 47 -237 47q-86 0 -141.5 -13t-105.5 -52.5t-84 -114t-60 -193.5q-19 -91 -20 -156v-8q0 -60 14 -100q14 -42 48 -66.5t79.5 -34.5t111.5 -10q122 0 258 52 l15 -170q-62 -25 -153 -40.5t-165 -15.5q-82 0 -146 11.5t-117 37t-87 68.5q-32 44 -50 104q-15 53 -16 123v21z" />
<glyph unicode="d" horiz-adv-x="1187" d="M123 518q33 156 85 263.5t125.5 170t161.5 89t205 26.5q160 0 254 -70l103 482h192l-303 -1428q-90 -36 -218 -58t-234 -22q-103 0 -175 16t-125 54q-52 39 -76 101q-23 61 -23 151q0 95 28 225zM302 328q0 -6 -1 -13q0 -64 24 -102q26 -42 72.5 -56t130.5 -14 q145 0 252 37l127 594q2 9 2 18q1 45 -53 72q-64 33 -168 33q-108 0 -173 -32t-109 -112.5t-76 -230.5q-26 -121 -28 -194z" />
<glyph unicode="e" horiz-adv-x="1124" d="M100 336q2 84 25 188q33 152 86 258t128.5 168.5t166.5 89.5t209 27q97 0 163 -16t113 -55t65 -106q13 -49 13 -117q1 -24 -1 -51q-6 -101 -40 -243h-706q-17 -83 -17 -142t14.5 -97.5t49 -60t79 -30t111.5 -8.5q58 0 149 14t156 35l2 -161q-86 -25 -188.5 -41.5 t-175.5 -16.5q-79 0 -141 11.5t-113 37t-84 68.5q-32 44 -49 104q-15 53 -15 122v22zM358 637h512q11 67 11 113t-10.5 77t-35.5 47.5t-59.5 23.5t-87.5 7q-143 0 -214.5 -57t-115.5 -211z" />
<glyph unicode="f" horiz-adv-x="749" d="M94 0l182 866h-178l37 172h178l19 82q20 92 55 158t75.5 104t97 60t108 28.5t118.5 6.5q123 0 230 -39l-80 -158q-79 27 -188 27q-91 0 -146.5 -40.5t-79.5 -152.5l-16 -76h354l-37 -172h-354l-182 -866h-193z" />
<glyph unicode="g" horiz-adv-x="1187" d="M-25 -356l80 166q56 -24 140.5 -40t150.5 -16q86 0 149.5 13.5t116.5 46.5t88 91.5t54 145.5q-126 -78 -291 -78q-95 0 -161.5 16t-115.5 54t-70 101q-21 60 -21 148v8q1 93 28 220q34 158 85 264t126.5 168.5t168.5 88.5t222 26q105 0 225 -22t195 -56l-193 -911 q-25 -116 -68.5 -202.5t-99 -142t-131.5 -89t-157.5 -47t-184.5 -13.5q-78 0 -179 18t-157 42zM302 335v-8q0 -65 24 -107q25 -43 72.5 -59t129.5 -16q104 0 181.5 33t89.5 90l127 594q-93 37 -236 37q-84 0 -136.5 -13.5t-96.5 -55t-73 -114.5t-56 -196q-24 -114 -26 -185z " />
<glyph unicode="h" horiz-adv-x="1163" d="M45 0l313 1479h195l-104 -490q56 32 140.5 55t168.5 23q82 0 138.5 -12.5t98 -44t59.5 -85.5q15 -47 15 -116q-1 -11 -1 -21q-2 -82 -26 -196l-124 -592h-195l119 567q22 103 22 174.5t-46 109.5t-146 38q-102 0 -181 -31.5t-90 -87.5l-161 -770h-195z" />
<glyph unicode="i" horiz-adv-x="489" d="M47 0l219 1038h193l-219 -1038h-193zM315 1350q13 65 40.5 83.5t97.5 18.5q67 0 87 -18q12 -11 12 -39q0 -19 -5 -45q-17 -72 -44.5 -93.5t-94.5 -21.5q-70 0 -90 22q-11 12 -11 39q0 22 8 54z" />
<glyph unicode="j" horiz-adv-x="489" d="M-229 -416l34 166q101 0 154 42.5t78 164.5l229 1081h193l-228 -1077q-24 -113 -65 -188t-101.5 -116t-129.5 -57t-164 -16zM315 1350q13 65 40.5 83.5t97.5 18.5q68 0 87 -18q12 -12 12 -39q0 -19 -5 -45q-14 -71 -43 -93t-96 -22q-68 0 -88 22q-11 13 -11 41q0 22 6 52 z" />
<glyph unicode="k" horiz-adv-x="1054" d="M47 0l313 1479h193l-197 -930q132 87 547 489h236q-195 -189 -336.5 -312.5t-198.5 -158.5q40 -26 132 -172.5t218 -394.5h-235q-270 501 -363 547l-116 -547h-193z" />
<glyph unicode="l" horiz-adv-x="501" d="M94 86q-4 24 -4 54q0 55 14 130l256 1209h193l-256 -1200q-9 -47 -9 -84q0 -22 3 -42q9 -51 47 -108l-182 -90q-50 64 -62 131z" />
<glyph unicode="m" horiz-adv-x="1781" d="M47 0l207 981q99 38 225 62t234 24q185 0 258 -70q210 70 389 70q92 0 153.5 -14.5t103 -47.5t57.5 -90q13 -47 13 -109q-1 -14 -1 -28q-4 -80 -27 -196l-123 -582h-193l117 557q24 104 26 167v13q0 54 -20 88q-22 38 -64 51t-118 13q-135 0 -252 -35q4 -34 4 -71 q0 -91 -24 -201l-123 -582h-195l117 557q23 105 26 167v15q0 51 -18 85q-21 38 -62.5 51.5t-117.5 13.5q-111 0 -217 -29l-182 -860h-193z" />
<glyph unicode="n" horiz-adv-x="1163" d="M47 0l207 981q98 38 230.5 62t242.5 24q92 0 154.5 -14.5t106.5 -47.5t62 -89q16 -50 17 -119q-1 -9 -1 -19q-2 -82 -26 -196l-122 -582h-193l117 557q18 83 22 139q2 19 2 37q0 33 -6 58q-8 39 -35.5 59.5t-68 29.5t-105.5 9q-119 0 -229 -29l-182 -860h-193z" />
<glyph unicode="o" horiz-adv-x="1202" d="M125 524q34 158 85 263.5t126.5 167t167.5 87t219 25.5q102 0 173.5 -16t123.5 -53q52 -38 76 -100q24 -61 24 -151v-3q0 -92 -28 -220q-34 -159 -85 -266t-126 -170.5t-168 -90t-221 -26.5q-101 0 -173 16.5t-123.5 55.5t-75.5 103q-23 62 -23 153q0 96 28 225zM304 360 q-1 -21 -2 -40q0 -40 6 -70q10 -45 38.5 -69.5t71 -35t108.5 -10.5q82 0 136 16t97.5 60t72 117t53.5 192q21 99 26 165q2 24 2 44q0 37 -6 66q-9 44 -39 67t-71.5 32t-108.5 9q-84 0 -136 -13.5t-96 -56t-72.5 -116t-55.5 -197.5q-20 -95 -24 -160z" />
<glyph unicode="p" horiz-adv-x="1187" d="M-37 -393l293 1382q90 35 219 56.5t234 21.5q103 0 175 -16t123.5 -53.5t74.5 -100.5q23 -60 23 -148v-7q-1 -93 -28 -220q-27 -126 -66 -220t-89 -157t-115.5 -102t-139.5 -55.5t-167 -16.5q-162 0 -252 74l-92 -438h-193zM295 266q-2 -9 -2 -18q0 -45 53 -74 q62 -33 166 -33q82 0 137 16.5t98 60t72 115t53 185.5q17 81 24 139q3 33 3 61q0 21 -2 40q-5 42 -20 68t-44.5 42t-67 21.5t-93.5 5.5q-146 0 -250 -37z" />
<glyph unicode="q" horiz-adv-x="1187" d="M94 300q2 93 29 220q34 158 85 264t126.5 168.5t168.5 88.5t222 26q105 0 225 -22t195 -56l-293 -1382h-193l95 442q-133 -78 -295 -78q-94 0 -161 16.5t-114.5 54.5t-69.5 102q-20 59 -20 144v12zM302 335v-8q0 -65 24 -107q25 -43 72.5 -59t129.5 -16q104 0 181.5 33 t89.5 90l127 594q-93 37 -236 37q-84 0 -136.5 -13.5t-96.5 -55t-73 -114.5t-56 -196q-24 -114 -26 -185z" />
<glyph unicode="r" horiz-adv-x="739" d="M47 0l219 1038h193l-17 -75q43 44 120.5 74t180.5 30q55 0 107 -6l-41 -189q-60 11 -119 11q-112 0 -195 -33t-96 -94l-159 -756h-193z" />
<glyph unicode="s" horiz-adv-x="1017" d="M20 27l82 163q51 -23 141.5 -39t170.5 -16q123 0 182 31.5t80 128.5q4 19 4 36q0 45 -32 69q-44 34 -179 46q-188 16 -264 79q-54 45 -54 131q0 35 9 77q38 184 161 259t336 75q169 0 336 -53l-84 -164q-133 53 -291 53q-123 0 -180.5 -29t-77.5 -124q-3 -15 -3 -29 q1 -43 35 -67q46 -30 175 -42q195 -16 267 -86q51 -49 51 -138q0 -36 -8 -79q-40 -187 -160 -262.5t-334 -75.5q-84 0 -190 15.5t-173 40.5z" />
<glyph unicode="t" horiz-adv-x="827" d="M102 866l37 172h178l43 197l211 80l-59 -277h365l-37 -172h-365l-106 -506q-12 -54 -12 -94q-1 -46 15 -72q28 -50 128 -49q100 0 192 29l2 -160q-124 -43 -264 -43q-73 0 -123 10t-87 34.5t-53 67.5q-16 42 -16 104q0 67 21 161l109 518h-179z" />
<glyph unicode="u" horiz-adv-x="1163" d="M113 262q2 82 26 195l123 581h193l-119 -557q-18 -83 -22 -139q-1 -17 0 -33q0 -35 5 -62q8 -39 35.5 -59.5t67.5 -29t104 -8.5q133 0 232 30l182 858h193l-209 -981q-97 -38 -230 -62t-241 -24q-92 0 -155 14.5t-106.5 48t-61.5 90.5q-17 51 -17 123v15z" />
<glyph unicode="v" horiz-adv-x="1044" d="M141 1038h207q76 -364 109 -848q319 527 473 848h200q-216 -425 -598 -1038h-251q-55 673 -140 1038z" />
<glyph unicode="w" horiz-adv-x="1681" d="M143 1038h211q62 -362 82 -843q99 179 231 440.5t193 402.5h209q38 -289 51 -843q298 516 443 843h204q-267 -550 -573 -1038h-252q0 192 -9 426.5t-22 364.5q-170 -375 -401 -791h-252q-40 613 -115 1038z" />
<glyph unicode="x" horiz-adv-x="1067" d="M-66 0q180 165 521 518q-141 277 -299 520h243q96 -164 199 -362q115 121 324 362h221q-227 -258 -469 -512q132 -252 252 -526h-226q-75 181 -172 373q-194 -200 -370 -373h-224z" />
<glyph unicode="y" horiz-adv-x="1044" d="M45 -393q111 147 240 344q-18 290 -55.5 581t-88.5 506h207q79 -372 109 -854q298 487 473 854h200q-239 -473 -614 -1058q-130 -210 -252 -373h-219z" />
<glyph unicode="z" horiz-adv-x="1015" d="M-47 0l10 53q203 198 423.5 432.5t342.5 380.5h-559l37 172h860l-10 -51q-169 -198 -398.5 -444t-361.5 -371h577l-34 -172h-887z" />
<glyph unicode="{" horiz-adv-x="612" d="M35 430l35 158q49 0 90.5 19t82.5 63t76 127t60 202q27 126 74 225.5t107 165.5t123.5 107t135.5 64l62 -152q-58 -16 -102 -43.5t-85 -78t-73.5 -132t-57.5 -197.5q-20 -95 -48.5 -171.5t-57.5 -124t-61.5 -81.5t-58 -49t-50.5 -22q21 -7 40 -22.5t37 -50t27 -82t5 -125 t-25 -173.5q-24 -116 -26.5 -196.5t17.5 -130.5t52 -77.5t84 -43.5l-125 -150q-50 18 -89.5 46.5t-71.5 75t-48.5 106.5t-16 145t22.5 186q20 96 24 168.5t-6 118.5t-33 74.5t-52.5 39.5t-67.5 11z" />
<glyph unicode="|" horiz-adv-x="698" d="M31 -524l440 2070h207l-440 -2070h-207z" />
<glyph unicode="}" horiz-adv-x="612" d="M-256 -389q57 17 99.5 44t83.5 76.5t73 131t57 196.5q25 118 61.5 207t76 137.5t73 73t64.5 33.5q-21 7 -39.5 22t-36.5 49.5t-26.5 82t-5 125t23.5 172.5q25 116 27.5 197.5t-17.5 131t-51 77t-82 44.5l123 148q50 -18 89 -46.5t71 -75t48 -107t15.5 -145.5t-22.5 -186 q-23 -123 -25 -202.5t22 -126t57.5 -64.5t82.5 -18l-35 -158q-38 0 -72 -11t-69.5 -39.5t-65 -74.5t-57 -118.5t-47.5 -168.5q-27 -125 -73 -224t-105.5 -164t-122.5 -105.5t-134 -63.5z" />
<glyph unicode="~" horiz-adv-x="1232" d="M162 729q76 96 146 143.5t155 47.5q52 0 118.5 -27.5t118 -60t109.5 -60t96 -27.5q47 0 88.5 32.5t89.5 113.5l109 -100q-61 -102 -148.5 -162t-187.5 -60q-48 0 -112 28t-116 61.5t-111.5 61.5t-98.5 28q-84 0 -162 -127z" />
<glyph unicode="&#xa2;" horiz-adv-x="946" d="M182 793q57 269 183 392t327 144l47 215h164l-45 -211q131 -7 234 -47l-86 -162q-66 34 -185 41l-159 -755q108 7 202 45l17 -160q-103 -41 -254 -53l-54 -248h-163l53 250q-194 24 -266.5 150.5t-14.5 398.5zM356.5 593q8.5 -76 43 -113.5t102.5 -51.5l153 721 q-112 -20 -176 -98.5t-104 -262.5q-27 -119 -18.5 -195z" />
<glyph unicode="&#xa3;" horiz-adv-x="1236" d="M113 0l133 629h-131l35 168h131l41 194q52 236 210 352.5t437 116.5q104 0 214 -16.5t187 -42.5l-88 -182q-50 23 -152 38t-202 15q-178 0 -271.5 -65.5t-124.5 -207.5l-43 -202h398l-35 -168h-397l-97 -451h715l-37 -178h-923z" />
<glyph unicode="&#xa5;" horiz-adv-x="1273" d="M104 270l33 158h389l37 176h-389l35 158h311q-204 395 -364 665h270q152 -259 303 -585q334 347 539 585h248q-342 -377 -625 -665h299l-35 -158h-383l-37 -176h383l-33 -158h-383l-57 -270h-209l58 270h-390z" />
<glyph unicode="&#xa8;" horiz-adv-x="890" d="M299 1274q12 61 37 78.5t88 17.5q61 0 77.5 -17.5t4.5 -78.5q-15 -67 -39.5 -87t-85.5 -20q-62 0 -79.5 20t-2.5 87zM711 1274q12 61 37 78.5t88 17.5q61 0 77.5 -17.5t4.5 -78.5q-15 -67 -39.5 -87t-85.5 -20q-62 0 -79.5 20t-2.5 87z" />
<glyph unicode="&#xa9;" horiz-adv-x="1751" d="M154.5 463q4.5 113 35.5 260q37 174 93 300.5t130 211t176 135t220 71.5t272 21q128 0 224 -14.5t174 -48t125.5 -89t72 -137t21 -193.5t-34.5 -257q-47 -219 -122 -365.5t-188 -231.5t-253 -120t-334 -35q-128 0 -224 15t-173 49.5t-124 91t-71 140t-19.5 196.5z M342.5 507.5q-6.5 -90.5 8.5 -157t47 -109t90 -68.5t131.5 -36t177.5 -10q106 0 184.5 10t149 36t121 68.5t93.5 109t74.5 157t57.5 213.5q20 95 29 169t5.5 133.5t-16.5 103t-41 76t-64 52.5t-90 32.5t-113.5 17t-139.5 4.5q-106 0 -181.5 -8.5t-146 -32.5t-119 -65 t-92 -107t-75 -157.5t-58.5 -217.5q-26 -123 -32.5 -213.5zM501.5 564q3.5 70 22.5 161q23 109 57.5 187.5t78.5 131t104.5 83t129.5 43t161 12.5q66 0 142.5 -12t123.5 -29l-76 -156q-74 35 -217 35q-74 0 -119.5 -10.5t-84 -42.5t-62.5 -90.5t-45 -155.5 q-15 -74 -17.5 -125t7 -86t36 -54.5t63.5 -27.5t95 -8q123 0 232 41l12 -152q-59 -20 -139 -33.5t-146 -13.5q-76 0 -132.5 9t-102 30t-73 55.5t-41 86t-10 121.5z" />
<glyph unicode="&#xab;" horiz-adv-x="1294" d="M90 625l672 561l88 -119l-496 -436l310 -447l-138 -121zM596 625l672 561l86 -119l-496 -436l309 -447l-135 -121z" />
<glyph unicode="&#xad;" horiz-adv-x="593" d="M61 479l39 183h467l-39 -183h-467z" />
<glyph unicode="&#xae;" horiz-adv-x="1163" d="M191.5 800.5q3.5 73.5 23.5 168.5q31 143 79 239t120 151t160.5 78t211.5 23q82 0 143.5 -9.5t111 -32t79.5 -59.5t45 -91.5t11.5 -128.5t-23.5 -170q-30 -142 -77.5 -237t-119.5 -152t-162.5 -81t-215.5 -24q-82 0 -143.5 10.5t-110 33.5t-78 61t-44 92.5t-11 128z M340 818q-2 -62 12 -104t48.5 -66t82.5 -34t121 -10q95 0 158 15.5t112.5 57t81 111.5t54.5 181q17 79 22 135.5t-4 97.5t-27.5 66t-54 39.5t-79 20t-107.5 5.5q-94 0 -152.5 -13t-109 -52.5t-82 -110.5t-56.5 -188q-18 -89 -20 -151zM410 702l114 537h320q71 0 96.5 -49.5 t9.5 -128.5q-19 -89 -62.5 -127.5t-111.5 -38.5q73 -39 92 -193h-157q-5 56 -28 112t-48 56h-49l-37 -168h-139zM610 983h129q52 0 66 74q14 67 -37 67h-129z" />
<glyph unicode="&#xb4;" horiz-adv-x="999" d="M342 1163l305 264h219l-340 -264h-184z" />
<glyph unicode="&#xb8;" horiz-adv-x="1327" d="M332 -379l61 98q54 -28 156 -28q59 0 83.5 12t33.5 49q9 41 -35.5 53.5t-173.5 4.5l114 190h86l-20 -90q131 0 176 -33.5t25 -124.5q-21 -95 -89.5 -131.5t-216.5 -36.5q-138 0 -200 37z" />
<glyph unicode="&#xbb;" horiz-adv-x="1294" d="M0 184l496 437l-310 446l138 121l432 -563l-670 -559zM506 184l493 437l-307 446l135 121l435 -563l-670 -559z" />
<glyph unicode="&#xbc;" horiz-adv-x="1679" d="M129 0l1149 1427h197l-1147 -1427h-199zM248 1317l444 170l-192 -901h-172l143 669l-211 -88zM766 215l12 64q229 283 533 591h229l-108 -505h120l-30 -150h-121l-45 -215h-168l45 215h-467zM1004 365h260l79 372q-189 -186 -339 -372z" />
<glyph unicode="&#xbd;" horiz-adv-x="1679" d="M117 0l1149 1427h196l-1147 -1427h-198zM236 1317l444 170l-193 -901h-172l144 669l-211 -88zM846 0q41 138 98.5 225.5t127 133.5t179.5 85q95 32 144 74.5t61 102.5q12 61 -26.5 84.5t-143.5 23.5q-56 0 -125.5 -10t-105.5 -23l4 156q144 37 270 37q190 0 263 -60.5 t44 -199.5q-47 -211 -270 -287q-72 -24 -109 -38.5t-78.5 -37.5t-63.5 -51t-36 -68h457l-31 -147h-659z" />
<glyph unicode="&#xbe;" horiz-adv-x="1679" d="M90 590l55 139q97 -33 228 -33q113 0 159.5 27t63.5 106q15 77 -19.5 102t-148.5 25h-80l29 140h80q102 0 144.5 24t57.5 94q12 63 -20 84t-137 21q-125 0 -230 -31v137q148 37 279 37q180 0 249 -52t46 -165q-22 -100 -72 -151.5t-160 -61.5q116 -6 150.5 -62t11.5 -163 q-30 -138 -131 -196t-287 -58q-135 0 -268 37zM254 0l1147 1427h198l-1146 -1427h-199zM782 215l13 64q227 284 530 591h231l-108 -505h119l-31 -150h-119l-45 -215h-170l45 215h-465zM1018 365h260l80 372q-194 -191 -340 -372z" />
<glyph unicode="&#x2c6;" horiz-adv-x="1372" d="M498 1163l307 264h199l200 -264h-205l-120 166l-187 -166h-194z" />
<glyph unicode="&#x2da;" horiz-adv-x="1476" d="M680 1317q23 105 86.5 150.5t189.5 45.5q118 0 166 -47t25 -149q-21 -101 -89.5 -149t-185.5 -48t-165 48t-27 149zM803 1315q-10 -49 9.5 -73.5t80.5 -24.5q63 0 93 24.5t40 73.5q11 50 -9 73t-83 23q-62 0 -91 -23t-40 -73z" />
<glyph unicode="&#x2dc;" horiz-adv-x="1478" d="M455 1251q66 83 125.5 124.5t128.5 41.5q43 0 80.5 -19t60 -41.5t53 -41.5t62.5 -19q39 0 70.5 28t72.5 99l90 -84q-111 -188 -270 -188q-32 0 -61 12.5t-52 30.5t-44.5 36.5t-47.5 31t-53 12.5q-67 0 -140 -115z" />
<glyph unicode="&#x401;" horiz-adv-x="1259" d="M92 0l303 1427h1006l-39 -178h-799l-86 -405h567l-36 -176h-568l-104 -490h799l-37 -178h-1006zM623 1655q13 61 37.5 78.5t87.5 17.5q61 0 77.5 -17.5t3.5 -78.5q-13 -67 -38 -87t-86 -20q-62 0 -78.5 20t-3.5 87zM1034 1655q13 61 37.5 78.5t87.5 17.5q61 0 78 -17.5 t4 -78.5q-13 -67 -38.5 -87t-86.5 -20q-62 0 -78.5 20t-3.5 87z" />
<glyph unicode="&#x402;" horiz-adv-x="1515" d="M170 1249l39 178h1188l-39 -178h-488l-63 -301q56 32 140.5 55t168.5 23q86 0 142.5 -14t99.5 -51.5t58.5 -104t9.5 -170.5t-37 -252q-134 -629 -519 -794l-94 139q43 18 73.5 35.5t71 49.5t73 78t67 111.5t64.5 161t55 215.5q24 111 31.5 184t2 121t-31 72.5t-60 33.5 t-92.5 9q-98 0 -176 -31t-92 -84l-156 -735h-211l264 1249h-489z" />
<glyph unicode="&#x403;" horiz-adv-x="1122" d="M92 0l303 1427h924l-39 -178h-717l-264 -1249h-207zM700 1530l328 264h234l-381 -264h-181z" />
<glyph unicode="&#x404;" horiz-adv-x="1255" d="M133 425q0 128 37 302q31 145 73 257t97 193t119.5 136t148.5 88t175.5 47t207.5 14q98 0 210.5 -15.5t189.5 -39.5l-95 -184q-52 22 -145 35.5t-176 13.5q-98 0 -164.5 -9t-130 -34.5t-107 -73t-81 -123.5t-68.5 -188h657l-37 -174h-659q-20 -107 -24 -186t10 -136 t41 -92.5t76 -56.5t108 -29t143 -8q80 0 179.5 14t162.5 35l15 -186q-89 -23 -206.5 -38.5t-213.5 -15.5q-138 0 -236 23t-169.5 75.5t-104.5 140t-33 215.5z" />
<glyph unicode="&#x405;" horiz-adv-x="1275" d="M43 33l90 180q62 -22 163.5 -36.5t195.5 -14.5q192 0 297 51.5t133 181.5q12 47 3 87t-38.5 70.5t-94.5 52t-165 30.5q-250 21 -345 107t-55 278q51 234 222.5 338t463.5 104q104 0 214.5 -16.5t187.5 -42.5l-88 -182q-51 22 -153.5 36.5t-201.5 14.5q-188 0 -288.5 -52 t-128.5 -182q-14 -66 5 -106.5t88 -68t200 -38.5q249 -23 343.5 -122t53.5 -297q-51 -232 -222 -333.5t-466 -101.5q-107 0 -221.5 17t-192.5 45z" />
<glyph unicode="&#x406;" horiz-adv-x="593" d="M92 0l303 1427h207l-303 -1427h-207z" />
<glyph unicode="&#x407;" horiz-adv-x="593" d="M92 0l303 1427h207l-303 -1427h-207zM236 1655q13 61 37.5 78.5t86.5 17.5q61 0 78 -17.5t4 -78.5q-13 -67 -38.5 -87t-86.5 -20q-62 0 -78 20t-3 87zM647 1655q13 61 37.5 78.5t87.5 17.5q61 0 78 -17.5t4 -78.5q-13 -67 -38.5 -87t-86.5 -20q-62 0 -78.5 20t-3.5 87z " />
<glyph unicode="&#x408;" horiz-adv-x="923" d="M-76 31l90 188q41 -22 105 -35.5t121 -13.5q212 0 264 242l217 1015h211l-221 -1034q-90 -422 -498 -422q-154 0 -289 60z" />
<glyph unicode="&#x409;" horiz-adv-x="2140" d="M-29 0q201 375 351 723t241 704h860l-118 -557h458q106 0 175 -33t97.5 -91.5t33 -139.5t-18.5 -176q-45 -209 -159.5 -319.5t-295.5 -110.5h-682l265 1243h-461q-83 -290 -221.5 -621t-300.5 -622h-224zM1157 176h436q179 0 232 256q27 126 -4 197t-123 71h-430z" />
<glyph unicode="&#x40a;" horiz-adv-x="2148" d="M92 0l303 1427h207l-121 -561h623l121 561h207l-121 -561h458q85 0 146.5 -21.5t96.5 -59t50.5 -93.5t14 -120.5t-18.5 -143.5q-45 -209 -159 -318.5t-295 -109.5h-682l147 694h-623l-147 -694h-207zM1165 176h437q95 0 150 64.5t81 189.5q27 126 -4 195t-123 69h-430z " />
<glyph unicode="&#x40b;" horiz-adv-x="1529" d="M170 1249l39 178h1188l-39 -178h-488l-63 -301q56 32 140.5 55t168.5 23q82 0 138.5 -12.5t98 -44t59 -85.5t15.5 -136.5t-26 -196.5l-117 -551h-194l110 526q21 101 22 164.5t-22 99t-62.5 48t-107.5 12.5q-98 0 -176 -31t-92 -84l-156 -735h-211l264 1249h-489z" />
<glyph unicode="&#x40c;" horiz-adv-x="1310" d="M92 0l303 1427h207l-147 -690q125 89 339 278.5t427 411.5h262q-258 -257 -447.5 -425t-267.5 -218q33 -10 56 -19.5t52.5 -25.5t51.5 -36.5t48.5 -52t48 -72t46 -96.5t46 -125.5t45 -159.5t46.5 -197h-247q-28 143 -57.5 246.5t-65 179t-73 123.5t-89 78t-105 43.5 t-127.5 19.5l-145 -690h-207zM780 1530l328 264h233l-380 -264h-181z" />
<glyph unicode="&#x40e;" horiz-adv-x="1110" d="M145 -2q154 157 308 354q-7 39 -7 41q-28 204 -108.5 518.5t-157.5 515.5h244q149 -439 211 -847q389 549 555 847h229q-215 -354 -496 -749t-517 -678q-173 0 -261 -2zM616 1784h142q-17 -76 12.5 -103.5t108.5 -27.5q42 0 69 8q88 18 109 123h135q-30 -138 -116 -204.5 t-230 -66.5q-290 0 -230 271z" />
<glyph unicode="&#x40f;" horiz-adv-x="1484" d="M94 0l303 1427h209l-266 -1245h684l266 1245h207l-303 -1427h-432l-125 -381h-143l38 381h-438z" />
<glyph unicode="&#x410;" horiz-adv-x="1382" d="M-100 0q391 723 831 1427h338q41 -366 101.5 -755.5t121.5 -671.5h-233q-52 271 -70 397h-661q-97 -177 -213 -397h-215zM424 575h541q-52 355 -82 680h-58q-192 -312 -401 -680z" />
<glyph unicode="&#x411;" horiz-adv-x="1433" d="M92 0l303 1427h969l-39 -178h-762l-86 -407h520q139 0 214 -52.5t87.5 -147.5t-14.5 -228q-87 -414 -448 -414h-744zM336 176h506q90 0 142.5 61.5t78.5 178.5q26 120 -4.5 188t-120.5 68h-498z" />
<glyph unicode="&#x412;" horiz-adv-x="1433" d="M92 0l303 1427h727q83 0 141.5 -17t90 -46t44.5 -73.5t11 -93t-16 -110.5q-15 -74 -35.5 -124t-59.5 -95.5t-103.5 -71.5t-158.5 -34q78 -4 131.5 -23.5t82.5 -50.5t40.5 -78t8.5 -97t-17 -116q-86 -397 -446 -397h-744zM336 176h506q90 0 142.5 61.5t78.5 178.5 q26 120 -4.5 188t-120.5 68h-498zM477 842h490q152 0 200 209q21 102 -3 151t-111 49h-490z" />
<glyph unicode="&#x413;" horiz-adv-x="1103" d="M92 0l303 1427h924l-39 -178h-717l-264 -1249h-207z" />
<glyph unicode="&#x414;" horiz-adv-x="1603" d="M-121 -315l60 497h217q302 494 495 1245h893l-266 -1245h260l-147 -497h-181l68 315h-1151l-68 -315h-180zM389 182h684l227 1067h-495q-180 -642 -416 -1067z" />
<glyph unicode="&#x415;" horiz-adv-x="1259" d="M92 0l303 1427h1006l-39 -178h-799l-86 -405h567l-36 -176h-568l-104 -490h799l-37 -178h-1006z" />
<glyph unicode="&#x416;" horiz-adv-x="1849" d="M-102 0q113 191 206 327t159 215.5t131 130.5t109 71.5t107 39.5q-51 51 -154 219.5t-229 423.5h248q99 -215 210 -399t189 -280l146 679h209l-146 -679q117 92 308 277t385 402h247q-238 -257 -412 -425t-245 -218q55 -19 90 -39.5t78.5 -71.5t75.5 -130.5t68 -215.5 t69 -327h-236q-26 169 -56 285.5t-64.5 194t-83.5 122t-103.5 64.5t-132.5 26l-145 -692h-209l145 692q-81 -7 -143 -27t-129.5 -64.5t-134.5 -121.5t-146 -193.5t-176 -285.5h-235z" />
<glyph unicode="&#x417;" horiz-adv-x="1308" d="M16 27l82 178q68 -23 180.5 -36t213.5 -13q150 0 239 25.5t136 79.5t67 149q30 145 -30.5 202.5t-235.5 57.5h-219l36 174h217q165 0 240 51t102 176q16 79 -3.5 121.5t-92.5 64t-219 21.5q-97 0 -212.5 -13t-186.5 -34l-6 178q261 53 471 53q300 0 408 -84.5t67 -271.5 q-12 -58 -27.5 -102.5t-44 -88.5t-67 -74t-97 -51t-133.5 -28q97 -4 158 -34.5t85 -80t27 -115.5t-16 -143q-50 -229 -211 -323.5t-465 -94.5q-106 0 -237.5 16.5t-225.5 39.5z" />
<glyph unicode="&#x418;" horiz-adv-x="1540" d="M92 0l303 1427h205l-250 -1173q495 580 944 1173h252l-303 -1427h-205l238 1122q-489 -642 -907 -1122h-277z" />
<glyph unicode="&#x419;" horiz-adv-x="1540" d="M92 0l303 1427h205l-250 -1173q495 580 944 1173h252l-303 -1427h-205l238 1122q-489 -642 -907 -1122h-277zM762 1784h143q-16 -76 12.5 -102.5t108.5 -26.5q78 0 120 27t58 102h135q-30 -138 -116 -204.5t-230 -66.5q-291 0 -231 271z" />
<glyph unicode="&#x41a;" horiz-adv-x="1310" d="M92 0l303 1427h207l-147 -690q125 89 339 278.5t427 411.5h262q-258 -257 -447.5 -425t-267.5 -218q33 -10 56 -19.5t52.5 -25.5t51.5 -36.5t48.5 -52t48 -72t46 -96.5t46 -125.5t45 -159.5t46.5 -197h-247q-28 143 -57.5 246.5t-65 179t-73 123.5t-89 78t-105 43.5 t-127.5 19.5l-145 -690h-207z" />
<glyph unicode="&#x41b;" horiz-adv-x="1476" d="M-29 0q201 375 351 723t241 704h922l-303 -1427h-207l264 1249h-522q-80 -288 -219.5 -622t-302.5 -627h-224z" />
<glyph unicode="&#x41c;" horiz-adv-x="1826" d="M92 0l303 1427h295q141 -531 221 -993q295 494 645 993h279l-303 -1427h-205l246 1163q-289 -432 -660 -1020h-159q-117 626 -215 1020l-246 -1163h-201z" />
<glyph unicode="&#x41d;" horiz-adv-x="1484" d="M92 0l303 1427h207l-123 -571h684l123 571h207l-303 -1427h-207l141 666h-684l-141 -666h-207z" />
<glyph unicode="&#x41e;" horiz-adv-x="1564" d="M132 419q1 128 38 304q37 174 90 300.5t121.5 211t161.5 135t199.5 71.5t246.5 21t238 -21t170 -71.5t104.5 -135t32.5 -211t-37 -300.5q-37 -176 -90.5 -304t-122.5 -214.5t-162 -138t-200.5 -73.5t-247.5 -22q-139 0 -237 22t-169.5 73.5t-104 138t-31.5 214.5z M358 368q8 -64 31 -103.5t69.5 -64t106.5 -33.5t148 -9q89 0 153.5 9t121 33.5t97 64t76 103.5t62 148.5t51.5 202.5q26 122 35.5 208t0.5 149.5t-32 101.5t-71 61t-107.5 31t-149.5 8t-152 -8t-119.5 -31t-96 -61t-74.5 -101.5t-62.5 -149.5t-52.5 -208 q-25 -118 -34 -202.5t-1 -148.5z" />
<glyph unicode="&#x41f;" horiz-adv-x="1484" d="M92 0l303 1427h1098l-303 -1427h-207l264 1249h-684l-264 -1249h-207z" />
<glyph unicode="&#x420;" horiz-adv-x="1353" d="M90 0l303 1427h690q399 0 299 -477q-19 -91 -57.5 -169.5t-97.5 -143t-145 -102t-189 -37.5h-490l-104 -498h-209zM442 676h443q104 0 172 72t96 204q31 145 -4.5 222t-134.5 77h-451z" />
<glyph unicode="&#x421;" horiz-adv-x="1222" d="M132.5 425q0.5 128 37.5 302q47 218 116 361t172 225.5t228 115.5t301 33q97 0 206.5 -15t186.5 -38l-92 -186q-53 22 -144 35.5t-173 13.5q-91 0 -153 -7t-122.5 -28t-101 -58t-78.5 -98.5t-66.5 -148t-54.5 -207.5t-34 -208t3.5 -150t37 -102t75.5 -62t110.5 -31 t149.5 -8q81 0 176.5 13t159.5 34l12 -186q-87 -24 -201 -39t-212 -15q-139 0 -237 23t-168.5 75.5t-102.5 140t-31.5 215.5z" />
<glyph unicode="&#x422;" horiz-adv-x="1204" d="M170 1249l39 178h1188l-39 -178h-488l-264 -1249h-211l264 1249h-489z" />
<glyph unicode="&#x423;" horiz-adv-x="1198" d="M150 0q165 172 305 354q-23 201 -107.5 531.5t-167.5 541.5h244q63 -181 121.5 -411.5t89.5 -435.5q396 557 555 847h229q-215 -354 -496 -749t-517 -678h-256z" />
<glyph unicode="&#x424;" horiz-adv-x="1576" d="M116 436q-26 112 11 281q28 132 74 222t126 156.5t201.5 99.5t296.5 40l41 192h209l-41 -192q232 -9 352 -67t148.5 -170t-8.5 -281q-38 -177 -112 -284t-220 -167t-381 -69l-41 -197h-209l41 197q-227 9 -344.5 68t-143.5 171zM318 524.5q11 -74.5 86 -111.5t237 -44 l147 692q-101 -4 -171 -18.5t-118 -38.5t-79.5 -67.5t-50 -93.5t-35.5 -128q-27 -116 -16 -190.5zM850 369q103 4 176 19t122 39.5t82 68t51.5 93.5t35.5 126q28 120 15.5 195.5t-90 111t-245.5 39.5z" />
<glyph unicode="&#x425;" horiz-adv-x="1353" d="M-92 0q237 237 704 723q-234 433 -391 704h264q28 -51 86.5 -154.5t109.5 -195.5t97 -176q191 198 492 526h252q-313 -340 -654 -698q178 -338 373 -729h-258q-134 268 -281 553q-292 -303 -542 -553h-252z" />
<glyph unicode="&#x426;" horiz-adv-x="1550" d="M92 0l303 1427h207l-266 -1245h684l266 1245h207l-266 -1245h258l-146 -497h-182l68 315h-1133z" />
<glyph unicode="&#x427;" horiz-adv-x="1298" d="M91 738q2 70 20 157l114 532h209l-108 -509q-14 -67 -16.5 -116.5t9 -85.5t32.5 -58.5t58.5 -36t82 -18.5t108.5 -5q139 0 238 37t112 102l148 690h207l-304 -1427h-206l100 479q-52 -31 -155 -53.5t-212 -22.5q-71 0 -127 5.5t-108 20t-88.5 38.5t-64.5 61.5t-39.5 88.5 t-9.5 121z" />
<glyph unicode="&#x428;" horiz-adv-x="1925" d="M92 0l303 1427h207l-266 -1245h457l266 1245h209l-267 -1245h457l266 1245h207l-303 -1427h-1536z" />
<glyph unicode="&#x429;" horiz-adv-x="1988" d="M92 0l303 1427h207l-266 -1245h457l266 1245h209l-267 -1245h457l266 1245h207l-266 -1245h258l-147 -497h-181l68 315h-1571z" />
<glyph unicode="&#x42a;" horiz-adv-x="1433" d="M143 0l265 1249h-213l38 178h422l-118 -555h518q107 0 176 -33.5t97 -92.5t32 -140t-19 -176q-43 -203 -156.5 -316.5t-295.5 -113.5h-746zM389 174h498q93 0 148 66t81 192q27 127 -3.5 196.5t-123.5 69.5h-489z" />
<glyph unicode="&#x42b;" horiz-adv-x="1847" d="M90 0l303 1427h209l-119 -555h518q86 0 147 -22t96 -60t50 -95t13 -121.5t-19 -143.5q-45 -209 -159 -319.5t-293 -110.5h-746zM336 174h498q93 0 148 66t81 192q27 127 -3.5 196.5t-123.5 69.5h-490zM1341 0l304 1427h208l-303 -1427h-209z" />
<glyph unicode="&#x42c;" horiz-adv-x="1380" d="M90 0l303 1427h209l-119 -555h518q86 0 147 -22t96 -60t50 -95t13 -121.5t-19 -143.5q-45 -209 -159 -319.5t-293 -110.5h-746zM336 174h498q93 0 148 66t81 192q27 127 -3.5 196.5t-123.5 69.5h-490z" />
<glyph unicode="&#x42d;" horiz-adv-x="1255" d="M-39 25l92 186q54 -21 148 -35t174 -14q102 0 173 12t136 43.5t110.5 89t83.5 146.5t68 217h-659l37 174h657q12 80 13 141t-8 106.5t-32 77.5t-52.5 52t-76 31.5t-96 15.5t-119.5 4q-82 0 -180.5 -13.5t-161.5 -35.5l-12 184q87 24 204.5 39.5t215.5 15.5 q139 0 237 -20.5t170.5 -70t106 -133.5t33.5 -210.5t-37 -300.5q-46 -217 -117.5 -363.5t-175.5 -233t-232 -123t-301 -36.5q-96 0 -208 15.5t-191 38.5z" />
<glyph unicode="&#x42e;" horiz-adv-x="1933" d="M92 0l303 1427h207l-123 -571h357q47 176 110 295t146.5 186.5t179 96t221.5 28.5q109 0 185 -20.5t132 -70t80 -132t19.5 -208.5t-41.5 -298q-46 -218 -110 -366t-151 -235t-190 -124t-239 -37q-103 0 -178 21t-130 70.5t-81 129t-25 198t31 276.5h-355l-141 -666h-207z M979.5 330q7.5 -66 38.5 -103.5t77.5 -53t118.5 -15.5q123 0 198.5 47t133 170.5t107.5 357.5q30 145 39.5 241.5t2 159t-40.5 95t-78.5 44t-121.5 11.5q-62 0 -105.5 -7.5t-86.5 -29t-73.5 -59.5t-61 -99.5t-55.5 -148t-50 -207.5q-30 -141 -40 -239t-2.5 -164z" />
<glyph unicode="&#x42f;" horiz-adv-x="1415" d="M-41 0q115 195 196.5 314t150.5 187t122 94.5t125 39.5q-87 1 -150.5 21.5t-99.5 55t-55.5 82t-18 102.5t12.5 116q19 89 54 160.5t91.5 130.5t144 91.5t199.5 32.5h690l-303 -1427h-209l123 582h-248q-58 0 -103 -11.5t-99.5 -46.5t-108.5 -98.5t-122 -169t-148 -256.5 h-244zM469 997q-25 -114 16.5 -176.5t143.5 -62.5h440l105 493h-449q-97 0 -163.5 -65t-92.5 -189z" />
<glyph unicode="&#x430;" horiz-adv-x="1187" d="M96 285q0 88 29 233q33 159 83.5 265.5t126 169t168.5 88.5t222 26q105 0 225 -22t195 -56l-148 -692q-10 -48 -10 -82q0 -81 62 -149l-170 -105q-31 17 -57 55.5t-31 71.5q-57 -53 -143.5 -84t-186.5 -31q-187 0 -276 70.5t-89 241.5zM303 328q0 -102 52 -142.5 t171 -40.5q103 0 183.5 37.5t93.5 98.5l121 581q-93 37 -236 37q-84 0 -136 -13.5t-95.5 -55.5t-72 -115t-54.5 -195q-27 -135 -27 -192z" />
<glyph unicode="&#x431;" horiz-adv-x="1165" d="M107.5 339q3.5 106 33.5 249q30 145 63 256t67.5 195t78 144t88.5 99.5t105 65t120 38t142 19.5q249 21 397 80l-39 -176q-131 -55 -389 -78q-60 -5 -105.5 -16t-81 -32t-60.5 -45t-47.5 -64.5t-39 -80.5t-37.5 -102q120 133 332 133q87 0 149 -15.5t108 -52t66.5 -96.5 t19.5 -150t-27 -212q-32 -152 -82 -254t-124.5 -162.5t-167.5 -85.5t-222 -25q-90 0 -154 18t-110.5 61t-66.5 113t-16.5 176zM324 498q-40 -194 2 -276.5t168 -82.5q83 0 134 13t94 52t71 109t53 187q18 86 22.5 145.5t-4.5 100.5t-35 64t-64 32.5t-95 9.5 q-163 0 -233 -73.5t-113 -280.5z" />
<glyph unicode="&#x432;" horiz-adv-x="1157" d="M47 0l219 1038h586q84 0 137.5 -19t75.5 -52t27 -78t-9 -98q-12 -54 -28 -90.5t-46 -69.5t-79 -51t-119 -23q137 -6 177 -76t13 -192q-60 -289 -354 -289h-600zM272 160h361q75 0 113 34t53 113q39 168 -105 168h-354zM371 625h346q70 0 106 34t49 99q14 69 -7 95t-93 26 h-346z" />
<glyph unicode="&#x433;" horiz-adv-x="843" d="M47 0l219 1038h690l-36 -172h-498l-182 -866h-193z" />
<glyph unicode="&#x434;" horiz-adv-x="1259" d="M-102 -276l47 448h178q230 450 340 866h702l-184 -866h195l-140 -448h-153l59 276h-833l-60 -276h-151zM326 172h462l148 694h-330q-88 -305 -280 -694z" />
<glyph unicode="&#x435;" horiz-adv-x="1124" d="M100.5 335.5q2.5 83.5 24.5 188.5q33 152 86 258t128.5 168.5t166.5 89.5t209 27q97 0 163 -16t113 -55t65 -106t11.5 -168t-39.5 -243h-706q-17 -83 -17 -142t14.5 -97.5t49 -60t79 -30t111.5 -8.5q58 0 149 14t156 35l2 -161q-86 -25 -188.5 -41.5t-175.5 -16.5 q-79 0 -141 11.5t-113 37t-83.5 68.5t-49.5 103.5t-14.5 144zM358 637h512q11 67 11 113t-10.5 77t-35.5 47.5t-59.5 23.5t-87.5 7q-143 0 -214.5 -57t-115.5 -211z" />
<glyph unicode="&#x436;" horiz-adv-x="1511" d="M-100 0q94 135 172 233.5t128.5 153.5t100 92.5t76.5 51.5t69 30q-85 78 -301 477h228q189 -343 299 -493l104 493h193l-105 -493q199 175 506 493h227q-183 -190 -316.5 -316t-184.5 -161q29 -14 46 -25t45 -35.5t50.5 -62t51 -94.5t58 -144t60.5 -200h-223 q-38 137 -79 232.5t-84 148t-81.5 77.5t-85.5 36l-104 -494h-193l105 494q-53 -11 -102.5 -36t-115 -77.5t-146 -148t-175.5 -232.5h-223z" />
<glyph unicode="&#x437;" horiz-adv-x="1040" d="M-27 12l82 174q113 -45 303 -45q168 0 237 37t89 135q20 91 -34.5 128.5t-200.5 37.5h-156l33 154h155q135 0 196.5 28.5t78.5 104.5q15 73 -35 103t-201 30q-175 0 -315 -43l-6 170q164 41 358 41q252 0 345 -61t63 -199q-12 -55 -31 -95t-52.5 -75.5t-88.5 -56.5 t-131 -27q151 -7 198.5 -79t20.5 -195q-36 -172 -165.5 -240t-389.5 -68q-213 0 -353 41z" />
<glyph unicode="&#x438;" horiz-adv-x="1175" d="M45 0l219 1038h195l-160 -753q277 279 651 753h193l-219 -1038h-193l154 725q-261 -333 -645 -725h-195z" />
<glyph unicode="&#x439;" horiz-adv-x="1175" d="M45 0l219 1038h195l-160 -753q277 279 651 753h193l-219 -1038h-193l154 725q-261 -333 -645 -725h-195zM502 1427h143q-17 -76 12.5 -103.5t108.5 -27.5q72 0 118 28t60 103h135q-30 -138 -116 -204t-230 -66q-291 0 -231 270z" />
<glyph unicode="&#x43a;" horiz-adv-x="1054" d="M47 0l219 1038h193l-107 -499q160 127 551 499h236q-420 -408 -529 -473q37 -16 60.5 -30.5t58.5 -52t65 -94t70 -154.5t84 -234h-229q-35 113 -73.5 198t-73.5 137t-75.5 86.5t-75 50t-77.5 24.5l-104 -496h-193z" />
<glyph unicode="&#x43b;" horiz-adv-x="1122" d="M-29 0q279 511 416 1038h705l-220 -1038h-194l182 866h-325q-62 -206 -158.5 -439.5t-198.5 -426.5h-207z" />
<glyph unicode="&#x43c;" horiz-adv-x="1472" d="M47 0l219 1038h295q96 -372 154 -694q208 352 440 694h285l-219 -1038h-191l176 838q-269 -398 -481 -770h-160q-74 454 -149 770l-176 -838h-193z" />
<glyph unicode="&#x43d;" horiz-adv-x="1169" d="M45 0l219 1038h195l-84 -399h483l84 399h195l-219 -1038h-195l100 473h-483l-100 -473h-195z" />
<glyph unicode="&#x43e;" horiz-adv-x="1202" d="M97.5 303q0.5 94 27.5 221q34 158 85 263.5t126.5 167t167.5 87t219 25.5q102 0 173.5 -16t123.5 -53t76 -99.5t23.5 -155t-27.5 -219.5q-34 -159 -85 -266t-126 -170.5t-168 -90t-221 -26.5q-101 0 -173 16.5t-123.5 55.5t-75 102.5t-23 157.5zM303 282.5 q5 -43.5 20 -71t43.5 -44.5t66.5 -23.5t93 -6.5q83 0 136.5 16t97 59.5t72 116t53.5 191.5q21 99 26 165t-4 109.5t-39 66.5t-71.5 31.5t-108.5 8.5q-84 0 -136 -13.5t-96 -55t-72.5 -115t-55.5 -197.5q-17 -79 -23.5 -136.5t-1.5 -101z" />
<glyph unicode="&#x43f;" horiz-adv-x="1169" d="M47 0l219 1038h871l-219 -1038h-193l182 866h-485l-182 -866h-193z" />
<glyph unicode="&#x440;" horiz-adv-x="1187" d="M-37 -393l293 1382q90 35 219 56.5t234 21.5q103 0 175 -16t123.5 -53.5t75 -100.5t22.5 -155.5t-28 -219.5q-27 -126 -66 -220t-89 -157t-115.5 -102t-139.5 -55.5t-167 -16.5q-162 0 -252 74l-92 -438h-193zM295 266q-12 -58 50.5 -91.5t166.5 -33.5q82 0 137 16.5 t98 60t72 115t53 185.5q17 81 23.5 139t1.5 100.5t-20 68.5t-44.5 42t-67 21.5t-93.5 5.5q-146 0 -250 -37z" />
<glyph unicode="&#x441;" horiz-adv-x="958" d="M100.5 335.5q2.5 83.5 24.5 188.5q33 156 89.5 263t138 168t176.5 86.5t219 25.5q72 0 157.5 -14t138.5 -35l-88 -172q-96 47 -237 47q-86 0 -141.5 -13t-105.5 -52.5t-84 -114t-60 -193.5q-19 -91 -20 -156t13.5 -107.5t48.5 -67t79.5 -34.5t111.5 -10q122 0 258 52 l15 -170q-62 -25 -153 -40.5t-165 -15.5q-82 0 -146 11.5t-117 37t-86.5 68.5t-51 103.5t-15 144z" />
<glyph unicode="&#x442;" horiz-adv-x="989" d="M94 866l37 172h959l-37 -172h-381l-183 -866h-194l182 866h-383z" />
<glyph unicode="&#x443;" horiz-adv-x="1044" d="M45 -393q111 147 240 344q-18 290 -55.5 581t-88.5 506h207q79 -372 109 -854q298 487 473 854h200q-239 -473 -614 -1058q-130 -210 -252 -373h-219z" />
<glyph unicode="&#x444;" horiz-adv-x="1726" d="M96.5 302q1.5 94 28.5 220q34 158 82.5 264t118.5 168t155.5 87.5t202.5 25.5q83 0 199 -29l86 402h194l-86 -402q129 29 211 29q93 0 158.5 -16t113 -53.5t68.5 -100.5t19 -155.5t-29 -219.5q-33 -157 -83 -264.5t-118.5 -170t-149.5 -89.5t-186 -27q-133 0 -215 74 l-92 -438h-194l92 438q-114 -74 -244 -74q-83 0 -143.5 16.5t-104.5 55.5t-64.5 102t-19 157zM296 333q-2 -73 19.5 -115.5t62 -59.5t107.5 -17q92 0 157 33.5t77 91.5l127 594q-85 35 -199 35q-70 0 -116 -14t-86.5 -55t-68.5 -114.5t-54 -193.5q-24 -112 -26 -185z M911 260q-7 -56 44 -87.5t139 -31.5q90 0 147.5 31.5t101 114t74.5 231.5q20 96 25 162t-3 108.5t-34.5 66t-62 32t-91.5 8.5q-113 0 -211 -35z" />
<glyph unicode="&#x445;" horiz-adv-x="1067" d="M-66 0q180 165 521 518q-141 277 -299 520h243q96 -164 199 -362q115 121 324 362h221q-227 -258 -469 -512q132 -252 252 -526h-226q-75 181 -172 373q-194 -200 -370 -373h-224z" />
<glyph unicode="&#x446;" horiz-adv-x="1245" d="M47 0l219 1038h193l-185 -866h486l184 866h193l-185 -866h211l-141 -448h-152l60 276h-883z" />
<glyph unicode="&#x447;" horiz-adv-x="1107" d="M129 606q2 82 27 197l49 235h192l-45 -211q-17 -81 -19.5 -136.5t7 -92t35.5 -56.5t61 -28t90 -8q100 0 179 31.5t90 87.5l88 413h192l-219 -1038h-192l86 406q-56 -32 -142 -55t-170 -23q-82 0 -138 12.5t-97.5 44t-58.5 85.5t-15 136z" />
<glyph unicode="&#x448;" horiz-adv-x="1683" d="M47 0l219 1038h193l-185 -866h404l184 866h193l-185 -866h404l184 866h195l-219 -1038h-1387z" />
<glyph unicode="&#x449;" horiz-adv-x="1761" d="M45 0l219 1038h195l-185 -866h404l184 866h193l-185 -866h404l184 866h193l-185 -866h211l-141 -446h-152l60 274h-1399z" />
<glyph unicode="&#x44a;" horiz-adv-x="1234" d="M84 866l37 172h422l-84 -395h383q163 0 224.5 -78t29.5 -237q-38 -174 -131 -251t-258 -77h-576l182 866h-229zM356 156h353q76 0 117 38.5t61 131.5q20 88 -7.5 124.5t-103.5 36.5h-350z" />
<glyph unicode="&#x44b;" horiz-adv-x="1513" d="M45 0l219 1038h195l-84 -395h383q163 0 224.5 -78t29.5 -237q-38 -174 -131 -251t-258 -77h-578zM272 156h353q76 0 117 38.5t61 131.5q20 87 -7.5 123t-103.5 36h-350zM1067 0l219 1038h195l-219 -1038h-195z" />
<glyph unicode="&#x44c;" horiz-adv-x="1150" d="M45 0l219 1038h195l-84 -395h383q163 0 224.5 -78t29.5 -237q-38 -174 -131 -251t-258 -77h-578zM272 156h353q76 0 117 38.5t61 131.5q20 87 -7.5 123t-103.5 36h-350z" />
<glyph unicode="&#x44d;" horiz-adv-x="989" d="M-41 27l86 161q99 -47 238 -47q78 0 134.5 14.5t104.5 52t82.5 103.5t59.5 166h-449l35 160h444q8 80 -3.5 132t-46 79.5t-81.5 38t-119 10.5q-148 0 -258 -43l-16 164q62 21 153.5 35t163.5 14q81 0 144 -11t116 -35.5t87 -66t52.5 -101t16.5 -142t-24 -187.5 q-33 -157 -90.5 -266t-138.5 -171t-176.5 -89t-217.5 -27q-74 0 -158.5 15.5t-138.5 40.5z" />
<glyph unicode="&#x44e;" horiz-adv-x="1695" d="M47 0l219 1038h193l-84 -397h305q36 122 87 205.5t121.5 131.5t153 68.5t191.5 20.5q97 0 165.5 -16t119 -53.5t74 -99.5t23 -155t-27.5 -219q-33 -158 -84.5 -265.5t-125.5 -171t-164 -90t-212 -26.5q-77 0 -135.5 10.5t-105.5 34t-76.5 62t-45 94t-14 130.5t18.5 171 h-303l-100 -473h-193zM825.5 360.5q-4.5 -65.5 4.5 -110t36.5 -69.5t67.5 -35.5t102 -10.5q103 0 164.5 31.5t105 114.5t76.5 239q21 99 26 165.5t-3.5 110t-37 66.5t-67.5 32t-102 9q-105 0 -164.5 -27.5t-104 -110t-79.5 -245.5q-20 -94 -24.5 -159.5z" />
<glyph unicode="&#x44f;" horiz-adv-x="1171" d="M-39 0q121 185 201.5 282t136.5 132t125 45q-80 1 -135 24t-79.5 60.5t-32 87t6.5 104.5q65 303 391 303h564l-219 -1038h-195l84 403h-174q-60 0 -104.5 -14t-98 -57.5t-112.5 -122.5t-140 -209h-219zM389 721q-17 -82 13 -121t112 -39h330l65 313h-336 q-79 0 -122.5 -34t-61.5 -119z" />
<glyph unicode="&#x451;" horiz-adv-x="1124" d="M100.5 335.5q2.5 83.5 24.5 188.5q33 152 86 258t128.5 168.5t166.5 89.5t209 27q97 0 163 -16t113 -55t65 -106t11.5 -168t-39.5 -243h-706q-17 -83 -17 -142t14.5 -97.5t49 -60t79 -30t111.5 -8.5q58 0 149 14t156 35l2 -161q-86 -25 -188.5 -41.5t-175.5 -16.5 q-79 0 -141 11.5t-113 37t-83.5 68.5t-49.5 103.5t-14.5 144zM358 637h512q11 67 11 113t-10.5 77t-35.5 47.5t-59.5 23.5t-87.5 7q-143 0 -214.5 -57t-115.5 -211zM451 1274q12 61 36.5 78.5t87.5 17.5q61 0 77.5 -17.5t4.5 -78.5q-15 -67 -39.5 -87t-85.5 -20 q-62 0 -79 20t-2 87zM862 1274q12 61 37 78.5t88 17.5q61 0 77.5 -17.5t4.5 -78.5q-15 -67 -39.5 -87t-85.5 -20q-62 0 -79.5 20t-2.5 87z" />
<glyph unicode="&#x452;" horiz-adv-x="1150" d="M47 0l254 1204h-119l31 142h119l28 133h193l-29 -133h230l-31 -142h-229l-48 -225q56 32 141.5 55t170.5 23t141.5 -14.5t98.5 -53t57 -106t9 -172t-38 -252.5q-33 -156 -82.5 -285.5t-102 -216t-114.5 -153.5t-115 -103.5t-108 -60.5l-92 139q49 21 87.5 46t86.5 76 t86.5 119.5t78 180t70.5 254.5q24 111 31 184t1 120t-31.5 71.5t-60.5 33t-93 8.5q-98 0 -175.5 -29.5t-93.5 -82.5l-159 -760h-193z" />
<glyph unicode="&#x453;" horiz-adv-x="843" d="M47 0l219 1038h690l-34 -170h-498l-184 -868h-193zM492 1163l305 264h219l-340 -264h-184z" />
<glyph unicode="&#x454;" horiz-adv-x="989" d="M101 335.5q2 83.5 24 188.5q27 125 70 219t97.5 155.5t126.5 99.5t150.5 53.5t175.5 15.5q73 0 159.5 -14t137.5 -35l-84 -164q-93 43 -239 43q-72 0 -123 -10.5t-97.5 -38t-80 -79.5t-58.5 -132h445l-35 -160h-448q-17 -80 -13.5 -138.5t17.5 -96.5t48 -60.5t77.5 -31.5 t105.5 -9q137 0 260 47l14 -161q-62 -25 -151.5 -40.5t-163.5 -15.5q-81 0 -144.5 11.5t-116 37t-86.5 68.5t-52 103.5t-16 144z" />
<glyph unicode="&#x455;" horiz-adv-x="1017" d="M20 27l82 163q51 -23 141.5 -39t170.5 -16q123 0 182 31.5t80 128.5q16 71 -27.5 105t-179.5 46q-188 16 -264 79t-45 208q38 184 161 259t336 75q169 0 336 -53l-84 -164q-133 53 -291 53q-123 0 -180.5 -29t-77.5 -124q-14 -65 31.5 -95.5t175.5 -42.5 q195 -17 267.5 -86.5t42.5 -216.5q-40 -187 -160 -262.5t-334 -75.5q-84 0 -190 15.5t-173 40.5z" />
<glyph unicode="&#x456;" horiz-adv-x="489" d="M47 0l219 1038h193l-219 -1038h-193zM315 1350q13 65 40.5 83.5t97.5 18.5q68 0 87.5 -18.5t6.5 -83.5q-17 -72 -44.5 -93.5t-94.5 -21.5q-69 0 -89.5 22t-3.5 93z" />
<glyph unicode="&#x457;" horiz-adv-x="489" d="M47 0l219 1038h193l-219 -1038h-193zM104 1274q12 61 37 78.5t88 17.5q61 0 77.5 -17.5t4.5 -78.5q-15 -67 -39.5 -87t-85.5 -20q-62 0 -79.5 20t-2.5 87zM516 1274q12 61 37 78.5t88 17.5q61 0 77.5 -17.5t4.5 -78.5q-15 -67 -39.5 -87t-85.5 -20q-62 0 -79.5 20 t-2.5 87z" />
<glyph unicode="&#x458;" horiz-adv-x="489" d="M-229 -416l34 166q101 0 154 42.5t78 164.5l229 1081h193l-228 -1077q-24 -113 -65 -188t-101.5 -116t-129.5 -57t-164 -16zM315 1350q13 65 40.5 83.5t97.5 18.5q68 0 87.5 -18.5t6.5 -83.5q-14 -71 -43 -93t-96 -22q-68 0 -88 22t-5 93z" />
<glyph unicode="&#x459;" horiz-adv-x="1781" d="M-29 0q279 511 416 1038h705l-84 -395h383q162 0 224 -78t30 -237q-38 -173 -131.5 -250.5t-258.5 -77.5h-577l182 866h-325q-62 -206 -158.5 -439.5t-198.5 -426.5h-207zM905 156h352q76 0 117.5 38.5t61.5 131.5q20 88 -7.5 124.5t-103.5 36.5h-350z" />
<glyph unicode="&#x45a;" horiz-adv-x="1828" d="M47 0l219 1038h193l-84 -395h485l84 395h193l-84 -395h383q163 0 224.5 -78t29.5 -237q-38 -173 -131 -250.5t-259 -77.5h-575l102 487h-485l-102 -487h-193zM950 156h353q76 0 117.5 39.5t60.5 130.5q20 88 -7.5 124.5t-103.5 36.5h-350z" />
<glyph unicode="&#x45b;" horiz-adv-x="1163" d="M47 0l254 1204h-119l31 142h119l28 133h193l-29 -133h230l-31 -142h-229l-45 -215q56 32 141 55t170 23q82 0 138 -12.5t97.5 -44t58.5 -85.5t15 -136t-27 -197l-124 -592h-193l119 567q17 81 20 137.5t-6 93t-35 57t-61 28.5t-90 8q-100 0 -179.5 -32.5t-89.5 -86.5 l-163 -772h-193z" />
<glyph unicode="&#x45c;" horiz-adv-x="1054" d="M47 0l219 1038h193l-107 -499q160 127 551 499h236q-420 -408 -529 -473q37 -16 60.5 -30.5t58.5 -52t65 -94t70 -154.5t84 -234h-229q-35 113 -73.5 198t-73.5 137t-75.5 86.5t-75 50t-77.5 24.5l-104 -496h-193zM571 1163l303 264h222l-342 -264h-183z" />
<glyph unicode="&#x45e;" horiz-adv-x="1044" d="M45 -393q111 147 240 344q-18 290 -55.5 581t-88.5 506h207q79 -372 109 -854q298 487 473 854h200q-239 -473 -614 -1058q-130 -210 -252 -373h-219zM436 1434h144q-16 -76 12 -102.5t108 -26.5q78 0 120.5 27t58.5 102h135q-30 -138 -116 -204.5t-230 -66.5 q-292 0 -232 271z" />
<glyph unicode="&#x45f;" horiz-adv-x="1169" d="M47 0l219 1038h193l-185 -866h486l184 866h193l-219 -1038h-314l-119 -350h-145l33 350h-326z" />
<glyph unicode="&#x490;" horiz-adv-x="1103" d="M92 0l303 1427h723l129 351h146l-113 -529h-717l-264 -1249h-207z" />
<glyph unicode="&#x491;" horiz-adv-x="843" d="M45 0l219 1038h508l117 316h135l-104 -488h-498l-182 -866h-195z" />
<glyph unicode="&#x2000;" horiz-adv-x="897" />
<glyph unicode="&#x2001;" horiz-adv-x="1794" />
<glyph unicode="&#x2002;" horiz-adv-x="897" />
<glyph unicode="&#x2003;" horiz-adv-x="1794" />
<glyph unicode="&#x2004;" horiz-adv-x="598" />
<glyph unicode="&#x2005;" horiz-adv-x="448" />
<glyph unicode="&#x2006;" horiz-adv-x="299" />
<glyph unicode="&#x2007;" horiz-adv-x="299" />
<glyph unicode="&#x2008;" horiz-adv-x="224" />
<glyph unicode="&#x2009;" horiz-adv-x="358" />
<glyph unicode="&#x200a;" horiz-adv-x="99" />
<glyph unicode="&#x2010;" horiz-adv-x="593" d="M61 479l39 183h467l-39 -183h-467z" />
<glyph unicode="&#x2011;" horiz-adv-x="593" d="M61 479l39 183h467l-39 -183h-467z" />
<glyph unicode="&#x2012;" horiz-adv-x="593" d="M61 479l39 183h467l-39 -183h-467z" />
<glyph unicode="&#x2013;" horiz-adv-x="1148" d="M102 479l39 183h940l-39 -183h-940z" />
<glyph unicode="&#x2014;" horiz-adv-x="1742" d="M102 479l39 183h1534l-39 -183h-1534z" />
<glyph unicode="&#x2018;" horiz-adv-x="483" d="M166 1034l336 531h164l-273 -531h-227z" />
<glyph unicode="&#x2019;" horiz-adv-x="481" d="M162 1028l272 533h228l-336 -533h-164z" />
<glyph unicode="&#x201a;" horiz-adv-x="471" d="M-129 -326l270 531h228l-336 -531h-162z" />
<glyph unicode="&#x201c;" horiz-adv-x="845" d="M166 1034l336 531h164l-273 -531h-227zM530 1034l336 531h164l-272 -531h-228z" />
<glyph unicode="&#x201d;" horiz-adv-x="845" d="M162 1030l272 531h228l-336 -531h-164zM526 1030l273 531h227l-336 -531h-164z" />
<glyph unicode="&#x201e;" horiz-adv-x="845" d="M-125 -332l270 533h228l-336 -533h-162zM238 -332l272 533h227l-336 -533h-163z" />
<glyph unicode="&#x2026;" horiz-adv-x="2408" d="M274 129q17 76 50 99.5t110 23.5q80 0 103 -23t6 -100q-18 -83 -51 -108t-113 -25q-77 0 -100 25t-5 108zM993 129q17 76 50 99.5t110 23.5q80 0 103 -23t6 -100q-18 -83 -51 -108t-113 -25q-77 0 -100 25t-5 108zM1714 129q17 76 49.5 99.5t108.5 23.5q81 0 103 -23 t5 -100q-18 -84 -50 -108.5t-113 -24.5q-76 0 -98.5 25t-4.5 108z" />
<glyph unicode="&#x202f;" horiz-adv-x="358" />
<glyph unicode="&#x2030;" horiz-adv-x="2625" d="M173 828.5q3 78.5 26 185.5q28 133 67 220t94 137.5t120.5 70.5t156.5 20q74 0 124.5 -12.5t87.5 -42.5t52.5 -81.5t13 -128.5t-25.5 -183q-28 -134 -67.5 -223.5t-95.5 -142.5t-123 -75t-159 -22q-72 0 -122.5 14t-86 46t-50.5 85.5t-12 132zM309 0l1145 1427h193 l-1145 -1427h-193zM357 758.5q23 -64.5 118 -64.5q98 0 147.5 65.5t90.5 252.5q20 98 24 156.5t-10 92.5t-42 45t-79 11q-66 0 -105 -22.5t-70.5 -88.5t-57.5 -194q-39 -189 -16 -253.5zM1052.5 248.5q3.5 78.5 26.5 185.5q28 133 67 220.5t94.5 138t121 70.5t156.5 20 q74 0 124.5 -12.5t87 -43t51 -82t12 -128t-25.5 -183.5q-39 -178 -98 -279.5t-140.5 -142.5t-203.5 -41q-72 0 -122.5 14t-86.5 46t-51.5 85.5t-12 132zM1226.5 238.5q4.5 -70.5 34 -97t93.5 -26.5q97 0 147.5 66t89.5 251q21 98 25.5 157t-9.5 93t-42 45.5t-78 11.5 q-49 0 -81.5 -11.5t-61.5 -45t-50.5 -93.5t-42.5 -157q-29 -123 -24.5 -193.5zM1812.5 248.5q3.5 78.5 26.5 185.5q28 133 67 220.5t94 138t120.5 70.5t156.5 20q74 0 124.5 -12.5t87 -43t51.5 -82t12.5 -128.5t-25.5 -183q-39 -178 -98 -279.5t-140.5 -142.5t-203.5 -41 q-72 0 -122.5 14t-86.5 46t-51.5 85.5t-12 132zM1986.5 238.5q4.5 -70.5 34 -97t93.5 -26.5q97 0 147.5 66t89.5 251q21 98 25.5 157t-9.5 93t-42 45.5t-78 11.5q-49 0 -81.5 -11.5t-61.5 -45t-50.5 -93.5t-42.5 -157q-29 -123 -24.5 -193.5z" />
<glyph unicode="&#x2039;" horiz-adv-x="786" d="M90 625l672 561l88 -119l-496 -436l310 -447l-138 -121z" />
<glyph unicode="&#x203a;" horiz-adv-x="786" d="M0 184l496 437l-310 446l138 121l432 -563l-670 -559z" />
<glyph unicode="&#x205f;" horiz-adv-x="448" />
<glyph unicode="&#x20ac;" horiz-adv-x="1222" d="M132.5 425q0.5 128 37.5 302q47 218 116 361t172 225.5t228 115.5t301 33q97 0 206.5 -15t186.5 -38l-92 -186q-53 22 -144 35.5t-173 13.5q-105 0 -174.5 -10.5t-133.5 -40.5t-109 -87t-81 -147h545l-33 -149h-567q-12 -63 -23 -113q-3 -12 -8 -36.5t-9 -43t-7 -31.5 h567l-31 -147h-545q-3 -94 17.5 -153.5t70 -92.5t116 -45t171.5 -12q81 0 176.5 13t159.5 34l12 -186q-87 -24 -201 -39t-212 -15q-139 0 -237 23t-168.5 75.5t-102.5 140t-31.5 215.5z" />
<glyph unicode="&#x2122;" horiz-adv-x="1589" d="M195 1300l28 127h598l-28 -127h-224l-125 -595h-149l125 595h-225zM748 705l153 722h205l72 -548l299 548h196l-153 -722h-140l119 567l-301 -553h-133l-61 553l-119 -567h-137z" />
<glyph unicode="&#x2190;" horiz-adv-x="1513" d="M35 764l739 647l133 -139l-485 -420h1057v-180h-1057l485 -418l-133 -143z" />
<glyph unicode="&#x2191;" horiz-adv-x="1517" d="M109 741l651 740l647 -738l-139 -133l-420 486v-1057h-180v1057l-418 -486z" />
<glyph unicode="&#x2192;" horiz-adv-x="1513" d="M35 670v180h1057l-484 420l133 141l738 -647l-740 -653l-131 143l484 416h-1057z" />
<glyph unicode="&#x2193;" horiz-adv-x="1517" d="M109 776l139 133l420 -485v1057h180v-1057l416 485l143 -131l-651 -739z" />
<glyph unicode="&#x25fc;" horiz-adv-x="1034" d="M0 0v1034h1034v-1034h-1034z" />
<glyph unicode="&#xf721;" horiz-adv-x="673" d="M127 127q17 77 49 100t109 23q80 0 103.5 -23t6.5 -100q-18 -84 -51.5 -109.5t-112.5 -25.5q-77 0 -99.5 26t-4.5 109zM242 389l92 649h237l-184 -649h-145z" />
<glyph unicode="&#xf726;" horiz-adv-x="1380" d="M23 279q27 121 113.5 196t240.5 82q-72 6 -115 26t-57.5 55.5t-14 73.5t12.5 95q20 94 71 149t154.5 83t273.5 28q169 0 259.5 -28t117 -83t6.5 -149q-24 -111 -96 -177t-219 -77q137 -17 254 -168q107 102 170 227h207q-86 -176 -281 -344q67 -106 133 -268h-215 q-62 136 -75 160q-281 -189 -560 -189q-234 0 -325 68t-55 240zM233 303q-21 -99 25 -135.5t184 -36.5q121 0 238 41.5t211 110.5q-67 102 -145 148t-179 46q-71 0 -124 -8t-98 -27t-73 -53.5t-39 -85.5zM393 774q-18 -81 27.5 -110t179.5 -29q136 0 202.5 29.5t84.5 109.5 q16 76 -27.5 105.5t-187.5 29.5q-146 0 -205 -30t-74 -105z" />
<glyph unicode="&#xf730;" d="M156 335q4 83 26 189q33 156 86.5 263t129 168t164.5 86.5t206 25.5q94 0 161.5 -15.5t117 -53.5t72.5 -100t22.5 -155t-27.5 -219q-33 -158 -84.5 -265.5t-124.5 -171t-161 -90t-207 -26.5q-78 0 -137.5 11.5t-108 37t-78.5 68t-45.5 103.5t-11.5 144zM357.5 328.5 q-2.5 -73.5 21.5 -117.5t69 -60t123 -16q106 0 165.5 32.5t98 112.5t72.5 240q18 84 26 142t5 102t-15 70t-39 42t-62 21.5t-89 5.5q-80 0 -129.5 -14t-92 -55.5t-71.5 -116t-55 -197.5q-25 -118 -27.5 -191.5z" />
<glyph unicode="&#xf731;" d="M365 811l628 256l-225 -1067h-193l170 805l-352 -156z" />
<glyph unicode="&#xf732;" d="M92 0l31 150q319 158 482.5 256t225.5 163.5t78 143.5q21 95 -28 134.5t-211 39.5q-74 0 -182.5 -15t-155.5 -34l-4 186q75 18 192.5 30.5t208.5 12.5q180 0 276.5 -35.5t124.5 -105.5t3 -187q-21 -102 -95 -192.5t-228 -187t-394 -195.5h610l-35 -164h-899z" />
<glyph unicode="&#xf733;" d="M-68 -358l80 174q142 -45 375 -45q149 0 234 26t126.5 78.5t61.5 149.5q30 145 -28 200.5t-232 55.5h-184l36 174h181q161 0 239.5 50t104.5 173q16 78 -2.5 121t-87.5 64.5t-205 21.5q-96 0 -205 -13.5t-180 -35.5l-6 178q241 53 456 53q292 0 394 -83.5t61 -270.5 q-15 -73 -38.5 -126.5t-65.5 -101t-110.5 -76t-162.5 -36.5q79 -4 133.5 -24t85 -51.5t43 -79t10.5 -98.5t-16 -116q-50 -231 -201.5 -324.5t-453.5 -93.5q-209 0 -443 56z" />
<glyph unicode="&#xf734;" d="M-37 0l10 55q188 243 417.5 519t412.5 464h297l-185 -872h197l-35 -166h-196l-84 -393h-201l84 393h-717zM262 166h453l151 715q-140 -138 -310 -344t-294 -371z" />
<glyph unicode="&#xf735;" d="M-37 -360l82 174q136 -45 350 -45q147 0 229.5 26t123 79.5t61.5 154.5q26 104 11 166.5t-79.5 88t-203.5 25.5q-203 0 -371 -33l162 762h846l-37 -178h-648l-81 -385q79 10 202 10q198 0 302 -44.5t133.5 -142.5t-7.5 -253q-54 -259 -203 -360t-452 -101q-194 0 -420 56 z" />
<glyph unicode="&#xf736;" d="M126 420q8 126 46 303q46 218 113 361.5t166.5 227t221.5 117t294 33.5q192 0 368 -57l-92 -184q-122 51 -317 51q-85 0 -146 -9.5t-120 -36.5t-101.5 -74.5t-78.5 -124t-62 -185.5q156 28 325 28q293 0 389 -101.5t44 -340.5q-54 -258 -194.5 -357.5t-426.5 -99.5 q-123 0 -205 22.5t-137 73.5t-75 139t-12 214zM346 447.5q-5 -89.5 7.5 -146.5t47 -89t79.5 -44t114 -12q125 0 196 26.5t105 79t55 150.5q24 101 11 163t-71 89t-179 28q-215 0 -334 -28q-26 -127 -31 -216.5z" />
<glyph unicode="&#xf737;" d="M141 -393q192 335 436.5 693t423.5 560h-774l37 178h1051l-15 -67q-206 -249 -479 -653t-444 -711h-236z" />
<glyph unicode="&#xf738;" d="M96 389q17 83 44.5 144t74.5 113.5t121 82t174 33.5q-74 7 -124 28t-76 51t-35.5 74t-6.5 88.5t15 102.5q39 186 167 271t396 85q182 0 282 -40t129 -116t3 -200q-15 -74 -37.5 -127t-63.5 -102t-108.5 -78t-161.5 -37q97 -4 158 -34.5t84 -80t26 -115.5t-16 -143 q-49 -229 -191.5 -323.5t-419.5 -94.5q-276 0 -379.5 94.5t-54.5 323.5zM317 403q-30 -144 23 -202t225 -58t250.5 58.5t108.5 201.5q32 147 -24.5 209t-221.5 62q-164 0 -246.5 -61.5t-114.5 -209.5zM489 1075q-26 -125 27.5 -180t198.5 -55q146 0 221.5 54.5t101.5 180.5 q25 118 -25.5 165.5t-203.5 47.5t-224 -47.5t-96 -165.5z" />
<glyph unicode="&#xf739;" d="M116.5 425.5q-4.5 70.5 18.5 164.5q55 261 198.5 369t426.5 108q106 0 180.5 -9t131 -32t88 -59t45.5 -92.5t9 -130t-26 -173.5q-26 -121 -81.5 -238t-123.5 -211t-161.5 -191t-177.5 -169.5t-191 -154.5h-271q211 157 365.5 297t253.5 280q-133 -14 -230 -14 q-121 0 -203.5 13.5t-140 43.5t-82 79t-29 119.5zM342.5 512.5q-2.5 -37.5 5.5 -68t26.5 -48t53.5 -29.5t81 -16.5t114 -4.5q148 0 280 21q43 90 60 178q17 78 21.5 132.5t-5 92.5t-27 60.5t-54 35t-75.5 16t-102 3.5q-93 0 -157 -16.5t-105 -54t-64 -86.5t-39 -124 q-11 -54 -13.5 -91.5z" />
<glyph unicode="&#xf73f;" horiz-adv-x="970" d="M229 1036q61 14 154.5 24.5t159.5 10.5q221 0 303.5 -64.5t52.5 -205.5q-27 -126 -113 -217.5t-270 -200.5h-209q173 108 259.5 199.5t107.5 197.5q15 70 -24.5 97.5t-153.5 27.5q-155 0 -265 -35zM242 129q17 77 48.5 100t108.5 23q81 0 104.5 -23t6.5 -100 q-18 -83 -51.5 -108t-114.5 -25q-77 0 -98.5 25t-3.5 108z" />
<glyph unicode="&#xf761;" horiz-adv-x="1122" d="M-74 0q206 407 598 1038h318q59 -690 147 -1038h-209q-28 127 -49 281h-457q-67 -121 -145 -281h-203zM354 428h357q-26 202 -47 446h-48q-120 -195 -262 -446z" />
<glyph unicode="&#xf762;" horiz-adv-x="1157" d="M47 0l219 1038h586q84 0 137.5 -19t75.5 -52t27 -78t-9 -98q-12 -54 -28 -90.5t-46 -69.5t-79 -51t-119 -23q137 -6 177 -76t13 -192q-60 -289 -354 -289h-600zM272 160h361q75 0 113 34t53 113q39 168 -105 168h-354zM371 625h346q70 0 106 34t49 99q14 69 -7 95t-93 26 h-346z" />
<glyph unicode="&#xf763;" horiz-adv-x="958" d="M100.5 335.5q2.5 83.5 24.5 188.5q33 156 89.5 263t138 168t176.5 86.5t219 25.5q72 0 157.5 -14t138.5 -35l-88 -172q-96 47 -237 47q-86 0 -141.5 -13t-105.5 -52.5t-84 -114t-60 -193.5q-19 -91 -20 -156t13.5 -107.5t48.5 -67t79.5 -34.5t111.5 -10q122 0 258 52 l15 -170q-62 -25 -153 -40.5t-165 -15.5q-82 0 -146 11.5t-117 37t-86.5 68.5t-51 103.5t-15 144z" />
<glyph unicode="&#xf764;" horiz-adv-x="1167" d="M47 0l219 1038h398q84 0 148.5 -10t117.5 -33.5t86 -62.5t51 -95.5t15.5 -134.5t-23.5 -178q-32 -150 -85.5 -252.5t-132 -162t-174 -84.5t-223.5 -25h-397zM272 160h201q84 0 140.5 14.5t104.5 54t79.5 110t54.5 181.5q20 92 22 155.5t-11 103.5t-47 62t-77.5 30 t-111.5 8h-201z" />
<glyph unicode="&#xf765;" horiz-adv-x="1019" d="M47 0l219 1038h785l-35 -164h-592l-51 -245h465l-35 -158h-465l-64 -307h592l-35 -164h-784z" />
<glyph unicode="&#xf766;" horiz-adv-x="952" d="M45 0l219 1038h787l-35 -166h-592l-64 -294h465l-32 -158h-465l-88 -420h-195z" />
<glyph unicode="&#xf767;" horiz-adv-x="1148" d="M101 335.5q2 83.5 24 188.5q26 125 71 219t102.5 155.5t132.5 99.5t156.5 53.5t180.5 15.5q73 0 168.5 -14t153.5 -35l-91 -168q-106 47 -262 47q-87 0 -145.5 -14t-111.5 -53.5t-89.5 -115t-62.5 -194.5q-19 -91 -19 -156.5t15.5 -108.5t50.5 -68.5t81.5 -35.5 t112.5 -10q106 0 195 29l55 262h-256l35 156h438l-116 -545q-81 -29 -193.5 -50.5t-200.5 -21.5q-83 0 -148 11.5t-119 37t-88.5 68.5t-53 103.5t-16.5 144z" />
<glyph unicode="&#xf768;" horiz-adv-x="1169" d="M45 0l219 1038h195l-84 -399h483l84 399h195l-219 -1038h-195l100 473h-483l-100 -473h-195z" />
<glyph unicode="&#xf769;" horiz-adv-x="489" d="M47 0l219 1038h193l-219 -1038h-193z" />
<glyph unicode="&#xf76a;" horiz-adv-x="790" d="M-100 18l82 170q91 -43 204 -43q40 0 72.5 8.5t65.5 29.5t58 64.5t38 106.5l145 684h195l-148 -692q-80 -375 -448 -375q-158 0 -264 47z" />
<glyph unicode="&#xf76b;" horiz-adv-x="1054" d="M47 0l219 1038h193l-105 -489q131 85 549 489h236q-195 -189 -336.5 -312.5t-198.5 -158.5q40 -26 132 -172.5t218 -394.5h-235q-275 508 -365 549l-114 -549h-193z" />
<glyph unicode="&#xf76c;" horiz-adv-x="851" d="M47 0l219 1038h193l-183 -864h508l-36 -174h-701z" />
<glyph unicode="&#xf76d;" horiz-adv-x="1472" d="M47 0l219 1038h295q96 -372 154 -694q208 352 440 694h285l-219 -1038h-191l176 838q-269 -398 -481 -770h-160q-74 454 -149 770l-176 -838h-193z" />
<glyph unicode="&#xf76e;" horiz-adv-x="1175" d="M45 0l219 1038h193q223 -396 340 -725l153 725h193l-219 -1038h-193q-184 487 -334 750l-157 -750h-195z" />
<glyph unicode="&#xf76f;" horiz-adv-x="1202" d="M97.5 303q0.5 94 27.5 221q34 158 85 263.5t126.5 167t167.5 87t219 25.5q102 0 173.5 -16t123.5 -53t76 -99.5t23.5 -155t-27.5 -219.5q-34 -159 -85 -266t-126 -170.5t-168 -90t-221 -26.5q-101 0 -173 16.5t-123.5 55.5t-75 102.5t-23 157.5zM303 282.5 q5 -43.5 20 -71t43.5 -44.5t66.5 -23.5t93 -6.5q83 0 136.5 16t97 59.5t72 116t53.5 191.5q21 99 26 165t-4 109.5t-39 66.5t-71.5 31.5t-108.5 8.5q-84 0 -136 -13.5t-96 -55t-72.5 -115t-55.5 -197.5q-17 -79 -23.5 -136.5t-1.5 -101z" />
<glyph unicode="&#xf770;" horiz-adv-x="1134" d="M45 0l219 1038h570q170 0 229.5 -80t23.5 -249q-33 -155 -124 -234.5t-254 -79.5h-385l-84 -395h-195zM354 547h351q73 0 115.5 37.5t60.5 124.5q20 91 -5.5 130.5t-99.5 39.5h-350z" />
<glyph unicode="&#xf771;" horiz-adv-x="1202" d="M97.5 303q0.5 94 27.5 221q34 158 85 263.5t126.5 167t167.5 87t219 25.5q102 0 173.5 -16t123.5 -53t76 -99.5t23.5 -155t-27.5 -219.5q-51 -238 -138 -357t-237 -159q129 -26 315 -381h-231q-78 165 -163 254.5t-157 89.5q-97 0 -166.5 16.5t-120 55.5t-74 102.5 t-23 157.5zM303.5 360q-4.5 -65 5 -110t38 -69.5t71 -35t108.5 -10.5q82 0 136 16t97.5 60t72 117t53.5 192q21 99 26 165t-4 110t-39 67t-71.5 32t-108.5 9q-84 0 -136 -13.5t-96 -56t-72.5 -116t-55.5 -197.5q-20 -95 -24.5 -160z" />
<glyph unicode="&#xf772;" horiz-adv-x="1138" d="M45 0l219 1038h563q323 0 258 -303q-26 -122 -110 -197.5t-242 -78.5q39 -10 66 -29t61 -68t71.5 -134.5t90.5 -227.5h-229q-57 170 -106 258.5t-91.5 116.5t-103.5 28h-168l-84 -403h-195zM358 561h328q158 0 193 160q18 83 -11.5 118t-109.5 35h-334z" />
<glyph unicode="&#xf773;" horiz-adv-x="1017" d="M20 27l82 163q51 -23 141.5 -39t170.5 -16q123 0 182 31.5t80 128.5q16 71 -27.5 105t-179.5 46q-188 16 -264 79t-45 208q38 184 161 259t336 75q169 0 336 -53l-84 -164q-133 53 -291 53q-123 0 -180.5 -29t-77.5 -124q-14 -65 31.5 -95.5t175.5 -42.5 q195 -17 267.5 -86.5t42.5 -216.5q-40 -187 -160 -262.5t-334 -75.5q-84 0 -190 15.5t-173 40.5z" />
<glyph unicode="&#xf774;" horiz-adv-x="989" d="M94 866l37 172h959l-37 -172h-381l-183 -866h-194l182 866h-383z" />
<glyph unicode="&#xf775;" horiz-adv-x="1155" d="M127 397l135 641h193l-140 -655q-19 -82 -9 -134t57 -75.5t143 -23.5q140 0 200 52t87 181l139 655h194l-135 -641q-52 -240 -167.5 -333t-354.5 -93t-316.5 93.5t-25.5 332.5z" />
<glyph unicode="&#xf776;" horiz-adv-x="1056" d="M152 1038h206q79 -396 107 -848q305 498 473 848h203q-223 -438 -600 -1038h-250q-56 680 -139 1038z" />
<glyph unicode="&#xf777;" horiz-adv-x="1681" d="M143 1038h211q62 -362 82 -843q99 179 231 440.5t193 402.5h209q38 -289 51 -843q298 516 443 843h204q-267 -550 -573 -1038h-252q0 192 -9 426.5t-22 364.5q-170 -375 -401 -791h-252q-40 613 -115 1038z" />
<glyph unicode="&#xf778;" horiz-adv-x="1067" d="M-66 0q180 165 521 518q-141 277 -299 520h243q96 -164 199 -362q115 121 324 362h221q-227 -258 -469 -512q132 -252 252 -526h-226q-75 181 -172 373q-194 -200 -370 -373h-224z" />
<glyph unicode="&#xf779;" horiz-adv-x="983" d="M84 1038h231q91 -141 220 -401q151 143 376 401h222q-259 -289 -543 -561l-101 -477h-192l100 477q-169 342 -313 561z" />
<glyph unicode="&#xf77a;" horiz-adv-x="1015" d="M-47 0l10 53q203 198 423.5 432.5t342.5 380.5h-559l37 172h860l-10 -51q-169 -198 -398.5 -444t-361.5 -371h577l-34 -172h-887z" />
<glyph horiz-adv-x="1284" d="M130.5 428.5q6.5 129.5 43.5 304.5q37 172 85 297.5t105.5 208.5t133 132.5t159 70t191.5 20.5q109 0 185 -20.5t131 -70t77.5 -132.5t17.5 -208.5t-42 -297.5q-47 -218 -110 -366t-149 -235t-188 -124t-238 -37q-107 0 -182.5 23t-128.5 76.5t-75 141t-15.5 217z M339 330q7 -67 37.5 -104t76.5 -52.5t118 -15.5q92 0 154 24t115 89.5t91.5 175t76.5 286.5q30 146 40 242t2.5 158.5t-40 95t-78 44t-121.5 11.5q-62 0 -105.5 -7.5t-85.5 -29t-72.5 -59t-60 -99.5t-54.5 -148.5t-50 -207.5q-30 -141 -40.5 -238.5t-3.5 -164.5z" />
<glyph horiz-adv-x="753" d="M129 1227l641 256l-313 -1483h-207l254 1204l-350 -145z" />
<glyph horiz-adv-x="1224" d="M-10 0l35 166q173 116 289.5 195t220.5 154t166 122t116 97t80.5 81.5t49 72t31.5 71.5t19 79q29 135 -30.5 185.5t-229.5 50.5q-96 0 -208 -15.5t-171 -39.5l-8 182q228 61 438 61q108 0 186 -13t137 -42t88 -76.5t37.5 -116.5t-13.5 -161q-16 -76 -38 -132.5 t-65.5 -120.5t-104.5 -122t-162.5 -135.5t-230.5 -162.5t-317 -202h723l-37 -178h-1001z" />
<glyph horiz-adv-x="1216" d="M-18 27l81 174q139 -45 375 -45q148 0 232.5 25.5t126 78.5t61.5 150q31 145 -27.5 202.5t-232.5 57.5h-184l37 174h182q159 0 238.5 52t105.5 175q16 78 -2.5 121t-87.5 64.5t-205 21.5q-94 0 -203 -13t-182 -34l-6 178q261 53 457 53q293 0 394 -84t60 -272 q-12 -58 -28.5 -102.5t-45.5 -88.5t-68.5 -74t-99 -51t-135.5 -28q97 -4 158 -34.5t85 -80t27 -115.5t-16 -143q-50 -231 -201.5 -324.5t-453.5 -93.5q-208 0 -442 56z" />
<glyph horiz-adv-x="1216" d="M23 391l12 60q167 218 404 499t427 477h297l-184 -862h197l-37 -174h-197l-82 -391h-203l82 391h-716zM324 565h452l150 699q-142 -141 -317 -347t-285 -352z" />
<glyph horiz-adv-x="1245" d="M39 27l82 174q136 -45 352 -45q110 0 181.5 12.5t118.5 44.5t71.5 78.5t40.5 122.5q26 104 9.5 166t-82 87t-204.5 25q-200 0 -368 -33l163 768h846l-39 -178h-645l-82 -389q102 10 203 10q291 0 385.5 -101t42.5 -339q-28 -133 -77 -220.5t-130 -141t-188 -75.5 t-260 -22q-198 0 -420 56z" />
<glyph horiz-adv-x="1286" d="M126 420q8 126 46 303q46 218 113 361.5t166.5 227t221.5 117t294 33.5q192 0 368 -57l-92 -184q-122 51 -317 51q-85 0 -146 -9.5t-120 -36.5t-101.5 -74.5t-78.5 -124t-62 -185.5q156 28 325 28q293 0 389 -101.5t44 -340.5q-54 -258 -194.5 -357.5t-426.5 -99.5 q-123 0 -205 22.5t-137 73.5t-75 139t-12 214zM346 447.5q-5 -89.5 7.5 -146.5t47 -89t79.5 -44t114 -12q125 0 196 26.5t105 79t55 150.5q24 101 11 163t-71 89t-179 28q-215 0 -334 -28q-26 -127 -31 -216.5z" />
<glyph horiz-adv-x="1046" d="M111 0q200 345 438.5 698t413.5 551h-775l39 178h1053l-14 -67q-206 -247 -476.5 -648.5t-441.5 -711.5h-237z" />
<glyph horiz-adv-x="1282" d="M98 389q17 83 44.5 144t74.5 113.5t121 82t174 33.5q-74 7 -124 28t-76 51t-35.5 74t-6.5 88.5t15 102.5q39 186 167 271t396 85q182 0 282 -40t129 -116t3 -200q-15 -74 -37.5 -127t-63.5 -102t-108.5 -78t-161.5 -37q97 -4 158 -34.5t84 -80t26 -115.5t-16 -143 q-49 -229 -191.5 -323.5t-419.5 -94.5q-276 0 -379.5 94.5t-54.5 323.5zM322 403q-30 -144 22 -202t223 -58q173 0 252 58.5t109 201.5q32 147 -25 209t-223 62q-164 0 -245 -61.5t-113 -209.5zM492 1075q-26 -126 27 -180.5t198 -54.5q146 0 221.5 54.5t101.5 180.5 q25 118 -25.5 165.5t-203.5 47.5t-223.5 -47.5t-95.5 -165.5z" />
<glyph d="M192 844.5q2 60.5 19 140.5q55 261 198.5 369t426.5 108q106 0 180.5 -9t131 -32t88 -59t45.5 -92.5t9 -129.5t-26 -173q-26 -121 -82 -238t-123.5 -212t-161.5 -192t-178.5 -170t-190.5 -155h-270q209 158 364.5 298.5t256.5 281.5q-129 -17 -232 -17q-100 0 -174 9 t-129.5 30.5t-88.5 53.5t-49 80t-14 108.5zM419.5 906.5q-2.5 -37.5 5 -68t26 -48t53 -29.5t80.5 -16t114 -4q152 0 281 21q39 80 61 178q17 77 21.5 132t-5.5 93t-27.5 60.5t-53.5 34.5t-76 16t-102 4q-93 0 -156.5 -16.5t-104.5 -54t-63.5 -86.5t-38.5 -124 q-12 -55 -14.5 -92.5z" />
<glyph horiz-adv-x="1187" d="M-47 -360l82 174q56 -26 155.5 -43t208.5 -17q184 0 267 33t100 111q9 49 -8.5 71.5t-78 33t-196.5 13.5q-124 4 -200.5 20t-113 46t-44.5 73t6 101q22 101 92 184q-96 80 -55 271q39 182 173 269t386 87q107 0 230.5 -17t199.5 -44l-57 -269q-37 -178 -180 -279.5 t-359 -101.5q-126 0 -205 31q-19 -32 -32 -80q-8 -43 10.5 -67.5t78 -38.5t173.5 -17q239 -6 327.5 -67t59.5 -203q-39 -177 -188 -253.5t-418 -76.5q-267 0 -414 56zM371 711q-23 -110 28 -149.5t203 -39.5q259 0 303 209l31 146q-99 24 -248 24q-158 0 -225.5 -39 t-91.5 -151z" />
<glyph horiz-adv-x="1755" d="M100.5 335.5q2.5 83.5 24.5 188.5q33 156 89.5 263.5t137 168t174 86t215.5 25.5q38 0 219.5 -14.5t284.5 -14.5l43 197l211 80l-59 -277h364l-37 -172h-364l-107 -506q-25 -116 4 -165.5t127 -49.5q101 0 193 29l2 -160q-124 -43 -264 -43q-73 0 -123 10t-87 34.5 t-53 67.5t-15.5 108t20.5 157l108 518q-105 0 -286 14.5t-209 14.5q-85 0 -140 -13.5t-104 -53t-82 -114t-59 -194.5q-19 -91 -20.5 -156t12 -107.5t46.5 -67t78 -34.5t111 -10q132 0 250 48l14 -166q-63 -26 -149 -41t-160 -15q-81 0 -144 11.5t-115 37t-85 68.5 t-50.5 103.5t-15 144z" />
<glyph horiz-adv-x="1185" d="M79 293.5q-2 75.5 21 177.5q46 215 140.5 320.5t224.5 105.5q98 0 211 -61q137 61 244 61q130 0 178.5 -105t3.5 -319q-24 -113 -64.5 -195t-88.5 -127.5t-101.5 -75t-108 -48t-103.5 -36.5t-94 -50t-73 -80q-12 41 -40.5 71t-63 45t-75 32.5t-76.5 34.5t-68 49.5 t-48.5 78.5t-18.5 121.5zM145 1167l33 158h1186l-33 -158h-497q31 -41 18 -106q-13 -57 -57 -110t-115 -85q28 46 37 97q20 86 -14 145t-115 59h-443zM289.5 342q-0.5 -48 14 -80.5t34 -47.5t46.5 -28t51 -23t46.5 -31.5t34.5 -53.5q23 32 53 53t59 32t60.5 21.5t61 28.5 t56 46.5t50 81.5t39.5 128q30 141 14.5 200.5t-78.5 59.5q-66 0 -190 -59q-82 63 -145 63q-133 0 -191 -264q-15 -79 -15.5 -127z" />
<glyph horiz-adv-x="1185" d="M62 297.5q-3 74.5 20 175.5q45 214 137.5 319t222.5 105q102 0 215 -61q137 61 242 61q128 0 176 -105.5t2 -320.5q-24 -115 -63 -197.5t-84.5 -128t-95.5 -75t-103.5 -47.5t-102 -35.5t-96.5 -48.5t-81 -78q-7 42 -32 72.5t-59 46.5t-74.5 34t-78.5 35t-71 49.5 t-52 78.5t-22 120.5zM145 1167l33 158h1186l-33 -158h-442q-81 0 -140 -59t-79 -145q-9 -52 -4 -97q-57 32 -78 85.5t-8 109.5q13 65 63 106h-498z" />
<glyph horiz-adv-x="1185" d="M-131 -139l33 159h442q81 0 140 59.5t77 145.5q9 52 4 94q57 -31 78 -83t10 -109q-16 -66 -63 -107h497l-34 -159h-1184zM154 717q24 114 63 196.5t84.5 128t95.5 75t103.5 47.5t102 35.5t96.5 49t81 78.5q7 -42 32 -72.5t59 -46.5t75 -34t79 -35t71.5 -49.5t53 -78.5 t22.5 -120.5t-19 -175.5q-46 -214 -139 -319t-223 -105q-105 0 -218 61q-141 -63 -239 -63q-130 0 -178 106t-2 322zM358 719q-55 -264 78 -264q68 0 172 63q103 -61 166 -61q62 0 103.5 61t70.5 199q21 88 15 145t-25 83.5t-50 44.5t-60 27t-55.5 32.5t-37.5 60.5 q-29 -37 -66.5 -61t-70.5 -33t-69.5 -27.5t-66.5 -44t-57.5 -82.5t-46.5 -143z" />
<glyph horiz-adv-x="1185" d="M-131 -139l33 159h497q-34 40 -18 107q11 56 55 108.5t115 83.5q-28 -43 -37 -94q-18 -86 16 -145.5t115 -59.5h442l-34 -159h-1184zM133 715q24 113 64 195t87.5 127.5t100.5 75t107.5 48t103 36.5t93.5 50t73 80q14 -47 49 -79.5t75.5 -48t87 -36.5t83.5 -46t64 -76 t29.5 -126.5t-20.5 -197.5q-46 -215 -140 -321.5t-222 -106.5q-96 0 -213 63q-137 -61 -242 -61q-130 0 -178 105t-2 319z" />
<glyph horiz-adv-x="1646" d="M55 584q52 23 92.5 64.5t67.5 86.5t56 94.5t68 93.5t92.5 80t140.5 57t202 21q214 0 305 -71t64 -199q-20 -98 -111 -227q32 -133 12 -228q-27 -130 -147 -201t-334 -71q-89 0 -156 14t-106.5 38.5t-66 57t-38.5 69.5t-19.5 75.5t-14 76t-17 70t-33 59t-57.5 40.5z M274 584q33 -19 49.5 -50.5t18.5 -63t13 -65t31 -58.5t74.5 -41.5t141.5 -16.5q138 0 205.5 28.5t81.5 90.5q12 69 -25 176q88 102 101 159q12 64 -45.5 99t-192.5 35q-102 0 -167.5 -21t-97.5 -56t-53 -72t-54 -78t-81 -66zM1063 586q49 -17 94 -17q86 0 155 47t87 129 l94 443h158l-252 -1188h-158l105 498q-51 -41 -115 -41q-56 0 -102.5 32.5t-65.5 96.5z" />
<glyph horiz-adv-x="1646" d="M59 604q52 17 92 55t68 83t57.5 95.5t69.5 97.5t93.5 85t140.5 61t200 23q214 0 304 -71.5t63 -201.5q-20 -96 -111 -227q35 -130 15 -227q-29 -130 -149.5 -200.5t-334.5 -70.5q-115 0 -193 21t-116.5 57t-58.5 80t-28 93.5t-16 94.5t-31 86.5t-65 65.5zM1067 602 q45 63 105 95t116 32q67 0 98 -39l107 498h158l-252 -1188h-158l92 442q18 81 -32 127.5t-136 46.5q-52 0 -98 -14z" />
<glyph horiz-adv-x="1646" d="M43 2l252 1186h160l-95 -443q-18 -81 32 -127.5t136 -46.5q49 0 99 17q-47 -64 -106 -96.5t-115 -32.5q-69 0 -99 41l-104 -498h-160zM545 356q19 90 110 230q-31 132 -12 227q27 128 148 199t337 71q114 0 192 -21t116 -57t58 -80t27.5 -93.5t15.5 -94.5t30.5 -86 t64.5 -65q-41 -14 -74.5 -40.5t-57 -59t-46.5 -70t-46.5 -76t-51.5 -75.5t-68 -69.5t-90.5 -57t-123 -38.5t-161.5 -14q-216 0 -305.5 70t-62.5 200zM725 408q-12 -61 43 -89t193 -28q87 0 148.5 16.5t92.5 41.5t56 58.5t40.5 65t45.5 63t71 50.5q-28 18 -43.5 45t-21 53.5 t-10.5 55t-17.5 53t-37 44.5t-74.5 31t-124 11q-266 0 -292 -134q-16 -70 28 -159q-86 -119 -98 -178z" />
<glyph horiz-adv-x="1646" d="M43 2l252 1186h160l-107 -498q47 41 115 41q56 0 101.5 -32.5t64.5 -96.5q-39 16 -90 16q-86 0 -155.5 -46.5t-86.5 -127.5l-94 -442h-160zM551 379q19 95 108 225q-32 134 -12 230q27 130 147 201t336 71q113 0 190 -23t114.5 -61t57.5 -85t27.5 -98t16.5 -96t33 -83 t67 -56q-52 -24 -92 -65t-67 -86t-55.5 -95t-67 -94t-91.5 -80t-140 -57t-201 -21q-216 0 -308 71.5t-63 201.5z" />
<glyph horiz-adv-x="1564" d="M132 419q1 128 38 304q37 174 90 300.5t121.5 211t161.5 135t199.5 71.5t246.5 21t238 -21t170 -71.5t104.5 -135t32.5 -211t-37 -300.5q-37 -176 -90.5 -304t-122.5 -214.5t-162 -138t-200.5 -73.5t-247.5 -22q-139 0 -237 22t-169.5 73.5t-104 138t-31.5 214.5z M417 504.5q-5 -95.5 11 -160.5t55.5 -104.5t95.5 -56.5t136 -17q100 0 175 27.5t138 92t109 173.5t80 270q27 127 31 219.5t-12.5 153.5t-56.5 97.5t-95.5 51.5t-135.5 15q-101 0 -175 -24t-137 -84.5t-108.5 -165.5t-78.5 -263q-27 -129 -32 -224.5zM566 517q6 82 34 212 q23 107 46.5 178.5t48.5 118t59.5 70.5t71.5 32.5t92 8.5q47 0 77.5 -5.5t55.5 -21.5t35.5 -44t13 -74t-6.5 -109.5t-28 -153.5q-37 -174 -79 -265t-98 -127t-147 -36q-67 0 -105.5 18.5t-57 67t-12.5 130.5z" />
<glyph horiz-adv-x="1564" d="M132 419q1 128 38 304q37 174 90 300.5t121.5 211t161.5 135t199.5 71.5t246.5 21t238 -21t170 -71.5t104.5 -135t32.5 -211t-37 -300.5q-37 -176 -90.5 -304t-122.5 -214.5t-162 -138t-200.5 -73.5t-247.5 -22q-139 0 -237 22t-169.5 73.5t-104 138t-31.5 214.5z M584 1098l20 -119l258 106l-188 -890h151l232 1093z" />
<glyph horiz-adv-x="1564" d="M132 419q1 128 38 304q37 174 90 300.5t121.5 211t161.5 135t199.5 71.5t246.5 21t238 -21t170 -71.5t104.5 -135t32.5 -211t-37 -300.5q-37 -176 -90.5 -304t-122.5 -214.5t-162 -138t-200.5 -73.5t-247.5 -22q-139 0 -237 22t-169.5 73.5t-104 138t-31.5 214.5z M328 190h737l29 132h-537q210 130 330 213t196 157.5t106 133t48 143.5q36 166 -41 233.5t-278 67.5q-167 0 -320 -45l4 -131q43 17 126 28t153 11q126 0 170.5 -37.5t23.5 -137.5q-10 -48 -20.5 -77t-41.5 -71t-71 -77.5t-125.5 -100.5t-188 -135.5t-274.5 -185.5z" />
<glyph horiz-adv-x="1564" d="M132 419q1 128 38 304q37 174 90 300.5t121.5 211t161.5 135t199.5 71.5t246.5 21t238 -21t170 -71.5t104.5 -135t32.5 -211t-37 -300.5q-37 -176 -90.5 -304t-122.5 -214.5t-162 -138t-200.5 -73.5t-247.5 -22q-139 0 -237 22t-169.5 73.5t-104 138t-31.5 214.5z M352 209q168 -43 326 -43q222 0 334.5 69.5t148.5 239.5q15 77 10 137t-54 97.5t-142 42.5q69 5 118 26t79 57.5t46.5 76t28.5 94.5q19 92 -5.5 147.5t-105 84t-225.5 28.5q-134 0 -333 -39l4 -129q116 35 282 35q148 0 193 -33.5t26 -120.5q-20 -92 -77 -130t-175 -38h-133 l-28 -129h135q130 0 173.5 -43t20.5 -150q-22 -107 -85.5 -147.5t-225.5 -40.5q-172 0 -278 33z" />
<glyph horiz-adv-x="1564" d="M132 419q1 128 38 304q37 174 90 300.5t121.5 211t161.5 135t199.5 71.5t246.5 21t238 -21t170 -71.5t104.5 -135t32.5 -211t-37 -300.5q-37 -176 -90.5 -304t-122.5 -214.5t-162 -138t-200.5 -73.5t-247.5 -22q-139 0 -237 22t-169.5 73.5t-104 138t-31.5 214.5z M336 477h530l-61 -291h147l62 291h145l27 125h-146l136 639h-218q-141 -147 -317 -355.5t-297 -367.5zM555 602q79 104 210.5 258.5t238.5 261.5l-111 -520h-338z" />
<glyph horiz-adv-x="1564" d="M132 419q1 128 38 304q37 174 90 300.5t121.5 211t161.5 135t199.5 71.5t246.5 21t238 -21t170 -71.5t104.5 -135t32.5 -211t-37 -300.5q-37 -176 -90.5 -304t-122.5 -214.5t-162 -138t-200.5 -73.5t-247.5 -22q-139 0 -237 22t-169.5 73.5t-104 138t-31.5 214.5z M358 205q144 -43 308 -43q223 0 333.5 74t149.5 264q26 115 4.5 187t-97.5 105t-222 33q-89 0 -152 -8l61 285h478l28 133h-622l-121 -563q114 24 274 24q102 0 150 -19t60 -65.5t-7 -124.5q-16 -74 -46 -113t-91 -58t-170 -19q-160 0 -258 33z" />
<glyph horiz-adv-x="1564" d="M132 419q1 128 38 304q37 174 90 300.5t121.5 211t161.5 135t199.5 71.5t246.5 21t238 -21t170 -71.5t104.5 -135t32.5 -211t-37 -300.5q-37 -176 -90.5 -304t-122.5 -214.5t-162 -138t-200.5 -73.5t-247.5 -22q-139 0 -237 22t-169.5 73.5t-104 138t-31.5 214.5z M398.5 452.5q-1.5 -105.5 34 -170t103.5 -90.5t181 -26q210 0 314.5 74t144.5 264q37 176 -33 250.5t-285 74.5q-142 0 -246 -22q27 104 60 168.5t82 97.5t102.5 44t138.5 11q147 0 234 -38l65 135q-128 41 -272 41q-127 0 -216.5 -24.5t-163.5 -86t-124 -167.5t-84 -267 q-34 -163 -35.5 -268.5zM563.5 518.5q3.5 66.5 22.5 161.5q110 20 233 20q142 0 181 -44t14 -164q-24 -108 -79 -149.5t-190 -41.5q-51 0 -84.5 9t-58.5 33t-33.5 66.5t-5 109z" />
<glyph horiz-adv-x="1564" d="M132 419q1 128 38 304q37 174 90 300.5t121.5 211t161.5 135t199.5 71.5t246.5 21t238 -21t170 -71.5t104.5 -135t32.5 -211t-37 -300.5q-37 -176 -90.5 -304t-122.5 -214.5t-162 -138t-200.5 -73.5t-247.5 -22q-139 0 -237 22t-169.5 73.5t-104 138t-31.5 214.5z M518 186h158q333 577 684 1055h-785l-28 -135h565q-147 -203 -312 -456.5t-282 -463.5z" />
<glyph horiz-adv-x="1564" d="M132 419q1 128 38 304q37 174 90 300.5t121.5 211t161.5 135t199.5 71.5t246.5 21t238 -21t170 -71.5t104.5 -135t32.5 -211t-37 -300.5q-37 -176 -90.5 -304t-122.5 -214.5t-162 -138t-200.5 -73.5t-247.5 -22q-139 0 -237 22t-169.5 73.5t-104 138t-31.5 214.5z M395 475q-36 -169 40 -239t280 -70q202 0 307 70t141 239q15 57 13 106t-19 85.5t-61.5 59t-116.5 26.5q69 5 118.5 26t79.5 57.5t47 76t29 94.5q28 136 -40.5 198t-264.5 62q-198 0 -292.5 -62t-123.5 -198q-12 -55 -12 -94.5t14.5 -76t56 -57.5t109.5 -26 q-74 -4 -128.5 -25.5t-89 -60.5t-54.5 -84t-33 -107zM557 485q23 109 84 155t184 46t164.5 -46t18.5 -155q-24 -107 -81.5 -149.5t-185.5 -42.5q-129 0 -168.5 42.5t-15.5 149.5zM684 983q17 86 70 121t168 35q113 0 150 -34.5t20 -121.5q-22 -95 -77.5 -135.5t-164.5 -40.5 t-148.5 40.5t-17.5 135.5z" />
<glyph horiz-adv-x="1564" d="M131 418.5q1 128.5 39 304.5q37 174 90 300.5t121.5 211t161.5 135t199.5 71.5t246.5 21t238 -21t170 -71.5t104.5 -135t32.5 -211t-37 -300.5q-38 -176 -92 -304.5t-122.5 -215t-162 -138t-200 -73t-246.5 -21.5t-238.5 21.5t-170 73t-103.5 138t-31 215zM487 918 q-38 -175 32 -242.5t288 -67.5q69 0 174 10q-75 -105 -190 -208t-273 -220h199q79 60 142 114t132 126t119.5 142t91.5 156.5t60 176.5q19 89 19.5 150t-16.5 104t-60 66.5t-104.5 34t-154.5 10.5q-207 0 -312.5 -80t-146.5 -272zM649 930q16 74 42 117t81.5 67.5 t147.5 24.5q56 0 89 -4.5t60.5 -19t37 -42.5t9 -73.5t-15.5 -114.5q-12 -68 -47 -133q-112 -17 -209 -17q-144 0 -182 38t-13 157z" />
<glyph horiz-adv-x="2199" d="M20 27l82 163q51 -23 141.5 -39t170.5 -16q123 0 182 31.5t80 128.5q16 71 -27.5 105t-179.5 46q-188 16 -264 79t-45 208q38 184 161 259t336 75q146 0 312.5 -21.5t298.5 -56.5q90 35 218.5 56.5t233.5 21.5q103 0 175 -16t124 -53.5t75 -100.5t22.5 -155.5 t-27.5 -219.5q-33 -157 -85 -264.5t-125.5 -170t-162 -89.5t-205.5 -27q-161 0 -251 74l-93 -438h-192l256 1210q-145 39 -311 62.5t-302 23.5q-123 0 -180.5 -29t-77.5 -124q-14 -65 31.5 -95.5t175.5 -42.5q195 -17 267.5 -86.5t42.5 -216.5q-40 -187 -160 -262.5 t-334 -75.5q-84 0 -190 15.5t-173 40.5zM1307 266q-12 -58 50.5 -91.5t166.5 -33.5q82 0 137 16.5t98 60t72 115t53 185.5q26 121 28 194t-24.5 114t-73.5 55t-131 14q-145 0 -249 -37z" />
<glyph horiz-adv-x="1921" d="M102 280.5q3 113.5 35 262.5q37 177 95.5 305t136 213.5t185.5 136t231.5 71.5t287.5 21q88 0 152.5 -7.5t115 -26t81 -48t46 -74t13.5 -104.5t-19 -139l-131 -612q-94 -37 -221.5 -59.5t-232.5 -22.5q-79 0 -136.5 6.5t-103 22.5t-72.5 41.5t-41 64t-12.5 90.5t16.5 121 q18 87 51.5 150t74 99t98 57t111.5 27.5t128 6.5q122 0 277 -31q12 57 15.5 95.5t-2 70.5t-21.5 50.5t-48 31.5t-75.5 17.5t-108.5 4.5q-118 0 -200 -8.5t-155 -32.5t-121.5 -63.5t-91 -106t-72 -154.5t-56.5 -214q-26 -122 -32.5 -209.5t10.5 -154.5t54.5 -108.5 t106.5 -67.5t158.5 -36t218.5 -10q131 0 228 11t178 38t137.5 69.5t102 109.5t76.5 153t56 205q50 230 29 350h184q15 -137 -31 -350q-38 -180 -97 -309t-138.5 -216t-194 -138t-249.5 -72t-318 -21q-150 0 -261 14.5t-199.5 49.5t-142 91.5t-81.5 140.5t-25 197.5zM731 553 q-24 -112 16.5 -155.5t172.5 -43.5q136 0 251 41l66 318q-103 20 -225 20q-65 0 -105 -5.5t-78.5 -23.5t-61.5 -55t-36 -96z" />
<glyph horiz-adv-x="1523" d="M122 225.5q-12 70.5 11 163.5q17 82 45 144t75.5 114t121.5 81.5t174 33.5q-73 7 -122 27.5t-74.5 49.5t-34.5 72.5t-6 87.5t16 103q38 184 174.5 272t386.5 88q157 0 305 -51l-98 -178q-96 45 -230 45q-158 0 -229.5 -46.5t-95.5 -160.5q-26 -122 24.5 -174.5 t194.5 -52.5h346l41 194l215 78l-57 -272h276l-37 -174h-276l-129 -609q-104 -40 -261 -65t-284 -25q-105 0 -185 13.5t-143.5 43.5t-97.5 78.5t-46 119zM362 410q-29 -140 35.5 -197t251.5 -57q197 0 318 37l102 477h-352q-162 0 -243.5 -58t-111.5 -202z" />
<glyph horiz-adv-x="718" d="M14 -295l344 1620h482l-37 -170h-279l-272 -1282h278l-34 -168h-482z" />
<glyph horiz-adv-x="970" d="M100.5 335.5q2.5 83.5 24.5 188.5q33 156 89.5 263.5t137 168t174 86t215.5 25.5q72 0 156 -14t137 -35l-84 -158q-89 45 -233 45q-120 0 -194 -36t-124 -132h426l-26 -129h-449q-13 -42 -22 -88q-2 -13 -7 -38.5t-6 -37.5h449l-29 -129h-426q6 -101 65.5 -140.5 t180.5 -39.5q138 0 250 47l18 -155q-62 -25 -151 -40.5t-162 -15.5q-81 0 -144 11.5t-115 37t-85 68.5t-50.5 103.5t-15 144z" />
<glyph horiz-adv-x="1050" d="M70 432l32 152h109l29 133q75 350 530 350q195 0 332 -45l-80 -162q-43 17 -126.5 28t-160.5 11q-144 0 -213.5 -48t-91.5 -153l-24 -114h311l-33 -152h-311l-56 -264h572l-35 -168h-766l90 432h-108z" />
<glyph horiz-adv-x="983" d="M51 211l25 111h289l28 133h-289l23 112h227q-122 244 -268 471h227q75 -114 222 -401q163 154 378 401h217q-220 -243 -454 -471h209l-23 -112h-276l-29 -133h277l-25 -111h-277l-43 -211h-192l43 211h-289z" />
<glyph horiz-adv-x="1132" d="M103 303q1 94 28 221q33 157 84 263.5t122.5 167.5t155 86.5t195.5 25.5q89 0 153.5 -15.5t112.5 -53.5t70 -99.5t21.5 -155t-27.5 -219.5q-33 -158 -84 -266t-122.5 -170.5t-156.5 -89.5t-198 -27q-89 0 -153 16.5t-111 55.5t-69 102.5t-21 157.5zM306.5 328.5 q-2.5 -74.5 18.5 -117.5t60.5 -59.5t106.5 -16.5q90 0 146 31.5t98 115t75 238.5q21 98 26.5 165t-2 110.5t-33 67t-60 32t-89.5 8.5q-68 0 -112.5 -14t-84 -55t-68 -116.5t-54.5 -197.5q-25 -117 -27.5 -191.5z" />
<glyph horiz-adv-x="1132" d="M256 811l629 256l-226 -1067h-194l170 805l-352 -156z" />
<glyph horiz-adv-x="1132" d="M31 0l30 150q170 95 278.5 157.5t194 117t129.5 88.5t75 71t42.5 64t20.5 69q19 93 -28 131.5t-189 38.5q-70 0 -167 -14.5t-145 -34.5l-8 186q76 19 183.5 31t195.5 12q246 0 333 -77.5t50 -250.5q-16 -78 -51.5 -139t-111 -129.5t-197.5 -141t-310 -165.5h559l-34 -164 h-850z" />
<glyph horiz-adv-x="1132" d="M29 264l14 66q119 140 308.5 342.5t355.5 365.5h282l-129 -612h195l-35 -162h-195l-55 -264h-192l55 264h-604zM319 426h349l98 469q-254 -251 -447 -469z" />
<glyph horiz-adv-x="1132" d="M27 12l77 164q54 -18 147.5 -28.5t172.5 -10.5q164 0 241 37.5t97 128.5q22 101 -33 142.5t-209 41.5q-188 0 -332 -24l121 575h766l-35 -168h-571l-51 -241q98 8 178 8q234 0 319 -77t48 -251q-40 -189 -173.5 -263.5t-392.5 -74.5q-246 0 -370 41z" />
<glyph horiz-adv-x="1132" d="M105.5 294q1.5 95 29.5 228q33 155 90.5 261.5t143 168.5t189.5 88.5t243 26.5q167 0 329 -47l-81 -166q-130 45 -281 45q-99 0 -162.5 -11t-116.5 -42.5t-85.5 -87.5t-55.5 -146q171 25 303 25q238 0 320.5 -75t44.5 -259q-40 -187 -161.5 -259.5t-362.5 -72.5 q-102 0 -172 15t-121 51t-73 99t-20.5 158zM300 321q0 -61 13 -98.5t44.5 -58.5t69 -28t93.5 -7q104 0 164 18.5t88.5 55t42.5 104.5q23 109 -21.5 147t-199.5 38q-149 0 -277 -23q-17 -87 -17 -148z" />
<glyph horiz-adv-x="1132" d="M195 0q150 226 333.5 463t333.5 403h-667l36 172h949l-9 -45q-187 -199 -390.5 -470t-362.5 -523h-223z" />
<glyph horiz-adv-x="1132" d="M41 279q27 123 106 195t232 79q-72 6 -118.5 27.5t-65.5 55t-22.5 77.5t9.5 94q20 93 73.5 149t158 83.5t274.5 27.5t262.5 -27.5t122.5 -83.5t10 -149q-24 -113 -91.5 -178t-211.5 -76q150 -7 198 -79t21 -195q-36 -173 -160 -240.5t-382 -67.5t-355 67.5t-61 240.5z M248 307q-21 -100 29 -137t212 -37q164 0 231 37.5t87 136.5q21 93 -37.5 131.5t-206.5 38.5q-146 0 -220 -38.5t-95 -131.5zM371 774q-17 -79 35.5 -109t189.5 -30q138 0 205 30t84 109q15 76 -33.5 105.5t-196.5 29.5q-146 0 -207.5 -29.5t-76.5 -105.5z" />
<glyph horiz-adv-x="1132" d="M143 719q39 188 166 269t373 81q263 0 351.5 -92.5t41.5 -314.5q-15 -71 -46 -136.5t-80.5 -126t-97.5 -109t-122 -105t-126.5 -93t-137.5 -92.5h-272q186 115 349 234t206 174q-185 -21 -246 -21q-236 0 -316.5 74.5t-42.5 257.5zM336.5 654.5q-1.5 -25.5 5 -45.5 t21.5 -31.5t43.5 -19.5t66 -10.5t94.5 -2.5q108 0 256 20q36 50 49 101q29 137 -20.5 191t-198.5 54q-108 0 -172 -22.5t-92.5 -62t-42.5 -109.5q-8 -37 -9.5 -62.5z" />
<glyph horiz-adv-x="1132" d="M37 12l82 174q113 -45 303 -45q116 0 181.5 16.5t98 52.5t46.5 103q20 91 -34.5 128.5t-201.5 37.5h-156l33 154h156q137 0 200 28.5t80 104.5q15 73 -34.5 103t-200.5 30q-183 0 -320 -43l-8 170q164 41 365 41q253 0 346 -61t63 -199q-24 -112 -94.5 -177.5 t-216.5 -76.5q78 -4 129.5 -26t74 -58.5t27.5 -85t-10 -104.5q-36 -172 -165.5 -240t-391.5 -68q-212 0 -352 41z" />
<glyph horiz-adv-x="874" d="M104 1038h220l456 -1038h-217z" />
<glyph horiz-adv-x="874" d="M-117 0l895 1038h221l-899 -1038h-217z" />
<glyph horiz-adv-x="698" d="M84 -276l338 1587h207l-338 -1587h-207z" />
<glyph horiz-adv-x="718" d="M-106 -295l32 168h279l272 1282h-278l37 170h481l-344 -1620h-479z" />
<glyph horiz-adv-x="911" d="M121 530q40 187 136.5 275t250.5 104l33 158h125l-33 -154q106 -7 184 -36l-69 -129q-47 24 -144 32l-106 -506q77 7 157 35l15 -127q-83 -34 -201 -41l-35 -170h-125l37 174q-149 18 -207.5 106.5t-17.5 278.5zM284.5 353.5q22.5 -55.5 90.5 -66.5l102 483 q-73 -11 -119.5 -67.5t-72.5 -174.5q-23 -119 -0.5 -174.5z" />
<glyph horiz-adv-x="1073" d="M102 369v397q0 59 7.5 100t27.5 73t50 51t81 31t114 16.5t155 4.5q138 0 217.5 -10.5t130.5 -42.5t68.5 -83.5t17.5 -139.5v-397h-193v391q0 58 -13 77.5t-58 20.5v-1251h-156v762h-27v-762h-155v1251q-45 -1 -59.5 -20.5t-14.5 -77.5v-391h-193zM319 1294q0 60 10 95.5 t37.5 55t65.5 26t105 6.5q125 0 168 -34t43 -149q0 -67 -10 -107t-36.5 -62.5t-63.5 -30t-101 -7.5q-66 0 -104.5 7.5t-66 30t-37.5 62.5t-10 107z" />
<glyph horiz-adv-x="1073" d="M41 -393q260 569 369 762v489q-74 -1 -94.5 -20t-20.5 -78v-391h-152v397q0 71 11.5 117t36.5 78.5t73.5 49.5t111.5 24t161 7q97 0 160.5 -7t111.5 -24.5t73 -50t36.5 -78.5t11.5 -116v-397h-152v391q0 59 -20 78t-94 20v-489q214 -496 368 -762h-991zM319 1294 q0 60 10 95.5t37.5 55t65.5 26t105 6.5q125 0 168 -34t43 -149q0 -67 -10 -107t-36.5 -62.5t-63.5 -30t-101 -7.5q-66 0 -104.5 7.5t-66 30t-37.5 62.5t-10 107z" />
<glyph horiz-adv-x="2594" d="M45 -303l37 158q53 0 96 10.5t85 36.5t75 69.5t61 112t47 160.5l134 630q-80 0 -153.5 -85t-107.5 -271h-167q25 100 50.5 174t64 143t85 112.5t112.5 69t148 25.5h301q12 -54 49 -115t91 -116.5t131.5 -92t158.5 -36.5l-28 -164q-150 0 -274 75.5t-181 203.5l-100 -469 q84 -2 150 -23t116.5 -66t76.5 -113t26.5 -168.5t-29.5 -227.5h-172q43 163 29.5 263t-93.5 144.5t-248 44.5q-75 -261 -208 -373t-363 -112zM717 1294q0 60 10 95.5t37 55.5t65 26t105 6q128 0 174 -36.5t22 -146.5l-45 -207h-151q-66 0 -104.5 7.5t-65.5 30t-37 62.5 t-10 107zM1419 518l27 164h768l-334 326l111 116l559 -524l-559 -524l-111 117l334 325h-795z" />
<glyph horiz-adv-x="1746" d="M31 0l407 414v352q0 145 58 203l-457 458h272l383 -391q76 6 178 6q112 0 177 -8l387 393h272l-459 -460q58 -55 58 -201v-350l409 -416h-254l-440 440v-833h-135v762h-27v-762h-135v833l-440 -440h-254zM631 610l94 97v32l-86 84q-8 -14 -8 -63v-150zM655 1294 q0 60 10 95.5t37 55.5t65 26t105 6q125 0 168 -34t43 -149q0 -67 -10 -107t-36.5 -62.5t-63.5 -30t-101 -7.5q-66 0 -104.5 7.5t-65.5 30t-37 62.5t-10 107zM1022 707l92 -95v148q0 44 -8 63l-84 -84v-32z" />
<glyph horiz-adv-x="2594" d="M45 600l559 -524l111 117l-334 325h795l-27 164h-768l334 326l-111 116zM1251 682l29 -164q150 0 274 75.5t181 203.5l100 -469q-84 -2 -150 -23t-116.5 -66t-76.5 -113t-26.5 -168.5t29.5 -227.5h172q-43 163 -30 263t93 144.5t248 44.5q75 -261 208.5 -373t363.5 -112 l-37 158q-67 0 -119.5 17.5t-100.5 59.5t-84.5 120t-60.5 192l-133 630q80 0 153 -85t107 -271h168q-25 100 -50.5 174t-64 143t-85.5 112.5t-113 69t-148 25.5h-301q-12 -54 -49 -115t-91 -116.5t-131.5 -92t-158.5 -36.5zM1464 1294l45 -207h152q66 0 104.5 7.5t65.5 30 t37 62.5t10 107q0 60 -10 95.5t-37 55.5t-65 26t-105 6q-128 0 -174.5 -36.5t-22.5 -146.5z" />
<glyph horiz-adv-x="1400" d="M61 -268v1644q0 115 43 149t168 34h856q125 0 168 -34t43 -149v-1644q0 -67 -10 -107t-36.5 -62.5t-63.5 -30t-101 -7.5h-856q-64 0 -101 7.5t-63.5 30t-36.5 62.5t-10 107zM268 369h193v391q0 58 14.5 77.5t59.5 20.5v-1251h155v762h27v-762h155v1251q45 -1 58.5 -20.5 t13.5 -77.5v-391h193v397q0 88 -17.5 139.5t-69 83.5t-131 42.5t-217.5 10.5q-92 0 -155 -4.5t-114 -16.5t-80.5 -31t-49.5 -51t-27.5 -73t-7.5 -100v-397zM485 1294q0 -67 10 -107t37 -62.5t65.5 -30t104.5 -7.5q64 0 101 7.5t63.5 30t36.5 62.5t10 107q0 115 -43 149 t-168 34q-67 0 -105 -6t-65 -26t-37 -55.5t-10 -95.5z" />
<glyph horiz-adv-x="1400" d="M61 -268v1644q0 115 43 149t168 34h856q125 0 168 -34t43 -149v-1644q0 -67 -10 -107t-36.5 -62.5t-63.5 -30t-101 -7.5h-856q-64 0 -101 7.5t-63.5 30t-36.5 62.5t-10 107zM207 -393h991q-158 273 -369 762v489q74 -1 94.5 -20t20.5 -78v-391h152v397q0 70 -11.5 116 t-37 78.5t-73 50t-111.5 24.5t-161 7q-122 0 -193.5 -10.5t-119 -42t-64 -83.5t-16.5 -140v-397h152v391q0 59 20 78t94 20v-489q-103 -184 -368 -762zM485 1294q0 -67 10 -107t37 -62.5t65.5 -30t104.5 -7.5q64 0 101 7.5t63.5 30t36.5 62.5t10 107q0 115 -43 149t-168 34 q-67 0 -105 -6t-65 -26t-37 -55.5t-10 -95.5z" />
<glyph horiz-adv-x="2811" d="M61 -268v1644q0 115 43 149t168 34h2268q125 0 167.5 -34t42.5 -149v-1644q0 -67 -9.5 -107t-36 -62.5t-63.5 -30t-101 -7.5h-2268q-64 0 -101 7.5t-63.5 30t-36.5 62.5t-10 107zM166 -303q230 0 363 112t208 373q168 0 248 -44.5t93.5 -144.5t-29.5 -263h172 q30 127 29.5 227.5t-26.5 168.5t-76.5 113t-116.5 66t-150 23l100 469q57 -128 181 -203.5t274 -75.5l28 164q-81 0 -158.5 36.5t-131.5 92t-91 116.5t-49 115h-301q-82 0 -148 -25.5t-113 -69t-85.5 -112.5t-64 -143t-50.5 -174h168q34 186 107 271t153 85l-133 -630 q-19 -92 -47 -160.5t-61 -112t-75 -69.5t-85 -36.5t-96 -10.5zM838 1294q0 -67 10 -107t37 -62.5t65.5 -30t104.5 -7.5h151l45 207q24 110 -22 146.5t-174 36.5q-67 0 -105 -6t-65 -26t-37 -55.5t-10 -95.5zM1540 518h795l-334 -325l110 -117l560 524l-560 524l-110 -116 l334 -326h-768z" />
<glyph horiz-adv-x="2811" d="M61 -268q0 -67 10 -107t36.5 -62.5t63.5 -30t101 -7.5h2268q64 0 101 7.5t63.5 30t36 62.5t9.5 107v1644q0 115 -42.5 149t-167.5 34h-2268q-125 0 -168 -34t-43 -149v-1644zM141 600l559 524l111 -116l-334 -326h768l27 -164h-795l334 -325l-111 -117zM1348 682 q81 0 158.5 36.5t131.5 92t91 116.5t49 115h301q82 0 148 -25.5t113 -69t85.5 -112.5t64 -143t50.5 -174h-168q-34 186 -107.5 271t-153.5 85l134 -630q19 -92 47 -160.5t61 -112t75 -69.5t85 -36.5t96 -10.5l37 -158q-230 0 -363 112t-208 373q-168 0 -248 -44.5 t-93.5 -144.5t29.5 -263h-172q-30 127 -29.5 227.5t26.5 168.5t76.5 113t116.5 66t150 23l-100 469q-57 -128 -181 -203.5t-274 -75.5zM1561 1294q-24 110 22 146.5t174 36.5q67 0 105 -6t65 -26t37 -55.5t10 -95.5q0 -67 -10 -107t-37 -62.5t-65.5 -30t-104.5 -7.5h-151z " />
<glyph horiz-adv-x="1966" d="M61 -268v1644q0 115 43 149t168 34h1422q125 0 168 -34t43 -149v-1644q0 -67 -10 -107t-36.5 -62.5t-63.5 -30t-101 -7.5h-1422q-64 0 -101 7.5t-63.5 30t-36.5 62.5t-10 107zM139 0h254l441 440v-833h135v762h26v-762h135v833l441 -440h254l-410 416v350q0 147 -57 201 l459 460h-273l-387 -393q-65 8 -176 8q-102 0 -178 -6l-383 391h-273l457 -458q-57 -57 -57 -203v-352zM739 610v150q0 47 9 63l86 -84v-32zM764 1294q0 -67 10 -107t37 -62.5t65.5 -30t104.5 -7.5q64 0 101 7.5t63.5 30t36.5 62.5t10 107q0 115 -43 149t-168 34 q-67 0 -105 -6t-65 -26t-37 -55.5t-10 -95.5zM1130 707v32l84 84q9 -21 9 -63v-148z" />
<glyph horiz-adv-x="2187" d="M350 684h94l41 -260h602l43 260h95l-174 -1077h-527zM502 332l39 -250h200v250h-239zM557 -10l47 -291h137v291h-184zM608 709q0 19 14.5 43.5t31.5 43t32 33.5l16 15q85 -94 328 -94l-170 -250q-46 4 -93.5 28.5t-81.5 57.5t-55.5 67t-21.5 56zM612 1042l29 -163h743 l119 -510l-123 -762h136l122 762h27v-762h135v762l-155 673h-1033zM834 -10v-291h137l47 291h-184zM834 82h198l41 250h-239v-250zM1204 1294l45 -207h152q66 0 104.5 7.5t65.5 30t37 62.5t10 107q0 60 -10 95.5t-37 55.5t-65 26t-105 6q-128 0 -174.5 -36.5t-22.5 -146.5z " />
<glyph horiz-adv-x="2187" d="M61 524q0 210 82 401t220.5 329t329.5 220t401 82t401 -82t329 -220t220 -329t82 -401t-82 -401t-220 -329t-329 -220t-401 -82t-401 82t-329.5 220t-220.5 329t-82 401zM100 524q0 -196 74 -373.5t205 -312.5q-80 86 -135.5 189t-82.5 211t-21.5 218.5t41 212.5 t112.5 193t185 160.5t266 113t350 52.5v325q-201 0 -384.5 -78t-317 -210.5t-213 -316t-79.5 -384.5zM475 111q137 -183 280.5 -317.5t338.5 -260.5v326q235 11 418.5 74t292 161.5t174.5 222.5t66.5 259t-32.5 269t-120.5 254t-200 212.5t-269 147t-329.5 54.5 q195 -126 338 -260t280 -317q-286 -368 -618 -578v330q-336 -212 -619 -577zM963 -459q86 -8 129 -8q-43 0 -129 8z" />
<glyph horiz-adv-x="2187" d="M172 -205v1501q0 104 43 135t168 31h1421q125 0 168 -31t43 -135v-1501q0 -118 -43 -153t-168 -35h-1421q-125 0 -168 35t-43 153zM236 -172q0 -39 1.5 -63t9 -43t16.5 -28t30 -15.5t43.5 -7.5t62.5 -1h1389q40 0 62.5 1t43.5 7.5t30 15t16 28t8.5 43t1.5 63.5v1434 q0 35 -1.5 56t-9 38t-16 25t-29.5 13t-43 6t-63 1h-1389q-41 0 -63 -1t-43.5 -6t-30 -13t-16 -25t-9 -38t-1.5 -56v-1434zM436 436q58 26 109.5 28.5t88 -10t74 -46t60.5 -64t55 -78.5q-19 51 -34 144.5t-27 180.5t-29.5 171.5t-50.5 139.5t-80 63q70 11 126 -9.5t91 -54 t66 -98t46 -112t36 -126.5q-5 56 3.5 151.5t17.5 180.5t11 170t-19.5 144.5t-70.5 78.5q80 -6 136 -37.5t85 -81.5t44 -109.5t19.5 -129t6.5 -132t9.5 -127.5t23.5 -108q89 197 112 264q56 169 -4 228q66 -33 103 -83t45 -108t1 -120.5t-26 -130t-38 -126.5t-33.5 -119.5 t-14.5 -101.5q0 -8 -4 -24q18 15 50.5 40.5t51.5 40.5t43.5 37.5t36.5 39t22 36.5t7.5 39.5t-14.5 38.5q59 -40 81.5 -85.5t15 -86.5t-32 -89.5t-54 -90t-57 -93.5t-35.5 -94q-3 -35 -37 -59h293v-80h-1284v80h323q-41 18 -70 59t-44.5 90t-28.5 104t-27.5 105t-34.5 89 t-56 59t-87 12zM874 188q51 -72 93 -104q33 -28 9.5 -84t-79.5 -82h379q-50 29 -53 90q-5 87 88 180q-48 -17 -95.5 4t-66.5 84q-13 46 25 148q-27 -15 -56.5 -17.5t-62.5 13t-58 49.5q-1 1 -3 4t-3 4q31 -108 68 -158q11 -15 12.5 -34t-5.5 -37.5t-19.5 -36.5t-32 -29.5 t-41 -17t-48 0t-51.5 23.5z" />
<glyph horiz-adv-x="2187" d="M125 543q0 215 137.5 398t372 289.5t508.5 106.5q227 0 435 -47.5t339 -140.5v-186q-78 10 -191 10q-179 0 -320.5 -46.5t-228.5 -145t-87 -236.5t87 -236t228.5 -144t320.5 -46q113 0 191 10v-188q-133 -92 -341.5 -140.5t-432.5 -48.5q-274 0 -508.5 106.5t-372 289 t-137.5 395.5zM332 127l164 -125v739q0 133 38 177.5t158 44.5q90 0 130 -49.5t40 -168.5t-46 -168t-161 -49q-83 0 -129 37v-135q65 -35 144 -35q174 0 267 86.5t93 266.5q0 176 -91 263t-261 87q-73 0 -133 -17t-109 -54t-76.5 -102t-27.5 -153v-645zM1516 711v149h598 v-149h-197v-492h-205v492h-196z" />
<glyph horiz-adv-x="2187" d="M72 -117q0 61 37 125l815 1411q70 117 174 117q49 0 95 -30t79 -87l807 -1411q37 -59 37 -125q0 -77 -56.5 -125.5t-154.5 -48.5h-1620q-98 0 -155.5 48.5t-57.5 125.5zM973 25q0 -73 26 -96t95 -23q71 0 95.5 22.5t24.5 96.5q0 70 -24 90t-96 20q-70 0 -95.5 -20.5 t-25.5 -89.5zM977 1194l51 -897h129l49 897h-229z" />
<glyph horiz-adv-x="2187" d="M72 -117q0 -77 57.5 -125.5t155.5 -48.5h1620q98 0 154.5 48.5t56.5 125.5q0 66 -37 125l-807 1411q-33 57 -79 87t-95 30q-104 0 -174 -117l-815 -1411q-37 -64 -37 -125zM145 -94q0 42 39 106l785 1356q23 35 31 47t24.5 29t33 21.5t40.5 4.5q44 0 67 -21t62 -81 l776 -1356q41 -62 41 -106q0 -68 -32 -99.5t-111 -31.5h-1612q-79 0 -111.5 31.5t-32.5 99.5zM551 387h387q0 -43 21.5 -78.5t58.5 -58.5l-193 -334q-125 70 -199.5 195.5t-74.5 275.5zM825 856q125 72 269 72q147 0 270 -74l-190 -334q-34 21 -80 21q-42 0 -76 -21z M1174 254q34 21 54.5 56.5t20.5 76.5h387q0 -146 -73.5 -270.5t-196.5 -196.5z" />
<glyph horiz-adv-x="2187" d="M305 518q0 -180 88 -330.5t239 -237.5t331 -87v205q-189 0 -320 131t-131 319t131.5 320.5t319.5 132.5v207q-134 0 -256 -52t-210 -140.5t-140 -210.5t-52 -257zM1214 518q0 -180 88 -330.5t239 -237.5t331 -87v205q-163 0 -286 100t-154 254h378v194h-378 q34 153 156.5 254t283.5 101v207q-134 0 -256 -52t-210 -140.5t-140 -210.5t-52 -257z" />
<glyph horiz-adv-x="2187" d="M82 -190v1165q0 130 60 196t206 66h488v-178h-478q-44 0 -63 -21t-19 -63v-379h480q18 188 119 341t264 241t356 88q231 0 421.5 -130t266.5 -333h-190q-65 140 -198 222.5t-300 82.5q-120 0 -226.5 -48t-180.5 -128t-117 -188t-43 -226q0 -160 72.5 -294.5t203.5 -214 t291 -79.5q166 0 298.5 80.5t197.5 218.5h192q-77 -200 -267.5 -327t-420.5 -127q-194 0 -357 86t-264.5 238t-119.5 341h-478v-630h-194zM1020 518q0 213 133 352.5t342 139.5q173 0 297 -105.5t162 -271.5h-180q-20 97 -97.5 153t-181.5 56q-136 0 -226.5 -93.5 t-90.5 -230.5t90.5 -229t226.5 -92q104 0 181 54t98 150h178q-37 -165 -161 -268.5t-296 -103.5q-209 0 -342 138.5t-133 350.5z" />
<glyph horiz-adv-x="2187" d="M31 516q0 272 21 460t59 230q46 40 302.5 61t680.5 21q429 0 687 -22.5t302 -63.5q30 -30 52 -228t22 -458q0 -269 -21 -459t-57 -229q-44 -39 -306 -62.5t-679 -23.5q-421 0 -683 22.5t-305 61.5q-30 32 -52.5 232t-22.5 458zM113 516q0 -239 16 -424.5t39 -208.5 q81 -67 926 -67q842 0 923 69q28 30 43 205.5t15 425.5q0 235 -15.5 420t-36.5 209q-83 69 -929 69q-838 0 -922 -65q-59 -65 -59 -633zM256 516q0 199 16.5 337.5t46.5 168.5q36 32 245 52t530 20q325 0 535.5 -21.5t242.5 -54.5q24 -21 41.5 -166.5t17.5 -335.5 q0 -201 -16.5 -339t-46.5 -165q-31 -31 -244 -53t-530 -22q-320 0 -532.5 21t-244.5 52q-24 22 -42.5 169t-18.5 337zM334 516q0 -174 14.5 -303.5t36.5 -144.5q31 -25 220 -39.5t489 -14.5q297 0 486.5 15.5t219.5 40.5q51 34 51 446q0 176 -13 303t-34 144q-62 53 -710 53 q-643 0 -705 -53q-55 -35 -55 -447zM549 289v456h80v-362l211 362h94l-279 -456h-106zM961 518q0 141 89 237.5t238 96.5q83 0 148 -39l-29 -65q-49 28 -119 28q-105 0 -175.5 -76.5t-70.5 -181.5q0 -108 70 -184t176 -76q66 0 119 27l29 -64q-76 -39 -148 -39 q-149 0 -238 96.5t-89 239.5zM1122 518q0 76 48.5 129t127.5 53q31 0 72 -18l-24 -61q-18 6 -48 6q-49 0 -72.5 -25.5t-23.5 -83.5q0 -59 23 -82.5t73 -23.5q33 0 45 4l27 -64q-32 -14 -72 -14q-80 0 -128 51.5t-48 128.5zM1534 289v456h76v-456h-76z" />
<glyph horiz-adv-x="2187" d="M393 518q0 190 93.5 351.5t254.5 255.5t351 94q163 0 305 -70.5t239 -192.5q-51 -88 -220 -267t-222 -179q-13 0 -31.5 50t-31 121t-5.5 120q3 23 -15 40t-54 17q-54 0 -117 -60.5t-63 -123.5q0 -84 18 -234t43 -200q26 -53 75.5 -82t98.5 -29q34 0 121.5 75.5t190 186 t186 206.5t139.5 165q43 -121 43 -244q0 -143 -55.5 -272t-149 -222.5t-223 -148.5t-272.5 -55q-190 0 -351 93t-254.5 254t-93.5 351z" />
</font>
</defs>
</svg>
